<?xml version="1.0" standalone="no"?>
<!DOCTYPE svg PUBLIC "-//W3C//DTD SVG 1.1//EN" "http://www.w3.org/Graphics/SVG/1.1/DTD/svg11.dtd" >
<svg xmlns="http://www.w3.org/2000/svg" xmlns:xlink="http://www.w3.org/1999/xlink" version="1.1">
<metadata>
Created by FontForge 20201107 at Fri May 16 13:51:35 2025
 By 
Copyright (c) 2020, 2022, 2023 by The Type Founders, LLC. All rights reserved.
</metadata>
<defs>
<font id="NeulisSans-Regular" horiz-adv-x="0" >
  <font-face 
    font-family="Neulis Sans"
    font-weight="400"
    font-stretch="normal"
    units-per-em="2048"
    panose-1="0 0 0 0 0 0 0 0 0 0"
    ascent="1597"
    descent="-451"
    x-height="1044"
    cap-height="1413"
    bbox="-391 -524 2802 2163"
    underline-thickness="102"
    underline-position="-255"
    unicode-range="U+0020-FB02"
  />
<missing-glyph horiz-adv-x="1024" 
d="M102 -451v2048h820v-2048h-820zM205 -348h614v1843h-614v-1843z" />
    <glyph glyph-name="fi" unicode="fi" horiz-adv-x="1280" 
d="M268 0v885h-190v159h190v119q0 154 90.5 239t257.5 85h125v-162h-108q-88 0 -138.5 -48.5t-50.5 -133.5v-99h281v-159h-281v-885h-176zM1038 1243q-51 0 -83.5 33t-32.5 84q0 50 32.5 83.5t83.5 33.5t84 -33.5t33 -83.5q0 -51 -33 -84t-84 -33zM950 0v1044h176v-1044
h-176z" />
    <glyph glyph-name="fl" unicode="fl" horiz-adv-x="1280" 
d="M268 0v885h-190v159h190v119q0 154 90.5 239t257.5 85h125v-162h-108q-88 0 -138.5 -48.5t-50.5 -133.5v-99h281v-159h-281v-885h-176zM950 0v1475h176v-1475h-176z" />
    <glyph glyph-name=".notdef" horiz-adv-x="1024" 
d="M102 -451v2048h820v-2048h-820zM205 -348h614v1843h-614v-1843z" />
    <glyph glyph-name=".null" 
 />
    <glyph glyph-name="nonmarkingreturn" horiz-adv-x="682" 
 />
    <glyph glyph-name="space" unicode=" " horiz-adv-x="505" 
 />
    <glyph glyph-name="exclam" unicode="!" horiz-adv-x="518" 
d="M178 395l-12 670v348h186v-348l-10 -670h-164zM260 -14q-55 0 -92 36.5t-37 90.5t37 90.5t92 36.5q54 0 90.5 -36.5t36.5 -90.5t-36.5 -90.5t-90.5 -36.5z" />
    <glyph glyph-name="quotedbl" unicode="&#x22;" horiz-adv-x="823" 
d="M532 920l-10 493h174l-10 -493h-154zM137 920l-10 493h174l-10 -493h-154z" />
    <glyph glyph-name="numbersign" unicode="#" horiz-adv-x="1556" 
d="M197 0l112 385h-239v154h284l99 335h-275v154h320l112 385h166l-112 -385h401l113 385h165l-114 -385h239v-154h-284l-99 -335h277v-154h-322l-114 -385h-164l115 385h-402l-115 -385h-163zM520 539h402l98 335h-402z" />
    <glyph glyph-name="dollar" unicode="$" horiz-adv-x="1161" 
d="M522 -141v135q-187 19 -306.5 132.5t-119.5 274.5h191q0 -90 66 -156t169 -81v473q-185 45 -293 145.5t-108 251.5q0 157 113.5 263.5t287.5 121.5v137h117v-137q174 -19 286.5 -127.5t112.5 -261.5h-188q0 81 -59 141.5t-152 77.5v-452q197 -47 310.5 -146.5
t113.5 -257.5q0 -164 -119.5 -274t-304.5 -125v-135h-117zM315 1049q0 -146 207 -218v420q-90 -14 -148.5 -69t-58.5 -133zM870 379q0 152 -231 227v-444q102 14 166.5 73t64.5 144z" />
    <glyph glyph-name="percent" unicode="%" horiz-adv-x="1712" 
d="M430 782q-142 0 -237 94t-95 234t95 234t237 94q141 0 235.5 -94t94.5 -234t-94.5 -234t-235.5 -94zM250 0l1024 1413h190l-1024 -1413h-190zM430 926q77 0 129.5 53t52.5 131t-52.5 131t-129.5 53q-78 0 -130 -53t-52 -131t52 -131t130 -53zM1282 -25
q-141 0 -236.5 94.5t-95.5 233.5t95.5 233.5t236.5 94.5t236.5 -94.5t95.5 -233.5t-95.5 -233.5t-236.5 -94.5zM1282 119q78 0 130 53t52 131t-52 131t-130 53t-130 -53t-52 -131t52 -131t130 -53z" />
    <glyph glyph-name="ampersand" unicode="&#x26;" horiz-adv-x="1277" 
d="M588 -25q-223 0 -367.5 126.5t-144.5 322.5q0 77 22.5 142t65 115.5t89 87.5t107.5 73q-133 178 -133 309q0 121 96.5 204t237.5 83q138 0 235 -83.5t97 -209.5q0 -57 -21.5 -106t-65 -90t-90 -72.5t-114.5 -67.5l354 -436q23 64 23 127v184h166v-184q0 -143 -78 -262
l193 -238h-207l-99 119q-66 -72 -162 -108t-204 -36zM395 1149q0 -49 27.5 -99.5t87.5 -127.5q106 56 161.5 106.5t55.5 116.5q0 64 -48.5 107.5t-119.5 43.5q-70 0 -117 -42t-47 -105zM252 432q0 -126 98 -209.5t244 -83.5q156 0 264 94l-403 492q-96 -60 -149.5 -130
t-53.5 -163z" />
    <glyph glyph-name="quotesingle" unicode="'" horiz-adv-x="428" 
d="M137 920l-10 493h174l-10 -493h-154z" />
    <glyph glyph-name="parenleft" unicode="(" horiz-adv-x="655" 
d="M446 -389q-131 174 -210.5 437t-79.5 525t79.5 525.5t210.5 437.5h179q-128 -174 -205.5 -437.5t-77.5 -525.5t77.5 -525t205.5 -437h-179z" />
    <glyph glyph-name="parenright" unicode=")" horiz-adv-x="655" 
d="M31 -389q128 173 205 436.5t77 525.5t-77 526t-205 437h178q131 -174 211 -437.5t80 -525.5q0 -261 -80 -524.5t-211 -437.5h-178z" />
    <glyph glyph-name="asterisk" unicode="*" horiz-adv-x="772" 
d="M330 858v178l6 45l-35 -28l-158 -88l-57 96l158 90l41 16l-41 17l-158 88l57 98l158 -90l35 -29l-6 45v179h112v-179l-6 -43l35 27l158 90l57 -98l-158 -90l-43 -15l43 -18l158 -88l-57 -96l-158 88l-35 28l6 -45v-178h-112z" />
    <glyph glyph-name="plus" unicode="+" horiz-adv-x="1093" 
d="M465 186v338h-336v160h336v338h164v-338h336v-160h-336v-338h-164z" />
    <glyph glyph-name="comma" unicode="," horiz-adv-x="481" 
d="M104 -305v133q95 45 121 168q-49 4 -80.5 39.5t-31.5 85.5q0 55 36.5 91t92.5 36q54 0 90.5 -38.5t36.5 -109.5q0 -149 -77 -261t-188 -144z" />
    <glyph glyph-name="hyphen" unicode="-" horiz-adv-x="835" 
d="M129 475v170h578v-170h-578z" />
    <glyph glyph-name="period" unicode="." horiz-adv-x="481" 
d="M240 -14q-56 0 -93.5 38t-37.5 93t37.5 93t93.5 38q57 0 95 -37.5t38 -93.5t-38 -93.5t-95 -37.5z" />
    <glyph glyph-name="slash" unicode="/" horiz-adv-x="1044" 
d="M23 -307l819 1843h178l-819 -1843h-178z" />
    <glyph glyph-name="zero" unicode="0" horiz-adv-x="1316" 
d="M659 -25q-241 0 -392.5 204t-151.5 528t151.5 527.5t392.5 203.5q158 0 281.5 -92t192.5 -259t69 -380t-69 -380t-192.5 -259.5t-281.5 -92.5zM659 156q154 0 252.5 153.5t98.5 397.5t-98.5 397t-252.5 153q-156 0 -254 -153t-98 -397t98.5 -397.5t253.5 -153.5z" />
    <glyph glyph-name="one" unicode="1" horiz-adv-x="753" 
d="M389 0v1198l-315 -174v188l370 201h131v-1413h-186z" />
    <glyph glyph-name="two" unicode="2" horiz-adv-x="1159" 
d="M115 0v156q0 89 40 165t104 131t141 104.5t154.5 96t141.5 94.5t104 112t40 138q0 114 -74 184t-186 70q-113 0 -187 -68t-74 -175h-192q0 185 130.5 307.5t324.5 122.5q192 0 321 -122t129 -310q0 -96 -37.5 -178.5t-98.5 -141.5t-135 -110.5t-151 -97t-142.5 -89.5
t-112.5 -98.5t-58 -114.5h752v-176h-934z" />
    <glyph glyph-name="three" unicode="3" horiz-adv-x="1163" 
d="M578 -25q-206 0 -345 121.5t-139 302.5h193q0 -104 84.5 -173.5t206.5 -69.5t206 70.5t84 179.5q0 106 -80 176.5t-202 70.5h-185v154h185q108 0 180 63.5t72 159.5q0 100 -75.5 163.5t-184.5 63.5q-110 0 -186.5 -63.5t-76.5 -157.5h-192q0 170 131 286t324 116
q191 0 321.5 -111t130.5 -274q0 -104 -57 -189.5t-152 -130.5q109 -44 174.5 -138.5t65.5 -209.5q0 -113 -64.5 -207.5t-175.5 -148.5t-243 -54z" />
    <glyph glyph-name="four" unicode="4" horiz-adv-x="1193" 
d="M68 317v152l510 944h208l-499 -919h487v399h178v-399h185v-177h-185v-317h-186v317h-698z" />
    <glyph glyph-name="five" unicode="5" horiz-adv-x="1193" 
d="M618 -25q-194 0 -332 113t-161 287h194q23 -98 105 -158.5t194 -60.5q131 0 218.5 80.5t87.5 201.5q0 120 -84.5 201.5t-208.5 81.5q-82 0 -159.5 -36t-117.5 -91h-182l72 819h776v-176h-614l-44 -444q51 43 128.5 69.5t158.5 26.5q128 0 235.5 -59.5t169.5 -164
t62 -231.5q0 -196 -143 -327.5t-355 -131.5z" />
    <glyph glyph-name="six" unicode="6" horiz-adv-x="1167" 
d="M621 -25q-231 0 -378 168t-147 449q0 171 57 322.5t158.5 263.5t250.5 177.5t325 65.5h41v-176h-41q-228 0 -386 -145t-190 -363q57 70 151 111t197 41q194 0 324.5 -128.5t130.5 -318.5q0 -199 -141.5 -333t-351.5 -134zM614 156q127 0 217.5 80.5t90.5 201.5
q0 120 -89 199.5t-217 79.5q-122 0 -216.5 -74t-94.5 -170q0 -70 34.5 -141t107.5 -123.5t167 -52.5z" />
    <glyph glyph-name="seven" unicode="7" horiz-adv-x="1056" 
d="M219 0l572 1237h-699v176h922v-145l-586 -1268h-209z" />
    <glyph glyph-name="eight" unicode="8" horiz-adv-x="1216" 
d="M606 -25q-219 0 -361.5 114.5t-142.5 291.5q0 118 66 210t182 142q-100 50 -156.5 134.5t-56.5 189.5q0 166 133.5 273.5t335.5 107.5q205 0 338 -107t133 -274q0 -105 -56 -189t-155 -135q116 -50 182 -142t66 -210q0 -177 -143.5 -291.5t-364.5 -114.5zM606 813
q119 0 199 64t80 159t-80 158t-199 63q-116 0 -196 -63t-80 -158t80 -159t196 -64zM606 156q135 0 225.5 70t90.5 175q0 106 -90.5 176t-225.5 70q-132 0 -221.5 -70.5t-89.5 -175.5t89 -175t222 -70z" />
    <glyph glyph-name="nine" unicode="9" horiz-adv-x="1167" 
d="M297 -8h-82v176h82q215 0 371.5 141t185.5 367q-58 -70 -150.5 -111t-195.5 -41q-195 0 -326 128t-131 319q0 199 143 333t353 134q231 0 376.5 -167.5t145.5 -449.5q0 -237 -98 -426t-274.5 -296t-399.5 -107zM551 696q122 0 216.5 74t94.5 170q0 70 -34.5 141
t-107.5 123.5t-167 52.5q-127 0 -218 -80.5t-91 -201.5q0 -120 89.5 -199.5t217.5 -79.5z" />
    <glyph glyph-name="colon" unicode=":" horiz-adv-x="491" 
d="M246 805q-54 0 -90.5 36.5t-36.5 90.5t36.5 90.5t90.5 36.5t90.5 -36.5t36.5 -90.5t-36.5 -90.5t-90.5 -36.5zM246 -14q-54 0 -90.5 36.5t-36.5 90.5t36.5 90.5t90.5 36.5t90.5 -36.5t36.5 -90.5t-36.5 -90.5t-90.5 -36.5z" />
    <glyph glyph-name="semicolon" unicode=";" horiz-adv-x="491" 
d="M246 805q-54 0 -90.5 36.5t-36.5 90.5t36.5 90.5t90.5 36.5t90.5 -36.5t36.5 -90.5t-36.5 -90.5t-90.5 -36.5zM111 -305v133q92 44 118 168q-47 5 -78.5 40.5t-31.5 84.5q0 54 36 90.5t91 36.5t91 -38t36 -110q0 -149 -75.5 -261t-186.5 -144z" />
    <glyph glyph-name="less" unicode="&#x3c;" horiz-adv-x="950" 
d="M821 178l-692 348v160l692 348v-176l-520 -252l520 -252v-176z" />
    <glyph glyph-name="equal" unicode="=" horiz-adv-x="1093" 
d="M129 705v159h836v-159h-836zM129 348v158h836v-158h-836z" />
    <glyph glyph-name="greater" unicode="&#x3e;" horiz-adv-x="950" 
d="M129 178v176l520 252l-520 252v176l692 -348v-160z" />
    <glyph glyph-name="question" unicode="?" horiz-adv-x="1044" 
d="M418 403v66q0 47 11.5 89.5t28 73.5t44.5 62.5t52.5 52.5t59.5 48q76 60 116 113t40 124q0 96 -74.5 160.5t-183.5 64.5q-111 0 -185.5 -64.5t-74.5 -160.5h-193q0 173 130 289.5t323 116.5q192 0 321.5 -115t129.5 -287q0 -59 -16 -110.5t-47.5 -93t-61.5 -70t-74 -62.5
q-42 -33 -63 -51.5t-47.5 -49t-38 -62t-11.5 -68.5v-66h-186zM512 -14q-55 0 -92 36.5t-37 90.5t37 90.5t92 36.5q54 0 90.5 -36.5t36.5 -90.5t-36.5 -90.5t-90.5 -36.5z" />
    <glyph glyph-name="at" unicode="@" horiz-adv-x="1730" 
d="M815 178q-156 0 -258 107t-102 266q0 161 101 268t251 107q78 0 144 -32.5t110 -92.5v100h166v-489q0 -42 25.5 -69.5t64.5 -27.5q67 0 109 78t42 199q0 159 -78.5 289t-215.5 203t-304 73q-262 0 -435 -172.5t-173 -433.5q0 -128 46 -239.5t127 -192t198 -126.5t254 -46
q216 0 409 100v-156q-205 -90 -413 -90q-166 0 -310.5 57.5t-246 157.5t-159.5 238.5t-58 296.5t58.5 297.5t159 239.5t242 157.5t301.5 57.5q208 0 379.5 -91.5t271 -255.5t99.5 -366q0 -184 -81.5 -296t-225.5 -112q-82 0 -145 36t-91 99q-87 -139 -262 -139zM842 338
q94 0 156.5 61.5t62.5 153.5q0 91 -63.5 152t-155.5 61t-153.5 -60.5t-61.5 -152.5q0 -93 61 -154t154 -61z" />
    <glyph glyph-name="A" unicode="A" horiz-adv-x="1419" 
d="M23 0l575 1413h223l576 -1413h-207l-137 342h-693l-137 -342h-200zM430 516h553l-276 692z" />
    <glyph glyph-name="B" unicode="B" horiz-adv-x="1312" 
d="M166 0v1413h639q155 0 258.5 -100.5t103.5 -253.5q0 -102 -50.5 -185.5t-129.5 -121.5q119 -31 192.5 -133.5t73.5 -237.5q0 -164 -111 -272.5t-278 -108.5h-698zM762 1243h-414v-430h414q87 0 150 62t63 153q0 92 -61 153.5t-152 61.5zM821 651h-473v-481h473
q103 0 171.5 69.5t68.5 172.5t-68.5 171t-171.5 68z" />
    <glyph glyph-name="C" unicode="C" horiz-adv-x="1611" 
d="M831 -25q-155 0 -292 56.5t-235 153.5t-155 232.5t-57 289.5q0 205 96.5 372.5t266 263t376.5 95.5q256 0 449 -144.5t250 -373.5h-199q-53 152 -188.5 244.5t-311.5 92.5q-115 0 -216.5 -42t-173.5 -115t-114 -175t-42 -218q0 -154 71 -280.5t196.5 -198.5t278.5 -72
q175 0 311 93t189 245h199q-57 -229 -250 -374t-449 -145z" />
    <glyph glyph-name="D" unicode="D" horiz-adv-x="1517" 
d="M166 0v1413h545q202 0 366 -92t257 -253.5t93 -360.5t-93 -361t-257 -254t-366 -92h-545zM709 1237h-355v-1061h355q224 0 375 152t151 379q0 149 -68.5 270.5t-189 190.5t-268.5 69z" />
    <glyph glyph-name="E" unicode="E" horiz-adv-x="1173" 
d="M166 0v1413h905v-176h-717v-438h650v-176h-650v-447h727v-176h-915z" />
    <glyph glyph-name="F" unicode="F" horiz-adv-x="1116" 
d="M166 0v1413h874v-176h-686v-451h602v-176h-602v-610h-188z" />
    <glyph glyph-name="G" unicode="G" horiz-adv-x="1644" 
d="M831 -25q-155 0 -292 56.5t-235 153.5t-155 232.5t-57 289.5q0 205 96.5 372.5t266 263t376.5 95.5q239 0 424 -123.5t256 -323.5h-208q-67 123 -192 194.5t-280 71.5q-115 0 -216.5 -42t-173.5 -115t-114 -175t-42 -218q0 -154 71 -280.5t196.5 -198.5t278.5 -72
q204 0 350.5 119t174.5 307h-473v170h671v-62q0 -202 -94 -366t-259.5 -256.5t-369.5 -92.5z" />
    <glyph glyph-name="H" unicode="H" horiz-adv-x="1495" 
d="M166 0v1413h188v-614h787v614h188v-1413h-188v623h-787v-623h-188z" />
    <glyph glyph-name="I" unicode="I" horiz-adv-x="520" 
d="M166 0v1413h188v-1413h-188z" />
    <glyph glyph-name="J" unicode="J" horiz-adv-x="1105" 
d="M514 -25q-197 0 -328 130t-131 329h193q0 -122 76 -200t192 -78t192 76t76 192v989h189v-989q0 -192 -132 -320.5t-327 -128.5z" />
    <glyph glyph-name="K" unicode="K" horiz-adv-x="1265" 
d="M166 0v1413h188v-723l668 723h231l-587 -647l614 -766h-236l-503 631l-187 -193v-438h-188z" />
    <glyph glyph-name="L" unicode="L" horiz-adv-x="1081" 
d="M166 0v1413h188v-1237h666v-176h-854z" />
    <glyph glyph-name="M" unicode="M" horiz-adv-x="1835" 
d="M166 0v1413h237l517 -854l516 854h231v-1413h-186v1145l-510 -848h-107l-510 848v-1145h-188z" />
    <glyph glyph-name="N" unicode="N" horiz-adv-x="1513" 
d="M166 0v1413h194l799 -1102v1102h187v-1413h-193l-799 1102v-1102h-188z" />
    <glyph glyph-name="O" unicode="O" horiz-adv-x="1662" 
d="M831 -25q-155 0 -292 56.5t-235 153.5t-155 232.5t-57 289.5q0 205 96.5 372.5t266 263t376.5 95.5q208 0 377.5 -95.5t266 -263t96.5 -372.5t-96.5 -373t-266 -263.5t-377.5 -95.5zM831 156q153 0 278.5 72t197 198.5t71.5 280.5t-71.5 280.5t-197 198t-278.5 71.5
q-115 0 -216.5 -42t-173.5 -115t-114 -175t-42 -218q0 -154 71 -280.5t196.5 -198.5t278.5 -72z" />
    <glyph glyph-name="P" unicode="P" horiz-adv-x="1296" 
d="M166 0v1413h614q194 0 323.5 -127t129.5 -317q0 -189 -130 -316t-323 -127h-426v-526h-188zM776 1237h-422v-535h422q113 0 188.5 76t75.5 191t-75.5 191.5t-188.5 76.5z" />
    <glyph glyph-name="Q" unicode="Q" horiz-adv-x="1662" 
d="M831 -25q-155 0 -292 56.5t-235 153.5t-155 232.5t-57 289.5q0 205 96.5 372.5t266 263t376.5 95.5q208 0 377.5 -95.5t266 -263t96.5 -372.5q0 -212 -102.5 -383t-278.5 -263l309 -319h-225l-250 256q-100 -23 -193 -23zM831 156q153 0 278.5 72t197 198.5t71.5 280.5
t-71.5 280.5t-197 198t-278.5 71.5q-115 0 -216.5 -42t-173.5 -115t-114 -175t-42 -218q0 -154 71 -280.5t196.5 -198.5t278.5 -72z" />
    <glyph glyph-name="R" unicode="R" horiz-adv-x="1298" 
d="M166 0v1413h604q189 0 315.5 -123t126.5 -307q0 -164 -104.5 -280t-267.5 -138l413 -565h-233l-404 561h-262v-561h-188zM768 1237h-414v-512h414q108 0 180 73t72 183t-72 183t-180 73z" />
    <glyph glyph-name="S" unicode="S" horiz-adv-x="1175" 
d="M592 -25q-216 0 -361 122t-145 302h190q0 -108 92 -182t226 -74q128 0 215.5 65.5t87.5 168.5q0 66 -43.5 113.5t-112.5 76.5t-153 54t-168 56.5t-153 73t-112.5 113.5t-43.5 170q0 120 64 213t172 142t239 49q203 0 340 -116.5t137 -289.5h-191q0 101 -83 169.5
t-207 68.5q-117 0 -198 -61t-81 -160q0 -66 43.5 -112.5t113 -74.5t153 -52t167.5 -54.5t153.5 -72t113 -114.5t43.5 -172q0 -125 -67 -222t-180 -148.5t-251 -51.5z" />
    <glyph glyph-name="T" unicode="T" horiz-adv-x="1159" 
d="M485 0v1237h-426v176h1041v-176h-426v-1237h-189z" />
    <glyph glyph-name="U" unicode="U" horiz-adv-x="1419" 
d="M709 -25q-161 0 -292.5 74t-206.5 203.5t-75 288.5v872h187v-868q0 -166 110.5 -277.5t276.5 -111.5q167 0 278 111.5t111 277.5v868h186v-872q0 -159 -75 -288.5t-206.5 -203.5t-293.5 -74z" />
    <glyph glyph-name="V" unicode="V" horiz-adv-x="1435" 
d="M618 0l-581 1413h209l475 -1169l473 1169h205l-584 -1413h-197z" />
    <glyph glyph-name="W" unicode="W" horiz-adv-x="2201" 
d="M532 0l-487 1413h207l381 -1163l385 1163h172l389 -1163l377 1163h203l-486 -1413h-192l-379 1137l-377 -1137h-193z" />
    <glyph glyph-name="X" unicode="X" horiz-adv-x="1415" 
d="M51 0l527 709l-519 704h232l420 -575l415 575h230l-518 -704l526 -709h-231l-426 582l-426 -582h-230z" />
    <glyph glyph-name="Y" unicode="Y" horiz-adv-x="1355" 
d="M584 0v522l-566 891h215l447 -704l448 704h209l-565 -891v-522h-188z" />
    <glyph glyph-name="Z" unicode="Z" horiz-adv-x="1257" 
d="M84 0v135l819 1102h-811v176h1067v-135l-819 -1102h834v-176h-1090z" />
    <glyph glyph-name="bracketleft" unicode="[" horiz-adv-x="679" 
d="M176 -389v1925h442v-166h-260v-1593h260v-166h-442z" />
    <glyph glyph-name="backslash" unicode="\" horiz-adv-x="1044" 
d="M842 -307l-819 1843h178l819 -1843h-178z" />
    <glyph glyph-name="bracketright" unicode="]" horiz-adv-x="679" 
d="M61 -389v166h261v1593h-261v166h443v-1925h-443z" />
    <glyph glyph-name="asciicircum" unicode="^" horiz-adv-x="845" 
d="M86 920l254 493h166l254 -493h-164l-174 348l-174 -348h-162z" />
    <glyph glyph-name="underscore" unicode="_" horiz-adv-x="1060" 
d="M78 -313v149h903v-149h-903z" />
    <glyph glyph-name="grave" unicode="`" horiz-adv-x="438" 
d="M252 1182l-252 264h227l211 -264h-186z" />
    <glyph glyph-name="a" unicode="a" horiz-adv-x="1339" 
d="M608 -25q-147 0 -267 71.5t-187.5 197t-67.5 278.5t67.5 278.5t187.5 197t267 71.5q128 0 233.5 -56.5t172.5 -156.5v188h176v-1044h-176v188q-67 -100 -172.5 -156.5t-233.5 -56.5zM641 145q160 0 266.5 108t106.5 269t-106.5 269t-266.5 108q-161 0 -268 -108
t-107 -269t107 -269t268 -108z" />
    <glyph glyph-name="b" unicode="b" horiz-adv-x="1343" 
d="M154 0v1475h176v-619q67 100 172 156.5t233 56.5q224 0 374.5 -157t150.5 -390t-150.5 -390t-374.5 -157q-128 0 -233 56.5t-172 156.5v-188h-176zM702 145q161 0 268 108t107 269t-107 269t-268 108q-160 0 -266 -108t-106 -269t106 -269t266 -108z" />
    <glyph glyph-name="c" unicode="c" horiz-adv-x="1241" 
d="M639 -25q-156 0 -284 71.5t-200.5 197t-72.5 278.5t72.5 278.5t200.5 197t284 71.5q198 0 342.5 -112t179.5 -291h-186q-32 105 -123.5 169t-212.5 64q-161 0 -268 -108t-107 -269t107 -269t268 -108q121 0 212 64.5t124 169.5h186q-35 -179 -180 -291.5t-342 -112.5z
" />
    <glyph glyph-name="d" unicode="d" horiz-adv-x="1343" 
d="M608 -25q-147 0 -267 71.5t-187.5 197t-67.5 278.5t67.5 278.5t187.5 197t267 71.5q128 0 233.5 -56.5t172.5 -156.5v619h176v-1475h-176v188q-67 -100 -172.5 -156.5t-233.5 -56.5zM641 145q160 0 266.5 108t106.5 269t-106.5 269t-266.5 108q-161 0 -268 -108
t-107 -269t107 -269t268 -108z" />
    <glyph glyph-name="e" unicode="e" horiz-adv-x="1267" 
d="M643 -25q-159 0 -287.5 71.5t-201 196.5t-72.5 279q0 233 159.5 390t395.5 157q156 0 283.5 -71.5t199.5 -197t72 -278.5q0 -27 -4 -73h-918q23 -139 125.5 -225.5t249.5 -86.5q108 0 197.5 47.5t134.5 126.5h197q-62 -152 -205 -244t-326 -92zM637 907
q-139 0 -239 -83.5t-126 -217.5h734q-23 132 -125.5 216.5t-243.5 84.5z" />
    <glyph glyph-name="f" unicode="f" horiz-adv-x="796" 
d="M268 0v885h-190v159h190v119q0 154 90.5 239t257.5 85h125v-162h-108q-88 0 -138.5 -48.5t-50.5 -133.5v-99h281v-159h-281v-885h-176z" />
    <glyph glyph-name="g" unicode="g" horiz-adv-x="1339" 
d="M610 23q-146 0 -266 68.5t-188 189t-68 266.5t68 266t188 188t266 68q130 0 235.5 -55t172.5 -152v182h176v-931q0 -238 -145.5 -382.5t-386.5 -144.5q-199 0 -338 97.5t-170 261.5h182q26 -89 116 -143t212 -54q162 0 258 97t96 261v123q-67 -97 -172.5 -151.5
t-235.5 -54.5zM645 195q160 0 266.5 100.5t106.5 251.5q0 150 -107 251t-266 101q-161 0 -268 -101t-107 -251q0 -151 107 -251.5t268 -100.5z" />
    <glyph glyph-name="h" unicode="h" horiz-adv-x="1265" 
d="M154 0v1475h176v-594q62 91 158.5 139.5t218.5 48.5q191 0 307 -116t116 -308v-645h-176v590q0 140 -83 224.5t-222 84.5q-145 0 -232 -86t-87 -227v-586h-176z" />
    <glyph glyph-name="i" unicode="i" horiz-adv-x="481" 
d="M242 1243q-51 0 -85 33t-34 84q0 50 34 83.5t85 33.5q49 0 82.5 -33.5t33.5 -83.5q0 -51 -33 -84t-83 -33zM154 0v1044h176v-1044h-176z" />
    <glyph glyph-name="j" unicode="j" horiz-adv-x="485" 
d="M248 1243q-50 0 -83.5 33t-33.5 84q0 50 33.5 83.5t83.5 33.5q51 0 85 -33.5t34 -83.5q0 -51 -34 -84t-85 -33zM-88 -399v170h63q87 0 136 48t49 132v1093h176v-1114q0 -161 -89 -245t-265 -84h-70z" />
    <glyph glyph-name="k" unicode="k" horiz-adv-x="1095" 
d="M154 0v1475h176v-969l526 538h225l-458 -466l475 -578h-228l-372 451l-168 -175v-276h-176z" />
    <glyph glyph-name="l" unicode="l" horiz-adv-x="481" 
d="M154 0v1475h176v-1475h-176z" />
    <glyph glyph-name="m" unicode="m" horiz-adv-x="1927" 
d="M150 0v1044h176v-141q119 166 342 166q124 0 216.5 -56t137.5 -155q57 102 154 156.5t225 54.5q177 0 284 -107.5t107 -287.5v-674h-176v625q0 125 -73.5 199.5t-196.5 74.5q-129 0 -208 -76t-79 -202v-621h-176v625q0 124 -74 199t-197 75q-129 0 -207.5 -76t-78.5 -202
v-621h-176z" />
    <glyph glyph-name="n" unicode="n" horiz-adv-x="1261" 
d="M150 0v1044h176v-157q128 182 376 182q191 0 307.5 -116t116.5 -308v-645h-176v590q0 140 -83 224.5t-222 84.5q-145 0 -232 -86t-87 -227v-586h-176z" />
    <glyph glyph-name="o" unicode="o" horiz-adv-x="1275" 
d="M639 -25q-156 0 -284 71.5t-200.5 197t-72.5 278.5t72.5 278.5t200.5 197t284 71.5q236 0 395.5 -157t159.5 -390t-159.5 -390t-395.5 -157zM639 145q160 0 266.5 108t106.5 269t-106.5 269t-266.5 108q-161 0 -268 -108t-107 -269t107 -269t268 -108z" />
    <glyph glyph-name="p" unicode="p" horiz-adv-x="1339" 
d="M150 -389v1433h176v-188q67 100 172 156.5t233 56.5q224 0 374 -157t150 -390t-150 -390t-374 -157q-128 0 -233 56.5t-172 156.5v-577h-176zM698 145q161 0 268 108t107 269t-107 269t-268 108q-160 0 -266 -108t-106 -269t106 -269t266 -108z" />
    <glyph glyph-name="q" unicode="q" horiz-adv-x="1339" 
d="M608 -25q-147 0 -267 71.5t-187.5 197t-67.5 278.5t67.5 278.5t187.5 197t267 71.5q128 0 233.5 -56.5t172.5 -156.5v188h176v-1433h-176v577q-67 -100 -172.5 -156.5t-233.5 -56.5zM641 145q160 0 266.5 108t106.5 269t-106.5 269t-266.5 108q-161 0 -268 -108
t-107 -269t107 -269t268 -108z" />
    <glyph glyph-name="r" unicode="r" horiz-adv-x="772" 
d="M150 0v1044h176v-198q61 103 157 159t217 56h33v-182h-33q-174 0 -274 -96.5t-100 -258.5v-524h-176z" />
    <glyph glyph-name="s" unicode="s" horiz-adv-x="956" 
d="M483 -25q-183 0 -293 88.5t-110 233.5h180q0 -73 62 -117.5t163 -44.5q95 0 153 40.5t58 103.5q0 45 -33 77t-86 51.5t-117 36.5t-128 39.5t-117 54t-86 86.5t-33 130q0 142 104 228.5t275 86.5q175 0 280 -84.5t105 -224.5h-180q0 67 -56.5 108t-150.5 41
q-89 0 -143 -37.5t-54 -97.5q0 -39 26 -68t68 -46t96 -34.5t110.5 -31.5t110.5 -39t96 -56t68 -83t26 -119q0 -145 -108 -233.5t-286 -88.5z" />
    <glyph glyph-name="t" unicode="t" horiz-adv-x="794" 
d="M590 0q-158 0 -244 80.5t-86 226.5v578h-190v159h123q75 0 75 78v211h168v-289h281v-159h-281v-549q0 -80 47.5 -127t130.5 -47h103v-162h-127z" />
    <glyph glyph-name="u" unicode="u" horiz-adv-x="1228" 
d="M543 -25q-183 0 -295.5 113t-112.5 299v657h176v-606q0 -132 78.5 -212.5t208.5 -80.5q137 0 221 82t84 215v602h176v-1044h-176v152q-125 -177 -360 -177z" />
    <glyph glyph-name="v" unicode="v" horiz-adv-x="1163" 
d="M489 0l-458 1044h200l353 -833l352 833h197l-459 -1044h-185z" />
    <glyph glyph-name="w" unicode="w" horiz-adv-x="1792" 
d="M422 0l-383 1044h199l280 -829l289 829h182l289 -829l281 829h194l-383 -1044h-184l-291 838l-289 -838h-184z" />
    <glyph glyph-name="x" unicode="x" horiz-adv-x="1171" 
d="M61 0l404 524l-397 520h217l303 -403l303 403h213l-397 -520l403 -524h-215l-311 408l-310 -408h-213z" />
    <glyph glyph-name="y" unicode="y" horiz-adv-x="1163" 
d="M313 -389l172 393l-454 1040h200l353 -833l352 833h197l-629 -1433h-191z" />
    <glyph glyph-name="z" unicode="z" horiz-adv-x="1040" 
d="M90 0v127l592 747h-584v170h838v-126l-590 -748h604v-170h-860z" />
    <glyph glyph-name="braceleft" unicode="{" horiz-adv-x="780" 
d="M530 -389q-107 0 -176 69.5t-69 178.5v518q0 51 -31 83t-80 32h-80v165h80q49 0 80 32t31 83v516q0 109 69 178.5t176 69.5h189v-166h-123q-57 0 -93 -38t-36 -95v-508q0 -51 -30 -93t-79 -61q50 -20 79.5 -62t29.5 -93v-510q0 -57 36 -95t93 -38h123v-166h-189z" />
    <glyph glyph-name="bar" unicode="|" horiz-adv-x="577" 
d="M207 -389v1925h162v-1925h-162z" />
    <glyph glyph-name="braceright" unicode="}" horiz-adv-x="780" 
d="M61 -389v166h125q55 0 92 38t37 95v510q0 51 29 93t78 62q-49 19 -78 61t-29 93v508q0 57 -37 95t-92 38h-125v166h189q107 0 176.5 -69.5t69.5 -178.5v-516q0 -51 30.5 -83t79.5 -32h80v-165h-80q-49 0 -79.5 -32t-30.5 -83v-518q0 -109 -69.5 -178.5t-176.5 -69.5h-189
z" />
    <glyph glyph-name="asciitilde" unicode="~" horiz-adv-x="1132" 
d="M745 455q-54 0 -103.5 22t-80.5 48.5t-70 48.5t-75 22q-54 0 -89.5 -35.5t-35.5 -89.5h-162q0 133 66.5 216t191.5 83q54 0 104 -22t81.5 -48.5t71 -48.5t75.5 -22q54 0 88.5 35.5t34.5 89.5h162q0 -132 -66.5 -215.5t-192.5 -83.5z" />
    <glyph glyph-name="uni00A0" unicode="&#xa0;" horiz-adv-x="505" 
 />
    <glyph glyph-name="exclamdown" unicode="&#xa1;" horiz-adv-x="518" 
d="M260 805q-55 0 -92 36.5t-37 90.5t37 90.5t92 36.5q54 0 90.5 -36.5t36.5 -90.5t-36.5 -90.5t-90.5 -36.5zM166 -369v349l12 669h164l10 -669v-349h-186z" />
    <glyph glyph-name="cent" unicode="&#xa2;" horiz-adv-x="1300" 
d="M612 0v160q-220 19 -363 172.5t-143 372.5q0 221 143 374t363 172v162h117v-164q177 -19 305 -128.5t170 -274.5h-190q-36 93 -111 154.5t-174 76.5v-743q99 17 174.5 78.5t110.5 152.5h190q-42 -165 -170 -274.5t-305 -128.5v-162h-117zM291 705q0 -146 90 -250
t231 -123v747q-142 -19 -231.5 -123t-89.5 -251z" />
    <glyph glyph-name="sterling" unicode="&#xa3;" horiz-adv-x="1191" 
d="M80 0v176h133v410h-133v162h133v249q0 189 128.5 315t320.5 126t320 -126t128 -315h-188q0 113 -74 186.5t-186 73.5q-113 0 -187 -74t-74 -186v-249h476v-162h-476v-410h729v-176h-1050z" />
    <glyph glyph-name="currency" unicode="&#xa4;" horiz-adv-x="1097" 
d="M207 258l-111 109l129 129q-63 91 -63 211q0 121 63 215l-127 129l107 108l133 -133q94 57 213 57q116 0 209 -55l133 131l108 -110l-127 -127q66 -95 66 -215q0 -118 -66 -213l127 -127l-108 -109l-131 131q-94 -57 -211 -57q-120 0 -211 57zM551 471q100 0 167.5 67.5
t67.5 168.5q0 102 -67.5 170.5t-167.5 68.5q-101 0 -169.5 -68t-68.5 -171q0 -101 68.5 -168.5t169.5 -67.5z" />
    <glyph glyph-name="yen" unicode="&#xa5;" horiz-adv-x="1320" 
d="M283 236v145h284v119h-284v143h209l-480 770h215l437 -708l436 708h209l-480 -770h209v-143h-284v-119h284v-145h-284v-236h-187v236h-284z" />
    <glyph glyph-name="brokenbar" unicode="&#xa6;" horiz-adv-x="577" 
d="M207 696v840h162v-840h-162zM207 -389v840h162v-840h-162z" />
    <glyph glyph-name="section" unicode="&#xa7;" horiz-adv-x="1083" 
d="M543 -197q-169 0 -282.5 92.5t-113.5 229.5h175q0 -79 63.5 -132.5t157.5 -53.5q92 0 154.5 47.5t62.5 117.5q0 139 -264 199q-344 75 -344 322q0 84 46.5 151t125.5 105q-166 89 -166 252q0 137 110.5 221t272.5 84q163 0 273 -91t110 -225h-174q0 77 -61 129t-150 52
q-88 0 -147.5 -46t-59.5 -114q0 -141 256 -195q352 -73 352 -319q0 -84 -48 -151.5t-132 -106.5q174 -86 174 -256q0 -141 -113 -226.5t-278 -85.5zM549 446q93 3 155 51.5t62 116.5q0 143 -231 193q-90 -3 -149.5 -51t-59.5 -117q0 -142 223 -193z" />
    <glyph glyph-name="dieresis" unicode="&#xa8;" horiz-adv-x="643" 
d="M532 1192q-46 0 -77 31t-31 77t31 77.5t77 31.5t78.5 -31.5t32.5 -77.5q0 -45 -32.5 -76.5t-78.5 -31.5zM109 1192q-46 0 -77.5 31t-31.5 77t31.5 77.5t77.5 31.5t78 -31.5t32 -77.5t-32 -77t-78 -31z" />
    <glyph glyph-name="copyright" unicode="&#xa9;" horiz-adv-x="1687" 
d="M844 -25q-205 0 -372.5 95.5t-263 263.5t-95.5 373t95.5 372.5t263 263t372.5 95.5t372.5 -95.5t263 -263t95.5 -372.5t-95.5 -373t-263 -263.5t-372.5 -95.5zM844 98q126 0 238 47t191.5 127.5t126 193.5t46.5 241q0 170 -78.5 309.5t-216.5 219t-307 79.5t-307.5 -79.5
t-217.5 -219t-79 -309.5q0 -128 46.5 -241t127 -193.5t192.5 -127.5t238 -47zM848 299q-175 0 -292.5 117.5t-117.5 290.5t117.5 290t292.5 117q145 0 253.5 -83t139.5 -214h-145q-28 73 -94.5 116.5t-153.5 43.5q-115 0 -191.5 -77.5t-76.5 -192.5t76.5 -193t191.5 -78
q87 0 153.5 43.5t94.5 116.5h145q-31 -131 -139.5 -214t-253.5 -83z" />
    <glyph glyph-name="ordfeminine" unicode="&#xaa;" horiz-adv-x="786" 
d="M365 842q-119 0 -199 84.5t-80 210.5t80 210.5t199 84.5q125 0 204 -107v90h131v-557h-131v90q-79 -106 -204 -106zM395 961q74 0 124 50.5t50 125.5t-50 125.5t-124 50.5t-124 -50.5t-50 -125.5t50 -125.5t124 -50.5z" />
    <glyph glyph-name="guillemotleft" unicode="&#xab;" horiz-adv-x="1196" 
d="M905 125l-340 416l340 415h209l-340 -415l340 -416h-209zM403 125l-342 416l342 415h209l-342 -415l342 -416h-209z" />
    <glyph glyph-name="logicalnot" unicode="&#xac;" horiz-adv-x="1093" 
d="M803 186v338h-674v160h836v-498h-162z" />
    <glyph glyph-name="uni00AD" unicode="&#xad;" horiz-adv-x="835" 
d="M129 475v170h578v-170h-578z" />
    <glyph glyph-name="registered" unicode="&#xae;" horiz-adv-x="915" 
d="M459 694q-160 0 -266.5 106.5t-106.5 264.5q0 160 106.5 266.5t266.5 106.5q158 0 264 -106.5t106 -266.5q0 -158 -106 -264.5t-264 -106.5zM459 764q126 0 211.5 86t85.5 215t-85.5 216t-211.5 87q-127 0 -213 -87t-86 -216t85.5 -215t213.5 -86zM340 885v391h143
q53 0 88 -35t35 -88q0 -40 -21.5 -71.5t-56.5 -43.5l97 -153h-74l-94 145h-49v-145h-68zM479 1217h-71v-125h71q27 0 44.5 17t17.5 44q0 28 -18 46t-44 18z" />
    <glyph glyph-name="macron" unicode="&#xaf;" horiz-adv-x="485" 
d="M0 1212v150h485v-150h-485z" />
    <glyph glyph-name="degree" unicode="&#xb0;" horiz-adv-x="792" 
d="M397 844q-129 0 -215 85t-86 214q0 126 86 210.5t215 84.5q128 0 213.5 -84.5t85.5 -210.5q0 -129 -85.5 -214t-213.5 -85zM397 985q66 0 111 45.5t45 112.5q0 66 -45 110.5t-111 44.5q-67 0 -111 -44.5t-44 -110.5q0 -68 44 -113t111 -45z" />
    <glyph glyph-name="plusminus" unicode="&#xb1;" horiz-adv-x="1093" 
d="M465 410v254h-336v157h336v254h164v-254h336v-157h-336v-254h-164zM129 115v159h836v-159h-836z" />
    <glyph glyph-name="uni00B2" unicode="&#xb2;" horiz-adv-x="710" 
d="M74 750v96q0 73 44.5 132t107.5 99t126 77.5t107.5 86t44.5 105.5q0 65 -42 104t-108 39q-64 0 -106.5 -38t-42.5 -99h-123q0 112 77.5 186t196.5 74q116 0 194.5 -73.5t78.5 -186.5q0 -65 -29 -120.5t-73 -91.5t-97.5 -72t-100.5 -63.5t-84.5 -64t-47.5 -74.5h442v-116
h-565z" />
    <glyph glyph-name="uni00B3" unicode="&#xb3;" horiz-adv-x="710" 
d="M354 735q-124 0 -208.5 73.5t-84.5 182.5h127q0 -59 48 -98t118 -39q68 0 116 39t48 102q0 60 -46 101t-116 41h-110v100h110q62 0 104 37t42 92q0 57 -43.5 93t-104.5 36q-63 0 -106 -35.5t-43 -89.5h-125q0 103 78.5 172.5t195.5 69.5q114 0 193.5 -67t79.5 -165
q0 -62 -33 -112t-90 -78q65 -28 103 -84t38 -125q0 -104 -84.5 -175t-206.5 -71z" />
    <glyph glyph-name="acute" unicode="&#xb4;" horiz-adv-x="438" 
d="M0 1182l213 264h225l-250 -264h-188z" />
    <glyph glyph-name="paragraph" unicode="&#xb6;" horiz-adv-x="1232" 
d="M600 -389v969h-117q-177 0 -296 119t-119 296q0 178 119 298t296 120h594v-1802h-151v1651h-172v-1651h-154z" />
    <glyph glyph-name="periodcentered" unicode="&#xb7;" horiz-adv-x="522" 
d="M262 430q-57 0 -95 37.5t-38 93.5t38 93.5t95 37.5q56 0 93.5 -38t37.5 -93t-37.5 -93t-93.5 -38z" />
    <glyph glyph-name="cedilla" unicode="&#xb8;" horiz-adv-x="419" 
d="M209 -463q-83 0 -141.5 49.5t-67.5 124.5h111q9 -32 36 -52.5t62 -20.5q41 0 70.5 28.5t29.5 69.5q0 42 -29 71t-71 29q-45 0 -70 -29l-102 46l115 147v4h127v-4l-58 -70h10q82 0 135.5 -55.5t53.5 -138.5q0 -84 -60.5 -141.5t-150.5 -57.5z" />
    <glyph glyph-name="uni00B9" unicode="&#xb9;" horiz-adv-x="471" 
d="M238 750v704l-187 -102v125l221 120h86v-847h-120z" />
    <glyph glyph-name="ordmasculine" unicode="&#xba;" horiz-adv-x="790" 
d="M395 842q-132 0 -220.5 84.5t-88.5 210.5t88.5 210.5t220.5 84.5q131 0 220.5 -84.5t89.5 -210.5t-89.5 -210.5t-220.5 -84.5zM395 961q74 0 124 50.5t50 125.5t-50 125.5t-124 50.5t-124 -50.5t-50 -125.5t50 -125.5t124 -50.5z" />
    <glyph glyph-name="guillemotright" unicode="&#xbb;" horiz-adv-x="1196" 
d="M586 125l340 416l-340 415h207l342 -415l-342 -416h-207zM82 125l342 416l-342 415h209l342 -415l-342 -416h-209z" />
    <glyph glyph-name="onequarter" unicode="&#xbc;" horiz-adv-x="1544" 
d="M238 565v705l-187 -103v125l221 121h86v-848h-120zM182 0l989 1413h154l-989 -1413h-154zM860 186v99l305 563h133l-301 -547h287v225h113v-225h106v-115h-106v-186h-123v186h-414z" />
    <glyph glyph-name="onehalf" unicode="&#xbd;" horiz-adv-x="1654" 
d="M238 565v705l-187 -103v125l221 121h86v-848h-120zM182 0l989 1413h154l-989 -1413h-154zM1020 0v96q0 54 23.5 99.5t61.5 79t83.5 63t91 57.5t83.5 56.5t61.5 65.5t23.5 79q0 65 -42 104t-106 39q-65 0 -107 -38t-42 -99h-125q0 112 77.5 186t196.5 74
q116 0 194.5 -73.5t78.5 -186.5q0 -65 -29 -120t-73 -91.5t-97.5 -72.5t-100.5 -63t-84.5 -63.5t-47.5 -74.5h442v-117h-563z" />
    <glyph glyph-name="threequarters" unicode="&#xbe;" horiz-adv-x="1703" 
d="M354 551q-124 0 -208.5 73.5t-84.5 182.5h127q0 -59 48 -98t118 -39q68 0 116 39t48 102q0 60 -46 100.5t-116 40.5h-110v101h110q62 0 104 37t42 92q0 57 -43.5 93t-104.5 36q-63 0 -106 -35.5t-43 -89.5h-125q0 103 78.5 172t195.5 69q114 0 193.5 -66.5t79.5 -164.5
q0 -62 -33 -112t-90 -78q65 -28 103 -84t38 -125q0 -104 -84.5 -175t-206.5 -71zM340 0l991 1413h154l-991 -1413h-154zM1018 186v99l307 563h131l-299 -547h285v225h112v-225h109v-115h-109v-186h-122v186h-414z" />
    <glyph glyph-name="questiondown" unicode="&#xbf;" horiz-adv-x="974" 
d="M510 805q-54 0 -90.5 36.5t-36.5 90.5t36.5 90.5t90.5 36.5q55 0 91 -36.5t36 -90.5t-36 -90.5t-91 -36.5zM510 -393q-192 0 -321.5 114.5t-129.5 286.5q0 59 16 110.5t47.5 93t61.5 70t74 62.5q42 33 63 51.5t47.5 49t38 62t11.5 68.5v66h184v-66q0 -59 -15 -108
t-45.5 -89t-59.5 -67t-74 -61q-77 -59 -117.5 -113t-40.5 -125q0 -96 75.5 -160.5t184.5 -64.5q111 0 185.5 64.5t74.5 160.5h191q0 -173 -129.5 -289t-321.5 -116z" />
    <glyph glyph-name="Agrave" unicode="&#xc0;" horiz-adv-x="1419" 
d="M629 1550l-252 265h227l213 -265h-188zM23 0l575 1413h223l576 -1413h-207l-137 342h-693l-137 -342h-200zM430 516h553l-276 692z" />
    <glyph glyph-name="Aacute" unicode="&#xc1;" horiz-adv-x="1419" 
d="M600 1550l213 265h227l-252 -265h-188zM23 0l575 1413h223l576 -1413h-207l-137 342h-693l-137 -342h-200zM430 516h553l-276 692z" />
    <glyph glyph-name="Acircumflex" unicode="&#xc2;" horiz-adv-x="1419" 
d="M395 1550l207 265h215l205 -265h-168l-145 170l-146 -170h-168zM23 0l575 1413h223l576 -1413h-207l-137 342h-693l-137 -342h-200zM430 516h553l-276 692z" />
    <glyph glyph-name="Atilde" unicode="&#xc3;" horiz-adv-x="1419" 
d="M848 1563q-43 0 -81 17.5t-62 38.5t-54.5 38.5t-60.5 17.5q-44 0 -72.5 -29.5t-28.5 -72.5h-127q0 106 55.5 174t151.5 68q42 0 80 -17.5t61.5 -38t55 -38t61.5 -17.5q43 0 72 29t29 73h127q0 -107 -56 -175t-151 -68zM23 0l575 1413h223l576 -1413h-207l-137 342h-693
l-137 -342h-200zM430 516h553l-276 692z" />
    <glyph glyph-name="Adieresis" unicode="&#xc4;" horiz-adv-x="1419" 
d="M920 1561q-46 0 -77.5 31t-31.5 77t31.5 77.5t77.5 31.5t78 -31.5t32 -77.5t-32 -77t-78 -31zM498 1561q-46 0 -78.5 31.5t-32.5 76.5q0 46 32.5 77.5t78.5 31.5t77 -31.5t31 -77.5t-31 -77t-77 -31zM23 0l575 1413h223l576 -1413h-207l-137 342h-693l-137 -342h-200z
M430 516h553l-276 692z" />
    <glyph glyph-name="Aring" unicode="&#xc5;" horiz-adv-x="1419" 
d="M709 1522q-75 0 -127 50.5t-52 125.5q0 73 52 123.5t127 50.5t126.5 -50.5t51.5 -123.5q0 -75 -51.5 -125.5t-126.5 -50.5zM709 1614q34 0 56.5 23.5t22.5 60.5q0 35 -22.5 58.5t-56.5 23.5t-57 -23.5t-23 -58.5q0 -36 23 -60t57 -24zM23 0l575 1413h223l576 -1413h-207
l-137 342h-693l-137 -342h-200zM430 516h553l-276 692z" />
    <glyph glyph-name="AE" unicode="&#xc6;" horiz-adv-x="1888" 
d="M-51 0l858 1413h979v-176h-699v-438h631v-176h-631v-447h709v-176h-895v340h-532l-205 -340h-215zM473 512h428v709z" />
    <glyph glyph-name="Ccedilla" unicode="&#xc7;" horiz-adv-x="1611" 
d="M840 -465q-83 0 -142 49.5t-67 124.5h110q9 -33 36 -53.5t63 -20.5q41 0 70.5 29t29.5 70q0 42 -30 71t-70 29q-43 0 -72 -29l-100 45l98 127q-191 15 -345 114t-241.5 260.5t-87.5 355.5q0 205 96.5 372.5t266 263t376.5 95.5q256 0 449 -144.5t250 -373.5h-199
q-53 152 -188.5 244.5t-311.5 92.5q-115 0 -216.5 -42t-173.5 -115t-114 -175t-42 -218q0 -154 71 -280.5t196.5 -198.5t278.5 -72q175 0 311 93t189 245h199q-54 -216 -228 -358t-411 -159l-39 -49h10q80 0 134.5 -55.5t54.5 -138.5t-61 -141t-150 -58z" />
    <glyph glyph-name="Egrave" unicode="&#xc8;" horiz-adv-x="1173" 
d="M559 1550l-252 265h228l213 -265h-189zM166 0v1413h905v-176h-717v-438h650v-176h-650v-447h727v-176h-915z" />
    <glyph glyph-name="Eacute" unicode="&#xc9;" horiz-adv-x="1173" 
d="M530 1550l213 265h226l-250 -265h-189zM166 0v1413h905v-176h-717v-438h650v-176h-650v-447h727v-176h-915z" />
    <glyph glyph-name="Ecircumflex" unicode="&#xca;" horiz-adv-x="1173" 
d="M326 1550l204 265h215l207 -265h-168l-145 170l-145 -170h-168zM166 0v1413h905v-176h-717v-438h650v-176h-650v-447h727v-176h-915z" />
    <glyph glyph-name="Edieresis" unicode="&#xcb;" horiz-adv-x="1173" 
d="M850 1561q-46 0 -77.5 31t-31.5 77t31.5 77.5t77.5 31.5t78.5 -31.5t32.5 -77.5q0 -45 -32.5 -76.5t-78.5 -31.5zM428 1561q-47 0 -79 31t-32 77t32 77.5t79 31.5q46 0 77.5 -31.5t31.5 -77.5t-31.5 -77t-77.5 -31zM166 0v1413h905v-176h-717v-438h650v-176h-650v-447
h727v-176h-915z" />
    <glyph glyph-name="Igrave" unicode="&#xcc;" horiz-adv-x="520" 
d="M182 1550l-252 265h228l211 -265h-187zM166 0v1413h188v-1413h-188z" />
    <glyph glyph-name="Iacute" unicode="&#xcd;" horiz-adv-x="520" 
d="M154 1550l211 265h227l-252 -265h-186zM166 0v1413h188v-1413h-188z" />
    <glyph glyph-name="Icircumflex" unicode="&#xce;" horiz-adv-x="520" 
d="M-51 1550l205 265h215l204 -265h-167l-144 170l-145 -170h-168zM166 0v1413h188v-1413h-188z" />
    <glyph glyph-name="Idieresis" unicode="&#xcf;" horiz-adv-x="520" 
d="M473 1561q-46 0 -78.5 31.5t-32.5 76.5q0 46 32.5 77.5t78.5 31.5t77.5 -31.5t31.5 -77.5t-31.5 -77t-77.5 -31zM49 1561q-46 0 -77 31t-31 77t31 77.5t77 31.5t78.5 -31.5t32.5 -77.5q0 -45 -32.5 -76.5t-78.5 -31.5zM166 0v1413h188v-1413h-188z" />
    <glyph glyph-name="Eth" unicode="&#xd0;" horiz-adv-x="1517" 
d="M166 0v641h-143v129h143v643h545q202 0 366 -92t257 -253.5t93 -360.5t-93 -361t-257 -254t-366 -92h-545zM616 641h-262v-465h355q224 0 375 152t151 379q0 149 -68.5 270.5t-189 190.5t-268.5 69h-355v-467h262v-129z" />
    <glyph glyph-name="Ntilde" unicode="&#xd1;" horiz-adv-x="1513" 
d="M899 1563q-42 0 -80.5 17.5t-62 38.5t-54.5 38.5t-61 17.5q-43 0 -71.5 -29.5t-28.5 -72.5h-127q0 105 56 173.5t151 68.5q42 0 80.5 -17.5t62 -38t54.5 -38t61 -17.5q43 0 71.5 29t28.5 73h129q0 -107 -56.5 -175t-152.5 -68zM166 0v1413h194l799 -1102v1102h187v-1413
h-193l-799 1102v-1102h-188z" />
    <glyph glyph-name="Ograve" unicode="&#xd2;" horiz-adv-x="1662" 
d="M752 1550l-250 265h225l213 -265h-188zM831 -25q-155 0 -292 56.5t-235 153.5t-155 232.5t-57 289.5q0 205 96.5 372.5t266 263t376.5 95.5q208 0 377.5 -95.5t266 -263t96.5 -372.5t-96.5 -373t-266 -263.5t-377.5 -95.5zM831 156q153 0 278.5 72t197 198.5t71.5 280.5
t-71.5 280.5t-197 198t-278.5 71.5q-115 0 -216.5 -42t-173.5 -115t-114 -175t-42 -218q0 -154 71 -280.5t196.5 -198.5t278.5 -72z" />
    <glyph glyph-name="Oacute" unicode="&#xd3;" horiz-adv-x="1662" 
d="M723 1550l213 265h227l-252 -265h-188zM831 -25q-155 0 -292 56.5t-235 153.5t-155 232.5t-57 289.5q0 205 96.5 372.5t266 263t376.5 95.5q208 0 377.5 -95.5t266 -263t96.5 -372.5t-96.5 -373t-266 -263.5t-377.5 -95.5zM831 156q153 0 278.5 72t197 198.5t71.5 280.5
t-71.5 280.5t-197 198t-278.5 71.5q-115 0 -216.5 -42t-173.5 -115t-114 -175t-42 -218q0 -154 71 -280.5t196.5 -198.5t278.5 -72z" />
    <glyph glyph-name="Ocircumflex" unicode="&#xd4;" horiz-adv-x="1662" 
d="M518 1550l207 265h215l205 -265h-168l-146 170l-145 -170h-168zM831 -25q-155 0 -292 56.5t-235 153.5t-155 232.5t-57 289.5q0 205 96.5 372.5t266 263t376.5 95.5q208 0 377.5 -95.5t266 -263t96.5 -372.5t-96.5 -373t-266 -263.5t-377.5 -95.5zM831 156
q153 0 278.5 72t197 198.5t71.5 280.5t-71.5 280.5t-197 198t-278.5 71.5q-115 0 -216.5 -42t-173.5 -115t-114 -175t-42 -218q0 -154 71 -280.5t196.5 -198.5t278.5 -72z" />
    <glyph glyph-name="Otilde" unicode="&#xd5;" horiz-adv-x="1662" 
d="M971 1563q-43 0 -81 17.5t-62 38.5t-54.5 38.5t-60.5 17.5q-43 0 -72 -29.5t-29 -72.5h-127q0 106 55.5 174t151.5 68q42 0 80 -17.5t61.5 -38t55 -38t61.5 -17.5q43 0 72 29t29 73h127q0 -107 -55.5 -175t-151.5 -68zM831 -25q-155 0 -292 56.5t-235 153.5t-155 232.5
t-57 289.5q0 205 96.5 372.5t266 263t376.5 95.5q208 0 377.5 -95.5t266 -263t96.5 -372.5t-96.5 -373t-266 -263.5t-377.5 -95.5zM831 156q153 0 278.5 72t197 198.5t71.5 280.5t-71.5 280.5t-197 198t-278.5 71.5q-115 0 -216.5 -42t-173.5 -115t-114 -175t-42 -218
q0 -154 71 -280.5t196.5 -198.5t278.5 -72z" />
    <glyph glyph-name="Odieresis" unicode="&#xd6;" horiz-adv-x="1662" 
d="M1044 1561q-47 0 -78.5 31t-31.5 77t31.5 77.5t78.5 31.5q46 0 77.5 -31.5t31.5 -77.5t-31.5 -77t-77.5 -31zM621 1561q-46 0 -78.5 31.5t-32.5 76.5q0 46 32.5 77.5t78.5 31.5t77 -31.5t31 -77.5t-31 -77t-77 -31zM831 -25q-155 0 -292 56.5t-235 153.5t-155 232.5
t-57 289.5q0 205 96.5 372.5t266 263t376.5 95.5q208 0 377.5 -95.5t266 -263t96.5 -372.5t-96.5 -373t-266 -263.5t-377.5 -95.5zM831 156q153 0 278.5 72t197 198.5t71.5 280.5t-71.5 280.5t-197 198t-278.5 71.5q-115 0 -216.5 -42t-173.5 -115t-114 -175t-42 -218
q0 -154 71 -280.5t196.5 -198.5t278.5 -72z" />
    <glyph glyph-name="multiply" unicode="&#xd7;" horiz-adv-x="966" 
d="M246 252l-117 115l238 237l-238 238l117 114l237 -235l236 235l117 -114l-236 -238l236 -237l-117 -115l-236 235z" />
    <glyph glyph-name="Oslash" unicode="&#xd8;" horiz-adv-x="1662" 
d="M131 0l168 190q-98 100 -152.5 233t-54.5 284q0 205 96.5 372.5t266 263t376.5 95.5q251 0 441 -135l96 110h164l-168 -190q99 -98 153 -231t54 -285q0 -205 -96.5 -373t-266 -263.5t-377.5 -95.5q-250 0 -440 138l-98 -113h-162zM285 707q0 -220 137 -373l727 827
q-138 96 -318 96q-115 0 -216.5 -42t-173.5 -115t-114 -175t-42 -218zM831 156q153 0 278.5 72t197 198.5t71.5 280.5q0 222 -139 374l-725 -829q138 -96 317 -96z" />
    <glyph glyph-name="Ugrave" unicode="&#xd9;" horiz-adv-x="1419" 
d="M629 1550l-250 265h227l211 -265h-188zM709 -25q-161 0 -292.5 74t-206.5 203.5t-75 288.5v872h187v-868q0 -166 110.5 -277.5t276.5 -111.5q167 0 278 111.5t111 277.5v868h186v-872q0 -159 -75 -288.5t-206.5 -203.5t-293.5 -74z" />
    <glyph glyph-name="Uacute" unicode="&#xda;" horiz-adv-x="1419" 
d="M600 1550l213 265h227l-252 -265h-188zM709 -25q-161 0 -292.5 74t-206.5 203.5t-75 288.5v872h187v-868q0 -166 110.5 -277.5t276.5 -111.5q167 0 278 111.5t111 277.5v868h186v-872q0 -159 -75 -288.5t-206.5 -203.5t-293.5 -74z" />
    <glyph glyph-name="Ucircumflex" unicode="&#xdb;" horiz-adv-x="1419" 
d="M397 1550l205 265h215l205 -265h-168l-145 170l-144 -170h-168zM709 -25q-161 0 -292.5 74t-206.5 203.5t-75 288.5v872h187v-868q0 -166 110.5 -277.5t276.5 -111.5q167 0 278 111.5t111 277.5v868h186v-872q0 -159 -75 -288.5t-206.5 -203.5t-293.5 -74z" />
    <glyph glyph-name="Udieresis" unicode="&#xdc;" horiz-adv-x="1419" 
d="M922 1561q-46 0 -78.5 31.5t-32.5 76.5q0 46 32.5 77.5t78.5 31.5t77 -31.5t31 -77.5t-31 -77t-77 -31zM498 1561q-46 0 -77.5 31t-31.5 77t31.5 77.5t77.5 31.5t77 -31.5t31 -77.5t-31 -77t-77 -31zM709 -25q-161 0 -292.5 74t-206.5 203.5t-75 288.5v872h187v-868
q0 -166 110.5 -277.5t276.5 -111.5q167 0 278 111.5t111 277.5v868h186v-872q0 -159 -75 -288.5t-206.5 -203.5t-293.5 -74z" />
    <glyph glyph-name="Yacute" unicode="&#xdd;" horiz-adv-x="1355" 
d="M571 1550l211 265h228l-250 -265h-189zM584 0v522l-566 891h215l447 -704l448 704h209l-565 -891v-522h-188z" />
    <glyph glyph-name="Thorn" unicode="&#xde;" horiz-adv-x="1267" 
d="M166 0v1413h188v-260h402q194 0 323 -127t129 -317q0 -189 -129.5 -317t-322.5 -128h-402v-264h-188zM754 977h-400v-537h400q112 0 187 76.5t75 192.5q0 115 -74.5 191.5t-187.5 76.5z" />
    <glyph glyph-name="germandbls" unicode="&#xdf;" horiz-adv-x="1114" 
d="M598 -25q-76 0 -149 25v172q62 -27 131 -27q126 0 209 78t83 195q0 120 -79 200t-199 80h-102v168h90q99 0 165 66.5t66 165.5q0 100 -70 165.5t-176 65.5q-104 0 -173.5 -65.5t-69.5 -165.5v-1098h-177v1112q0 166 120 276.5t300 110.5q182 0 305 -111.5t123 -273.5
q0 -111 -58 -200.5t-153 -129.5q121 -39 196 -144t75 -243q0 -180 -131 -301t-326 -121z" />
    <glyph glyph-name="agrave" unicode="&#xe0;" horiz-adv-x="1339" 
d="M596 1182l-252 264h227l211 -264h-186zM608 -25q-147 0 -267 71.5t-187.5 197t-67.5 278.5t67.5 278.5t187.5 197t267 71.5q128 0 233.5 -56.5t172.5 -156.5v188h176v-1044h-176v188q-67 -100 -172.5 -156.5t-233.5 -56.5zM641 145q160 0 266.5 108t106.5 269t-106.5 269
t-266.5 108q-161 0 -268 -108t-107 -269t107 -269t268 -108z" />
    <glyph glyph-name="aacute" unicode="&#xe1;" horiz-adv-x="1339" 
d="M567 1182l211 264h228l-252 -264h-187zM608 -25q-147 0 -267 71.5t-187.5 197t-67.5 278.5t67.5 278.5t187.5 197t267 71.5q128 0 233.5 -56.5t172.5 -156.5v188h176v-1044h-176v188q-67 -100 -172.5 -156.5t-233.5 -56.5zM641 145q160 0 266.5 108t106.5 269t-106.5 269
t-266.5 108q-161 0 -268 -108t-107 -269t107 -269t268 -108z" />
    <glyph glyph-name="acircumflex" unicode="&#xe2;" horiz-adv-x="1339" 
d="M362 1182l205 264h215l205 -264h-168l-145 170l-144 -170h-168zM608 -25q-147 0 -267 71.5t-187.5 197t-67.5 278.5t67.5 278.5t187.5 197t267 71.5q128 0 233.5 -56.5t172.5 -156.5v188h176v-1044h-176v188q-67 -100 -172.5 -156.5t-233.5 -56.5zM641 145
q160 0 266.5 108t106.5 269t-106.5 269t-266.5 108q-161 0 -268 -108t-107 -269t107 -269t268 -108z" />
    <glyph glyph-name="atilde" unicode="&#xe3;" horiz-adv-x="1339" 
d="M813 1194q-42 0 -80.5 17.5t-62 39t-54.5 39t-61 17.5q-42 0 -71 -30t-29 -73h-127q0 105 56 173.5t151 68.5q42 0 80.5 -17.5t62 -38t54.5 -38t61 -17.5q43 0 71.5 29.5t28.5 73.5h129q0 -107 -56.5 -175.5t-152.5 -68.5zM608 -25q-147 0 -267 71.5t-187.5 197
t-67.5 278.5t67.5 278.5t187.5 197t267 71.5q128 0 233.5 -56.5t172.5 -156.5v188h176v-1044h-176v188q-67 -100 -172.5 -156.5t-233.5 -56.5zM641 145q160 0 266.5 108t106.5 269t-106.5 269t-266.5 108q-161 0 -268 -108t-107 -269t107 -269t268 -108z" />
    <glyph glyph-name="adieresis" unicode="&#xe4;" horiz-adv-x="1339" 
d="M887 1192q-46 0 -78.5 31.5t-32.5 76.5q0 46 32.5 77.5t78.5 31.5t77 -31.5t31 -77.5t-31 -77t-77 -31zM463 1192q-46 0 -77.5 31t-31.5 77t31.5 77.5t77.5 31.5t77 -31.5t31 -77.5t-31 -77t-77 -31zM608 -25q-147 0 -267 71.5t-187.5 197t-67.5 278.5t67.5 278.5
t187.5 197t267 71.5q128 0 233.5 -56.5t172.5 -156.5v188h176v-1044h-176v188q-67 -100 -172.5 -156.5t-233.5 -56.5zM641 145q160 0 266.5 108t106.5 269t-106.5 269t-266.5 108q-161 0 -268 -108t-107 -269t107 -269t268 -108z" />
    <glyph glyph-name="aring" unicode="&#xe5;" horiz-adv-x="1339" 
d="M674 1153q-75 0 -126.5 50.5t-51.5 125.5q0 73 51.5 123.5t126.5 50.5q76 0 128 -50t52 -124q0 -75 -51.5 -125.5t-128.5 -50.5zM674 1245q35 0 58.5 23.5t23.5 60.5q0 35 -23.5 58.5t-58.5 23.5q-34 0 -57 -23.5t-23 -58.5q0 -36 23 -60t57 -24zM608 -25
q-147 0 -267 71.5t-187.5 197t-67.5 278.5t67.5 278.5t187.5 197t267 71.5q128 0 233.5 -56.5t172.5 -156.5v188h176v-1044h-176v188q-67 -100 -172.5 -156.5t-233.5 -56.5zM641 145q160 0 266.5 108t106.5 269t-106.5 269t-266.5 108q-161 0 -268 -108t-107 -269t107 -269
t268 -108z" />
    <glyph glyph-name="ae" unicode="&#xe6;" horiz-adv-x="2011" 
d="M487 -25q-187 0 -296 88t-109 236q0 139 99 224t276 85h377v76q0 101 -74 162t-197 61q-118 0 -192 -51.5t-74 -126.5h-176q0 146 124.5 243t319.5 97q135 0 236.5 -52t154.5 -145q74 93 184.5 145t241.5 52q155 0 282 -71t200 -197.5t73 -282.5q0 -40 -4 -65h-923
q24 -141 126 -228.5t250 -87.5q109 0 200.5 49.5t137.5 130.5h187q-65 -156 -206.5 -249t-322.5 -93q-137 0 -252 57.5t-190 157.5q-56 -99 -178 -157t-275 -58zM1380 907q-137 0 -237.5 -82.5t-128.5 -216.5h735q-25 133 -127 216t-242 83zM518 131q123 0 217.5 51.5
t134.5 139.5q-22 57 -32 131h-336q-114 0 -176 -42.5t-62 -113.5q0 -76 69 -121t185 -45z" />
    <glyph glyph-name="ccedilla" unicode="&#xe7;" horiz-adv-x="1241" 
d="M645 -465q-83 0 -141.5 49.5t-67.5 124.5h111q9 -33 36 -53.5t62 -20.5q41 0 70.5 29t29.5 70q0 42 -29 71t-71 29q-45 0 -70 -29l-102 45l100 130q-214 22 -352.5 174t-138.5 368q0 153 72.5 278.5t200.5 197t284 71.5q198 0 342.5 -112t179.5 -291h-186
q-32 105 -123.5 169t-212.5 64q-161 0 -268 -108t-107 -269t107 -269t268 -108q121 0 212 64.5t124 169.5h186q-32 -164 -159 -273.5t-304 -128.5l-41 -49h11q81 0 134.5 -55t53.5 -139t-60.5 -141.5t-150.5 -57.5z" />
    <glyph glyph-name="egrave" unicode="&#xe8;" horiz-adv-x="1271" 
d="M559 1182l-252 264h228l210 -264h-186zM643 -25q-159 0 -287.5 71.5t-201 196.5t-72.5 279q0 233 159.5 390t395.5 157q156 0 283.5 -71.5t199.5 -197t72 -278.5q0 -27 -4 -73h-918q23 -139 125.5 -225.5t249.5 -86.5q108 0 197.5 47.5t134.5 126.5h197
q-62 -152 -205 -244t-326 -92zM637 907q-139 0 -239 -83.5t-126 -217.5h734q-23 132 -125.5 216.5t-243.5 84.5z" />
    <glyph glyph-name="eacute" unicode="&#xe9;" horiz-adv-x="1271" 
d="M530 1182l211 264h228l-252 -264h-187zM643 -25q-159 0 -287.5 71.5t-201 196.5t-72.5 279q0 233 159.5 390t395.5 157q156 0 283.5 -71.5t199.5 -197t72 -278.5q0 -27 -4 -73h-918q23 -139 125.5 -225.5t249.5 -86.5q108 0 197.5 47.5t134.5 126.5h197
q-62 -152 -205 -244t-326 -92zM637 907q-139 0 -239 -83.5t-126 -217.5h734q-23 132 -125.5 216.5t-243.5 84.5z" />
    <glyph glyph-name="ecircumflex" unicode="&#xea;" horiz-adv-x="1271" 
d="M326 1182l204 264h215l205 -264h-168l-143 170l-145 -170h-168zM643 -25q-159 0 -287.5 71.5t-201 196.5t-72.5 279q0 233 159.5 390t395.5 157q156 0 283.5 -71.5t199.5 -197t72 -278.5q0 -27 -4 -73h-918q23 -139 125.5 -225.5t249.5 -86.5q108 0 197.5 47.5
t134.5 126.5h197q-62 -152 -205 -244t-326 -92zM637 907q-139 0 -239 -83.5t-126 -217.5h734q-23 132 -125.5 216.5t-243.5 84.5z" />
    <glyph glyph-name="edieresis" unicode="&#xeb;" horiz-adv-x="1271" 
d="M850 1192q-46 0 -77.5 31t-31.5 77t31.5 77.5t77.5 31.5t77 -31.5t31 -77.5t-31 -77t-77 -31zM426 1192q-46 0 -77.5 31t-31.5 77t31.5 77.5t77.5 31.5t78.5 -31.5t32.5 -77.5q0 -45 -32.5 -76.5t-78.5 -31.5zM643 -25q-159 0 -287.5 71.5t-201 196.5t-72.5 279
q0 233 159.5 390t395.5 157q156 0 283.5 -71.5t199.5 -197t72 -278.5q0 -27 -4 -73h-918q23 -139 125.5 -225.5t249.5 -86.5q108 0 197.5 47.5t134.5 126.5h197q-62 -152 -205 -244t-326 -92zM637 907q-139 0 -239 -83.5t-126 -217.5h734q-23 132 -125.5 216.5t-243.5 84.5z
" />
    <glyph glyph-name="igrave" unicode="&#xec;" horiz-adv-x="473" 
d="M158 1182l-252 264h227l213 -264h-188zM150 0v1044h176v-1044h-176z" />
    <glyph glyph-name="iacute" unicode="&#xed;" horiz-adv-x="473" 
d="M129 1182l211 264h227l-250 -264h-188zM150 0v1044h176v-1044h-176z" />
    <glyph glyph-name="icircumflex" unicode="&#xee;" horiz-adv-x="473" 
d="M-76 1182l205 264h215l205 -264h-168l-143 170l-146 -170h-168zM150 0v1044h176v-1044h-176z" />
    <glyph glyph-name="idieresis" unicode="&#xef;" horiz-adv-x="473" 
d="M449 1192q-46 0 -77.5 31t-31.5 77t31.5 77.5t77.5 31.5t77 -31.5t31 -77.5t-31 -77t-77 -31zM25 1192q-46 0 -77.5 31t-31.5 77t31.5 77.5t77.5 31.5t78 -31.5t32 -77.5t-32 -77t-78 -31zM150 0v1044h176v-1044h-176z" />
    <glyph glyph-name="eth" unicode="&#xf0;" horiz-adv-x="1239" 
d="M621 -25q-153 0 -277 69t-194 190.5t-70 271.5q0 148 68 269.5t185 190t259 68.5q179 0 311 -116q-113 196 -321 307l-97 -95h-141l139 138q-94 37 -192 51v166q173 -21 319 -92l95 92h139l-144 -142q214 -131 334.5 -349t120.5 -464q0 -249 -151.5 -402t-382.5 -153z
M618 145q152 0 254.5 103.5t102.5 255.5q0 154 -102.5 256t-254.5 102q-154 0 -255 -102t-101 -256q0 -153 101.5 -256t254.5 -103z" />
    <glyph glyph-name="ntilde" unicode="&#xf1;" horiz-adv-x="1261" 
d="M797 1194q-42 0 -80.5 17.5t-62 39t-54.5 39t-61 17.5q-43 0 -72 -30t-29 -73h-127q0 106 55.5 174t151.5 68q42 0 80.5 -17.5t62 -38t54.5 -38t61 -17.5q43 0 72 29.5t29 73.5h127q0 -107 -55.5 -175.5t-151.5 -68.5zM150 0v1044h176v-157q128 182 376 182
q191 0 307.5 -116t116.5 -308v-645h-176v590q0 140 -83 224.5t-222 84.5q-145 0 -232 -86t-87 -227v-586h-176z" />
    <glyph glyph-name="ograve" unicode="&#xf2;" horiz-adv-x="1275" 
d="M559 1182l-252 264h228l210 -264h-186zM639 -25q-156 0 -284 71.5t-200.5 197t-72.5 278.5t72.5 278.5t200.5 197t284 71.5q236 0 395.5 -157t159.5 -390t-159.5 -390t-395.5 -157zM639 145q160 0 266.5 108t106.5 269t-106.5 269t-266.5 108q-161 0 -268 -108t-107 -269
t107 -269t268 -108z" />
    <glyph glyph-name="oacute" unicode="&#xf3;" horiz-adv-x="1275" 
d="M530 1182l211 264h228l-252 -264h-187zM639 -25q-156 0 -284 71.5t-200.5 197t-72.5 278.5t72.5 278.5t200.5 197t284 71.5q236 0 395.5 -157t159.5 -390t-159.5 -390t-395.5 -157zM639 145q160 0 266.5 108t106.5 269t-106.5 269t-266.5 108q-161 0 -268 -108t-107 -269
t107 -269t268 -108z" />
    <glyph glyph-name="ocircumflex" unicode="&#xf4;" horiz-adv-x="1275" 
d="M326 1182l204 264h215l205 -264h-168l-143 170l-145 -170h-168zM639 -25q-156 0 -284 71.5t-200.5 197t-72.5 278.5t72.5 278.5t200.5 197t284 71.5q236 0 395.5 -157t159.5 -390t-159.5 -390t-395.5 -157zM639 145q160 0 266.5 108t106.5 269t-106.5 269t-266.5 108
q-161 0 -268 -108t-107 -269t107 -269t268 -108z" />
    <glyph glyph-name="otilde" unicode="&#xf5;" horiz-adv-x="1275" 
d="M776 1194q-42 0 -80.5 17.5t-62 39t-54.5 39t-61 17.5q-42 0 -71 -30t-29 -73h-127q0 105 56 173.5t151 68.5q42 0 80.5 -17.5t62 -38t54.5 -38t61 -17.5q43 0 71.5 29.5t28.5 73.5h129q0 -107 -56.5 -175.5t-152.5 -68.5zM639 -25q-156 0 -284 71.5t-200.5 197
t-72.5 278.5t72.5 278.5t200.5 197t284 71.5q236 0 395.5 -157t159.5 -390t-159.5 -390t-395.5 -157zM639 145q160 0 266.5 108t106.5 269t-106.5 269t-266.5 108q-161 0 -268 -108t-107 -269t107 -269t268 -108z" />
    <glyph glyph-name="odieresis" unicode="&#xf6;" horiz-adv-x="1275" 
d="M850 1192q-46 0 -77.5 31t-31.5 77t31.5 77.5t77.5 31.5t77 -31.5t31 -77.5t-31 -77t-77 -31zM426 1192q-46 0 -77.5 31t-31.5 77t31.5 77.5t77.5 31.5t78.5 -31.5t32.5 -77.5q0 -45 -32.5 -76.5t-78.5 -31.5zM639 -25q-156 0 -284 71.5t-200.5 197t-72.5 278.5
t72.5 278.5t200.5 197t284 71.5q236 0 395.5 -157t159.5 -390t-159.5 -390t-395.5 -157zM639 145q160 0 266.5 108t106.5 269t-106.5 269t-266.5 108q-161 0 -268 -108t-107 -269t107 -269t268 -108z" />
    <glyph glyph-name="divide" unicode="&#xf7;" horiz-adv-x="1093" 
d="M547 831q-44 0 -75.5 30.5t-31.5 74.5t31 74t76 30q44 0 75 -30t31 -74t-31 -74.5t-75 -30.5zM129 532v146h836v-146h-836zM547 170q-45 0 -76 30t-31 74t31.5 74.5t75.5 30.5t75 -30.5t31 -74.5t-31 -74t-75 -30z" />
    <glyph glyph-name="oslash" unicode="&#xf8;" horiz-adv-x="1275" 
d="M104 0l127 143q-149 152 -149 379q0 153 72.5 278.5t200.5 197t284 71.5q188 0 330 -102l67 77h133l-125 -141q150 -153 150 -381q0 -233 -159.5 -390t-395.5 -157q-192 0 -332 103l-69 -78h-134zM264 522q0 -139 86 -246l500 560q-95 63 -211 63q-161 0 -268 -108
t-107 -269zM639 145q160 0 266.5 108t106.5 269q0 142 -88 248l-500 -561q97 -64 215 -64z" />
    <glyph glyph-name="ugrave" unicode="&#xf9;" horiz-adv-x="1228" 
d="M528 1182l-252 264h228l211 -264h-187zM543 -25q-183 0 -295.5 113t-112.5 299v657h176v-606q0 -132 78.5 -212.5t208.5 -80.5q137 0 221 82t84 215v602h176v-1044h-176v152q-125 -177 -360 -177z" />
    <glyph glyph-name="uacute" unicode="&#xfa;" horiz-adv-x="1228" 
d="M500 1182l211 264h227l-252 -264h-186zM543 -25q-183 0 -295.5 113t-112.5 299v657h176v-606q0 -132 78.5 -212.5t208.5 -80.5q137 0 221 82t84 215v602h176v-1044h-176v152q-125 -177 -360 -177z" />
    <glyph glyph-name="ucircumflex" unicode="&#xfb;" horiz-adv-x="1228" 
d="M295 1182l205 264h215l205 -264h-168l-146 170l-143 -170h-168zM543 -25q-183 0 -295.5 113t-112.5 299v657h176v-606q0 -132 78.5 -212.5t208.5 -80.5q137 0 221 82t84 215v602h176v-1044h-176v152q-125 -177 -360 -177z" />
    <glyph glyph-name="udieresis" unicode="&#xfc;" horiz-adv-x="1228" 
d="M819 1192q-46 0 -78 31t-32 77t32 77.5t78 31.5t77.5 -31.5t31.5 -77.5t-31.5 -77t-77.5 -31zM395 1192q-46 0 -77 31t-31 77t31 77.5t77 31.5t78.5 -31.5t32.5 -77.5q0 -45 -32.5 -76.5t-78.5 -31.5zM543 -25q-183 0 -295.5 113t-112.5 299v657h176v-606
q0 -132 78.5 -212.5t208.5 -80.5q137 0 221 82t84 215v602h176v-1044h-176v152q-125 -177 -360 -177z" />
    <glyph glyph-name="yacute" unicode="&#xfd;" horiz-adv-x="1163" 
d="M475 1182l211 264h227l-251 -264h-187zM313 -389l172 393l-454 1040h200l353 -833l352 833h197l-629 -1433h-191z" />
    <glyph glyph-name="thorn" unicode="&#xfe;" horiz-adv-x="1343" 
d="M154 -389v1864h176v-619q67 100 172 156.5t233 56.5q224 0 374.5 -157t150.5 -390t-150.5 -390t-374.5 -157q-128 0 -233 56.5t-172 156.5v-577h-176zM702 145q161 0 268 108t107 269t-107 269t-268 108q-160 0 -266 -108t-106 -269t106 -269t266 -108z" />
    <glyph glyph-name="ydieresis" unicode="&#xff;" horiz-adv-x="1163" 
d="M795 1192q-46 0 -78.5 31.5t-32.5 76.5q0 46 32.5 77.5t78.5 31.5t77 -31.5t31 -77.5t-31 -77t-77 -31zM371 1192q-46 0 -77.5 31t-31.5 77t31.5 77.5t77.5 31.5t77 -31.5t31 -77.5t-31 -77t-77 -31zM313 -389l172 393l-454 1040h200l353 -833l352 833h197l-629 -1433
h-191z" />
    <glyph glyph-name="Amacron" unicode="&#x100;" horiz-adv-x="1419" 
d="M465 1581v150h487v-150h-487zM23 0l575 1413h223l576 -1413h-207l-137 342h-693l-137 -342h-200zM430 516h553l-276 692z" />
    <glyph glyph-name="amacron" unicode="&#x101;" horiz-adv-x="1339" 
d="M432 1212v150h486v-150h-486zM608 -25q-147 0 -267 71.5t-187.5 197t-67.5 278.5t67.5 278.5t187.5 197t267 71.5q128 0 233.5 -56.5t172.5 -156.5v188h176v-1044h-176v188q-67 -100 -172.5 -156.5t-233.5 -56.5zM641 145q160 0 266.5 108t106.5 269t-106.5 269
t-266.5 108q-161 0 -268 -108t-107 -269t107 -269t268 -108z" />
    <glyph glyph-name="Abreve" unicode="&#x102;" horiz-adv-x="1419" 
d="M709 1530q-122 0 -202.5 77.5t-80.5 194.5h139q0 -62 41.5 -103.5t102.5 -41.5t102 41.5t41 103.5h139q0 -117 -80.5 -194.5t-201.5 -77.5zM23 0l575 1413h223l576 -1413h-207l-137 342h-693l-137 -342h-200zM430 516h553l-276 692z" />
    <glyph glyph-name="abreve" unicode="&#x103;" horiz-adv-x="1339" 
d="M674 1161q-120 0 -201.5 78t-81.5 195h139q0 -61 42 -103.5t102 -42.5q61 0 103 42t42 104h139q0 -117 -81 -195t-203 -78zM608 -25q-147 0 -267 71.5t-187.5 197t-67.5 278.5t67.5 278.5t187.5 197t267 71.5q128 0 233.5 -56.5t172.5 -156.5v188h176v-1044h-176v188
q-67 -100 -172.5 -156.5t-233.5 -56.5zM641 145q160 0 266.5 108t106.5 269t-106.5 269t-266.5 108q-161 0 -268 -108t-107 -269t107 -269t268 -108z" />
    <glyph glyph-name="Aogonek" unicode="&#x104;" horiz-adv-x="1419" 
d="M23 0l575 1413h223l576 -1413h-2q-217 -96 -217 -221q0 -48 32 -77.5t78 -29.5q72 0 129 47v-131q-68 -45 -164 -45q-92 0 -154.5 57t-62.5 142q0 81 56.5 149t150.5 109h-53l-137 342h-693l-137 -342h-200zM430 516h553l-276 692z" />
    <glyph glyph-name="aogonek" unicode="&#x105;" horiz-adv-x="1339" 
d="M608 -25q-147 0 -267 71.5t-187.5 197t-67.5 278.5t67.5 278.5t187.5 197t267 71.5q128 0 233.5 -56.5t172.5 -156.5v188h176v-1044h-2q-105 -47 -160 -104t-55 -117q0 -48 32 -77.5t78 -29.5q72 0 129 47v-131q-68 -45 -163 -45q-92 0 -155 57t-63 142q0 81 56.5 149
t150.5 109h-24v188q-67 -100 -172.5 -156.5t-233.5 -56.5zM641 145q160 0 266.5 108t106.5 269t-106.5 269t-266.5 108q-161 0 -268 -108t-107 -269t107 -269t268 -108z" />
    <glyph glyph-name="Cacute" unicode="&#x106;" horiz-adv-x="1611" 
d="M723 1550l213 265h227l-252 -265h-188zM831 -25q-155 0 -292 56.5t-235 153.5t-155 232.5t-57 289.5q0 205 96.5 372.5t266 263t376.5 95.5q256 0 449 -144.5t250 -373.5h-199q-53 152 -188.5 244.5t-311.5 92.5q-115 0 -216.5 -42t-173.5 -115t-114 -175t-42 -218
q0 -154 71 -280.5t196.5 -198.5t278.5 -72q175 0 311 93t189 245h199q-57 -229 -250 -374t-449 -145z" />
    <glyph glyph-name="cacute" unicode="&#x107;" horiz-adv-x="1241" 
d="M530 1182l211 264h228l-252 -264h-187zM639 -25q-156 0 -284 71.5t-200.5 197t-72.5 278.5t72.5 278.5t200.5 197t284 71.5q198 0 342.5 -112t179.5 -291h-186q-32 105 -123.5 169t-212.5 64q-161 0 -268 -108t-107 -269t107 -269t268 -108q121 0 212 64.5t124 169.5h186
q-35 -179 -180 -291.5t-342 -112.5z" />
    <glyph glyph-name="Ccircumflex" unicode="&#x108;" horiz-adv-x="1611" 
d="M518 1550l207 265h215l205 -265h-168l-146 170l-145 -170h-168zM831 -25q-155 0 -292 56.5t-235 153.5t-155 232.5t-57 289.5q0 205 96.5 372.5t266 263t376.5 95.5q256 0 449 -144.5t250 -373.5h-199q-53 152 -188.5 244.5t-311.5 92.5q-115 0 -216.5 -42t-173.5 -115
t-114 -175t-42 -218q0 -154 71 -280.5t196.5 -198.5t278.5 -72q175 0 311 93t189 245h199q-57 -229 -250 -374t-449 -145z" />
    <glyph glyph-name="ccircumflex" unicode="&#x109;" horiz-adv-x="1241" 
d="M326 1182l204 264h215l205 -264h-168l-143 170l-145 -170h-168zM639 -25q-156 0 -284 71.5t-200.5 197t-72.5 278.5t72.5 278.5t200.5 197t284 71.5q198 0 342.5 -112t179.5 -291h-186q-32 105 -123.5 169t-212.5 64q-161 0 -268 -108t-107 -269t107 -269t268 -108
q121 0 212 64.5t124 169.5h186q-35 -179 -180 -291.5t-342 -112.5z" />
    <glyph glyph-name="Cdotaccent" unicode="&#x10a;" horiz-adv-x="1611" 
d="M831 1561q-47 0 -79.5 32.5t-32.5 79.5t32.5 80t79.5 33q49 0 82 -32.5t33 -80.5q0 -47 -33 -79.5t-82 -32.5zM831 -25q-155 0 -292 56.5t-235 153.5t-155 232.5t-57 289.5q0 205 96.5 372.5t266 263t376.5 95.5q256 0 449 -144.5t250 -373.5h-199q-53 152 -188.5 244.5
t-311.5 92.5q-115 0 -216.5 -42t-173.5 -115t-114 -175t-42 -218q0 -154 71 -280.5t196.5 -198.5t278.5 -72q175 0 311 93t189 245h199q-57 -229 -250 -374t-449 -145z" />
    <glyph glyph-name="cdotaccent" unicode="&#x10b;" horiz-adv-x="1241" 
d="M639 1192q-49 0 -82 32.5t-33 80.5q0 47 33 79.5t82 32.5q47 0 80 -32.5t33 -79.5t-33 -80t-80 -33zM639 -25q-156 0 -284 71.5t-200.5 197t-72.5 278.5t72.5 278.5t200.5 197t284 71.5q198 0 342.5 -112t179.5 -291h-186q-32 105 -123.5 169t-212.5 64q-161 0 -268 -108
t-107 -269t107 -269t268 -108q121 0 212 64.5t124 169.5h186q-35 -179 -180 -291.5t-342 -112.5z" />
    <glyph glyph-name="Ccaron" unicode="&#x10c;" horiz-adv-x="1611" 
d="M725 1550l-207 265h168l145 -170l146 170h168l-205 -265h-215zM831 -25q-155 0 -292 56.5t-235 153.5t-155 232.5t-57 289.5q0 205 96.5 372.5t266 263t376.5 95.5q256 0 449 -144.5t250 -373.5h-199q-53 152 -188.5 244.5t-311.5 92.5q-115 0 -216.5 -42t-173.5 -115
t-114 -175t-42 -218q0 -154 71 -280.5t196.5 -198.5t278.5 -72q175 0 311 93t189 245h199q-57 -229 -250 -374t-449 -145z" />
    <glyph glyph-name="ccaron" unicode="&#x10d;" horiz-adv-x="1241" 
d="M530 1182l-204 264h168l145 -170l143 170h168l-205 -264h-215zM639 -25q-156 0 -284 71.5t-200.5 197t-72.5 278.5t72.5 278.5t200.5 197t284 71.5q198 0 342.5 -112t179.5 -291h-186q-32 105 -123.5 169t-212.5 64q-161 0 -268 -108t-107 -269t107 -269t268 -108
q121 0 212 64.5t124 169.5h186q-35 -179 -180 -291.5t-342 -112.5z" />
    <glyph glyph-name="Dcaron" unicode="&#x10e;" horiz-adv-x="1517" 
d="M635 1550l-207 265h168l145 -170l146 170h168l-205 -265h-215zM166 0v1413h545q202 0 366 -92t257 -253.5t93 -360.5t-93 -361t-257 -254t-366 -92h-545zM709 1237h-355v-1061h355q224 0 375 152t151 379q0 149 -68.5 270.5t-189 190.5t-268.5 69z" />
    <glyph glyph-name="dcaron" unicode="&#x10f;" horiz-adv-x="1542" 
d="M1327 1098v106q64 21 88 88q-41 6 -67.5 36t-26.5 71q0 43 31 71.5t80 28.5q46 0 77 -30.5t31 -90.5q0 -112 -60.5 -186t-152.5 -94zM608 -25q-147 0 -267 71.5t-187.5 197t-67.5 278.5t67.5 278.5t187.5 197t267 71.5q128 0 233.5 -56.5t172.5 -156.5v619h176v-1475
h-176v188q-67 -100 -172.5 -156.5t-233.5 -56.5zM641 145q160 0 266.5 108t106.5 269t-106.5 269t-266.5 108q-161 0 -268 -108t-107 -269t107 -269t268 -108z" />
    <glyph glyph-name="Dcroat" unicode="&#x110;" horiz-adv-x="1517" 
d="M166 0v641h-143v129h143v643h545q202 0 366 -92t257 -253.5t93 -360.5t-93 -361t-257 -254t-366 -92h-545zM616 641h-262v-465h355q224 0 375 152t151 379q0 149 -68.5 270.5t-189 190.5t-268.5 69h-355v-467h262v-129z" />
    <glyph glyph-name="dcroat" unicode="&#x111;" horiz-adv-x="1343" 
d="M608 -25q-147 0 -267 71.5t-187.5 197t-67.5 278.5t67.5 278.5t187.5 197t267 71.5q128 0 233.5 -56.5t172.5 -156.5v324h-269v129h269v166h176v-166h149v-129h-149v-1180h-176v188q-67 -100 -172.5 -156.5t-233.5 -56.5zM641 145q160 0 266.5 108t106.5 269t-106.5 269
t-266.5 108q-161 0 -268 -108t-107 -269t107 -269t268 -108z" />
    <glyph glyph-name="Emacron" unicode="&#x112;" horiz-adv-x="1173" 
d="M395 1581v150h488v-150h-488zM166 0v1413h905v-176h-717v-438h650v-176h-650v-447h727v-176h-915z" />
    <glyph glyph-name="emacron" unicode="&#x113;" horiz-adv-x="1271" 
d="M395 1212v150h486v-150h-486zM643 -25q-159 0 -287.5 71.5t-201 196.5t-72.5 279q0 233 159.5 390t395.5 157q156 0 283.5 -71.5t199.5 -197t72 -278.5q0 -27 -4 -73h-918q23 -139 125.5 -225.5t249.5 -86.5q108 0 197.5 47.5t134.5 126.5h197q-62 -152 -205 -244
t-326 -92zM637 907q-139 0 -239 -83.5t-126 -217.5h734q-23 132 -125.5 216.5t-243.5 84.5z" />
    <glyph glyph-name="Ebreve" unicode="&#x114;" horiz-adv-x="1173" 
d="M639 1530q-122 0 -202.5 77.5t-80.5 194.5h140q0 -62 41 -103.5t102 -41.5t102 41.5t41 103.5h140q0 -117 -80.5 -194.5t-202.5 -77.5zM166 0v1413h905v-176h-717v-438h650v-176h-650v-447h727v-176h-915z" />
    <glyph glyph-name="ebreve" unicode="&#x115;" horiz-adv-x="1271" 
d="M639 1161q-122 0 -203.5 78t-81.5 195h140q0 -62 42 -104t103 -42q60 0 101.5 42.5t41.5 103.5h140q0 -117 -81.5 -195t-201.5 -78zM643 -25q-159 0 -287.5 71.5t-201 196.5t-72.5 279q0 233 159.5 390t395.5 157q156 0 283.5 -71.5t199.5 -197t72 -278.5q0 -27 -4 -73
h-918q23 -139 125.5 -225.5t249.5 -86.5q108 0 197.5 47.5t134.5 126.5h197q-62 -152 -205 -244t-326 -92zM637 907q-139 0 -239 -83.5t-126 -217.5h734q-23 132 -125.5 216.5t-243.5 84.5z" />
    <glyph glyph-name="Edotaccent" unicode="&#x116;" horiz-adv-x="1173" 
d="M639 1561q-48 0 -81.5 32.5t-33.5 79.5t34 80t81 33t80 -33t33 -80t-33 -79.5t-80 -32.5zM166 0v1413h905v-176h-717v-438h650v-176h-650v-447h727v-176h-915z" />
    <glyph glyph-name="edotaccent" unicode="&#x117;" horiz-adv-x="1271" 
d="M639 1192q-49 0 -82 32.5t-33 80.5q0 47 33 79.5t82 32.5q47 0 80 -32.5t33 -79.5t-33 -80t-80 -33zM643 -25q-159 0 -287.5 71.5t-201 196.5t-72.5 279q0 233 159.5 390t395.5 157q156 0 283.5 -71.5t199.5 -197t72 -278.5q0 -27 -4 -73h-918q23 -139 125.5 -225.5
t249.5 -86.5q108 0 197.5 47.5t134.5 126.5h197q-62 -152 -205 -244t-326 -92zM637 907q-139 0 -239 -83.5t-126 -217.5h734q-23 132 -125.5 216.5t-243.5 84.5z" />
    <glyph glyph-name="Eogonek" unicode="&#x118;" horiz-adv-x="1173" 
d="M166 0v1413h905v-176h-717v-438h650v-176h-650v-447h727v-176h-22q-215 -95 -215 -221q0 -48 32 -77.5t78 -29.5q72 0 129 47v-131q-68 -45 -163 -45q-94 0 -156 57t-62 142q0 81 56.5 149t150.5 109h-743z" />
    <glyph glyph-name="eogonek" unicode="&#x119;" horiz-adv-x="1271" 
d="M643 -25q-159 0 -287.5 71.5t-201 196.5t-72.5 279q0 233 159.5 390t395.5 157q156 0 283.5 -71.5t199.5 -197t72 -278.5q0 -27 -4 -73h-918q23 -139 125.5 -225.5t249.5 -86.5q108 0 197.5 47.5t134.5 126.5h197q-73 -183 -267 -278q-174 -119 -174 -244
q0 -52 33.5 -84.5t83.5 -32.5q80 0 135 62v-135q-29 -26 -76.5 -41t-95.5 -15q-96 0 -160.5 60.5t-64.5 150.5q0 122 104 223q-16 -2 -49 -2zM637 907q-139 0 -239 -83.5t-126 -217.5h734q-23 132 -125.5 216.5t-243.5 84.5z" />
    <glyph glyph-name="Ecaron" unicode="&#x11a;" horiz-adv-x="1173" 
d="M530 1550l-204 265h168l145 -170l145 170h168l-207 -265h-215zM166 0v1413h905v-176h-717v-438h650v-176h-650v-447h727v-176h-915z" />
    <glyph glyph-name="ecaron" unicode="&#x11b;" horiz-adv-x="1271" 
d="M530 1182l-204 264h168l145 -170l143 170h168l-205 -264h-215zM643 -25q-159 0 -287.5 71.5t-201 196.5t-72.5 279q0 233 159.5 390t395.5 157q156 0 283.5 -71.5t199.5 -197t72 -278.5q0 -27 -4 -73h-918q23 -139 125.5 -225.5t249.5 -86.5q108 0 197.5 47.5
t134.5 126.5h197q-62 -152 -205 -244t-326 -92zM637 907q-139 0 -239 -83.5t-126 -217.5h734q-23 132 -125.5 216.5t-243.5 84.5z" />
    <glyph glyph-name="Gcircumflex" unicode="&#x11c;" horiz-adv-x="1644" 
d="M518 1550l207 265h215l205 -265h-168l-146 170l-145 -170h-168zM831 -25q-155 0 -292 56.5t-235 153.5t-155 232.5t-57 289.5q0 205 96.5 372.5t266 263t376.5 95.5q239 0 424 -123.5t256 -323.5h-208q-67 123 -192 194.5t-280 71.5q-115 0 -216.5 -42t-173.5 -115
t-114 -175t-42 -218q0 -154 71 -280.5t196.5 -198.5t278.5 -72q204 0 350.5 119t174.5 307h-473v170h671v-62q0 -202 -94 -366t-259.5 -256.5t-369.5 -92.5z" />
    <glyph glyph-name="gcircumflex" unicode="&#x11d;" horiz-adv-x="1339" 
d="M360 1182l205 264h215l207 -264h-168l-145 170l-146 -170h-168zM610 23q-146 0 -266 68.5t-188 189t-68 266.5t68 266t188 188t266 68q130 0 235.5 -55t172.5 -152v182h176v-931q0 -238 -145.5 -382.5t-386.5 -144.5q-199 0 -338 97.5t-170 261.5h182q26 -89 116 -143
t212 -54q162 0 258 97t96 261v123q-67 -97 -172.5 -151.5t-235.5 -54.5zM645 195q160 0 266.5 100.5t106.5 251.5q0 150 -107 251t-266 101q-161 0 -268 -101t-107 -251q0 -151 107 -251.5t268 -100.5z" />
    <glyph glyph-name="Gbreve" unicode="&#x11e;" horiz-adv-x="1644" 
d="M831 1530q-120 0 -201 77.5t-81 194.5h139q0 -62 41 -103.5t102 -41.5t102.5 41.5t41.5 103.5h139q0 -117 -80.5 -194.5t-202.5 -77.5zM831 -25q-155 0 -292 56.5t-235 153.5t-155 232.5t-57 289.5q0 205 96.5 372.5t266 263t376.5 95.5q239 0 424 -123.5t256 -323.5
h-208q-67 123 -192 194.5t-280 71.5q-115 0 -216.5 -42t-173.5 -115t-114 -175t-42 -218q0 -154 71 -280.5t196.5 -198.5t278.5 -72q204 0 350.5 119t174.5 307h-473v170h671v-62q0 -202 -94 -366t-259.5 -256.5t-369.5 -92.5z" />
    <glyph glyph-name="gbreve" unicode="&#x11f;" horiz-adv-x="1339" 
d="M674 1161q-121 0 -202 78t-81 195h139q0 -62 41.5 -104t102.5 -42t102 42t41 104h139q0 -117 -80.5 -195t-201.5 -78zM610 23q-146 0 -266 68.5t-188 189t-68 266.5t68 266t188 188t266 68q130 0 235.5 -55t172.5 -152v182h176v-931q0 -238 -145.5 -382.5t-386.5 -144.5
q-199 0 -338 97.5t-170 261.5h182q26 -89 116 -143t212 -54q162 0 258 97t96 261v123q-67 -97 -172.5 -151.5t-235.5 -54.5zM645 195q160 0 266.5 100.5t106.5 251.5q0 150 -107 251t-266 101q-161 0 -268 -101t-107 -251q0 -151 107 -251.5t268 -100.5z" />
    <glyph glyph-name="Gdotaccent" unicode="&#x120;" horiz-adv-x="1644" 
d="M831 1561q-47 0 -79.5 32.5t-32.5 79.5t32.5 80t79.5 33q49 0 82 -32.5t33 -80.5q0 -47 -33 -79.5t-82 -32.5zM831 -25q-155 0 -292 56.5t-235 153.5t-155 232.5t-57 289.5q0 205 96.5 372.5t266 263t376.5 95.5q239 0 424 -123.5t256 -323.5h-208q-67 123 -192 194.5
t-280 71.5q-115 0 -216.5 -42t-173.5 -115t-114 -175t-42 -218q0 -154 71 -280.5t196.5 -198.5t278.5 -72q204 0 350.5 119t174.5 307h-473v170h671v-62q0 -202 -94 -366t-259.5 -256.5t-369.5 -92.5z" />
    <glyph glyph-name="gdotaccent" unicode="&#x121;" horiz-adv-x="1339" 
d="M674 1192q-47 0 -81 33t-34 80t33.5 79.5t81.5 32.5q47 0 79.5 -32.5t32.5 -79.5t-32.5 -80t-79.5 -33zM610 23q-146 0 -266 68.5t-188 189t-68 266.5t68 266t188 188t266 68q130 0 235.5 -55t172.5 -152v182h176v-931q0 -238 -145.5 -382.5t-386.5 -144.5
q-199 0 -338 97.5t-170 261.5h182q26 -89 116 -143t212 -54q162 0 258 97t96 261v123q-67 -97 -172.5 -151.5t-235.5 -54.5zM645 195q160 0 266.5 100.5t106.5 251.5q0 150 -107 251t-266 101q-161 0 -268 -101t-107 -251q0 -151 107 -251.5t268 -100.5z" />
    <glyph glyph-name="uni0122" unicode="&#x122;" horiz-adv-x="1644" 
d="M831 -25q-155 0 -292 56.5t-235 153.5t-155 232.5t-57 289.5q0 205 96.5 372.5t266 263t376.5 95.5q239 0 424 -123.5t256 -323.5h-208q-67 123 -192 194.5t-280 71.5q-115 0 -216.5 -42t-173.5 -115t-114 -175t-42 -218q0 -154 71 -280.5t196.5 -198.5t278.5 -72
q204 0 350.5 119t174.5 307h-473v170h671v-62q0 -202 -94 -366t-259.5 -256.5t-369.5 -92.5zM731 -524v104q65 24 88 90q-41 6 -67.5 35.5t-26.5 69.5q0 45 31 73.5t80 28.5q46 0 77 -31.5t31 -91.5q0 -112 -60 -185t-153 -93z" />
    <glyph glyph-name="uni0123" unicode="&#x123;" horiz-adv-x="1339" 
d="M672 1155q-47 0 -79 31t-32 90q0 112 61 185t154 93v-104q-65 -21 -88 -90q41 -4 66.5 -34.5t25.5 -70.5q0 -43 -29.5 -71.5t-78.5 -28.5zM610 23q-146 0 -266 68.5t-188 189t-68 266.5t68 266t188 188t266 68q130 0 235.5 -55t172.5 -152v182h176v-931
q0 -238 -145.5 -382.5t-386.5 -144.5q-199 0 -338 97.5t-170 261.5h182q26 -89 116 -143t212 -54q162 0 258 97t96 261v123q-67 -97 -172.5 -151.5t-235.5 -54.5zM645 195q160 0 266.5 100.5t106.5 251.5q0 150 -107 251t-266 101q-161 0 -268 -101t-107 -251
q0 -151 107 -251.5t268 -100.5z" />
    <glyph glyph-name="Hcircumflex" unicode="&#x124;" horiz-adv-x="1495" 
d="M436 1550l207 265h215l205 -265h-168l-145 170l-146 -170h-168zM166 0v1413h188v-614h787v614h188v-1413h-188v623h-787v-623h-188z" />
    <glyph glyph-name="hcircumflex" unicode="&#x125;" horiz-adv-x="1265" 
d="M-72 1567l205 266h215l205 -266h-168l-143 170l-146 -170h-168zM154 0v1475h176v-594q62 91 158.5 139.5t218.5 48.5q191 0 307 -116t116 -308v-645h-176v590q0 140 -83 224.5t-222 84.5q-145 0 -232 -86t-87 -227v-586h-176z" />
    <glyph glyph-name="Hbar" unicode="&#x126;" horiz-adv-x="1495" 
d="M166 0v1042h-115v132h115v239h188v-239h787v239h188v-239h117v-132h-117v-1042h-188v623h-787v-623h-188zM354 799h787v243h-787v-243z" />
    <glyph glyph-name="hbar" unicode="&#x127;" horiz-adv-x="1265" 
d="M154 0v1180h-150v129h150v166h176v-166h268v-129h-268v-299q62 91 158.5 139.5t218.5 48.5q191 0 307 -116t116 -308v-645h-176v590q0 140 -83 224.5t-222 84.5q-145 0 -232 -86t-87 -227v-586h-176z" />
    <glyph glyph-name="Itilde" unicode="&#x128;" horiz-adv-x="520" 
d="M399 1563q-42 0 -80.5 17.5t-62 38.5t-54.5 38.5t-61 17.5q-43 0 -71.5 -29.5t-28.5 -72.5h-127q0 105 56 173.5t151 68.5q42 0 80.5 -17.5t62 -38t54.5 -38t61 -17.5q43 0 71.5 29t28.5 73h129q0 -107 -56.5 -175t-152.5 -68zM166 0v1413h188v-1413h-188z" />
    <glyph glyph-name="itilde" unicode="&#x129;" horiz-adv-x="473" 
d="M375 1194q-42 0 -80 17.5t-62 39t-54.5 39t-59.5 17.5q-44 0 -73.5 -30t-29.5 -73h-127q0 105 56.5 173.5t152.5 68.5q41 0 79 -17.5t61.5 -38t54.5 -38t61 -17.5q43 0 73 29.5t30 73.5h127q0 -107 -56.5 -175.5t-152.5 -68.5zM150 0v1044h176v-1044h-176z" />
    <glyph glyph-name="Imacron" unicode="&#x12a;" horiz-adv-x="520" 
d="M18 1581v150h486v-150h-486zM166 0v1413h188v-1413h-188z" />
    <glyph glyph-name="imacron" unicode="&#x12b;" horiz-adv-x="473" 
d="M-6 1212v150h485v-150h-485zM150 0v1044h176v-1044h-176z" />
    <glyph glyph-name="Ibreve" unicode="&#x12c;" horiz-adv-x="520" 
d="M262 1530q-122 0 -203.5 77.5t-81.5 194.5h140q0 -62 41.5 -103.5t103.5 -41.5q60 0 102 42t42 103h139q0 -117 -81.5 -194.5t-201.5 -77.5zM166 0v1413h188v-1413h-188z" />
    <glyph glyph-name="ibreve" unicode="&#x12d;" horiz-adv-x="473" 
d="M238 1161q-121 0 -202 78t-81 195h137q0 -62 42 -104t104 -42q61 0 102 42t41 104h139q0 -117 -81 -195t-201 -78zM150 0v1044h176v-1044h-176z" />
    <glyph glyph-name="Iogonek" unicode="&#x12e;" horiz-adv-x="520" 
d="M166 0v1413h188v-1413h-2q-217 -96 -217 -221q0 -48 33 -77.5t78 -29.5q72 0 129 47v-131q-68 -45 -164 -45q-92 0 -154.5 57t-62.5 142q0 81 56.5 149t150.5 109h-35z" />
    <glyph glyph-name="iogonek" unicode="&#x12f;" horiz-adv-x="473" 
d="M238 1192q-49 0 -82 32.5t-33 80.5q0 47 33 79.5t82 32.5q47 0 79.5 -32.5t32.5 -79.5t-32.5 -80t-79.5 -33zM150 0v1044h176v-1044h-2q-107 -47 -162.5 -104t-55.5 -117q0 -48 32.5 -77.5t78.5 -29.5q72 0 129 47v-131q-68 -45 -164 -45q-92 0 -154.5 57t-62.5 142
q0 81 56.5 149t150.5 109h-22z" />
    <glyph glyph-name="Idotaccent" unicode="&#x130;" horiz-adv-x="520" 
d="M262 1561q-49 0 -82 32.5t-33 79.5q0 48 33 80.5t82 32.5q47 0 80 -33t33 -80t-33 -79.5t-80 -32.5zM166 0v1413h188v-1413h-188z" />
    <glyph glyph-name="dotlessi" unicode="&#x131;" horiz-adv-x="473" 
d="M150 0v1044h176v-1044h-176z" />
    <glyph glyph-name="IJ" unicode="&#x132;" horiz-adv-x="1626" 
d="M166 0v1413h188v-1413h-188zM1034 -25q-197 0 -328 130t-131 329h193q0 -122 76 -200t192 -78t192.5 76.5t76.5 191.5v989h188v-989q0 -192 -132 -320.5t-327 -128.5z" />
    <glyph glyph-name="ij" unicode="&#x133;" horiz-adv-x="966" 
d="M242 1243q-51 0 -85 33t-34 84q0 50 34 83.5t85 33.5q49 0 82.5 -33.5t33.5 -83.5q0 -51 -33 -84t-83 -33zM731 1243q-51 0 -85 33t-34 84q0 50 34 83.5t85 33.5q49 0 83 -33.5t34 -83.5q0 -51 -33.5 -84t-83.5 -33zM154 0v1044h176v-1044h-176zM393 -399v170h64
q87 0 136.5 48t49.5 132v1093h176v-1114q0 -160 -90 -244.5t-264 -84.5h-72z" />
    <glyph glyph-name="Jcircumflex" unicode="&#x134;" horiz-adv-x="1105" 
d="M565 1550l205 265h215l205 -265h-168l-145 170l-144 -170h-168zM514 -25q-197 0 -328 130t-131 329h193q0 -122 76 -200t192 -78t192 76t76 192v989h189v-989q0 -192 -132 -320.5t-327 -128.5z" />
    <glyph glyph-name="jcircumflex" unicode="&#x135;" horiz-adv-x="485" 
d="M-63 1182l204 264h215l205 -264h-168l-145 170l-144 -170h-167zM-88 -399v170h63q87 0 136 48t49 132v1093h176v-1114q0 -161 -89 -245t-265 -84h-70z" />
    <glyph glyph-name="uni0136" unicode="&#x136;" horiz-adv-x="1265" 
d="M166 0v1413h188v-723l668 723h231l-587 -647l614 -766h-236l-503 631l-187 -193v-438h-188zM618 -524v104q66 24 89 90q-41 6 -67 35.5t-26 69.5q0 45 30 73.5t79 28.5q46 0 77 -31.5t31 -91.5q0 -112 -60 -185t-153 -93z" />
    <glyph glyph-name="uni0137" unicode="&#x137;" horiz-adv-x="1095" 
d="M154 0v1475h176v-969l526 538h225l-458 -466l475 -578h-228l-372 451l-168 -175v-276h-176zM522 -524v104q65 24 88 90q-41 6 -66.5 35.5t-25.5 69.5q0 45 30 73.5t79 28.5q46 0 77 -31.5t31 -91.5q0 -112 -60 -185t-153 -93z" />
    <glyph glyph-name="Lacute" unicode="&#x139;" horiz-adv-x="1081" 
d="M154 1550l211 265h227l-252 -265h-186zM166 0v1413h188v-1237h666v-176h-854z" />
    <glyph glyph-name="lacute" unicode="&#x13a;" horiz-adv-x="481" 
d="M133 1567l211 266h227l-249 -266h-189zM154 0v1475h176v-1475h-176z" />
    <glyph glyph-name="uni013B" unicode="&#x13b;" horiz-adv-x="1081" 
d="M166 0v1413h188v-1237h666v-176h-854zM508 -524v104q66 24 86 90q-40 6 -66 35.5t-26 69.5q0 45 30.5 73.5t79.5 28.5q46 0 77.5 -31.5t31.5 -91.5q0 -112 -60 -185t-153 -93z" />
    <glyph glyph-name="uni013C" unicode="&#x13c;" horiz-adv-x="481" 
d="M154 0v1475h176v-1475h-176zM139 -524v104q65 24 88 90q-41 6 -66.5 35.5t-25.5 69.5q0 45 30 73.5t79 28.5q46 0 78 -31.5t32 -91.5q0 -112 -61 -185t-154 -93z" />
    <glyph glyph-name="Lcaron" unicode="&#x13d;" horiz-adv-x="1081" 
d="M582 1036v107q66 22 86 88q-40 6 -66.5 35.5t-26.5 70.5q0 43 31 72t80 29q45 0 77 -31t32 -90q0 -112 -61 -186.5t-152 -94.5zM166 0v1413h188v-1237h666v-176h-854z" />
    <glyph glyph-name="lcaron" unicode="&#x13e;" horiz-adv-x="679" 
d="M465 1098v106q64 21 88 88q-41 6 -66.5 36t-25.5 71q0 43 29.5 71.5t78.5 28.5q46 0 77.5 -31t31.5 -90q0 -112 -60.5 -186t-152.5 -94zM154 0v1475h176v-1475h-176z" />
    <glyph glyph-name="Ldot" unicode="&#x13f;" horiz-adv-x="1081" 
d="M166 0v1413h188v-1237h666v-176h-854zM657 606q-50 0 -83 34t-33 85q0 50 33.5 83.5t82.5 33.5q51 0 85 -33.5t34 -83.5q0 -51 -34 -85t-85 -34z" />
    <glyph glyph-name="ldot" unicode="&#x140;" horiz-adv-x="753" 
d="M154 0v1475h176v-1475h-176zM586 618q-51 0 -85 34t-34 85t34 85t85 34q50 0 84.5 -34t34.5 -85t-34.5 -85t-84.5 -34z" />
    <glyph glyph-name="Lslash" unicode="&#x141;" horiz-adv-x="1081" 
d="M166 0v530l-131 -84v175l131 84v708h188v-592l246 156v-174l-246 -156v-471h666v-176h-854z" />
    <glyph glyph-name="lslash" unicode="&#x142;" horiz-adv-x="514" 
d="M170 0v600l-111 -70v148l111 70v727h176v-617l109 72v-148l-109 -69v-713h-176z" />
    <glyph glyph-name="Nacute" unicode="&#x143;" horiz-adv-x="1513" 
d="M653 1550l211 265h228l-252 -265h-187zM166 0v1413h194l799 -1102v1102h187v-1413h-193l-799 1102v-1102h-188z" />
    <glyph glyph-name="nacute" unicode="&#x144;" horiz-adv-x="1261" 
d="M549 1182l213 264h227l-252 -264h-188zM150 0v1044h176v-157q128 182 376 182q191 0 307.5 -116t116.5 -308v-645h-176v590q0 140 -83 224.5t-222 84.5q-145 0 -232 -86t-87 -227v-586h-176z" />
    <glyph glyph-name="uni0145" unicode="&#x145;" horiz-adv-x="1513" 
d="M166 0v1413h194l799 -1102v1102h187v-1413h-193l-799 1102v-1102h-188zM655 -524v104q65 24 88 90q-41 6 -66.5 35.5t-25.5 69.5q0 45 30 73.5t79 28.5q46 0 77 -31.5t31 -91.5q0 -112 -60 -185t-153 -93z" />
    <glyph glyph-name="uni0146" unicode="&#x146;" horiz-adv-x="1261" 
d="M150 0v1044h176v-157q128 182 376 182q191 0 307.5 -116t116.5 -308v-645h-176v590q0 140 -83 224.5t-222 84.5q-145 0 -232 -86t-87 -227v-586h-176zM537 -524v104q65 24 88 90q-41 6 -67 35.5t-26 69.5q0 45 30 73.5t79 28.5q46 0 78.5 -32t32.5 -91q0 -112 -61 -185
t-154 -93z" />
    <glyph glyph-name="Ncaron" unicode="&#x147;" horiz-adv-x="1513" 
d="M653 1550l-204 265h167l146 -170l143 170h168l-205 -265h-215zM166 0v1413h194l799 -1102v1102h187v-1413h-193l-799 1102v-1102h-188z" />
    <glyph glyph-name="ncaron" unicode="&#x148;" horiz-adv-x="1261" 
d="M551 1182l-207 264h168l145 -170l146 170h168l-205 -264h-215zM150 0v1044h176v-157q128 182 376 182q191 0 307.5 -116t116.5 -308v-645h-176v590q0 140 -83 224.5t-222 84.5q-145 0 -232 -86t-87 -227v-586h-176z" />
    <glyph glyph-name="Eng" unicode="&#x14a;" horiz-adv-x="1513" 
d="M985 -412v172q81 0 127.5 42t46.5 126v62l-805 1110v-1100h-188v1413h194l799 -1100v1100h187v-1491q0 -167 -92.5 -250.5t-268.5 -83.5z" />
    <glyph glyph-name="eng" unicode="&#x14b;" horiz-adv-x="1261" 
d="M150 0v1044h176v-157q128 182 376 182q191 0 307.5 -116t116.5 -308v-723q0 -167 -91.5 -250.5t-264.5 -83.5v172q180 0 180 168v662q0 140 -83 224.5t-222 84.5q-145 0 -232 -86t-87 -227v-586h-176z" />
    <glyph glyph-name="Omacron" unicode="&#x14c;" horiz-adv-x="1662" 
d="M588 1581v150h487v-150h-487zM831 -25q-155 0 -292 56.5t-235 153.5t-155 232.5t-57 289.5q0 205 96.5 372.5t266 263t376.5 95.5q208 0 377.5 -95.5t266 -263t96.5 -372.5t-96.5 -373t-266 -263.5t-377.5 -95.5zM831 156q153 0 278.5 72t197 198.5t71.5 280.5
t-71.5 280.5t-197 198t-278.5 71.5q-115 0 -216.5 -42t-173.5 -115t-114 -175t-42 -218q0 -154 71 -280.5t196.5 -198.5t278.5 -72z" />
    <glyph glyph-name="omacron" unicode="&#x14d;" horiz-adv-x="1275" 
d="M395 1212v150h486v-150h-486zM639 -25q-156 0 -284 71.5t-200.5 197t-72.5 278.5t72.5 278.5t200.5 197t284 71.5q236 0 395.5 -157t159.5 -390t-159.5 -390t-395.5 -157zM639 145q160 0 266.5 108t106.5 269t-106.5 269t-266.5 108q-161 0 -268 -108t-107 -269t107 -269
t268 -108z" />
    <glyph glyph-name="Obreve" unicode="&#x14e;" horiz-adv-x="1662" 
d="M831 1530q-120 0 -201 77.5t-81 194.5h139q0 -62 41 -103.5t102 -41.5t102.5 41.5t41.5 103.5h139q0 -117 -80.5 -194.5t-202.5 -77.5zM831 -25q-155 0 -292 56.5t-235 153.5t-155 232.5t-57 289.5q0 205 96.5 372.5t266 263t376.5 95.5q208 0 377.5 -95.5t266 -263
t96.5 -372.5t-96.5 -373t-266 -263.5t-377.5 -95.5zM831 156q153 0 278.5 72t197 198.5t71.5 280.5t-71.5 280.5t-197 198t-278.5 71.5q-115 0 -216.5 -42t-173.5 -115t-114 -175t-42 -218q0 -154 71 -280.5t196.5 -198.5t278.5 -72z" />
    <glyph glyph-name="obreve" unicode="&#x14f;" horiz-adv-x="1275" 
d="M639 1161q-122 0 -203.5 78t-81.5 195h140q0 -62 42 -104t103 -42q60 0 101.5 42.5t41.5 103.5h140q0 -117 -81.5 -195t-201.5 -78zM639 -25q-156 0 -284 71.5t-200.5 197t-72.5 278.5t72.5 278.5t200.5 197t284 71.5q236 0 395.5 -157t159.5 -390t-159.5 -390
t-395.5 -157zM639 145q160 0 266.5 108t106.5 269t-106.5 269t-266.5 108q-161 0 -268 -108t-107 -269t107 -269t268 -108z" />
    <glyph glyph-name="Ohungarumlaut" unicode="&#x150;" horiz-adv-x="1662" 
d="M938 1550l170 265h197l-195 -265h-172zM541 1550l168 265h196l-194 -265h-170zM831 -25q-155 0 -292 56.5t-235 153.5t-155 232.5t-57 289.5q0 205 96.5 372.5t266 263t376.5 95.5q208 0 377.5 -95.5t266 -263t96.5 -372.5t-96.5 -373t-266 -263.5t-377.5 -95.5zM831 156
q153 0 278.5 72t197 198.5t71.5 280.5t-71.5 280.5t-197 198t-278.5 71.5q-115 0 -216.5 -42t-173.5 -115t-114 -175t-42 -218q0 -154 71 -280.5t196.5 -198.5t278.5 -72z" />
    <glyph glyph-name="ohungarumlaut" unicode="&#x151;" horiz-adv-x="1275" 
d="M745 1182l168 264h197l-195 -264h-170zM346 1182l168 264h197l-193 -264h-172zM639 -25q-156 0 -284 71.5t-200.5 197t-72.5 278.5t72.5 278.5t200.5 197t284 71.5q236 0 395.5 -157t159.5 -390t-159.5 -390t-395.5 -157zM639 145q160 0 266.5 108t106.5 269t-106.5 269
t-266.5 108q-161 0 -268 -108t-107 -269t107 -269t268 -108z" />
    <glyph glyph-name="OE" unicode="&#x152;" horiz-adv-x="1964" 
d="M807 0q-151 0 -283.5 54t-227.5 148t-149.5 225t-54.5 280q0 199 93 360.5t257 253.5t365 92h1057v-176h-699v-438h631v-176h-631v-447h709v-176h-1067zM811 176h168v1061h-168q-226 0 -376 -151.5t-150 -378.5t150 -379t376 -152z" />
    <glyph glyph-name="oe" unicode="&#x153;" horiz-adv-x="2199" 
d="M633 -25q-154 0 -280.5 71.5t-198.5 197t-72 278.5t72 278.5t198.5 197t280.5 71.5q156 0 279.5 -75.5t189.5 -205.5q67 130 191 205.5t280 75.5q154 0 280.5 -71.5t198.5 -197t72 -278.5q0 -43 -6 -73h-918q25 -137 126 -222.5t243 -85.5q109 0 197.5 46t134.5 124h196
q-64 -153 -203 -244.5t-321 -91.5q-156 0 -280 75.5t-191 205.5q-66 -130 -189.5 -205.5t-279.5 -75.5zM1569 903q-139 0 -240 -82t-127 -215h733q-23 132 -125.5 214.5t-240.5 82.5zM637 145q161 0 268 108t107 269t-107 269t-268 108t-267 -107.5t-106 -269.5t106 -269.5
t267 -107.5z" />
    <glyph glyph-name="Racute" unicode="&#x154;" horiz-adv-x="1298" 
d="M563 1550l213 265h228l-252 -265h-189zM166 0v1413h604q189 0 315.5 -123t126.5 -307q0 -164 -104.5 -280t-267.5 -138l413 -565h-233l-404 561h-262v-561h-188zM768 1237h-414v-512h414q108 0 180 73t72 183t-72 183t-180 73z" />
    <glyph glyph-name="racute" unicode="&#x155;" horiz-adv-x="772" 
d="M338 1182l213 264h227l-252 -264h-188zM150 0v1044h176v-198q61 103 157 159t217 56h33v-182h-33q-174 0 -274 -96.5t-100 -258.5v-524h-176z" />
    <glyph glyph-name="uni0156" unicode="&#x156;" horiz-adv-x="1298" 
d="M166 0v1413h604q189 0 315.5 -123t126.5 -307q0 -164 -104.5 -280t-267.5 -138l413 -565h-233l-404 561h-262v-561h-188zM768 1237h-414v-512h414q108 0 180 73t72 183t-72 183t-180 73zM592 -524v104q66 24 86 90q-40 6 -66 35.5t-26 69.5q0 45 30.5 73.5t79.5 28.5
q46 0 77.5 -31.5t31.5 -91.5q0 -112 -60 -185t-153 -93z" />
    <glyph glyph-name="uni0157" unicode="&#x157;" horiz-adv-x="772" 
d="M150 0v1044h176v-198q61 103 157 159t217 56h33v-182h-33q-174 0 -274 -96.5t-100 -258.5v-524h-176zM135 -524v104q65 24 88 90q-41 6 -66.5 35.5t-25.5 69.5q0 45 30 73.5t79 28.5q46 0 78 -31.5t32 -91.5q0 -112 -61 -185t-154 -93z" />
    <glyph glyph-name="Rcaron" unicode="&#x158;" horiz-adv-x="1298" 
d="M565 1550l-207 265h168l146 -170l145 170h168l-205 -265h-215zM166 0v1413h604q189 0 315.5 -123t126.5 -307q0 -164 -104.5 -280t-267.5 -138l413 -565h-233l-404 561h-262v-561h-188zM768 1237h-414v-512h414q108 0 180 73t72 183t-72 183t-180 73z" />
    <glyph glyph-name="rcaron" unicode="&#x159;" horiz-adv-x="772" 
d="M340 1182l-207 264h168l145 -170l146 170h168l-205 -264h-215zM150 0v1044h176v-198q61 103 157 159t217 56h33v-182h-33q-174 0 -274 -96.5t-100 -258.5v-524h-176z" />
    <glyph glyph-name="Sacute" unicode="&#x15a;" horiz-adv-x="1175" 
d="M479 1550l213 265h228l-252 -265h-189zM592 -25q-216 0 -361 122t-145 302h190q0 -108 92 -182t226 -74q128 0 215.5 65.5t87.5 168.5q0 66 -43.5 113.5t-112.5 76.5t-153 54t-168 56.5t-153 73t-112.5 113.5t-43.5 170q0 120 64 213t172 142t239 49q203 0 340 -116.5
t137 -289.5h-191q0 101 -83 169.5t-207 68.5q-117 0 -198 -61t-81 -160q0 -66 43.5 -112.5t113 -74.5t153 -52t167.5 -54.5t153.5 -72t113 -114.5t43.5 -172q0 -125 -67 -222t-180 -148.5t-251 -51.5z" />
    <glyph glyph-name="sacute" unicode="&#x15b;" horiz-adv-x="985" 
d="M385 1182l213 264h225l-250 -264h-188zM483 -25q-183 0 -293 88.5t-110 233.5h180q0 -73 62 -117.5t163 -44.5q95 0 153 40.5t58 103.5q0 45 -33 77t-86 51.5t-117 36.5t-128 39.5t-117 54t-86 86.5t-33 130q0 142 104 228.5t275 86.5q175 0 280 -84.5t105 -224.5h-180
q0 67 -56.5 108t-150.5 41q-89 0 -143 -37.5t-54 -97.5q0 -39 26 -68t68 -46t96 -34.5t110.5 -31.5t110.5 -39t96 -56t68 -83t26 -119q0 -145 -108 -233.5t-286 -88.5z" />
    <glyph glyph-name="Scircumflex" unicode="&#x15c;" horiz-adv-x="1175" 
d="M274 1550l207 265h215l205 -265h-168l-145 170l-146 -170h-168zM592 -25q-216 0 -361 122t-145 302h190q0 -108 92 -182t226 -74q128 0 215.5 65.5t87.5 168.5q0 66 -43.5 113.5t-112.5 76.5t-153 54t-168 56.5t-153 73t-112.5 113.5t-43.5 170q0 120 64 213t172 142
t239 49q203 0 340 -116.5t137 -289.5h-191q0 101 -83 169.5t-207 68.5q-117 0 -198 -61t-81 -160q0 -66 43.5 -112.5t113 -74.5t153 -52t167.5 -54.5t153.5 -72t113 -114.5t43.5 -172q0 -125 -67 -222t-180 -148.5t-251 -51.5z" />
    <glyph glyph-name="scircumflex" unicode="&#x15d;" horiz-adv-x="985" 
d="M180 1182l205 264h215l207 -264h-168l-145 170l-146 -170h-168zM483 -25q-183 0 -293 88.5t-110 233.5h180q0 -73 62 -117.5t163 -44.5q95 0 153 40.5t58 103.5q0 45 -33 77t-86 51.5t-117 36.5t-128 39.5t-117 54t-86 86.5t-33 130q0 142 104 228.5t275 86.5
q175 0 280 -84.5t105 -224.5h-180q0 67 -56.5 108t-150.5 41q-89 0 -143 -37.5t-54 -97.5q0 -39 26 -68t68 -46t96 -34.5t110.5 -31.5t110.5 -39t96 -56t68 -83t26 -119q0 -145 -108 -233.5t-286 -88.5z" />
    <glyph glyph-name="Scedilla" unicode="&#x15e;" horiz-adv-x="1175" 
d="M596 -465q-84 0 -143 49t-68 125h113q9 -33 35.5 -53.5t62.5 -20.5q41 0 70.5 29t29.5 70q0 42 -30 71t-70 29q-43 0 -72 -29l-100 45l98 130q-191 20 -313.5 137t-122.5 282h190q0 -108 92 -182t226 -74q128 0 215.5 65.5t87.5 168.5q0 66 -43.5 113.5t-112.5 76.5
t-153 54t-168 56.5t-153 73t-112.5 113.5t-43.5 170q0 120 64 213t172 142t239 49q203 0 340 -116.5t137 -289.5h-191q0 101 -83 169.5t-207 68.5q-117 0 -198 -61t-81 -160q0 -66 43.5 -112.5t113 -74.5t153 -52t167.5 -54.5t153.5 -72t113 -114.5t43.5 -172
q0 -176 -125.5 -290.5t-317.5 -129.5l-39 -49h10q80 0 134.5 -55.5t54.5 -138.5t-61 -141t-150 -58z" />
    <glyph glyph-name="scedilla" unicode="&#x15f;" horiz-adv-x="985" 
d="M500 -465q-83 0 -141.5 49.5t-67.5 124.5h112q8 -32 35 -53t62 -21q42 0 71 28.5t29 70.5t-29 71t-71 29q-41 0 -70 -29l-100 45l98 127q-160 14 -254 100.5t-94 219.5h180q0 -73 62 -117.5t163 -44.5q95 0 153 40.5t58 103.5q0 45 -33 77t-86 51.5t-117 36.5t-128 39.5
t-117 54t-86 86.5t-33 130q0 142 104 228.5t275 86.5q175 0 280 -84.5t105 -224.5h-180q0 67 -56.5 108t-150.5 41q-89 0 -143 -37.5t-54 -97.5q0 -39 26 -68t68 -46t96 -34.5t110.5 -31.5t110.5 -39t96 -56t68 -83t26 -119q0 -130 -87 -215t-235 -102l-43 -52h10
q82 0 135.5 -55.5t53.5 -138.5q0 -84 -60.5 -141.5t-150.5 -57.5z" />
    <glyph glyph-name="Scaron" unicode="&#x160;" horiz-adv-x="1175" 
d="M481 1550l-207 265h168l146 -170l145 170h168l-205 -265h-215zM592 -25q-216 0 -361 122t-145 302h190q0 -108 92 -182t226 -74q128 0 215.5 65.5t87.5 168.5q0 66 -43.5 113.5t-112.5 76.5t-153 54t-168 56.5t-153 73t-112.5 113.5t-43.5 170q0 120 64 213t172 142
t239 49q203 0 340 -116.5t137 -289.5h-191q0 101 -83 169.5t-207 68.5q-117 0 -198 -61t-81 -160q0 -66 43.5 -112.5t113 -74.5t153 -52t167.5 -54.5t153.5 -72t113 -114.5t43.5 -172q0 -125 -67 -222t-180 -148.5t-251 -51.5z" />
    <glyph glyph-name="scaron" unicode="&#x161;" horiz-adv-x="985" 
d="M385 1182l-205 264h168l146 -170l145 170h168l-207 -264h-215zM483 -25q-183 0 -293 88.5t-110 233.5h180q0 -73 62 -117.5t163 -44.5q95 0 153 40.5t58 103.5q0 45 -33 77t-86 51.5t-117 36.5t-128 39.5t-117 54t-86 86.5t-33 130q0 142 104 228.5t275 86.5
q175 0 280 -84.5t105 -224.5h-180q0 67 -56.5 108t-150.5 41q-89 0 -143 -37.5t-54 -97.5q0 -39 26 -68t68 -46t96 -34.5t110.5 -31.5t110.5 -39t96 -56t68 -83t26 -119q0 -145 -108 -233.5t-286 -88.5z" />
    <glyph glyph-name="uni0162" unicode="&#x162;" horiz-adv-x="1159" 
d="M485 0v1237h-426v176h1041v-176h-426v-1237h-29l-57 -70h10q81 0 134.5 -55t53.5 -139t-60.5 -141.5t-150.5 -57.5t-150 57.5t-60 141.5h110q0 -41 29.5 -69.5t70.5 -28.5q42 0 71.5 28.5t29.5 69.5q0 42 -29.5 71t-71.5 29t-71 -29l-101 46l115 147h-33z" />
    <glyph glyph-name="uni0163" unicode="&#x163;" horiz-adv-x="794" 
d="M590 0q-29 0 -41 2l-60 -74h11q81 0 134.5 -55t53.5 -139t-60.5 -141.5t-150.5 -57.5q-83 0 -141.5 49.5t-67.5 124.5h111q9 -33 36 -53.5t62 -20.5q41 0 71 29t30 70q0 42 -29.5 71t-71.5 29t-71 -29l-101 45l135 175q-88 31 -134 103t-46 179v578h-190v159h123
q75 0 75 78v211h168v-289h281v-159h-281v-549q0 -80 47.5 -127t130.5 -47h103v-162h-127z" />
    <glyph glyph-name="Tcaron" unicode="&#x164;" horiz-adv-x="1159" 
d="M473 1550l-205 265h168l144 -170l145 170h168l-205 -265h-215zM485 0v1237h-426v176h1041v-176h-426v-1237h-189z" />
    <glyph glyph-name="tcaron" unicode="&#x165;" horiz-adv-x="794" 
d="M584 1206v105q69 26 88 90q-40 4 -66 34t-26 70q0 43 30.5 72t79.5 29q45 0 77 -31t32 -90q0 -112 -61 -185.5t-154 -93.5zM590 0q-158 0 -244 80.5t-86 226.5v578h-190v159h123q75 0 75 78v211h168v-289h281v-159h-281v-549q0 -80 47.5 -127t130.5 -47h103v-162h-127z
" />
    <glyph glyph-name="Tbar" unicode="&#x166;" horiz-adv-x="1159" 
d="M485 0v606h-202v129h202v502h-426v176h1041v-176h-426v-502h203v-129h-203v-606h-189z" />
    <glyph glyph-name="tbar" unicode="&#x167;" horiz-adv-x="794" 
d="M88 496v127h172v262h-190v159h123q75 0 75 78v211h168v-289h281v-159h-281v-262h246v-127h-246v-160q0 -80 47.5 -127t130.5 -47h103v-162h-127q-158 0 -244 80.5t-86 226.5v189h-172z" />
    <glyph glyph-name="Utilde" unicode="&#x168;" horiz-adv-x="1419" 
d="M848 1563q-42 0 -80.5 17.5t-62 38.5t-54.5 38.5t-61 17.5q-43 0 -72 -29.5t-29 -72.5h-127q0 106 55.5 174t151.5 68q42 0 80.5 -17.5t62 -38t54.5 -38t61 -17.5q43 0 72 29t29 73h127q0 -107 -55.5 -175t-151.5 -68zM709 -25q-161 0 -292.5 74t-206.5 203.5t-75 288.5
v872h187v-868q0 -166 110.5 -277.5t276.5 -111.5q167 0 278 111.5t111 277.5v868h186v-872q0 -159 -75 -288.5t-206.5 -203.5t-293.5 -74z" />
    <glyph glyph-name="utilde" unicode="&#x169;" horiz-adv-x="1228" 
d="M745 1194q-42 0 -80.5 17.5t-62 39t-54.5 39t-61 17.5q-42 0 -71 -30t-29 -73h-127q0 105 56 173.5t151 68.5q42 0 80.5 -17.5t62 -38t54.5 -38t61 -17.5q43 0 71.5 29.5t28.5 73.5h129q0 -107 -56.5 -175.5t-152.5 -68.5zM543 -25q-183 0 -295.5 113t-112.5 299v657h176
v-606q0 -132 78.5 -212.5t208.5 -80.5q137 0 221 82t84 215v602h176v-1044h-176v152q-125 -177 -360 -177z" />
    <glyph glyph-name="Umacron" unicode="&#x16a;" horiz-adv-x="1419" 
d="M467 1581v150h485v-150h-485zM709 -25q-161 0 -292.5 74t-206.5 203.5t-75 288.5v872h187v-868q0 -166 110.5 -277.5t276.5 -111.5q167 0 278 111.5t111 277.5v868h186v-872q0 -159 -75 -288.5t-206.5 -203.5t-293.5 -74z" />
    <glyph glyph-name="umacron" unicode="&#x16b;" horiz-adv-x="1228" 
d="M365 1212v150h485v-150h-485zM543 -25q-183 0 -295.5 113t-112.5 299v657h176v-606q0 -132 78.5 -212.5t208.5 -80.5q137 0 221 82t84 215v602h176v-1044h-176v152q-125 -177 -360 -177z" />
    <glyph glyph-name="Ubreve" unicode="&#x16c;" horiz-adv-x="1419" 
d="M709 1530q-120 0 -201.5 77.5t-81.5 194.5h139q0 -61 42 -103t102 -42q61 0 103 41.5t42 103.5h137q0 -117 -80.5 -194.5t-201.5 -77.5zM709 -25q-161 0 -292.5 74t-206.5 203.5t-75 288.5v872h187v-868q0 -166 110.5 -277.5t276.5 -111.5q167 0 278 111.5t111 277.5v868
h186v-872q0 -159 -75 -288.5t-206.5 -203.5t-293.5 -74z" />
    <glyph glyph-name="ubreve" unicode="&#x16d;" horiz-adv-x="1228" 
d="M606 1161q-120 0 -201 78t-81 195h139q0 -61 41.5 -103.5t101.5 -42.5q62 0 104 42t42 104h139q0 -117 -81.5 -195t-203.5 -78zM543 -25q-183 0 -295.5 113t-112.5 299v657h176v-606q0 -132 78.5 -212.5t208.5 -80.5q137 0 221 82t84 215v602h176v-1044h-176v152
q-125 -177 -360 -177z" />
    <glyph glyph-name="Uring" unicode="&#x16e;" horiz-adv-x="1419" 
d="M709 1522q-75 0 -127 50.5t-52 125.5q0 73 52 123.5t127 50.5q76 0 128 -50t52 -124q0 -75 -51.5 -125.5t-128.5 -50.5zM709 1614q35 0 58.5 23.5t23.5 60.5q0 35 -23.5 58.5t-58.5 23.5q-34 0 -57 -23.5t-23 -58.5q0 -36 23 -60t57 -24zM709 -25q-161 0 -292.5 74
t-206.5 203.5t-75 288.5v872h187v-868q0 -166 110.5 -277.5t276.5 -111.5q167 0 278 111.5t111 277.5v868h186v-872q0 -159 -75 -288.5t-206.5 -203.5t-293.5 -74z" />
    <glyph glyph-name="uring" unicode="&#x16f;" horiz-adv-x="1228" 
d="M606 1153q-75 0 -126.5 50.5t-51.5 125.5q0 73 51.5 123.5t126.5 50.5q76 0 128 -50t52 -124q0 -75 -51.5 -125.5t-128.5 -50.5zM606 1245q35 0 58.5 23.5t23.5 60.5q0 35 -23.5 58.5t-58.5 23.5q-34 0 -57 -23.5t-23 -58.5q0 -36 23 -60t57 -24zM543 -25
q-183 0 -295.5 113t-112.5 299v657h176v-606q0 -132 78.5 -212.5t208.5 -80.5q137 0 221 82t84 215v602h176v-1044h-176v152q-125 -177 -360 -177z" />
    <glyph glyph-name="Uhungarumlaut" unicode="&#x170;" horiz-adv-x="1419" 
d="M817 1550l168 265h197l-195 -265h-170zM418 1550l168 265h196l-194 -265h-170zM709 -25q-161 0 -292.5 74t-206.5 203.5t-75 288.5v872h187v-868q0 -166 110.5 -277.5t276.5 -111.5q167 0 278 111.5t111 277.5v868h186v-872q0 -159 -75 -288.5t-206.5 -203.5t-293.5 -74z
" />
    <glyph glyph-name="uhungarumlaut" unicode="&#x171;" horiz-adv-x="1228" 
d="M715 1182l168 264h196l-194 -264h-170zM315 1182l168 264h197l-193 -264h-172zM543 -25q-183 0 -295.5 113t-112.5 299v657h176v-606q0 -132 78.5 -212.5t208.5 -80.5q137 0 221 82t84 215v602h176v-1044h-176v152q-125 -177 -360 -177z" />
    <glyph glyph-name="Uogonek" unicode="&#x172;" horiz-adv-x="1419" 
d="M784 -438q-92 0 -154.5 56.5t-62.5 141.5q0 125 131 215q-119 2 -223.5 46.5t-179 119.5t-117.5 179t-43 221v872h187v-868q0 -166 110.5 -277.5t276.5 -111.5q167 0 278 111.5t111 277.5v868h186v-872q0 -191 -107.5 -337t-283.5 -202q-91 -43 -137.5 -96.5
t-46.5 -108.5q0 -48 32 -77t78 -29q72 0 129 47v-131q-68 -45 -164 -45z" />
    <glyph glyph-name="uogonek" unicode="&#x173;" horiz-adv-x="1228" 
d="M543 -25q-183 0 -295.5 113t-112.5 299v657h176v-606q0 -132 78.5 -212.5t208.5 -80.5q137 0 221 82t84 215v602h176v-1044h-2q-215 -95 -215 -221q0 -48 32.5 -77.5t78.5 -29.5q70 0 127 47v-131q-65 -45 -162 -45q-94 0 -156.5 57t-62.5 142q0 81 56.5 149t150.5 109
h-23v152q-125 -177 -360 -177z" />
    <glyph glyph-name="Wcircumflex" unicode="&#x174;" horiz-adv-x="2201" 
d="M788 1550l207 265h215l205 -265h-168l-145 170l-146 -170h-168zM532 0l-487 1413h207l381 -1163l385 1163h172l389 -1163l377 1163h203l-486 -1413h-192l-379 1137l-377 -1137h-193z" />
    <glyph glyph-name="wcircumflex" unicode="&#x175;" horiz-adv-x="1792" 
d="M584 1182l204 264h216l204 -264h-168l-145 170l-143 -170h-168zM422 0l-383 1044h199l280 -829l289 829h182l289 -829l281 829h194l-383 -1044h-184l-291 838l-289 -838h-184z" />
    <glyph glyph-name="Ycircumflex" unicode="&#x176;" horiz-adv-x="1355" 
d="M367 1550l204 265h215l205 -265h-168l-143 170l-145 -170h-168zM584 0v522l-566 891h215l447 -704l448 704h209l-565 -891v-522h-188z" />
    <glyph glyph-name="ycircumflex" unicode="&#x177;" horiz-adv-x="1163" 
d="M270 1182l205 264h215l205 -264h-168l-145 170l-144 -170h-168zM313 -389l172 393l-454 1040h200l353 -833l352 833h197l-629 -1433h-191z" />
    <glyph glyph-name="Ydieresis" unicode="&#x178;" horiz-adv-x="1355" 
d="M891 1561q-46 0 -77.5 31t-31.5 77t31.5 77.5t77.5 31.5t77 -31.5t31 -77.5t-31 -77t-77 -31zM467 1561q-46 0 -77.5 31t-31.5 77t31.5 77.5t77.5 31.5t78.5 -31.5t32.5 -77.5q0 -45 -32.5 -76.5t-78.5 -31.5zM584 0v522l-566 891h215l447 -704l448 704h209l-565 -891
v-522h-188z" />
    <glyph glyph-name="Zacute" unicode="&#x179;" horiz-adv-x="1257" 
d="M518 1550l213 265h227l-251 -265h-189zM84 0v135l819 1102h-811v176h1067v-135l-819 -1102h834v-176h-1090z" />
    <glyph glyph-name="zacute" unicode="&#x17a;" horiz-adv-x="1040" 
d="M412 1182l213 264h227l-252 -264h-188zM90 0v127l592 747h-584v170h838v-126l-590 -748h604v-170h-860z" />
    <glyph glyph-name="Zdotaccent" unicode="&#x17b;" horiz-adv-x="1257" 
d="M627 1561q-48 0 -81.5 32.5t-33.5 79.5t34 80t81 33t80.5 -33t33.5 -80t-33.5 -79.5t-80.5 -32.5zM84 0v135l819 1102h-811v176h1067v-135l-819 -1102h834v-176h-1090z" />
    <glyph glyph-name="zdotaccent" unicode="&#x17c;" horiz-adv-x="1040" 
d="M520 1192q-47 0 -79.5 33t-32.5 80t32.5 79.5t79.5 32.5q49 0 82 -32.5t33 -79.5q0 -48 -33 -80.5t-82 -32.5zM90 0v127l592 747h-584v170h838v-126l-590 -748h604v-170h-860z" />
    <glyph glyph-name="Zcaron" unicode="&#x17d;" horiz-adv-x="1257" 
d="M518 1550l-205 265h168l146 -170l145 170h168l-205 -265h-217zM84 0v135l819 1102h-811v176h1067v-135l-819 -1102h834v-176h-1090z" />
    <glyph glyph-name="zcaron" unicode="&#x17e;" horiz-adv-x="1040" 
d="M414 1182l-207 264h168l145 -170l146 170h168l-205 -264h-215zM90 0v127l592 747h-584v170h838v-126l-590 -748h604v-170h-860z" />
    <glyph glyph-name="florin" unicode="&#x192;" horiz-adv-x="919" 
d="M-12 -389v180q113 0 174.5 52.5t81.5 168.5l108 617h-217v164h244l49 274q31 180 137 263t303 83v-180q-113 0 -174.5 -52.5t-81.5 -168.5l-39 -219h230v-164h-258l-115 -672q-32 -180 -138.5 -263t-303.5 -83z" />
    <glyph glyph-name="Ohorn" unicode="&#x1a0;" horiz-adv-x="1662" 
d="M831 -25q-155 0 -292 56.5t-235 153.5t-155 232.5t-57 289.5q0 205 96.5 372.5t266 263t376.5 95.5h349q48 0 76 27.5t28 76.5v19h170v-54q0 -92 -47.5 -147.5t-136.5 -67.5q139 -101 220 -253.5t81 -331.5q0 -205 -96.5 -373t-266 -263.5t-377.5 -95.5zM831 156
q153 0 278.5 72t197 198.5t71.5 280.5q0 114 -47 217.5t-123 175.5t-175 114.5t-202 42.5q-115 0 -216.5 -42t-173.5 -115t-114 -175t-42 -218q0 -154 71 -280.5t196.5 -198.5t278.5 -72z" />
    <glyph glyph-name="ohorn" unicode="&#x1a1;" horiz-adv-x="1275" 
d="M639 -25q-156 0 -284 71.5t-200.5 197t-72.5 278.5t72.5 278.5t200.5 197t284 71.5h213q49 0 76.5 27.5t27.5 77.5v18h170v-53q0 -153 -120 -199q89 -76 138.5 -184t49.5 -234q0 -233 -159.5 -390t-395.5 -157zM639 145q160 0 266.5 108t106.5 269q0 162 -105.5 269.5
t-267.5 107.5q-161 0 -268 -108t-107 -269t107 -269t268 -108z" />
    <glyph glyph-name="Uhorn" unicode="&#x1af;" horiz-adv-x="1495" 
d="M709 -25q-161 0 -292.5 74t-206.5 203.5t-75 288.5v872h187v-868q0 -166 110.5 -277.5t276.5 -111.5q167 0 278 111.5t111 277.5v868h133q49 0 76.5 27.5t27.5 77.5v18h170v-53q0 -101 -57 -158t-164 -61v-723q0 -159 -75 -288.5t-206.5 -203.5t-293.5 -74z" />
    <glyph glyph-name="uhorn" unicode="&#x1b0;" horiz-adv-x="1265" 
d="M543 -25q-183 0 -295.5 113t-112.5 299v657h176v-606q0 -132 78.5 -212.5t208.5 -80.5q137 0 221 82t84 215v602h80q49 0 76.5 27.5t27.5 77.5v18h173v-53q0 -92 -46.5 -146.5t-134.5 -68.5v-899h-176v152q-125 -177 -360 -177z" />
    <glyph glyph-name="uni01C4" unicode="&#x1c4;" horiz-adv-x="2705" 
d="M1968 1550l-205 265h166l146 -170l145 170h168l-205 -265h-215zM166 0v1413h545q202 0 366 -92t257 -253.5t93 -360.5t-93 -361t-257 -254t-366 -92h-545zM1534 0v135l817 1102h-809v176h1065v-135l-819 -1102h833v-176h-1087zM709 1237h-355v-1061h355q224 0 375 152
t151 379q0 149 -68.5 270.5t-189 190.5t-268.5 69z" />
    <glyph glyph-name="uni01C5" unicode="&#x1c5;" horiz-adv-x="2560" 
d="M1931 1182l-205 264h168l146 -170l143 170h168l-205 -264h-215zM166 0v1413h545q202 0 366 -92t257 -253.5t93 -360.5t-93 -361t-257 -254t-366 -92h-545zM709 1237h-355v-1061h355q224 0 375 152t151 379q0 149 -68.5 270.5t-189 190.5t-268.5 69zM1610 0v127l590 747
h-582v170h838v-126l-592 -748h606v-170h-860z" />
    <glyph glyph-name="uni01C6" unicode="&#x1c6;" horiz-adv-x="2383" 
d="M608 -25q-147 0 -267 71.5t-187.5 197t-67.5 278.5t67.5 278.5t187.5 197t267 71.5q128 0 233.5 -56.5t172.5 -156.5v619h176v-1475h-176v188q-67 -100 -172.5 -156.5t-233.5 -56.5zM1757 1182l-205 264h166l146 -170l145 170h168l-205 -264h-215zM1434 0v127l591 747
h-583v170h837v-126l-589 -748h604v-170h-860zM641 145q160 0 266.5 108t106.5 269t-106.5 269t-266.5 108q-161 0 -268 -108t-107 -269t107 -269t268 -108z" />
    <glyph glyph-name="uni01C7" unicode="&#x1c7;" horiz-adv-x="2164" 
d="M166 0v1413h188v-1237h666v-176h-854zM1573 -25q-197 0 -328 130t-131 329h193q0 -122 75.5 -200t190.5 -78q117 0 193.5 76t76.5 192v989h187v-989q0 -192 -131 -320.5t-326 -128.5z" />
    <glyph glyph-name="uni01C8" unicode="&#x1c8;" horiz-adv-x="1587" 
d="M1352 1243q-51 0 -85 33t-34 84q0 50 34 83.5t85 33.5q49 0 82.5 -33.5t33.5 -83.5q0 -51 -33 -84t-83 -33zM166 0v1413h188v-1237h666v-176h-854zM1014 -399v170h63q87 0 137 48t50 132v1093h176v-1114q0 -160 -90.5 -244.5t-264.5 -84.5h-71z" />
    <glyph glyph-name="uni01C9" unicode="&#x1c9;" horiz-adv-x="1007" 
d="M772 1243q-51 0 -85 33t-34 84q0 50 34 83.5t85 33.5q50 0 83.5 -33.5t33.5 -83.5q0 -51 -33.5 -84t-83.5 -33zM154 0v1475h176v-1475h-176zM434 -399v170h64q87 0 136.5 48t49.5 132v1093h176v-1114q0 -160 -90 -244.5t-264 -84.5h-72z" />
    <glyph glyph-name="uni01CA" unicode="&#x1ca;" horiz-adv-x="2619" 
d="M166 0v1413h194l799 -1102v1102h187v-1413h-193l-799 1102v-1102h-188zM2028 -25q-197 0 -328 130t-131 329h192q0 -122 76 -200t191 -78q117 0 193.5 76t76.5 192v989h186v-989q0 -192 -130.5 -320.5t-325.5 -128.5z" />
    <glyph glyph-name="uni01CB" unicode="&#x1cb;" horiz-adv-x="1998" 
d="M1761 1243q-50 0 -83 33t-33 84q0 50 33.5 83.5t82.5 33.5q51 0 85 -33.5t34 -83.5q0 -51 -34 -84t-85 -33zM166 0v1413h194l799 -1102v1102h187v-1413h-193l-799 1102v-1102h-188zM1423 -399v170h64q87 0 136.5 48t49.5 132v1093h176v-1114q0 -161 -89 -245t-265 -84
h-72z" />
    <glyph glyph-name="uni01CC" unicode="&#x1cc;" horiz-adv-x="1787" 
d="M1552 1243q-51 0 -84.5 33t-33.5 84q0 50 33.5 83.5t84.5 33.5q50 0 83.5 -33.5t33.5 -83.5q0 -51 -33.5 -84t-83.5 -33zM150 0v1044h176v-157q128 182 376 182q191 0 307.5 -116t116.5 -308v-645h-176v590q0 140 -83 224.5t-222 84.5q-145 0 -232 -86t-87 -227v-586
h-176zM1214 -399v170h64q87 0 136.5 48t49.5 132v1093h176v-1114q0 -160 -90 -244.5t-264 -84.5h-72z" />
    <glyph glyph-name="uni01CD" unicode="&#x1cd;" horiz-adv-x="1419" 
d="M602 1550l-207 265h168l146 -170l145 170h168l-205 -265h-215zM23 0l575 1413h223l576 -1413h-207l-137 342h-693l-137 -342h-200zM430 516h553l-276 692z" />
    <glyph glyph-name="uni01CE" unicode="&#x1ce;" horiz-adv-x="1339" 
d="M567 1182l-205 264h168l144 -170l145 170h168l-205 -264h-215zM608 -25q-147 0 -267 71.5t-187.5 197t-67.5 278.5t67.5 278.5t187.5 197t267 71.5q128 0 233.5 -56.5t172.5 -156.5v188h176v-1044h-176v188q-67 -100 -172.5 -156.5t-233.5 -56.5zM641 145
q160 0 266.5 108t106.5 269t-106.5 269t-266.5 108q-161 0 -268 -108t-107 -269t107 -269t268 -108z" />
    <glyph glyph-name="Gcaron" unicode="&#x1e6;" horiz-adv-x="1644" 
d="M725 1550l-207 265h168l145 -170l146 170h168l-205 -265h-215zM831 -25q-155 0 -292 56.5t-235 153.5t-155 232.5t-57 289.5q0 205 96.5 372.5t266 263t376.5 95.5q239 0 424 -123.5t256 -323.5h-208q-67 123 -192 194.5t-280 71.5q-115 0 -216.5 -42t-173.5 -115
t-114 -175t-42 -218q0 -154 71 -280.5t196.5 -198.5t278.5 -72q204 0 350.5 119t174.5 307h-473v170h671v-62q0 -202 -94 -366t-259.5 -256.5t-369.5 -92.5z" />
    <glyph glyph-name="gcaron" unicode="&#x1e7;" horiz-adv-x="1339" 
d="M565 1182l-205 264h168l146 -170l145 170h168l-207 -264h-215zM610 23q-146 0 -266 68.5t-188 189t-68 266.5t68 266t188 188t266 68q130 0 235.5 -55t172.5 -152v182h176v-931q0 -238 -145.5 -382.5t-386.5 -144.5q-199 0 -338 97.5t-170 261.5h182q26 -89 116 -143
t212 -54q162 0 258 97t96 261v123q-67 -97 -172.5 -151.5t-235.5 -54.5zM645 195q160 0 266.5 100.5t106.5 251.5q0 150 -107 251t-266 101q-161 0 -268 -101t-107 -251q0 -151 107 -251.5t268 -100.5z" />
    <glyph glyph-name="uni01EA" unicode="&#x1ea;" horiz-adv-x="1662" 
d="M831 -25q-155 0 -292 56.5t-235 153.5t-155 232.5t-57 289.5q0 205 96.5 372.5t266 263t376.5 95.5q208 0 377.5 -95.5t266 -263t96.5 -372.5q0 -252 -143.5 -443t-376.5 -258q-191 -92 -191 -209q0 -48 32.5 -77t78.5 -29q72 0 129 47v-131q-68 -45 -164 -45
q-92 0 -154.5 56.5t-62.5 141.5q0 62 35 118.5t96 96.5h-19zM831 156q153 0 278.5 72t197 198.5t71.5 280.5t-71.5 280.5t-197 198t-278.5 71.5q-115 0 -216.5 -42t-173.5 -115t-114 -175t-42 -218q0 -154 71 -280.5t196.5 -198.5t278.5 -72z" />
    <glyph glyph-name="uni01EB" unicode="&#x1eb;" horiz-adv-x="1275" 
d="M709 -438q-92 0 -154.5 56.5t-62.5 141.5q0 62 34.5 118t94.5 97q-231 6 -385 162.5t-154 384.5q0 153 72.5 278.5t200.5 197t284 71.5q236 0 395.5 -157t159.5 -390q0 -185 -105 -326.5t-274 -193.5q-182 -92 -182 -205q0 -48 32 -77t78 -29q72 0 129 47v-131
q-68 -45 -163 -45zM639 145q160 0 266.5 108t106.5 269t-106.5 269t-266.5 108q-161 0 -268 -108t-107 -269t107 -269t268 -108z" />
    <glyph glyph-name="uni01F1" unicode="&#x1f1;" horiz-adv-x="2705" 
d="M166 0v1413h545q202 0 366 -92t257 -253.5t93 -360.5t-93 -361t-257 -254t-366 -92h-545zM1534 0v135l817 1102h-809v176h1065v-135l-819 -1102h833v-176h-1087zM709 1237h-355v-1061h355q224 0 375 152t151 379q0 149 -68.5 270.5t-189 190.5t-268.5 69z" />
    <glyph glyph-name="uni01F2" unicode="&#x1f2;" horiz-adv-x="2560" 
d="M166 0v1413h545q202 0 366 -92t257 -253.5t93 -360.5t-93 -361t-257 -254t-366 -92h-545zM709 1237h-355v-1061h355q224 0 375 152t151 379q0 149 -68.5 270.5t-189 190.5t-268.5 69zM1610 0v127l590 747h-582v170h838v-126l-592 -748h606v-170h-860z" />
    <glyph glyph-name="uni01F3" unicode="&#x1f3;" horiz-adv-x="2383" 
d="M608 -25q-147 0 -267 71.5t-187.5 197t-67.5 278.5t67.5 278.5t187.5 197t267 71.5q128 0 233.5 -56.5t172.5 -156.5v619h176v-1475h-176v188q-67 -100 -172.5 -156.5t-233.5 -56.5zM1434 0v127l591 747h-583v170h837v-126l-589 -748h604v-170h-860zM641 145
q160 0 266.5 108t106.5 269t-106.5 269t-266.5 108q-161 0 -268 -108t-107 -269t107 -269t268 -108z" />
    <glyph glyph-name="uni01F4" unicode="&#x1f4;" horiz-adv-x="1644" 
d="M723 1550l213 265h227l-252 -265h-188zM831 -25q-155 0 -292 56.5t-235 153.5t-155 232.5t-57 289.5q0 205 96.5 372.5t266 263t376.5 95.5q239 0 424 -123.5t256 -323.5h-208q-67 123 -192 194.5t-280 71.5q-115 0 -216.5 -42t-173.5 -115t-114 -175t-42 -218
q0 -154 71 -280.5t196.5 -198.5t278.5 -72q204 0 350.5 119t174.5 307h-473v170h671v-62q0 -202 -94 -366t-259.5 -256.5t-369.5 -92.5z" />
    <glyph glyph-name="uni01F5" unicode="&#x1f5;" horiz-adv-x="1339" 
d="M565 1182l213 264h226l-250 -264h-189zM610 23q-146 0 -266 68.5t-188 189t-68 266.5t68 266t188 188t266 68q130 0 235.5 -55t172.5 -152v182h176v-931q0 -238 -145.5 -382.5t-386.5 -144.5q-199 0 -338 97.5t-170 261.5h182q26 -89 116 -143t212 -54q162 0 258 97
t96 261v123q-67 -97 -172.5 -151.5t-235.5 -54.5zM645 195q160 0 266.5 100.5t106.5 251.5q0 150 -107 251t-266 101q-161 0 -268 -101t-107 -251q0 -151 107 -251.5t268 -100.5z" />
    <glyph glyph-name="AEacute" unicode="&#x1fc;" horiz-adv-x="1888" 
d="M897 1550l213 265h227l-252 -265h-188zM-51 0l858 1413h979v-176h-699v-438h631v-176h-631v-447h709v-176h-895v340h-532l-205 -340h-215zM473 512h428v709z" />
    <glyph glyph-name="aeacute" unicode="&#x1fd;" horiz-adv-x="2017" 
d="M903 1182l213 264h227l-251 -264h-189zM487 -25q-187 0 -296 88t-109 236q0 139 99 224t276 85h377v76q0 101 -74 162t-197 61q-118 0 -192 -51.5t-74 -126.5h-176q0 146 124.5 243t319.5 97q135 0 236.5 -52t154.5 -145q74 93 184.5 145t241.5 52q155 0 282 -71
t200 -197.5t73 -282.5q0 -40 -4 -65h-923q24 -141 126 -228.5t250 -87.5q109 0 200.5 49.5t137.5 130.5h187q-65 -156 -206.5 -249t-322.5 -93q-137 0 -252 57.5t-190 157.5q-56 -99 -178 -157t-275 -58zM1380 907q-137 0 -237.5 -82.5t-128.5 -216.5h735q-25 133 -127 216
t-242 83zM518 131q123 0 217.5 51.5t134.5 139.5q-22 57 -32 131h-336q-114 0 -176 -42.5t-62 -113.5q0 -76 69 -121t185 -45z" />
    <glyph glyph-name="Oslashacute" unicode="&#x1fe;" horiz-adv-x="1662" 
d="M745 1550l213 265h228l-252 -265h-189zM131 0l168 190q-98 100 -152.5 233t-54.5 284q0 205 96.5 372.5t266 263t376.5 95.5q251 0 441 -135l96 110h164l-168 -190q99 -98 153 -231t54 -285q0 -205 -96.5 -373t-266 -263.5t-377.5 -95.5q-250 0 -440 138l-98 -113h-162z
M285 707q0 -220 137 -373l727 827q-138 96 -318 96q-115 0 -216.5 -42t-173.5 -115t-114 -175t-42 -218zM831 156q153 0 278.5 72t197 198.5t71.5 280.5q0 222 -139 374l-725 -829q138 -96 317 -96z" />
    <glyph glyph-name="oslashacute" unicode="&#x1ff;" horiz-adv-x="1275" 
d="M543 1182l211 264h227l-250 -264h-188zM104 0l127 143q-149 152 -149 379q0 153 72.5 278.5t200.5 197t284 71.5q188 0 330 -102l67 77h133l-125 -141q150 -153 150 -381q0 -233 -159.5 -390t-395.5 -157q-192 0 -332 103l-69 -78h-134zM264 522q0 -139 86 -246l500 560
q-95 63 -211 63q-161 0 -268 -108t-107 -269zM639 145q160 0 266.5 108t106.5 269q0 142 -88 248l-500 -561q97 -64 215 -64z" />
    <glyph glyph-name="uni0200" unicode="&#x200;" horiz-adv-x="1419" 
d="M827 1550l-192 265h196l168 -265h-172zM430 1550l-194 265h196l168 -265h-170zM23 0l575 1413h223l576 -1413h-207l-137 342h-693l-137 -342h-200zM430 516h553l-276 692z" />
    <glyph glyph-name="uni0201" unicode="&#x201;" horiz-adv-x="1339" 
d="M795 1182l-195 264h197l168 -264h-170zM395 1182l-194 264h196l170 -264h-172zM608 -25q-147 0 -267 71.5t-187.5 197t-67.5 278.5t67.5 278.5t187.5 197t267 71.5q128 0 233.5 -56.5t172.5 -156.5v188h176v-1044h-176v188q-67 -100 -172.5 -156.5t-233.5 -56.5zM641 145
q160 0 266.5 108t106.5 269t-106.5 269t-266.5 108q-161 0 -268 -108t-107 -269t107 -269t268 -108z" />
    <glyph glyph-name="uni0202" unicode="&#x202;" horiz-adv-x="1419" 
d="M426 1538q0 117 81 195.5t202 78.5t201.5 -78.5t80.5 -195.5h-139q0 63 -40.5 104t-102.5 41t-103 -41t-41 -104h-139zM23 0l575 1413h223l576 -1413h-207l-137 342h-693l-137 -342h-200zM430 516h553l-276 692z" />
    <glyph glyph-name="uni0203" unicode="&#x203;" horiz-adv-x="1339" 
d="M391 1169q0 117 81.5 196t201.5 79q121 0 202.5 -79t81.5 -196h-139q0 63 -41.5 104.5t-103.5 41.5q-60 0 -102 -41.5t-42 -104.5h-139zM608 -25q-147 0 -267 71.5t-187.5 197t-67.5 278.5t67.5 278.5t187.5 197t267 71.5q128 0 233.5 -56.5t172.5 -156.5v188h176v-1044
h-176v188q-67 -100 -172.5 -156.5t-233.5 -56.5zM641 145q160 0 266.5 108t106.5 269t-106.5 269t-266.5 108q-161 0 -268 -108t-107 -269t107 -269t268 -108z" />
    <glyph glyph-name="uni0204" unicode="&#x204;" horiz-adv-x="1173" 
d="M758 1550l-195 265h197l170 -265h-172zM360 1550l-194 265h196l168 -265h-170zM166 0v1413h905v-176h-717v-438h650v-176h-650v-447h727v-176h-915z" />
    <glyph glyph-name="uni0205" unicode="&#x205;" horiz-adv-x="1271" 
d="M758 1182l-195 264h197l170 -264h-172zM358 1182l-194 264h196l170 -264h-172zM643 -25q-159 0 -287.5 71.5t-201 196.5t-72.5 279q0 233 159.5 390t395.5 157q156 0 283.5 -71.5t199.5 -197t72 -278.5q0 -27 -4 -73h-918q23 -139 125.5 -225.5t249.5 -86.5
q108 0 197.5 47.5t134.5 126.5h197q-62 -152 -205 -244t-326 -92zM637 907q-139 0 -239 -83.5t-126 -217.5h734q-23 132 -125.5 216.5t-243.5 84.5z" />
    <glyph glyph-name="uni0206" unicode="&#x206;" horiz-adv-x="1173" 
d="M356 1538q0 117 81 195.5t202 78.5t202 -78.5t81 -195.5h-140q0 63 -40.5 104t-102.5 41t-102.5 -41t-40.5 -104h-140zM166 0v1413h905v-176h-717v-438h650v-176h-650v-447h727v-176h-915z" />
    <glyph glyph-name="uni0207" unicode="&#x207;" horiz-adv-x="1271" 
d="M354 1169q0 117 82 196t203 79q120 0 201.5 -79t81.5 -196h-140q0 63 -41.5 104.5t-101.5 41.5q-62 0 -103.5 -41.5t-41.5 -104.5h-140zM643 -25q-159 0 -287.5 71.5t-201 196.5t-72.5 279q0 233 159.5 390t395.5 157q156 0 283.5 -71.5t199.5 -197t72 -278.5
q0 -27 -4 -73h-918q23 -139 125.5 -225.5t249.5 -86.5q108 0 197.5 47.5t134.5 126.5h197q-62 -152 -205 -244t-326 -92zM637 907q-139 0 -239 -83.5t-126 -217.5h734q-23 132 -125.5 216.5t-243.5 84.5z" />
    <glyph glyph-name="uni0208" unicode="&#x208;" horiz-adv-x="520" 
d="M381 1550l-195 265h197l168 -265h-170zM-18 1550l-195 265h197l170 -265h-172zM166 0v1413h188v-1413h-188z" />
    <glyph glyph-name="uni0209" unicode="&#x209;" horiz-adv-x="473" 
d="M356 1182l-194 264h196l170 -264h-172zM-43 1182l-195 264h199l168 -264h-172zM150 0v1044h176v-1044h-176z" />
    <glyph glyph-name="uni020A" unicode="&#x20a;" horiz-adv-x="520" 
d="M-23 1538q0 117 81.5 195.5t203.5 78.5q120 0 201.5 -78.5t81.5 -195.5h-139q0 62 -41.5 103.5t-102.5 41.5q-62 0 -103.5 -41t-41.5 -104h-140zM166 0v1413h188v-1413h-188z" />
    <glyph glyph-name="uni020B" unicode="&#x20b;" horiz-adv-x="473" 
d="M-45 1169q0 117 81 196t202 79q120 0 201 -79t81 -196h-139q0 63 -40.5 104.5t-102.5 41.5t-104 -41.5t-42 -104.5h-137zM150 0v1044h176v-1044h-176z" />
    <glyph glyph-name="uni020C" unicode="&#x20c;" horiz-adv-x="1662" 
d="M952 1550l-194 265h196l168 -265h-170zM553 1550l-195 265h197l168 -265h-170zM831 -25q-155 0 -292 56.5t-235 153.5t-155 232.5t-57 289.5q0 205 96.5 372.5t266 263t376.5 95.5q208 0 377.5 -95.5t266 -263t96.5 -372.5t-96.5 -373t-266 -263.5t-377.5 -95.5zM831 156
q153 0 278.5 72t197 198.5t71.5 280.5t-71.5 280.5t-197 198t-278.5 71.5q-115 0 -216.5 -42t-173.5 -115t-114 -175t-42 -218q0 -154 71 -280.5t196.5 -198.5t278.5 -72z" />
    <glyph glyph-name="uni020D" unicode="&#x20d;" horiz-adv-x="1275" 
d="M758 1182l-195 264h197l170 -264h-172zM358 1182l-194 264h196l170 -264h-172zM639 -25q-156 0 -284 71.5t-200.5 197t-72.5 278.5t72.5 278.5t200.5 197t284 71.5q236 0 395.5 -157t159.5 -390t-159.5 -390t-395.5 -157zM639 145q160 0 266.5 108t106.5 269t-106.5 269
t-266.5 108q-161 0 -268 -108t-107 -269t107 -269t268 -108z" />
    <glyph glyph-name="uni020E" unicode="&#x20e;" horiz-adv-x="1662" 
d="M549 1538q0 117 81 195.5t201 78.5q121 0 202 -78.5t81 -195.5h-139q0 63 -41 104t-103 41t-102.5 -41t-40.5 -104h-139zM831 -25q-155 0 -292 56.5t-235 153.5t-155 232.5t-57 289.5q0 205 96.5 372.5t266 263t376.5 95.5q208 0 377.5 -95.5t266 -263t96.5 -372.5
t-96.5 -373t-266 -263.5t-377.5 -95.5zM831 156q153 0 278.5 72t197 198.5t71.5 280.5t-71.5 280.5t-197 198t-278.5 71.5q-115 0 -216.5 -42t-173.5 -115t-114 -175t-42 -218q0 -154 71 -280.5t196.5 -198.5t278.5 -72z" />
    <glyph glyph-name="uni020F" unicode="&#x20f;" horiz-adv-x="1275" 
d="M354 1169q0 117 82 196t203 79q120 0 201.5 -79t81.5 -196h-140q0 63 -41.5 104.5t-101.5 41.5q-62 0 -103.5 -41.5t-41.5 -104.5h-140zM639 -25q-156 0 -284 71.5t-200.5 197t-72.5 278.5t72.5 278.5t200.5 197t284 71.5q236 0 395.5 -157t159.5 -390t-159.5 -390
t-395.5 -157zM639 145q160 0 266.5 108t106.5 269t-106.5 269t-266.5 108q-161 0 -268 -108t-107 -269t107 -269t268 -108z" />
    <glyph glyph-name="uni0210" unicode="&#x210;" horiz-adv-x="1298" 
d="M791 1550l-193 265h197l168 -265h-172zM393 1550l-194 265h196l168 -265h-170zM166 0v1413h604q189 0 315.5 -123t126.5 -307q0 -164 -104.5 -280t-267.5 -138l413 -565h-233l-404 561h-262v-561h-188zM768 1237h-414v-512h414q108 0 180 73t72 183t-72 183t-180 73z" />
    <glyph glyph-name="uni0211" unicode="&#x211;" horiz-adv-x="772" 
d="M567 1182l-194 264h196l168 -264h-170zM168 1182l-195 264h197l168 -264h-170zM150 0v1044h176v-198q61 103 157 159t217 56h33v-182h-33q-174 0 -274 -96.5t-100 -258.5v-524h-176z" />
    <glyph glyph-name="uni0212" unicode="&#x212;" horiz-adv-x="1298" 
d="M389 1538q0 117 81 195.5t202 78.5t201.5 -78.5t80.5 -195.5h-139q0 63 -40.5 104t-102.5 41t-103 -41t-41 -104h-139zM166 0v1413h604q189 0 315.5 -123t126.5 -307q0 -164 -104.5 -280t-267.5 -138l413 -565h-233l-404 561h-262v-561h-188zM768 1237h-414v-512h414
q108 0 180 73t72 183t-72 183t-180 73z" />
    <glyph glyph-name="uni0213" unicode="&#x213;" horiz-adv-x="772" 
d="M164 1169q0 117 81 196t201 79q121 0 202 -79t81 -196h-137q0 63 -42 104.5t-104 41.5t-102.5 -41.5t-40.5 -104.5h-139zM150 0v1044h176v-198q61 103 157 159t217 56h33v-182h-33q-174 0 -274 -96.5t-100 -258.5v-524h-176z" />
    <glyph glyph-name="uni0214" unicode="&#x214;" horiz-adv-x="1419" 
d="M829 1550l-194 265h196l168 -265h-170zM430 1550l-194 265h196l170 -265h-172zM709 -25q-161 0 -292.5 74t-206.5 203.5t-75 288.5v872h187v-868q0 -166 110.5 -277.5t276.5 -111.5q167 0 278 111.5t111 277.5v868h186v-872q0 -159 -75 -288.5t-206.5 -203.5t-293.5 -74z
" />
    <glyph glyph-name="uni0215" unicode="&#x215;" horiz-adv-x="1228" 
d="M727 1182l-195 264h197l168 -264h-170zM328 1182l-195 264h197l170 -264h-172zM543 -25q-183 0 -295.5 113t-112.5 299v657h176v-606q0 -132 78.5 -212.5t208.5 -80.5q137 0 221 82t84 215v602h176v-1044h-176v152q-125 -177 -360 -177z" />
    <glyph glyph-name="uni0216" unicode="&#x216;" horiz-adv-x="1419" 
d="M426 1538q0 117 81.5 195.5t201.5 78.5q121 0 201.5 -78.5t80.5 -195.5h-137q0 63 -41.5 104t-103.5 41q-61 0 -102.5 -41.5t-41.5 -103.5h-139zM709 -25q-161 0 -292.5 74t-206.5 203.5t-75 288.5v872h187v-868q0 -166 110.5 -277.5t276.5 -111.5q167 0 278 111.5
t111 277.5v868h186v-872q0 -159 -75 -288.5t-206.5 -203.5t-293.5 -74z" />
    <glyph glyph-name="uni0217" unicode="&#x217;" horiz-adv-x="1228" 
d="M324 1169q0 117 81 196t201 79q121 0 203 -79t82 -196h-139q0 63 -42 104.5t-104 41.5q-60 0 -101.5 -41.5t-41.5 -104.5h-139zM543 -25q-183 0 -295.5 113t-112.5 299v657h176v-606q0 -132 78.5 -212.5t208.5 -80.5q137 0 221 82t84 215v602h176v-1044h-176v152
q-125 -177 -360 -177z" />
    <glyph glyph-name="uni0218" unicode="&#x218;" horiz-adv-x="1175" 
d="M592 -25q-216 0 -361 122t-145 302h190q0 -108 92 -182t226 -74q128 0 215.5 65.5t87.5 168.5q0 66 -43.5 113.5t-112.5 76.5t-153 54t-168 56.5t-153 73t-112.5 113.5t-43.5 170q0 120 64 213t172 142t239 49q203 0 340 -116.5t137 -289.5h-191q0 101 -83 169.5
t-207 68.5q-117 0 -198 -61t-81 -160q0 -66 43.5 -112.5t113 -74.5t153 -52t167.5 -54.5t153.5 -72t113 -114.5t43.5 -172q0 -125 -67 -222t-180 -148.5t-251 -51.5zM487 -524v104q65 24 88 90q-41 6 -67.5 35.5t-26.5 69.5q0 45 31 73.5t80 28.5q46 0 77 -31.5t31 -91.5
q0 -112 -60 -185t-153 -93z" />
    <glyph glyph-name="uni0219" unicode="&#x219;" horiz-adv-x="985" 
d="M483 -25q-183 0 -293 88.5t-110 233.5h180q0 -73 62 -117.5t163 -44.5q95 0 153 40.5t58 103.5q0 45 -33 77t-86 51.5t-117 36.5t-128 39.5t-117 54t-86 86.5t-33 130q0 142 104 228.5t275 86.5q175 0 280 -84.5t105 -224.5h-180q0 67 -56.5 108t-150.5 41
q-89 0 -143 -37.5t-54 -97.5q0 -39 26 -68t68 -46t96 -34.5t110.5 -31.5t110.5 -39t96 -56t68 -83t26 -119q0 -145 -108 -233.5t-286 -88.5zM391 -524v104q68 25 88 90q-40 6 -66 35.5t-26 69.5q0 44 31 73t78 29q46 0 78 -31.5t32 -91.5q0 -112 -61 -185t-154 -93z" />
    <glyph glyph-name="uni021A" unicode="&#x21a;" horiz-adv-x="1159" 
d="M485 0v1237h-426v176h1041v-176h-426v-1237h-189zM479 -524v104q65 24 88 90q-41 6 -66.5 35.5t-25.5 69.5q0 45 30 73.5t79 28.5q46 0 78 -31.5t32 -91.5q0 -112 -61 -185t-154 -93z" />
    <glyph glyph-name="uni021B" unicode="&#x21b;" horiz-adv-x="794" 
d="M590 0q-158 0 -244 80.5t-86 226.5v578h-190v159h123q75 0 75 78v211h168v-289h281v-159h-281v-549q0 -80 47.5 -127t130.5 -47h103v-162h-127zM373 -524v104q65 24 88 90q-41 6 -67.5 35.5t-26.5 69.5q0 45 30.5 73.5t79.5 28.5q46 0 77.5 -31.5t31.5 -91.5
q0 -112 -60 -185t-153 -93z" />
    <glyph glyph-name="uni0232" unicode="&#x232;" horiz-adv-x="1355" 
d="M436 1581v150h486v-150h-486zM584 0v522l-566 891h215l447 -704l448 704h209l-565 -891v-522h-188z" />
    <glyph glyph-name="uni0233" unicode="&#x233;" horiz-adv-x="1163" 
d="M340 1212v150h485v-150h-485zM313 -389l172 393l-454 1040h200l353 -833l352 833h197l-629 -1433h-191z" />
    <glyph glyph-name="uni0237" unicode="&#x237;" horiz-adv-x="485" 
d="M-88 -399v170h63q87 0 136 48t49 132v1093h176v-1114q0 -161 -89 -245t-265 -84h-70z" />
    <glyph glyph-name="uni02BC" unicode="&#x2bc;" horiz-adv-x="225" 
d="M10 1098v106q64 21 88 88q-41 6 -66.5 36t-25.5 71q0 43 30 71.5t79 28.5q46 0 78 -31t32 -90q0 -112 -61 -186t-154 -94z" />
    <glyph glyph-name="circumflex" unicode="&#x2c6;" horiz-adv-x="626" 
d="M0 1182l205 264h215l207 -264h-168l-146 170l-145 -170h-168z" />
    <glyph glyph-name="caron" unicode="&#x2c7;" horiz-adv-x="626" 
d="M205 1182l-205 264h168l145 -170l146 170h168l-207 -264h-215z" />
    <glyph glyph-name="breve" unicode="&#x2d8;" horiz-adv-x="565" 
d="M283 1161q-121 0 -202 78t-81 195h139q0 -62 41.5 -104t102.5 -42t102 42t41 104h139q0 -117 -80.5 -195t-201.5 -78z" />
    <glyph glyph-name="dotaccent" unicode="&#x2d9;" horiz-adv-x="227" 
d="M115 1192q-49 0 -82 32.5t-33 80.5q0 47 33 79.5t82 32.5q47 0 79.5 -32.5t32.5 -79.5t-32.5 -80t-79.5 -33z" />
    <glyph glyph-name="ring" unicode="&#x2da;" horiz-adv-x="356" 
d="M178 1153q-75 0 -126.5 50.5t-51.5 125.5q0 73 51.5 123.5t126.5 50.5t126.5 -50.5t51.5 -123.5q0 -75 -51.5 -125.5t-126.5 -50.5zM178 1245q34 0 57 24t23 60q0 35 -23 58.5t-57 23.5t-57 -23.5t-23 -58.5q0 -36 23 -60t57 -24z" />
    <glyph glyph-name="ogonek" unicode="&#x2db;" horiz-adv-x="380" 
d="M217 -457q-92 0 -154.5 57t-62.5 142q0 84 60.5 154.5t160.5 109.5h133l4 -6q-217 -96 -217 -221q0 -48 32.5 -77.5t78.5 -29.5q72 0 129 47v-131q-68 -45 -164 -45z" />
    <glyph glyph-name="tilde" unicode="&#x2dc;" horiz-adv-x="694" 
d="M485 1194q-42 0 -80.5 17.5t-62 39t-54.5 39t-61 17.5q-42 0 -71 -30t-29 -73h-127q0 105 56 173.5t151 68.5q42 0 80.5 -17.5t62 -38t54.5 -38t61 -17.5q43 0 71.5 29.5t28.5 73.5h129q0 -107 -56.5 -175.5t-152.5 -68.5z" />
    <glyph glyph-name="hungarumlaut" unicode="&#x2dd;" horiz-adv-x="763" 
d="M399 1182l168 264h197l-195 -264h-170zM0 1182l168 264h197l-193 -264h-172z" />
    <glyph glyph-name="gravecomb" unicode="&#x300;" 
d="M252 1182l-252 264h227l211 -264h-186z" />
    <glyph glyph-name="acutecomb" unicode="&#x301;" 
d="M0 1182l213 264h225l-250 -264h-188z" />
    <glyph glyph-name="uni0302" unicode="&#x302;" 
d="M0 1182l205 264h215l207 -264h-168l-146 170l-145 -170h-168z" />
    <glyph glyph-name="tildecomb" unicode="&#x303;" 
d="M485 1194q-42 0 -80.5 17.5t-62 39t-54.5 39t-61 17.5q-42 0 -71 -30t-29 -73h-127q0 105 56 173.5t151 68.5q42 0 80.5 -17.5t62 -38t54.5 -38t61 -17.5q43 0 71.5 29.5t28.5 73.5h129q0 -107 -56.5 -175.5t-152.5 -68.5z" />
    <glyph glyph-name="uni0304" unicode="&#x304;" 
d="M0 1212v150h485v-150h-485z" />
    <glyph glyph-name="uni0306" unicode="&#x306;" 
d="M283 1161q-121 0 -202 78t-81 195h139q0 -62 41.5 -104t102.5 -42t102 42t41 104h139q0 -117 -80.5 -195t-201.5 -78z" />
    <glyph glyph-name="uni0307" unicode="&#x307;" 
d="M115 1192q-49 0 -82 32.5t-33 80.5q0 47 33 79.5t82 32.5q47 0 79.5 -32.5t32.5 -79.5t-32.5 -80t-79.5 -33z" />
    <glyph glyph-name="uni0308" unicode="&#x308;" 
d="M532 1192q-46 0 -77 31t-31 77t31 77.5t77 31.5t78.5 -31.5t32.5 -77.5q0 -45 -32.5 -76.5t-78.5 -31.5zM109 1192q-46 0 -77.5 31t-31.5 77t31.5 77.5t77.5 31.5t78 -31.5t32 -77.5t-32 -77t-78 -31z" />
    <glyph glyph-name="hookabovecomb" unicode="&#x309;" 
d="M276 1171v15q0 45 21.5 74t67.5 57q44 26 62.5 43t18.5 41q0 34 -28.5 53t-79.5 19q-52 0 -80.5 -21t-28.5 -53h-123q0 82 61.5 134t172.5 52q112 0 175 -46.5t63 -123.5q0 -44 -22.5 -77t-78.5 -66q-40 -23 -55.5 -42t-15.5 -44v-15h-130z" />
    <glyph glyph-name="uni030A" unicode="&#x30a;" 
d="M178 1153q-75 0 -126.5 50.5t-51.5 125.5q0 73 51.5 123.5t126.5 50.5t126.5 -50.5t51.5 -123.5q0 -75 -51.5 -125.5t-126.5 -50.5zM178 1245q34 0 57 24t23 60q0 35 -23 58.5t-57 23.5t-57 -23.5t-23 -58.5q0 -36 23 -60t57 -24z" />
    <glyph glyph-name="uni030B" unicode="&#x30b;" 
d="M399 1182l168 264h197l-195 -264h-170zM0 1182l168 264h197l-193 -264h-172z" />
    <glyph glyph-name="uni030C" unicode="&#x30c;" 
d="M205 1182l-205 264h168l145 -170l146 170h168l-207 -264h-215z" />
    <glyph glyph-name="uni030F" unicode="&#x30f;" 
d="M594 1182l-195 264h197l168 -264h-170zM195 1182l-195 264h197l168 -264h-170z" />
    <glyph glyph-name="uni0311" unicode="&#x311;" 
d="M0 1169q0 117 81 196t202 79t201.5 -79t80.5 -196h-139q0 63 -40.5 104.5t-102.5 41.5t-103 -41.5t-41 -104.5h-139z" />
    <glyph glyph-name="uni0312" unicode="&#x312;" 
d="M109 1155q-46 0 -77.5 31t-31.5 90q0 112 60.5 185t152.5 93v-104q-66 -23 -86 -90q39 -4 65.5 -34.5t26.5 -70.5q0 -43 -30.5 -71.5t-79.5 -28.5z" />
    <glyph glyph-name="uni031B" unicode="&#x31b;" 
d="M381 997q49 0 76.5 27.5t27.5 77.5v18h170v-53q0 -106 -60.5 -162.5t-174.5 -56.5h-39v149z" />
    <glyph glyph-name="dotbelowcomb" unicode="&#x323;" 
d="M115 -350q-49 0 -82 32.5t-33 79.5q0 50 33 82.5t82 32.5q47 0 79.5 -33t32.5 -82q0 -47 -32.5 -79.5t-79.5 -32.5z" />
    <glyph glyph-name="uni0326" unicode="&#x326;" 
d="M10 -524v104q65 24 88 90q-41 6 -66.5 35.5t-25.5 69.5q0 45 30 73.5t79 28.5q46 0 78 -31.5t32 -91.5q0 -112 -61 -185t-154 -93z" />
    <glyph glyph-name="uni0327" unicode="&#x327;" 
d="M209 -463q-83 0 -141.5 49.5t-67.5 124.5h111q9 -32 36 -52.5t62 -20.5q41 0 70.5 28.5t29.5 69.5q0 42 -29 71t-71 29q-45 0 -70 -29l-102 46l115 147v4h127v-4l-58 -70h10q82 0 135.5 -55.5t53.5 -138.5q0 -84 -60.5 -141.5t-150.5 -57.5z" />
    <glyph glyph-name="uni0328" unicode="&#x328;" 
d="M217 -457q-92 0 -154.5 57t-62.5 142q0 84 60.5 154.5t160.5 109.5h133l4 -6q-217 -96 -217 -221q0 -48 32.5 -77.5t78.5 -29.5q72 0 129 47v-131q-68 -45 -164 -45z" />
    <glyph glyph-name="uni0335" unicode="&#x335;" 
d="M0 498v129h594v-129h-594z" />
    <glyph glyph-name="uni0336" unicode="&#x336;" 
d="M0 496v131h1395v-131h-1395z" />
    <glyph glyph-name="uni0337" unicode="&#x337;" 
d="M0 0l934 1044h133l-934 -1044h-133z" />
    <glyph glyph-name="uni0338" unicode="&#x338;" 
d="M0 0l1239 1413h162l-1239 -1413h-162z" />
    <glyph glyph-name="uni03BC" unicode="&#x3bc;" horiz-adv-x="1241" 
d="M150 -389v1433h176v-606q0 -132 78 -212.5t208 -80.5q137 0 221.5 82t84.5 215v602h176v-1044h-176v152q-61 -86 -153 -131.5t-208 -45.5q-134 0 -231 82v-446h-176z" />
    <glyph glyph-name="uni1E0C" unicode="&#x1e0c;" horiz-adv-x="1517" 
d="M166 0v1413h545q202 0 366 -92t257 -253.5t93 -360.5t-93 -361t-257 -254t-366 -92h-545zM709 1237h-355v-1061h355q224 0 375 152t151 379q0 149 -68.5 270.5t-189 190.5t-268.5 69zM741 -350q-47 0 -80.5 32.5t-33.5 79.5q0 49 33 82t81 33t81.5 -33t33.5 -82
q0 -47 -33.5 -79.5t-81.5 -32.5z" />
    <glyph glyph-name="uni1E0D" unicode="&#x1e0d;" horiz-adv-x="1343" 
d="M608 -25q-147 0 -267 71.5t-187.5 197t-67.5 278.5t67.5 278.5t187.5 197t267 71.5q128 0 233.5 -56.5t172.5 -156.5v619h176v-1475h-176v188q-67 -100 -172.5 -156.5t-233.5 -56.5zM641 145q160 0 266.5 108t106.5 269t-106.5 269t-266.5 108q-161 0 -268 -108
t-107 -269t107 -269t268 -108zM668 -350q-49 0 -82 32.5t-33 79.5q0 50 32.5 82.5t82.5 32.5q47 0 79.5 -33t32.5 -82q0 -47 -32.5 -79.5t-79.5 -32.5z" />
    <glyph glyph-name="uni1E24" unicode="&#x1e24;" horiz-adv-x="1495" 
d="M166 0v1413h188v-614h787v614h188v-1413h-188v623h-787v-623h-188zM750 -350q-49 0 -82 32.5t-33 79.5q0 50 32.5 82.5t82.5 32.5q47 0 79.5 -33t32.5 -82q0 -47 -32.5 -79.5t-79.5 -32.5z" />
    <glyph glyph-name="uni1E25" unicode="&#x1e25;" horiz-adv-x="1265" 
d="M154 0v1475h176v-594q62 91 158.5 139.5t218.5 48.5q191 0 307 -116t116 -308v-645h-176v590q0 140 -83 224.5t-222 84.5q-145 0 -232 -86t-87 -227v-586h-176zM641 -350q-47 0 -80 32.5t-33 79.5q0 49 32.5 82t80.5 33q49 0 82 -32.5t33 -82.5q0 -47 -33 -79.5
t-82 -32.5z" />
    <glyph glyph-name="uni1E44" unicode="&#x1e44;" horiz-adv-x="1513" 
d="M762 1561q-49 0 -82 32.5t-33 79.5q0 48 33 80.5t82 32.5q47 0 79.5 -33t32.5 -80t-32.5 -79.5t-79.5 -32.5zM166 0v1413h194l799 -1102v1102h187v-1413h-193l-799 1102v-1102h-188z" />
    <glyph glyph-name="uni1E45" unicode="&#x1e45;" horiz-adv-x="1261" 
d="M657 1192q-47 0 -79.5 33t-32.5 80t32.5 79.5t79.5 32.5q49 0 82 -32.5t33 -79.5q0 -48 -33 -80.5t-82 -32.5zM150 0v1044h176v-157q128 182 376 182q191 0 307.5 -116t116.5 -308v-645h-176v590q0 140 -83 224.5t-222 84.5q-145 0 -232 -86t-87 -227v-586h-176z" />
    <glyph glyph-name="uni1E5A" unicode="&#x1e5a;" horiz-adv-x="1298" 
d="M166 0v1413h604q189 0 315.5 -123t126.5 -307q0 -164 -104.5 -280t-267.5 -138l413 -565h-233l-404 561h-262v-561h-188zM768 1237h-414v-512h414q108 0 180 73t72 183t-72 183t-180 73zM692 -350q-47 0 -80.5 32.5t-33.5 79.5q0 49 33 82t81 33t81.5 -33t33.5 -82
q0 -47 -33.5 -79.5t-81.5 -32.5z" />
    <glyph glyph-name="uni1E5B" unicode="&#x1e5b;" horiz-adv-x="772" 
d="M150 0v1044h176v-198q61 103 157 159t217 56h33v-182h-33q-174 0 -274 -96.5t-100 -258.5v-524h-176zM238 -350q-49 0 -82 32.5t-33 79.5q0 50 32.5 82.5t82.5 32.5q47 0 79.5 -33t32.5 -82q0 -47 -32.5 -79.5t-79.5 -32.5z" />
    <glyph glyph-name="uni1E62" unicode="&#x1e62;" horiz-adv-x="1175" 
d="M592 -25q-216 0 -361 122t-145 302h190q0 -108 92 -182t226 -74q128 0 215.5 65.5t87.5 168.5q0 66 -43.5 113.5t-112.5 76.5t-153 54t-168 56.5t-153 73t-112.5 113.5t-43.5 170q0 120 64 213t172 142t239 49q203 0 340 -116.5t137 -289.5h-191q0 101 -83 169.5
t-207 68.5q-117 0 -198 -61t-81 -160q0 -66 43.5 -112.5t113 -74.5t153 -52t167.5 -54.5t153.5 -72t113 -114.5t43.5 -172q0 -125 -67 -222t-180 -148.5t-251 -51.5zM588 -350q-47 0 -80 32.5t-33 79.5q0 49 32.5 82t80.5 33t81 -33t33 -82q0 -47 -33.5 -79.5t-80.5 -32.5z
" />
    <glyph glyph-name="uni1E63" unicode="&#x1e63;" horiz-adv-x="985" 
d="M483 -25q-183 0 -293 88.5t-110 233.5h180q0 -73 62 -117.5t163 -44.5q95 0 153 40.5t58 103.5q0 45 -33 77t-86 51.5t-117 36.5t-128 39.5t-117 54t-86 86.5t-33 130q0 142 104 228.5t275 86.5q175 0 280 -84.5t105 -224.5h-180q0 67 -56.5 108t-150.5 41
q-89 0 -143 -37.5t-54 -97.5q0 -39 26 -68t68 -46t96 -34.5t110.5 -31.5t110.5 -39t96 -56t68 -83t26 -119q0 -145 -108 -233.5t-286 -88.5zM494 -350q-49 0 -82 32.5t-33 79.5q0 50 32.5 82.5t82.5 32.5q47 0 79.5 -33t32.5 -82q0 -47 -32.5 -79.5t-79.5 -32.5z" />
    <glyph glyph-name="uni1E6C" unicode="&#x1e6c;" horiz-adv-x="1159" 
d="M485 0v1237h-426v176h1041v-176h-426v-1237h-189zM580 -350q-47 0 -80 32.5t-33 79.5q0 49 32.5 82t80.5 33q49 0 81.5 -32.5t32.5 -82.5q0 -48 -32.5 -80t-81.5 -32z" />
    <glyph glyph-name="uni1E6D" unicode="&#x1e6d;" horiz-adv-x="794" 
d="M590 0q-158 0 -244 80.5t-86 226.5v578h-190v159h123q75 0 75 78v211h168v-289h281v-159h-281v-549q0 -80 47.5 -127t130.5 -47h103v-162h-127zM473 -350q-47 0 -80 32.5t-33 79.5q0 49 32.5 82t80.5 33q49 0 82 -32.5t33 -82.5q0 -47 -33 -79.5t-82 -32.5z" />
    <glyph glyph-name="Wgrave" unicode="&#x1e80;" horiz-adv-x="2201" 
d="M1022 1550l-250 265h225l213 -265h-188zM532 0l-487 1413h207l381 -1163l385 1163h172l389 -1163l377 1163h203l-486 -1413h-192l-379 1137l-377 -1137h-193z" />
    <glyph glyph-name="wgrave" unicode="&#x1e81;" horiz-adv-x="1792" 
d="M817 1182l-252 264h228l211 -264h-187zM422 0l-383 1044h199l280 -829l289 829h182l289 -829l281 829h194l-383 -1044h-184l-291 838l-289 -838h-184z" />
    <glyph glyph-name="Wacute" unicode="&#x1e82;" horiz-adv-x="2201" 
d="M993 1550l213 265h228l-252 -265h-189zM532 0l-487 1413h207l381 -1163l385 1163h172l389 -1163l377 1163h203l-486 -1413h-192l-379 1137l-377 -1137h-193z" />
    <glyph glyph-name="wacute" unicode="&#x1e83;" horiz-adv-x="1792" 
d="M788 1182l211 264h228l-252 -264h-187zM422 0l-383 1044h199l280 -829l289 829h182l289 -829l281 829h194l-383 -1044h-184l-291 838l-289 -838h-184z" />
    <glyph glyph-name="Wdieresis" unicode="&#x1e84;" horiz-adv-x="2201" 
d="M1315 1561q-46 0 -78.5 31.5t-32.5 76.5q0 46 32.5 77.5t78.5 31.5t77 -31.5t31 -77.5t-31 -77t-77 -31zM891 1561q-46 0 -78.5 31.5t-32.5 76.5q0 46 32.5 77.5t78.5 31.5t77 -31.5t31 -77.5t-31 -77t-77 -31zM532 0l-487 1413h207l381 -1163l385 1163h172l389 -1163
l377 1163h203l-486 -1413h-192l-379 1137l-377 -1137h-193z" />
    <glyph glyph-name="wdieresis" unicode="&#x1e85;" horiz-adv-x="1792" 
d="M1108 1192q-46 0 -78.5 31.5t-32.5 76.5q0 46 32.5 77.5t78.5 31.5t77.5 -31.5t31.5 -77.5t-31.5 -77t-77.5 -31zM684 1192q-46 0 -77.5 31t-31.5 77t31.5 77.5t77.5 31.5t78.5 -31.5t32.5 -77.5q0 -45 -32.5 -76.5t-78.5 -31.5zM422 0l-383 1044h199l280 -829l289 829
h182l289 -829l281 829h194l-383 -1044h-184l-291 838l-289 -838h-184z" />
    <glyph glyph-name="uni1E92" unicode="&#x1e92;" horiz-adv-x="1257" 
d="M84 0v135l819 1102h-811v176h1067v-135l-819 -1102h834v-176h-1090zM627 -350q-48 0 -81.5 32.5t-33.5 79.5q0 49 33.5 82t81.5 33t81 -33t33 -82q0 -47 -33.5 -79.5t-80.5 -32.5z" />
    <glyph glyph-name="uni1E93" unicode="&#x1e93;" horiz-adv-x="1040" 
d="M90 0v127l592 747h-584v170h838v-126l-590 -748h604v-170h-860zM520 -350q-47 0 -79.5 32.5t-32.5 79.5q0 49 32.5 82t79.5 33q50 0 82.5 -32.5t32.5 -82.5q0 -47 -33 -79.5t-82 -32.5z" />
    <glyph glyph-name="uni1E9E" unicode="&#x1e9e;" horiz-adv-x="1331" 
d="M829 -25q-64 0 -131.5 19.5t-109.5 48.5v190q32 -33 93 -55t120 -22q123 0 204.5 76.5t81.5 193.5q0 113 -76 189.5t-190 76.5h-147v137l284 408h-460q-67 0 -109.5 -43t-42.5 -109v-1085h-188v1104q0 137 89 223t230 86h688v-153l-288 -400q175 -17 289 -141.5
t114 -300.5q0 -190 -129.5 -316.5t-321.5 -126.5z" />
    <glyph glyph-name="uni1EA0" unicode="&#x1ea0;" horiz-adv-x="1419" 
d="M23 0l575 1413h223l576 -1413h-207l-137 342h-693l-137 -342h-200zM430 516h553l-276 692zM709 -350q-49 0 -82 32.5t-33 79.5q0 50 33 82.5t82 32.5q47 0 79.5 -33t32.5 -82q0 -47 -32.5 -79.5t-79.5 -32.5z" />
    <glyph glyph-name="uni1EA1" unicode="&#x1ea1;" horiz-adv-x="1339" 
d="M608 -25q-147 0 -267 71.5t-187.5 197t-67.5 278.5t67.5 278.5t187.5 197t267 71.5q128 0 233.5 -56.5t172.5 -156.5v188h176v-1044h-176v188q-67 -100 -172.5 -156.5t-233.5 -56.5zM641 145q160 0 266.5 108t106.5 269t-106.5 269t-266.5 108q-161 0 -268 -108
t-107 -269t107 -269t268 -108zM674 -350q-47 0 -80 32.5t-33 79.5q0 49 32.5 82t80.5 33q49 0 81.5 -32.5t32.5 -82.5q0 -48 -32.5 -80t-81.5 -32z" />
    <glyph glyph-name="uni1EA2" unicode="&#x1ea2;" horiz-adv-x="1419" 
d="M645 1540v14q0 45 20.5 74.5t65.5 57.5q32 18 46 27.5t26 24t12 31.5q0 34 -28.5 53t-79.5 19q-53 0 -81 -21t-28 -53h-123q0 82 61.5 134.5t172.5 52.5q112 0 173.5 -46.5t61.5 -123.5q0 -44 -22.5 -77.5t-77.5 -66.5q-39 -24 -54.5 -43t-15.5 -43v-14h-129zM23 0
l575 1413h223l576 -1413h-207l-137 342h-693l-137 -342h-200zM430 516h553l-276 692z" />
    <glyph glyph-name="uni1EA3" unicode="&#x1ea3;" horiz-adv-x="1339" 
d="M610 1171v15q0 45 21 74t67 57q45 26 63.5 43t18.5 41q0 34 -28.5 53t-79.5 19q-52 0 -80.5 -21t-28.5 -53h-123q0 82 61.5 134t172.5 52q112 0 174.5 -46.5t62.5 -123.5q0 -44 -22.5 -77t-77.5 -66q-40 -23 -56 -42t-16 -44v-15h-129zM608 -25q-147 0 -267 71.5
t-187.5 197t-67.5 278.5t67.5 278.5t187.5 197t267 71.5q128 0 233.5 -56.5t172.5 -156.5v188h176v-1044h-176v188q-67 -100 -172.5 -156.5t-233.5 -56.5zM641 145q160 0 266.5 108t106.5 269t-106.5 269t-266.5 108q-161 0 -268 -108t-107 -269t107 -269t268 -108z" />
    <glyph glyph-name="uni1EA4" unicode="&#x1ea4;" horiz-adv-x="1419" 
d="M938 1743l211 264h201l-252 -264h-160zM395 1550l207 265h215l205 -265h-168l-145 170l-146 -170h-168zM23 0l575 1413h223l576 -1413h-207l-137 342h-693l-137 -342h-200zM430 516h553l-276 692z" />
    <glyph glyph-name="uni1EA5" unicode="&#x1ea5;" horiz-adv-x="1339" 
d="M903 1374l213 264h201l-252 -264h-162zM362 1182l205 264h215l205 -264h-168l-145 170l-144 -170h-168zM608 -25q-147 0 -267 71.5t-187.5 197t-67.5 278.5t67.5 278.5t187.5 197t267 71.5q128 0 233.5 -56.5t172.5 -156.5v188h176v-1044h-176v188
q-67 -100 -172.5 -156.5t-233.5 -56.5zM641 145q160 0 266.5 108t106.5 269t-106.5 269t-266.5 108q-161 0 -268 -108t-107 -269t107 -269t268 -108z" />
    <glyph glyph-name="uni1EA6" unicode="&#x1ea6;" horiz-adv-x="1419" 
d="M1018 1743l-252 264h201l211 -264h-160zM395 1550l207 265h215l205 -265h-168l-145 170l-146 -170h-168zM23 0l575 1413h223l576 -1413h-207l-137 342h-693l-137 -342h-200zM430 516h553l-276 692z" />
    <glyph glyph-name="uni1EA7" unicode="&#x1ea7;" horiz-adv-x="1339" 
d="M983 1374l-252 264h201l213 -264h-162zM362 1182l205 264h215l205 -264h-168l-145 170l-144 -170h-168zM608 -25q-147 0 -267 71.5t-187.5 197t-67.5 278.5t67.5 278.5t187.5 197t267 71.5q128 0 233.5 -56.5t172.5 -156.5v188h176v-1044h-176v188
q-67 -100 -172.5 -156.5t-233.5 -56.5zM641 145q160 0 266.5 108t106.5 269t-106.5 269t-266.5 108q-161 0 -268 -108t-107 -269t107 -269t268 -108z" />
    <glyph glyph-name="uni1EA8" unicode="&#x1ea8;" horiz-adv-x="1419" 
d="M944 1722v15q0 77 78 108q38 14 56 30t18 40q0 28 -25 43.5t-70 15.5t-70.5 -17t-25.5 -48h-110q0 73 55 115t154 42q101 0 155.5 -37.5t54.5 -103.5q0 -41 -21 -69.5t-71 -51.5q-61 -24 -61 -67v-15h-117zM395 1550l207 265h215l205 -265h-168l-145 170l-146 -170h-168z
M23 0l575 1413h223l576 -1413h-207l-137 342h-693l-137 -342h-200zM430 516h553l-276 692z" />
    <glyph glyph-name="uni1EA9" unicode="&#x1ea9;" horiz-adv-x="1339" 
d="M911 1354v14q0 80 78 109q38 15 56 30.5t18 38.5q0 28 -25.5 44t-70.5 16q-44 0 -70.5 -17.5t-26.5 -48.5h-110q0 73 55.5 115.5t153.5 42.5q102 0 157.5 -37.5t55.5 -104.5q0 -41 -21 -69t-71 -51q-62 -24 -62 -68v-14h-117zM362 1182l205 264h215l205 -264h-168
l-145 170l-144 -170h-168zM608 -25q-147 0 -267 71.5t-187.5 197t-67.5 278.5t67.5 278.5t187.5 197t267 71.5q128 0 233.5 -56.5t172.5 -156.5v188h176v-1044h-176v188q-67 -100 -172.5 -156.5t-233.5 -56.5zM641 145q160 0 266.5 108t106.5 269t-106.5 269t-266.5 108
q-161 0 -268 -108t-107 -269t107 -269t268 -108z" />
    <glyph glyph-name="uni1EAA" unicode="&#x1eaa;" horiz-adv-x="1419" 
d="M813 1888q-37 0 -68 15.5t-48.5 34t-40.5 34t-46 15.5q-33 0 -53 -24.5t-20 -66.5h-127q0 105 47.5 168.5t132.5 63.5q37 0 67.5 -15.5t48 -34.5t40.5 -34.5t47 -15.5q32 0 52.5 24.5t20.5 67.5h127q0 -106 -47.5 -169t-132.5 -63zM395 1550l207 265h215l205 -265h-168
l-145 170l-146 -170h-168zM23 0l575 1413h223l576 -1413h-207l-137 342h-693l-137 -342h-200zM430 516h553l-276 692z" />
    <glyph glyph-name="uni1EAB" unicode="&#x1eab;" horiz-adv-x="1339" 
d="M780 1520q-37 0 -68.5 15.5t-49 33.5t-40.5 33.5t-47 15.5q-33 0 -53 -24t-20 -66h-127q0 105 47.5 168t132.5 63q37 0 67.5 -15.5t48 -34.5t41.5 -34.5t48 -15.5q32 0 51.5 24.5t19.5 67.5h127q0 -106 -46.5 -168.5t-131.5 -62.5zM362 1182l205 264h215l205 -264h-168
l-145 170l-144 -170h-168zM608 -25q-147 0 -267 71.5t-187.5 197t-67.5 278.5t67.5 278.5t187.5 197t267 71.5q128 0 233.5 -56.5t172.5 -156.5v188h176v-1044h-176v188q-67 -100 -172.5 -156.5t-233.5 -56.5zM641 145q160 0 266.5 108t106.5 269t-106.5 269t-266.5 108
q-161 0 -268 -108t-107 -269t107 -269t268 -108z" />
    <glyph glyph-name="uni1EAC" unicode="&#x1eac;" horiz-adv-x="1419" 
d="M395 1550l207 265h215l205 -265h-168l-145 170l-146 -170h-168zM23 0l575 1413h223l576 -1413h-207l-137 342h-693l-137 -342h-200zM430 516h553l-276 692zM709 -350q-49 0 -82 32.5t-33 79.5q0 50 33 82.5t82 32.5q47 0 79.5 -33t32.5 -82q0 -47 -32.5 -79.5
t-79.5 -32.5z" />
    <glyph glyph-name="uni1EAD" unicode="&#x1ead;" horiz-adv-x="1339" 
d="M362 1182l205 264h215l205 -264h-168l-145 170l-144 -170h-168zM608 -25q-147 0 -267 71.5t-187.5 197t-67.5 278.5t67.5 278.5t187.5 197t267 71.5q128 0 233.5 -56.5t172.5 -156.5v188h176v-1044h-176v188q-67 -100 -172.5 -156.5t-233.5 -56.5zM641 145
q160 0 266.5 108t106.5 269t-106.5 269t-266.5 108q-161 0 -268 -108t-107 -269t107 -269t268 -108zM674 -350q-47 0 -80 32.5t-33 79.5q0 49 32.5 82t80.5 33q49 0 81.5 -32.5t32.5 -82.5q0 -48 -32.5 -80t-81.5 -32z" />
    <glyph glyph-name="uni1EAE" unicode="&#x1eae;" horiz-adv-x="1419" 
d="M625 1831l200 248h183l-232 -248h-151zM709 1530q-122 0 -202.5 74t-80.5 186h139q0 -61 41 -101t103 -40t102.5 40t40.5 101h139q0 -112 -80 -186t-202 -74zM23 0l575 1413h223l576 -1413h-207l-137 342h-693l-137 -342h-200zM430 516h553l-276 692z" />
    <glyph glyph-name="uni1EAF" unicode="&#x1eaf;" horiz-adv-x="1339" 
d="M590 1462l201 248h184l-234 -248h-151zM674 1161q-121 0 -202 74t-81 186h139q0 -61 41.5 -101t102.5 -40q62 0 103.5 40t41.5 101h139q0 -112 -81 -186t-203 -74zM608 -25q-147 0 -267 71.5t-187.5 197t-67.5 278.5t67.5 278.5t187.5 197t267 71.5q128 0 233.5 -56.5
t172.5 -156.5v188h176v-1044h-176v188q-67 -100 -172.5 -156.5t-233.5 -56.5zM641 145q160 0 266.5 108t106.5 269t-106.5 269t-266.5 108q-161 0 -268 -108t-107 -269t107 -269t268 -108z" />
    <glyph glyph-name="uni1EB0" unicode="&#x1eb0;" horiz-adv-x="1419" 
d="M772 1831l-262 127l-74 121l281 -125zM709 1530q-122 0 -202.5 74t-80.5 186h139q0 -61 41 -101t103 -40t102.5 40t40.5 101h139q0 -112 -80 -186t-202 -74zM23 0l575 1413h223l576 -1413h-207l-137 342h-693l-137 -342h-200zM430 516h553l-276 692z" />
    <glyph glyph-name="uni1EB1" unicode="&#x1eb1;" horiz-adv-x="1339" 
d="M737 1462l-262 127l-72 121l281 -125zM674 1161q-121 0 -202 74t-81 186h139q0 -61 41.5 -101t102.5 -40q62 0 103.5 40t41.5 101h139q0 -112 -81 -186t-203 -74zM608 -25q-147 0 -267 71.5t-187.5 197t-67.5 278.5t67.5 278.5t187.5 197t267 71.5q128 0 233.5 -56.5
t172.5 -156.5v188h176v-1044h-176v188q-67 -100 -172.5 -156.5t-233.5 -56.5zM641 145q160 0 266.5 108t106.5 269t-106.5 269t-266.5 108q-161 0 -268 -108t-107 -269t107 -269t268 -108z" />
    <glyph glyph-name="uni1EB2" unicode="&#x1eb2;" horiz-adv-x="1419" 
d="M651 1819v14q0 74 78 109q38 13 56 28t18 39q0 59 -94 59q-97 0 -97 -63h-112q0 73 55.5 115.5t153.5 42.5q101 0 157 -38.5t56 -103.5q0 -81 -93 -123q-61 -24 -61 -65v-14h-117zM709 1530q-122 0 -202.5 74t-80.5 186h139q0 -61 41 -101t103 -40t102.5 40t40.5 101h139
q0 -112 -80 -186t-202 -74zM23 0l575 1413h223l576 -1413h-207l-137 342h-693l-137 -342h-200zM430 516h553l-276 692z" />
    <glyph glyph-name="uni1EB3" unicode="&#x1eb3;" horiz-adv-x="1339" 
d="M618 1450v14q0 75 76 109q38 13 56 28t18 39q0 60 -94 60q-45 0 -70.5 -17t-25.5 -47h-111q0 73 55.5 115.5t153.5 42.5q100 0 156.5 -38t56.5 -103q0 -80 -92 -123q-62 -24 -62 -66v-14h-117zM674 1161q-121 0 -202 74t-81 186h139q0 -61 41.5 -101t102.5 -40
q62 0 103.5 40t41.5 101h139q0 -112 -81 -186t-203 -74zM608 -25q-147 0 -267 71.5t-187.5 197t-67.5 278.5t67.5 278.5t187.5 197t267 71.5q128 0 233.5 -56.5t172.5 -156.5v188h176v-1044h-176v188q-67 -100 -172.5 -156.5t-233.5 -56.5zM641 145q160 0 266.5 108
t106.5 269t-106.5 269t-266.5 108q-161 0 -268 -108t-107 -269t107 -269t268 -108z" />
    <glyph glyph-name="uni1EB4" unicode="&#x1eb4;" horiz-adv-x="1419" 
d="M821 1858q-37 0 -67 15.5t-46.5 33.5t-37.5 33.5t-43 15.5q-33 0 -53.5 -24t-20.5 -66h-127q0 97 46.5 157t123.5 60q37 0 67 -16t46 -34.5t38 -34.5t44 -16q32 0 52.5 24.5t20.5 66.5h127q0 -97 -46 -156t-124 -59zM709 1530q-122 0 -202.5 74t-80.5 186h139
q0 -61 41 -101t103 -40t102.5 40t40.5 101h139q0 -112 -80 -186t-202 -74zM23 0l575 1413h223l576 -1413h-207l-137 342h-693l-137 -342h-200zM430 516h553l-276 692z" />
    <glyph glyph-name="uni1EB5" unicode="&#x1eb5;" horiz-adv-x="1339" 
d="M786 1489q-37 0 -66.5 15.5t-46 33.5t-38 33.5t-43.5 15.5q-32 0 -52 -24t-20 -66h-129q0 98 46.5 157.5t125.5 59.5q36 0 65.5 -15.5t46.5 -34.5t39 -34.5t44 -15.5q31 0 51 24t20 66h129q0 -97 -46.5 -156t-125.5 -59zM674 1161q-121 0 -202 74t-81 186h139
q0 -61 41.5 -101t102.5 -40q62 0 103.5 40t41.5 101h139q0 -112 -81 -186t-203 -74zM608 -25q-147 0 -267 71.5t-187.5 197t-67.5 278.5t67.5 278.5t187.5 197t267 71.5q128 0 233.5 -56.5t172.5 -156.5v188h176v-1044h-176v188q-67 -100 -172.5 -156.5t-233.5 -56.5z
M641 145q160 0 266.5 108t106.5 269t-106.5 269t-266.5 108q-161 0 -268 -108t-107 -269t107 -269t268 -108z" />
    <glyph glyph-name="uni1EB6" unicode="&#x1eb6;" horiz-adv-x="1419" 
d="M709 1530q-122 0 -202.5 77.5t-80.5 194.5h139q0 -62 41.5 -103.5t102.5 -41.5t102 41.5t41 103.5h139q0 -117 -80.5 -194.5t-201.5 -77.5zM23 0l575 1413h223l576 -1413h-207l-137 342h-693l-137 -342h-200zM430 516h553l-276 692zM709 -350q-49 0 -82 32.5t-33 79.5
q0 50 33 82.5t82 32.5q47 0 79.5 -33t32.5 -82q0 -47 -32.5 -79.5t-79.5 -32.5z" />
    <glyph glyph-name="uni1EB7" unicode="&#x1eb7;" horiz-adv-x="1339" 
d="M674 1161q-120 0 -201.5 78t-81.5 195h139q0 -61 42 -103.5t102 -42.5q61 0 103 42t42 104h139q0 -117 -81 -195t-203 -78zM608 -25q-147 0 -267 71.5t-187.5 197t-67.5 278.5t67.5 278.5t187.5 197t267 71.5q128 0 233.5 -56.5t172.5 -156.5v188h176v-1044h-176v188
q-67 -100 -172.5 -156.5t-233.5 -56.5zM641 145q160 0 266.5 108t106.5 269t-106.5 269t-266.5 108q-161 0 -268 -108t-107 -269t107 -269t268 -108zM674 -350q-47 0 -80 32.5t-33 79.5q0 49 32.5 82t80.5 33q49 0 81.5 -32.5t32.5 -82.5q0 -48 -32.5 -80t-81.5 -32z" />
    <glyph glyph-name="uni1EB8" unicode="&#x1eb8;" horiz-adv-x="1173" 
d="M166 0v1413h905v-176h-717v-438h650v-176h-650v-447h727v-176h-915zM639 -350q-48 0 -81.5 32.5t-33.5 79.5q0 49 33.5 82t81.5 33t80.5 -33t32.5 -82q0 -47 -33 -79.5t-80 -32.5z" />
    <glyph glyph-name="uni1EB9" unicode="&#x1eb9;" horiz-adv-x="1271" 
d="M643 -25q-159 0 -287.5 71.5t-201 196.5t-72.5 279q0 233 159.5 390t395.5 157q156 0 283.5 -71.5t199.5 -197t72 -278.5q0 -27 -4 -73h-918q23 -139 125.5 -225.5t249.5 -86.5q108 0 197.5 47.5t134.5 126.5h197q-62 -152 -205 -244t-326 -92zM637 907
q-139 0 -239 -83.5t-126 -217.5h734q-23 132 -125.5 216.5t-243.5 84.5zM639 -350q-49 0 -82 32.5t-33 79.5q0 50 33 82.5t82 32.5q48 0 80.5 -33t32.5 -82q0 -47 -33 -79.5t-80 -32.5z" />
    <glyph glyph-name="uni1EBA" unicode="&#x1eba;" horiz-adv-x="1173" 
d="M575 1540v14q0 45 21 74.5t66 57.5q44 25 62.5 42t18.5 41q0 34 -28.5 53t-79.5 19q-52 0 -80.5 -21t-28.5 -53h-120q0 82 61 134.5t172 52.5q112 0 173.5 -46.5t61.5 -123.5q0 -44 -22.5 -77.5t-77.5 -66.5q-39 -24 -55.5 -43t-16.5 -43v-14h-127zM166 0v1413h905v-176
h-717v-438h650v-176h-650v-447h727v-176h-915z" />
    <glyph glyph-name="uni1EBB" unicode="&#x1ebb;" horiz-adv-x="1271" 
d="M575 1171v15q0 45 20.5 74t66.5 57q44 26 62.5 43t18.5 41q0 34 -28.5 53t-79.5 19q-52 0 -80.5 -21t-28.5 -53h-120q0 82 61 134t170 52q112 0 174.5 -46.5t62.5 -123.5q0 -44 -22.5 -77t-77.5 -66q-40 -23 -56 -42t-16 -44v-15h-127zM643 -25q-159 0 -287.5 71.5
t-201 196.5t-72.5 279q0 233 159.5 390t395.5 157q156 0 283.5 -71.5t199.5 -197t72 -278.5q0 -27 -4 -73h-918q23 -139 125.5 -225.5t249.5 -86.5q108 0 197.5 47.5t134.5 126.5h197q-62 -152 -205 -244t-326 -92zM637 907q-139 0 -239 -83.5t-126 -217.5h734
q-23 132 -125.5 216.5t-243.5 84.5z" />
    <glyph glyph-name="uni1EBC" unicode="&#x1ebc;" horiz-adv-x="1173" 
d="M778 1563q-43 0 -81 17.5t-62 38.5t-54.5 38.5t-60.5 17.5q-44 0 -72 -29.5t-28 -72.5h-129q0 105 56.5 173.5t152.5 68.5q42 0 80 -17.5t61.5 -38t55 -38t61.5 -17.5q43 0 71.5 29t28.5 73h127q0 -107 -56 -175t-151 -68zM166 0v1413h905v-176h-717v-438h650v-176h-650
v-447h727v-176h-915z" />
    <glyph glyph-name="uni1EBD" unicode="&#x1ebd;" horiz-adv-x="1271" 
d="M776 1194q-42 0 -80.5 17.5t-62 39t-54.5 39t-61 17.5q-42 0 -71 -30t-29 -73h-127q0 105 56 173.5t151 68.5q42 0 80.5 -17.5t62 -38t54.5 -38t61 -17.5q43 0 71.5 29.5t28.5 73.5h129q0 -107 -56.5 -175.5t-152.5 -68.5zM643 -25q-159 0 -287.5 71.5t-201 196.5
t-72.5 279q0 233 159.5 390t395.5 157q156 0 283.5 -71.5t199.5 -197t72 -278.5q0 -27 -4 -73h-918q23 -139 125.5 -225.5t249.5 -86.5q108 0 197.5 47.5t134.5 126.5h197q-62 -152 -205 -244t-326 -92zM637 907q-139 0 -239 -83.5t-126 -217.5h734q-23 132 -125.5 216.5
t-243.5 84.5z" />
    <glyph glyph-name="uni1EBE" unicode="&#x1ebe;" horiz-adv-x="1173" 
d="M868 1743l211 264h201l-252 -264h-160zM326 1550l204 265h215l207 -265h-168l-145 170l-145 -170h-168zM166 0v1413h905v-176h-717v-438h650v-176h-650v-447h727v-176h-915z" />
    <glyph glyph-name="uni1EBF" unicode="&#x1ebf;" horiz-adv-x="1271" 
d="M866 1374l213 264h201l-252 -264h-162zM326 1182l204 264h215l205 -264h-168l-143 170l-145 -170h-168zM643 -25q-159 0 -287.5 71.5t-201 196.5t-72.5 279q0 233 159.5 390t395.5 157q156 0 283.5 -71.5t199.5 -197t72 -278.5q0 -27 -4 -73h-918q23 -139 125.5 -225.5
t249.5 -86.5q108 0 197.5 47.5t134.5 126.5h197q-62 -152 -205 -244t-326 -92zM637 907q-139 0 -239 -83.5t-126 -217.5h734q-23 132 -125.5 216.5t-243.5 84.5z" />
    <glyph glyph-name="uni1EC0" unicode="&#x1ec0;" horiz-adv-x="1173" 
d="M946 1743l-250 264h199l213 -264h-162zM326 1550l204 265h215l207 -265h-168l-145 170l-145 -170h-168zM166 0v1413h905v-176h-717v-438h650v-176h-650v-447h727v-176h-915z" />
    <glyph glyph-name="uni1EC1" unicode="&#x1ec1;" horiz-adv-x="1271" 
d="M946 1374l-252 264h201l213 -264h-162zM326 1182l204 264h215l205 -264h-168l-143 170l-145 -170h-168zM643 -25q-159 0 -287.5 71.5t-201 196.5t-72.5 279q0 233 159.5 390t395.5 157q156 0 283.5 -71.5t199.5 -197t72 -278.5q0 -27 -4 -73h-918q23 -139 125.5 -225.5
t249.5 -86.5q108 0 197.5 47.5t134.5 126.5h197q-62 -152 -205 -244t-326 -92zM637 907q-139 0 -239 -83.5t-126 -217.5h734q-23 132 -125.5 216.5t-243.5 84.5z" />
    <glyph glyph-name="uni1EC2" unicode="&#x1ec2;" horiz-adv-x="1173" 
d="M874 1722v15q0 77 78 108q38 14 56 30t18 40q0 28 -25 43.5t-69 15.5q-46 0 -71 -17t-25 -48h-113q0 72 55.5 114.5t153.5 42.5q102 0 157.5 -37.5t55.5 -103.5q0 -41 -21 -69.5t-71 -51.5q-62 -25 -62 -67v-15h-117zM326 1550l204 265h215l207 -265h-168l-145 170
l-145 -170h-168zM166 0v1413h905v-176h-717v-438h650v-176h-650v-447h727v-176h-915z" />
    <glyph glyph-name="uni1EC3" unicode="&#x1ec3;" horiz-adv-x="1271" 
d="M874 1354v14q0 80 78 109q38 15 56 30.5t18 38.5q0 28 -25.5 44t-70.5 16q-44 0 -70 -17.5t-26 -48.5h-111q0 73 55.5 115.5t153.5 42.5q102 0 157.5 -37.5t55.5 -104.5q0 -41 -21 -69t-71 -51q-62 -24 -62 -68v-14h-117zM326 1182l204 264h215l205 -264h-168l-143 170
l-145 -170h-168zM643 -25q-159 0 -287.5 71.5t-201 196.5t-72.5 279q0 233 159.5 390t395.5 157q156 0 283.5 -71.5t199.5 -197t72 -278.5q0 -27 -4 -73h-918q23 -139 125.5 -225.5t249.5 -86.5q108 0 197.5 47.5t134.5 126.5h197q-62 -152 -205 -244t-326 -92zM637 907
q-139 0 -239 -83.5t-126 -217.5h734q-23 132 -125.5 216.5t-243.5 84.5z" />
    <glyph glyph-name="uni1EC4" unicode="&#x1ec4;" horiz-adv-x="1173" 
d="M743 1888q-37 0 -67.5 15.5t-48.5 34t-41 34t-47 15.5q-31 0 -51.5 -24.5t-20.5 -66.5h-127q0 105 47.5 168.5t130.5 63.5q37 0 68 -15.5t48.5 -34.5t41 -34.5t47.5 -15.5q32 0 53 24.5t21 67.5h127q0 -106 -48 -169t-133 -63zM326 1550l204 265h215l207 -265h-168
l-145 170l-145 -170h-168zM166 0v1413h905v-176h-717v-438h650v-176h-650v-447h727v-176h-915z" />
    <glyph glyph-name="uni1EC5" unicode="&#x1ec5;" horiz-adv-x="1271" 
d="M743 1520q-37 0 -68 15.5t-48.5 33.5t-40.5 33.5t-47 15.5q-32 0 -53 -24t-21 -66h-127q0 105 47.5 168t132.5 63q37 0 68 -15.5t48.5 -34.5t41 -34.5t47.5 -15.5q32 0 52 24.5t20 67.5h129q0 -106 -48 -168.5t-133 -62.5zM326 1182l204 264h215l205 -264h-168l-143 170
l-145 -170h-168zM643 -25q-159 0 -287.5 71.5t-201 196.5t-72.5 279q0 233 159.5 390t395.5 157q156 0 283.5 -71.5t199.5 -197t72 -278.5q0 -27 -4 -73h-918q23 -139 125.5 -225.5t249.5 -86.5q108 0 197.5 47.5t134.5 126.5h197q-62 -152 -205 -244t-326 -92zM637 907
q-139 0 -239 -83.5t-126 -217.5h734q-23 132 -125.5 216.5t-243.5 84.5z" />
    <glyph glyph-name="uni1EC6" unicode="&#x1ec6;" horiz-adv-x="1173" 
d="M326 1550l204 265h215l207 -265h-168l-145 170l-145 -170h-168zM166 0v1413h905v-176h-717v-438h650v-176h-650v-447h727v-176h-915zM639 -350q-48 0 -81.5 32.5t-33.5 79.5q0 49 33.5 82t81.5 33t80.5 -33t32.5 -82q0 -47 -33 -79.5t-80 -32.5z" />
    <glyph glyph-name="uni1EC7" unicode="&#x1ec7;" horiz-adv-x="1271" 
d="M326 1182l204 264h215l205 -264h-168l-143 170l-145 -170h-168zM643 -25q-159 0 -287.5 71.5t-201 196.5t-72.5 279q0 233 159.5 390t395.5 157q156 0 283.5 -71.5t199.5 -197t72 -278.5q0 -27 -4 -73h-918q23 -139 125.5 -225.5t249.5 -86.5q108 0 197.5 47.5
t134.5 126.5h197q-62 -152 -205 -244t-326 -92zM637 907q-139 0 -239 -83.5t-126 -217.5h734q-23 132 -125.5 216.5t-243.5 84.5zM639 -350q-49 0 -82 32.5t-33 79.5q0 50 33 82.5t82 32.5q48 0 80.5 -33t32.5 -82q0 -47 -33 -79.5t-80 -32.5z" />
    <glyph glyph-name="uni1EC8" unicode="&#x1ec8;" horiz-adv-x="520" 
d="M199 1540v14q0 45 20.5 74.5t65.5 57.5q31 19 44.5 27.5t25.5 23.5t12 32q0 34 -29 53t-80 19q-52 0 -80 -21t-28 -53h-121q0 82 61 134.5t170 52.5q112 0 175 -46.5t63 -123.5q0 -44 -22.5 -77.5t-78.5 -66.5q-40 -23 -55.5 -42t-15.5 -44v-14h-127zM166 0v1413h188
v-1413h-188z" />
    <glyph glyph-name="uni1EC9" unicode="&#x1ec9;" horiz-adv-x="473" 
d="M174 1171v15q0 45 20.5 74t65.5 57q45 26 63.5 43t18.5 41q0 34 -29 53t-80 19q-52 0 -80 -21t-28 -53h-121q0 82 61.5 134t170.5 52q112 0 174.5 -46.5t62.5 -123.5q0 -44 -22.5 -77t-77.5 -66q-39 -24 -55.5 -43t-16.5 -43v-15h-127zM150 0v1044h176v-1044h-176z" />
    <glyph glyph-name="uni1ECA" unicode="&#x1eca;" horiz-adv-x="520" 
d="M166 0v1413h188v-1413h-188zM262 -350q-49 0 -82 32.5t-33 79.5q0 50 32.5 82.5t82.5 32.5q48 0 80.5 -33t32.5 -82q0 -47 -33 -79.5t-80 -32.5z" />
    <glyph glyph-name="uni1ECB" unicode="&#x1ecb;" horiz-adv-x="481" 
d="M242 1243q-51 0 -85 33t-34 84q0 50 34 83.5t85 33.5q49 0 82.5 -33.5t33.5 -83.5q0 -51 -33 -84t-83 -33zM154 0v1044h176v-1044h-176zM242 -350q-49 0 -82 32.5t-33 79.5q0 50 32.5 82.5t82.5 32.5q47 0 79.5 -33t32.5 -82q0 -47 -32.5 -79.5t-79.5 -32.5z" />
    <glyph glyph-name="uni1ECC" unicode="&#x1ecc;" horiz-adv-x="1662" 
d="M831 -25q-155 0 -292 56.5t-235 153.5t-155 232.5t-57 289.5q0 205 96.5 372.5t266 263t376.5 95.5q208 0 377.5 -95.5t266 -263t96.5 -372.5t-96.5 -373t-266 -263.5t-377.5 -95.5zM831 156q153 0 278.5 72t197 198.5t71.5 280.5t-71.5 280.5t-197 198t-278.5 71.5
q-115 0 -216.5 -42t-173.5 -115t-114 -175t-42 -218q0 -154 71 -280.5t196.5 -198.5t278.5 -72zM831 -350q-47 0 -79.5 32.5t-32.5 79.5q0 49 32.5 82t79.5 33q49 0 82 -32.5t33 -82.5q0 -47 -33 -79.5t-82 -32.5z" />
    <glyph glyph-name="uni1ECD" unicode="&#x1ecd;" horiz-adv-x="1275" 
d="M639 -25q-156 0 -284 71.5t-200.5 197t-72.5 278.5t72.5 278.5t200.5 197t284 71.5q236 0 395.5 -157t159.5 -390t-159.5 -390t-395.5 -157zM639 145q160 0 266.5 108t106.5 269t-106.5 269t-266.5 108q-161 0 -268 -108t-107 -269t107 -269t268 -108zM639 -350
q-49 0 -82 32.5t-33 79.5q0 50 33 82.5t82 32.5q48 0 80.5 -33t32.5 -82q0 -47 -33 -79.5t-80 -32.5z" />
    <glyph glyph-name="uni1ECE" unicode="&#x1ece;" horiz-adv-x="1662" 
d="M768 1540v14q0 45 20.5 74.5t65.5 57.5q32 18 46 27.5t26 24t12 31.5q0 34 -29 53t-80 19q-53 0 -80.5 -20.5t-27.5 -53.5h-123q0 82 61 134.5t172 52.5q112 0 175 -46.5t63 -123.5q0 -44 -23 -77.5t-77 -66.5q-40 -23 -56 -42t-16 -44v-14h-129zM831 -25
q-155 0 -292 56.5t-235 153.5t-155 232.5t-57 289.5q0 205 96.5 372.5t266 263t376.5 95.5q208 0 377.5 -95.5t266 -263t96.5 -372.5t-96.5 -373t-266 -263.5t-377.5 -95.5zM831 156q153 0 278.5 72t197 198.5t71.5 280.5t-71.5 280.5t-197 198t-278.5 71.5
q-115 0 -216.5 -42t-173.5 -115t-114 -175t-42 -218q0 -154 71 -280.5t196.5 -198.5t278.5 -72z" />
    <glyph glyph-name="uni1ECF" unicode="&#x1ecf;" horiz-adv-x="1275" 
d="M575 1171v15q0 45 20.5 74t66.5 57q44 26 62.5 43t18.5 41q0 34 -28.5 53t-79.5 19q-52 0 -80.5 -21t-28.5 -53h-120q0 82 61 134t170 52q112 0 174.5 -46.5t62.5 -123.5q0 -44 -22.5 -77t-77.5 -66q-40 -23 -56 -42t-16 -44v-15h-127zM639 -25q-156 0 -284 71.5
t-200.5 197t-72.5 278.5t72.5 278.5t200.5 197t284 71.5q236 0 395.5 -157t159.5 -390t-159.5 -390t-395.5 -157zM639 145q160 0 266.5 108t106.5 269t-106.5 269t-266.5 108q-161 0 -268 -108t-107 -269t107 -269t268 -108z" />
    <glyph glyph-name="uni1ED0" unicode="&#x1ed0;" horiz-adv-x="1662" 
d="M1061 1743l213 264h199l-250 -264h-162zM518 1550l207 265h215l205 -265h-168l-146 170l-145 -170h-168zM831 -25q-155 0 -292 56.5t-235 153.5t-155 232.5t-57 289.5q0 205 96.5 372.5t266 263t376.5 95.5q208 0 377.5 -95.5t266 -263t96.5 -372.5t-96.5 -373
t-266 -263.5t-377.5 -95.5zM831 156q153 0 278.5 72t197 198.5t71.5 280.5t-71.5 280.5t-197 198t-278.5 71.5q-115 0 -216.5 -42t-173.5 -115t-114 -175t-42 -218q0 -154 71 -280.5t196.5 -198.5t278.5 -72z" />
    <glyph glyph-name="uni1ED1" unicode="&#x1ed1;" horiz-adv-x="1275" 
d="M866 1374l213 264h201l-252 -264h-162zM326 1182l204 264h215l205 -264h-168l-143 170l-145 -170h-168zM639 -25q-156 0 -284 71.5t-200.5 197t-72.5 278.5t72.5 278.5t200.5 197t284 71.5q236 0 395.5 -157t159.5 -390t-159.5 -390t-395.5 -157zM639 145
q160 0 266.5 108t106.5 269t-106.5 269t-266.5 108q-161 0 -268 -108t-107 -269t107 -269t268 -108z" />
    <glyph glyph-name="uni1ED2" unicode="&#x1ed2;" horiz-adv-x="1662" 
d="M1141 1743l-252 264h201l210 -264h-159zM518 1550l207 265h215l205 -265h-168l-146 170l-145 -170h-168zM831 -25q-155 0 -292 56.5t-235 153.5t-155 232.5t-57 289.5q0 205 96.5 372.5t266 263t376.5 95.5q208 0 377.5 -95.5t266 -263t96.5 -372.5t-96.5 -373
t-266 -263.5t-377.5 -95.5zM831 156q153 0 278.5 72t197 198.5t71.5 280.5t-71.5 280.5t-197 198t-278.5 71.5q-115 0 -216.5 -42t-173.5 -115t-114 -175t-42 -218q0 -154 71 -280.5t196.5 -198.5t278.5 -72z" />
    <glyph glyph-name="uni1ED3" unicode="&#x1ed3;" horiz-adv-x="1275" 
d="M946 1374l-252 264h201l213 -264h-162zM326 1182l204 264h215l205 -264h-168l-143 170l-145 -170h-168zM639 -25q-156 0 -284 71.5t-200.5 197t-72.5 278.5t72.5 278.5t200.5 197t284 71.5q236 0 395.5 -157t159.5 -390t-159.5 -390t-395.5 -157zM639 145
q160 0 266.5 108t106.5 269t-106.5 269t-266.5 108q-161 0 -268 -108t-107 -269t107 -269t268 -108z" />
    <glyph glyph-name="uni1ED4" unicode="&#x1ed4;" horiz-adv-x="1662" 
d="M1069 1722v15q0 78 76 108q38 14 56 30t18 40q0 28 -25 43.5t-70 15.5t-70.5 -17t-25.5 -48h-110q0 73 54.5 115t153.5 42q101 0 157 -37.5t56 -103.5q0 -40 -22 -69t-72 -52q-61 -24 -61 -67v-15h-115zM518 1550l207 265h215l205 -265h-168l-146 170l-145 -170h-168z
M831 -25q-155 0 -292 56.5t-235 153.5t-155 232.5t-57 289.5q0 205 96.5 372.5t266 263t376.5 95.5q208 0 377.5 -95.5t266 -263t96.5 -372.5t-96.5 -373t-266 -263.5t-377.5 -95.5zM831 156q153 0 278.5 72t197 198.5t71.5 280.5t-71.5 280.5t-197 198t-278.5 71.5
q-115 0 -216.5 -42t-173.5 -115t-114 -175t-42 -218q0 -154 71 -280.5t196.5 -198.5t278.5 -72z" />
    <glyph glyph-name="uni1ED5" unicode="&#x1ed5;" horiz-adv-x="1275" 
d="M874 1354v14q0 80 78 109q38 15 56 30.5t18 38.5q0 28 -25.5 44t-70.5 16q-44 0 -70 -17.5t-26 -48.5h-111q0 73 55.5 115.5t153.5 42.5q102 0 157.5 -37.5t55.5 -104.5q0 -41 -21 -69t-71 -51q-62 -24 -62 -68v-14h-117zM326 1182l204 264h215l205 -264h-168l-143 170
l-145 -170h-168zM639 -25q-156 0 -284 71.5t-200.5 197t-72.5 278.5t72.5 278.5t200.5 197t284 71.5q236 0 395.5 -157t159.5 -390t-159.5 -390t-395.5 -157zM639 145q160 0 266.5 108t106.5 269t-106.5 269t-266.5 108q-161 0 -268 -108t-107 -269t107 -269t268 -108z" />
    <glyph glyph-name="uni1ED6" unicode="&#x1ed6;" horiz-adv-x="1662" 
d="M936 1888q-37 0 -67.5 15.5t-48 34t-40.5 34t-47 15.5q-33 0 -53.5 -24.5t-20.5 -66.5h-127q0 105 48 168.5t133 63.5q37 0 67.5 -15.5t47.5 -34.5t40 -34.5t47 -15.5q33 0 53.5 24.5t20.5 67.5h127q0 -106 -47.5 -169t-132.5 -63zM518 1550l207 265h215l205 -265h-168
l-146 170l-145 -170h-168zM831 -25q-155 0 -292 56.5t-235 153.5t-155 232.5t-57 289.5q0 205 96.5 372.5t266 263t376.5 95.5q208 0 377.5 -95.5t266 -263t96.5 -372.5t-96.5 -373t-266 -263.5t-377.5 -95.5zM831 156q153 0 278.5 72t197 198.5t71.5 280.5t-71.5 280.5
t-197 198t-278.5 71.5q-115 0 -216.5 -42t-173.5 -115t-114 -175t-42 -218q0 -154 71 -280.5t196.5 -198.5t278.5 -72z" />
    <glyph glyph-name="uni1ED7" unicode="&#x1ed7;" horiz-adv-x="1275" 
d="M743 1520q-37 0 -68 15.5t-48.5 33.5t-40.5 33.5t-47 15.5q-32 0 -53 -24t-21 -66h-127q0 105 47.5 168t132.5 63q37 0 68 -15.5t48.5 -34.5t41 -34.5t47.5 -15.5q32 0 52 24.5t20 67.5h129q0 -106 -48 -168.5t-133 -62.5zM326 1182l204 264h215l205 -264h-168l-143 170
l-145 -170h-168zM639 -25q-156 0 -284 71.5t-200.5 197t-72.5 278.5t72.5 278.5t200.5 197t284 71.5q236 0 395.5 -157t159.5 -390t-159.5 -390t-395.5 -157zM639 145q160 0 266.5 108t106.5 269t-106.5 269t-266.5 108q-161 0 -268 -108t-107 -269t107 -269t268 -108z" />
    <glyph glyph-name="uni1ED8" unicode="&#x1ed8;" horiz-adv-x="1662" 
d="M518 1550l207 265h215l205 -265h-168l-146 170l-145 -170h-168zM831 -25q-155 0 -292 56.5t-235 153.5t-155 232.5t-57 289.5q0 205 96.5 372.5t266 263t376.5 95.5q208 0 377.5 -95.5t266 -263t96.5 -372.5t-96.5 -373t-266 -263.5t-377.5 -95.5zM831 156
q153 0 278.5 72t197 198.5t71.5 280.5t-71.5 280.5t-197 198t-278.5 71.5q-115 0 -216.5 -42t-173.5 -115t-114 -175t-42 -218q0 -154 71 -280.5t196.5 -198.5t278.5 -72zM831 -350q-47 0 -79.5 32.5t-32.5 79.5q0 49 32.5 82t79.5 33q49 0 82 -32.5t33 -82.5
q0 -47 -33 -79.5t-82 -32.5z" />
    <glyph glyph-name="uni1ED9" unicode="&#x1ed9;" horiz-adv-x="1275" 
d="M326 1182l204 264h215l205 -264h-168l-143 170l-145 -170h-168zM639 -25q-156 0 -284 71.5t-200.5 197t-72.5 278.5t72.5 278.5t200.5 197t284 71.5q236 0 395.5 -157t159.5 -390t-159.5 -390t-395.5 -157zM639 145q160 0 266.5 108t106.5 269t-106.5 269t-266.5 108
q-161 0 -268 -108t-107 -269t107 -269t268 -108zM639 -350q-49 0 -82 32.5t-33 79.5q0 50 33 82.5t82 32.5q48 0 80.5 -33t32.5 -82q0 -47 -33 -79.5t-80 -32.5z" />
    <glyph glyph-name="uni1EDA" unicode="&#x1eda;" horiz-adv-x="1662" 
d="M723 1550l213 265h227l-252 -265h-188zM831 -25q-155 0 -292 56.5t-235 153.5t-155 232.5t-57 289.5q0 205 96.5 372.5t266 263t376.5 95.5h349q48 0 76 27.5t28 76.5v19h170v-54q0 -92 -47.5 -147.5t-136.5 -67.5q139 -101 220 -253.5t81 -331.5q0 -205 -96.5 -373
t-266 -263.5t-377.5 -95.5zM831 156q153 0 278.5 72t197 198.5t71.5 280.5q0 114 -47 217.5t-123 175.5t-175 114.5t-202 42.5q-115 0 -216.5 -42t-173.5 -115t-114 -175t-42 -218q0 -154 71 -280.5t196.5 -198.5t278.5 -72z" />
    <glyph glyph-name="uni1EDB" unicode="&#x1edb;" horiz-adv-x="1275" 
d="M494 1182l213 264h227l-252 -264h-188zM639 -25q-156 0 -284 71.5t-200.5 197t-72.5 278.5t72.5 278.5t200.5 197t284 71.5h213q49 0 76.5 27.5t27.5 77.5v18h170v-53q0 -153 -120 -199q89 -76 138.5 -184t49.5 -234q0 -233 -159.5 -390t-395.5 -157zM639 145
q160 0 266.5 108t106.5 269q0 162 -105.5 269.5t-267.5 107.5q-161 0 -268 -108t-107 -269t107 -269t268 -108z" />
    <glyph glyph-name="uni1EDC" unicode="&#x1edc;" horiz-adv-x="1662" 
d="M752 1550l-250 265h225l213 -265h-188zM831 -25q-155 0 -292 56.5t-235 153.5t-155 232.5t-57 289.5q0 205 96.5 372.5t266 263t376.5 95.5h349q48 0 76 27.5t28 76.5v19h170v-54q0 -92 -47.5 -147.5t-136.5 -67.5q139 -101 220 -253.5t81 -331.5q0 -205 -96.5 -373
t-266 -263.5t-377.5 -95.5zM831 156q153 0 278.5 72t197 198.5t71.5 280.5q0 114 -47 217.5t-123 175.5t-175 114.5t-202 42.5q-115 0 -216.5 -42t-173.5 -115t-114 -175t-42 -218q0 -154 71 -280.5t196.5 -198.5t278.5 -72z" />
    <glyph glyph-name="uni1EDD" unicode="&#x1edd;" horiz-adv-x="1275" 
d="M522 1182l-250 264h226l213 -264h-189zM639 -25q-156 0 -284 71.5t-200.5 197t-72.5 278.5t72.5 278.5t200.5 197t284 71.5h213q49 0 76.5 27.5t27.5 77.5v18h170v-53q0 -153 -120 -199q89 -76 138.5 -184t49.5 -234q0 -233 -159.5 -390t-395.5 -157zM639 145
q160 0 266.5 108t106.5 269q0 162 -105.5 269.5t-267.5 107.5q-161 0 -268 -108t-107 -269t107 -269t268 -108z" />
    <glyph glyph-name="uni1EDE" unicode="&#x1ede;" horiz-adv-x="1662" 
d="M768 1540v14q0 45 20.5 74.5t65.5 57.5q32 18 46 27.5t26 24t12 31.5q0 34 -29 53t-80 19q-53 0 -80.5 -20.5t-27.5 -53.5h-123q0 82 61 134.5t172 52.5q112 0 175 -46.5t63 -123.5q0 -44 -23 -77.5t-77 -66.5q-40 -23 -56 -42t-16 -44v-14h-129zM831 -25
q-155 0 -292 56.5t-235 153.5t-155 232.5t-57 289.5q0 205 96.5 372.5t266 263t376.5 95.5h349q48 0 76 27.5t28 76.5v19h170v-54q0 -92 -47.5 -147.5t-136.5 -67.5q139 -101 220 -253.5t81 -331.5q0 -205 -96.5 -373t-266 -263.5t-377.5 -95.5zM831 156q153 0 278.5 72
t197 198.5t71.5 280.5q0 114 -47 217.5t-123 175.5t-175 114.5t-202 42.5q-115 0 -216.5 -42t-173.5 -115t-114 -175t-42 -218q0 -154 71 -280.5t196.5 -198.5t278.5 -72z" />
    <glyph glyph-name="uni1EDF" unicode="&#x1edf;" horiz-adv-x="1275" 
d="M539 1171v15q0 45 20.5 74t67.5 57q45 26 63.5 43t18.5 41q0 34 -29 53t-80 19q-53 0 -80.5 -20.5t-27.5 -53.5h-123q0 82 61 134t172 52q112 0 175 -46.5t63 -123.5q0 -43 -23 -76.5t-78 -66.5q-40 -23 -55.5 -42t-15.5 -44v-15h-129zM639 -25q-156 0 -284 71.5
t-200.5 197t-72.5 278.5t72.5 278.5t200.5 197t284 71.5h213q49 0 76.5 27.5t27.5 77.5v18h170v-53q0 -153 -120 -199q89 -76 138.5 -184t49.5 -234q0 -233 -159.5 -390t-395.5 -157zM639 145q160 0 266.5 108t106.5 269q0 162 -105.5 269.5t-267.5 107.5q-161 0 -268 -108
t-107 -269t107 -269t268 -108z" />
    <glyph glyph-name="uni1EE0" unicode="&#x1ee0;" horiz-adv-x="1662" 
d="M971 1563q-43 0 -81 17.5t-62 38.5t-54.5 38.5t-60.5 17.5q-43 0 -72 -29.5t-29 -72.5h-127q0 106 55.5 174t151.5 68q42 0 80 -17.5t61.5 -38t55 -38t61.5 -17.5q43 0 72 29t29 73h127q0 -107 -55.5 -175t-151.5 -68zM831 -25q-155 0 -292 56.5t-235 153.5t-155 232.5
t-57 289.5q0 205 96.5 372.5t266 263t376.5 95.5h349q48 0 76 27.5t28 76.5v19h170v-54q0 -92 -47.5 -147.5t-136.5 -67.5q139 -101 220 -253.5t81 -331.5q0 -205 -96.5 -373t-266 -263.5t-377.5 -95.5zM831 156q153 0 278.5 72t197 198.5t71.5 280.5q0 114 -47 217.5
t-123 175.5t-175 114.5t-202 42.5q-115 0 -216.5 -42t-173.5 -115t-114 -175t-42 -218q0 -154 71 -280.5t196.5 -198.5t278.5 -72z" />
    <glyph glyph-name="uni1EE1" unicode="&#x1ee1;" horiz-adv-x="1275" 
d="M731 1194q-43 0 -81 17.5t-62 39t-54.5 39t-60.5 17.5q-44 0 -72 -30t-28 -73h-127q0 106 55.5 174t151.5 68q42 0 80 -17.5t61.5 -38t55 -38t61.5 -17.5q43 0 71.5 29.5t28.5 73.5h127q0 -107 -56 -175.5t-151 -68.5zM639 -25q-156 0 -284 71.5t-200.5 197t-72.5 278.5
t72.5 278.5t200.5 197t284 71.5h213q49 0 76.5 27.5t27.5 77.5v18h170v-53q0 -153 -120 -199q89 -76 138.5 -184t49.5 -234q0 -233 -159.5 -390t-395.5 -157zM639 145q160 0 266.5 108t106.5 269q0 162 -105.5 269.5t-267.5 107.5q-161 0 -268 -108t-107 -269t107 -269
t268 -108z" />
    <glyph glyph-name="uni1EE2" unicode="&#x1ee2;" horiz-adv-x="1662" 
d="M831 -25q-155 0 -292 56.5t-235 153.5t-155 232.5t-57 289.5q0 205 96.5 372.5t266 263t376.5 95.5h349q48 0 76 27.5t28 76.5v19h170v-54q0 -92 -47.5 -147.5t-136.5 -67.5q139 -101 220 -253.5t81 -331.5q0 -205 -96.5 -373t-266 -263.5t-377.5 -95.5zM831 156
q153 0 278.5 72t197 198.5t71.5 280.5q0 114 -47 217.5t-123 175.5t-175 114.5t-202 42.5q-115 0 -216.5 -42t-173.5 -115t-114 -175t-42 -218q0 -154 71 -280.5t196.5 -198.5t278.5 -72zM831 -350q-47 0 -79.5 32.5t-32.5 79.5q0 49 32.5 82t79.5 33q49 0 82 -32.5
t33 -82.5q0 -47 -33 -79.5t-82 -32.5z" />
    <glyph glyph-name="uni1EE3" unicode="&#x1ee3;" horiz-adv-x="1275" 
d="M639 -25q-156 0 -284 71.5t-200.5 197t-72.5 278.5t72.5 278.5t200.5 197t284 71.5h213q49 0 76.5 27.5t27.5 77.5v18h170v-53q0 -153 -120 -199q89 -76 138.5 -184t49.5 -234q0 -233 -159.5 -390t-395.5 -157zM639 145q160 0 266.5 108t106.5 269q0 162 -105.5 269.5
t-267.5 107.5q-161 0 -268 -108t-107 -269t107 -269t268 -108zM639 -350q-49 0 -82 32.5t-33 79.5q0 50 33 82.5t82 32.5q48 0 80.5 -33t32.5 -82q0 -47 -33 -79.5t-80 -32.5z" />
    <glyph glyph-name="uni1EE4" unicode="&#x1ee4;" horiz-adv-x="1419" 
d="M709 -25q-161 0 -292.5 74t-206.5 203.5t-75 288.5v872h187v-868q0 -166 110.5 -277.5t276.5 -111.5q167 0 278 111.5t111 277.5v868h186v-872q0 -159 -75 -288.5t-206.5 -203.5t-293.5 -74zM709 -350q-47 0 -80 32.5t-33 79.5q0 49 32.5 82t80.5 33q49 0 81.5 -32.5
t32.5 -82.5q0 -48 -32.5 -80t-81.5 -32z" />
    <glyph glyph-name="uni1EE5" unicode="&#x1ee5;" horiz-adv-x="1228" 
d="M543 -25q-183 0 -295.5 113t-112.5 299v657h176v-606q0 -132 78.5 -212.5t208.5 -80.5q137 0 221 82t84 215v602h176v-1044h-176v152q-125 -177 -360 -177zM606 -350q-47 0 -79.5 32.5t-32.5 79.5q0 49 32.5 82t79.5 33q50 0 82.5 -32.5t32.5 -82.5q0 -47 -33 -79.5
t-82 -32.5z" />
    <glyph glyph-name="uni1EE6" unicode="&#x1ee6;" horiz-adv-x="1419" 
d="M645 1540v14q0 45 21 74.5t67 57.5q31 19 44.5 27.5t25.5 23.5t12 32q0 34 -28.5 53t-79.5 19q-52 0 -80.5 -21t-28.5 -53h-123q0 82 61.5 134.5t172.5 52.5q112 0 174.5 -46.5t62.5 -123.5q0 -44 -22.5 -77.5t-77.5 -66.5q-40 -23 -56 -42t-16 -44v-14h-129zM709 -25
q-161 0 -292.5 74t-206.5 203.5t-75 288.5v872h187v-868q0 -166 110.5 -277.5t276.5 -111.5q167 0 278 111.5t111 277.5v868h186v-872q0 -159 -75 -288.5t-206.5 -203.5t-293.5 -74z" />
    <glyph glyph-name="uni1EE7" unicode="&#x1ee7;" horiz-adv-x="1228" 
d="M545 1171v15q0 45 20.5 74t65.5 57q45 26 63.5 43t18.5 41q0 34 -29 53t-80 19q-52 0 -80 -21t-28 -53h-121q0 83 60.5 134.5t170.5 51.5q112 0 175 -46.5t63 -123.5q0 -44 -22.5 -77t-78.5 -66q-40 -23 -55.5 -42t-15.5 -44v-15h-127zM543 -25q-183 0 -295.5 113
t-112.5 299v657h176v-606q0 -132 78.5 -212.5t208.5 -80.5q137 0 221 82t84 215v602h176v-1044h-176v152q-125 -177 -360 -177z" />
    <glyph glyph-name="uni1EE8" unicode="&#x1ee8;" horiz-adv-x="1495" 
d="M600 1550l213 265h227l-252 -265h-188zM709 -25q-161 0 -292.5 74t-206.5 203.5t-75 288.5v872h187v-868q0 -166 110.5 -277.5t276.5 -111.5q167 0 278 111.5t111 277.5v868h133q49 0 76.5 27.5t27.5 77.5v18h170v-53q0 -101 -57 -158t-164 -61v-723q0 -159 -75 -288.5
t-206.5 -203.5t-293.5 -74z" />
    <glyph glyph-name="uni1EE9" unicode="&#x1ee9;" horiz-adv-x="1265" 
d="M498 1182l211 264h227l-252 -264h-186zM543 -25q-183 0 -295.5 113t-112.5 299v657h176v-606q0 -132 78.5 -212.5t208.5 -80.5q137 0 221 82t84 215v602h80q49 0 76.5 27.5t27.5 77.5v18h173v-53q0 -92 -46.5 -146.5t-134.5 -68.5v-899h-176v152q-125 -177 -360 -177z
" />
    <glyph glyph-name="uni1EEA" unicode="&#x1eea;" horiz-adv-x="1495" 
d="M629 1550l-250 265h227l211 -265h-188zM709 -25q-161 0 -292.5 74t-206.5 203.5t-75 288.5v872h187v-868q0 -166 110.5 -277.5t276.5 -111.5q167 0 278 111.5t111 277.5v868h133q49 0 76.5 27.5t27.5 77.5v18h170v-53q0 -101 -57 -158t-164 -61v-723q0 -159 -75 -288.5
t-206.5 -203.5t-293.5 -74z" />
    <glyph glyph-name="uni1EEB" unicode="&#x1eeb;" horiz-adv-x="1265" 
d="M526 1182l-252 264h228l211 -264h-187zM543 -25q-183 0 -295.5 113t-112.5 299v657h176v-606q0 -132 78.5 -212.5t208.5 -80.5q137 0 221 82t84 215v602h80q49 0 76.5 27.5t27.5 77.5v18h173v-53q0 -92 -46.5 -146.5t-134.5 -68.5v-899h-176v152q-125 -177 -360 -177z
" />
    <glyph glyph-name="uni1EEC" unicode="&#x1eec;" horiz-adv-x="1495" 
d="M645 1540v14q0 45 21 74.5t67 57.5q31 19 44.5 27.5t25.5 23.5t12 32q0 34 -28.5 53t-79.5 19q-52 0 -80.5 -21t-28.5 -53h-123q0 82 61.5 134.5t172.5 52.5q112 0 174.5 -46.5t62.5 -123.5q0 -44 -22.5 -77.5t-77.5 -66.5q-40 -23 -56 -42t-16 -44v-14h-129zM709 -25
q-161 0 -292.5 74t-206.5 203.5t-75 288.5v872h187v-868q0 -166 110.5 -277.5t276.5 -111.5q167 0 278 111.5t111 277.5v868h133q49 0 76.5 27.5t27.5 77.5v18h170v-53q0 -101 -57 -158t-164 -61v-723q0 -159 -75 -288.5t-206.5 -203.5t-293.5 -74z" />
    <glyph glyph-name="uni1EED" unicode="&#x1eed;" horiz-adv-x="1265" 
d="M543 1171v15q0 45 20.5 74t65.5 57q45 26 63.5 43t18.5 41q0 34 -29 53t-80 19q-52 0 -80 -21t-28 -53h-121q0 82 61 134t170 52q112 0 175 -46.5t63 -123.5q0 -44 -22.5 -77t-78.5 -66q-40 -23 -55.5 -42t-15.5 -44v-15h-127zM543 -25q-183 0 -295.5 113t-112.5 299v657
h176v-606q0 -132 78.5 -212.5t208.5 -80.5q137 0 221 82t84 215v602h80q49 0 76.5 27.5t27.5 77.5v18h173v-53q0 -92 -46.5 -146.5t-134.5 -68.5v-899h-176v152q-125 -177 -360 -177z" />
    <glyph glyph-name="uni1EEE" unicode="&#x1eee;" horiz-adv-x="1495" 
d="M848 1563q-42 0 -80.5 17.5t-62 38.5t-54.5 38.5t-61 17.5q-43 0 -72 -29.5t-29 -72.5h-127q0 106 55.5 174t151.5 68q42 0 80.5 -17.5t62 -38t54.5 -38t61 -17.5q43 0 72 29t29 73h127q0 -107 -55.5 -175t-151.5 -68zM709 -25q-161 0 -292.5 74t-206.5 203.5t-75 288.5
v872h187v-868q0 -166 110.5 -277.5t276.5 -111.5q167 0 278 111.5t111 277.5v868h133q49 0 76.5 27.5t27.5 77.5v18h170v-53q0 -101 -57 -158t-164 -61v-723q0 -159 -75 -288.5t-206.5 -203.5t-293.5 -74z" />
    <glyph glyph-name="uni1EEF" unicode="&#x1eef;" horiz-adv-x="1265" 
d="M743 1194q-42 0 -80 17.5t-62 39t-54.5 39t-59.5 17.5q-44 0 -73 -30t-29 -73h-127q0 105 56.5 173.5t152.5 68.5q41 0 79 -17.5t61.5 -38t54.5 -38t61 -17.5q43 0 72.5 29.5t29.5 73.5h127q0 -107 -56.5 -175.5t-152.5 -68.5zM543 -25q-183 0 -295.5 113t-112.5 299v657
h176v-606q0 -132 78.5 -212.5t208.5 -80.5q137 0 221 82t84 215v602h80q49 0 76.5 27.5t27.5 77.5v18h173v-53q0 -92 -46.5 -146.5t-134.5 -68.5v-899h-176v152q-125 -177 -360 -177z" />
    <glyph glyph-name="uni1EF0" unicode="&#x1ef0;" horiz-adv-x="1495" 
d="M709 -25q-161 0 -292.5 74t-206.5 203.5t-75 288.5v872h187v-868q0 -166 110.5 -277.5t276.5 -111.5q167 0 278 111.5t111 277.5v868h133q49 0 76.5 27.5t27.5 77.5v18h170v-53q0 -101 -57 -158t-164 -61v-723q0 -159 -75 -288.5t-206.5 -203.5t-293.5 -74zM709 -350
q-47 0 -80 32.5t-33 79.5q0 49 32.5 82t80.5 33q49 0 81.5 -32.5t32.5 -82.5q0 -48 -32.5 -80t-81.5 -32z" />
    <glyph glyph-name="uni1EF1" unicode="&#x1ef1;" horiz-adv-x="1265" 
d="M543 -25q-183 0 -295.5 113t-112.5 299v657h176v-606q0 -132 78.5 -212.5t208.5 -80.5q137 0 221 82t84 215v602h80q49 0 76.5 27.5t27.5 77.5v18h173v-53q0 -92 -46.5 -146.5t-134.5 -68.5v-899h-176v152q-125 -177 -360 -177zM606 -350q-47 0 -79.5 32.5t-32.5 79.5
q0 49 32.5 82t79.5 33q50 0 82.5 -32.5t32.5 -82.5q0 -47 -33 -79.5t-82 -32.5z" />
    <glyph glyph-name="Ygrave" unicode="&#x1ef2;" horiz-adv-x="1355" 
d="M600 1550l-252 265h227l213 -265h-188zM584 0v522l-566 891h215l447 -704l448 704h209l-565 -891v-522h-188z" />
    <glyph glyph-name="ygrave" unicode="&#x1ef3;" horiz-adv-x="1163" 
d="M504 1182l-252 264h227l211 -264h-186zM313 -389l172 393l-454 1040h200l353 -833l352 833h197l-629 -1433h-191z" />
    <glyph glyph-name="uni1EF4" unicode="&#x1ef4;" horiz-adv-x="1355" 
d="M584 0v522l-566 891h215l447 -704l448 704h209l-565 -891v-522h-188zM680 -350q-49 0 -82 32.5t-33 79.5q0 50 32.5 82.5t82.5 32.5q48 0 80.5 -33t32.5 -82q0 -47 -33 -79.5t-80 -32.5z" />
    <glyph glyph-name="uni1EF5" unicode="&#x1ef5;" horiz-adv-x="1163" 
d="M313 -389l172 393l-454 1040h200l353 -833l352 833h197l-629 -1433h-191zM934 -317q-47 0 -80 32.5t-33 79.5t33 80t80 33q49 0 82 -32.5t33 -80.5q0 -47 -33 -79.5t-82 -32.5z" />
    <glyph glyph-name="uni1EF6" unicode="&#x1ef6;" horiz-adv-x="1355" 
d="M616 1540v14q0 45 20.5 74.5t65.5 57.5q31 19 44.5 27.5t25.5 23.5t12 32q0 34 -28.5 53t-79.5 19q-52 0 -80.5 -21t-28.5 -53h-121q0 82 61.5 134.5t170.5 52.5q112 0 174.5 -46.5t62.5 -123.5q0 -44 -22.5 -77.5t-77.5 -66.5q-40 -23 -56 -42t-16 -44v-14h-127zM584 0
v522l-566 891h215l447 -704l448 704h209l-565 -891v-522h-188z" />
    <glyph glyph-name="uni1EF7" unicode="&#x1ef7;" horiz-adv-x="1163" 
d="M518 1171v15q0 45 21 74t67 57q45 26 63.5 43t18.5 41q0 34 -28.5 53t-79.5 19q-52 0 -80.5 -21t-28.5 -53h-123q0 82 61.5 134t172.5 52q112 0 174.5 -46.5t62.5 -123.5q0 -44 -22.5 -77t-77.5 -66q-40 -23 -56 -42t-16 -44v-15h-129zM313 -389l172 393l-454 1040h200
l353 -833l352 833h197l-629 -1433h-191z" />
    <glyph glyph-name="uni1EF8" unicode="&#x1ef8;" horiz-adv-x="1355" 
d="M817 1563q-42 0 -80 17.5t-62 38.5t-54.5 38.5t-59.5 17.5q-44 0 -73 -29.5t-29 -72.5h-127q0 105 56.5 173.5t152.5 68.5q41 0 79 -17.5t61.5 -38t54.5 -38t61 -17.5q43 0 72.5 29t29.5 73h127q0 -107 -56.5 -175t-152.5 -68zM584 0v522l-566 891h215l447 -704l448 704
h209l-565 -891v-522h-188z" />
    <glyph glyph-name="uni1EF9" unicode="&#x1ef9;" horiz-adv-x="1163" 
d="M721 1194q-42 0 -80.5 17.5t-62 39t-54.5 39t-61 17.5q-43 0 -72 -30t-29 -73h-126q0 105 55.5 173.5t150.5 68.5q42 0 80.5 -17.5t62 -38t54.5 -38t61 -17.5q43 0 72 29.5t29 73.5h127q0 -107 -55.5 -175.5t-151.5 -68.5zM313 -389l172 393l-454 1040h200l353 -833
l352 833h197l-629 -1433h-191z" />
    <glyph glyph-name="endash" unicode="&#x2013;" horiz-adv-x="1245" 
d="M129 481v160h987v-160h-987z" />
    <glyph glyph-name="emdash" unicode="&#x2014;" horiz-adv-x="2187" 
d="M129 481v160h1929v-160h-1929z" />
    <glyph glyph-name="quoteleft" unicode="&#x2018;" horiz-adv-x="450" 
d="M219 885q-54 0 -89.5 38t-35.5 111q0 148 75.5 260t186.5 144v-133q-91 -40 -118 -166q48 -6 79 -41.5t31 -85.5q0 -54 -36 -90.5t-93 -36.5z" />
    <glyph glyph-name="quoteright" unicode="&#x2019;" horiz-adv-x="450" 
d="M109 885v133q94 45 120 168q-49 4 -80.5 39.5t-31.5 85.5q0 55 36.5 91t92.5 36q54 0 90.5 -38.5t36.5 -109.5q0 -149 -76.5 -261t-187.5 -144z" />
    <glyph glyph-name="quotesinglbase" unicode="&#x201a;" horiz-adv-x="481" 
d="M104 -305v133q95 45 121 168q-49 4 -80.5 39.5t-31.5 85.5q0 55 36.5 91t92.5 36q54 0 90.5 -38.5t36.5 -109.5q0 -149 -77 -261t-188 -144z" />
    <glyph glyph-name="quotedblleft" unicode="&#x201c;" horiz-adv-x="858" 
d="M629 885q-56 0 -91.5 38t-35.5 111q0 148 75.5 260t186.5 144v-133q-92 -41 -119 -166q50 -6 80.5 -41t30.5 -86q0 -54 -36 -90.5t-91 -36.5zM219 885q-54 0 -89.5 38t-35.5 111q0 148 75.5 260t186.5 144v-133q-91 -40 -118 -166q48 -6 79 -41.5t31 -85.5
q0 -54 -36 -90.5t-93 -36.5z" />
    <glyph glyph-name="quotedblright" unicode="&#x201d;" horiz-adv-x="858" 
d="M518 885v133q93 44 119 168q-49 4 -80 39.5t-31 85.5q0 54 36 90.5t91 36.5t91 -38t36 -110q0 -149 -76 -261t-186 -144zM109 885v133q94 45 120 168q-49 4 -80.5 39.5t-31.5 85.5q0 55 36.5 91t92.5 36q54 0 90.5 -38.5t36.5 -109.5q0 -149 -76.5 -261t-187.5 -144z" />
    <glyph glyph-name="quotedblbase" unicode="&#x201e;" horiz-adv-x="888" 
d="M514 -305v133q93 46 119 168q-49 4 -80 39.5t-31 85.5q0 55 35.5 91t91.5 36q54 0 90.5 -38.5t36.5 -109.5q0 -149 -76 -261t-186 -144zM104 -305v133q95 45 121 168q-49 4 -80.5 39.5t-31.5 85.5q0 55 36.5 91t92.5 36q54 0 90.5 -38.5t36.5 -109.5q0 -149 -77 -261
t-188 -144z" />
    <glyph glyph-name="dagger" unicode="&#x2020;" horiz-adv-x="1011" 
d="M424 -389v1274h-295v159h295v369h164v-369h295v-159h-295v-1274h-164z" />
    <glyph glyph-name="daggerdbl" unicode="&#x2021;" horiz-adv-x="1011" 
d="M129 20v160h295v705h-295v159h295v369h164v-369h295v-159h-295v-705h295v-160h-295v-409h-164v409h-295z" />
    <glyph glyph-name="bullet" unicode="&#x2022;" horiz-adv-x="651" 
d="M326 367q-84 0 -140.5 55t-56.5 139t56.5 139.5t140.5 55.5q85 0 140.5 -55t55.5 -140t-55.5 -139.5t-140.5 -54.5z" />
    <glyph glyph-name="ellipsis" unicode="&#x2026;" horiz-adv-x="1478" 
d="M739 -14q-57 0 -95 37.5t-38 93.5t38 93.5t95 37.5t94 -37.5t37 -93.5t-37 -93.5t-94 -37.5zM1237 -14q-55 0 -93 38t-38 93t38 93t93 38q57 0 95 -37.5t38 -93.5t-38 -93.5t-95 -37.5zM240 -14q-56 0 -93.5 38t-37.5 93t37.5 93t93.5 38q57 0 95 -37.5t38 -93.5
t-38 -93.5t-95 -37.5z" />
    <glyph glyph-name="perthousand" unicode="&#x2030;" horiz-adv-x="2476" 
d="M430 782q-142 0 -237 94t-95 234t95 234t237 94q141 0 235.5 -94t94.5 -234t-94.5 -234t-235.5 -94zM250 0l1024 1413h190l-1024 -1413h-190zM430 926q77 0 129.5 53t52.5 131t-52.5 131t-129.5 53q-78 0 -130 -53t-52 -131t52 -131t130 -53zM1282 -25
q-141 0 -236.5 94.5t-95.5 233.5t95.5 233.5t236.5 94.5t236.5 -94.5t95.5 -233.5t-95.5 -233.5t-236.5 -94.5zM2046 -25q-141 0 -236.5 94.5t-95.5 233.5t95.5 233.5t236.5 94.5t236.5 -94.5t95.5 -233.5t-95.5 -233.5t-236.5 -94.5zM1282 119q78 0 130 53t52 131t-52 131
t-130 53t-130 -53t-52 -131t52 -131t130 -53zM2046 119q78 0 130 53t52 131t-52 131t-130 53t-130 -53t-52 -131t52 -131t130 -53z" />
    <glyph glyph-name="guilsinglleft" unicode="&#x2039;" horiz-adv-x="694" 
d="M403 125l-342 416l342 415h209l-342 -415l342 -416h-209z" />
    <glyph glyph-name="guilsinglright" unicode="&#x203a;" horiz-adv-x="694" 
d="M82 125l342 416l-342 415h209l342 -415l-342 -416h-209z" />
    <glyph glyph-name="fraction" unicode="&#x2044;" horiz-adv-x="362" 
d="M-391 0l991 1413h152l-990 -1413h-153z" />
    <glyph glyph-name="uni2070" unicode="&#x2070;" horiz-adv-x="802" 
d="M401 735q-145 0 -236 122.5t-91 316.5t91 316t236 122t236.5 -122.5t91.5 -315.5q0 -194 -91.5 -316.5t-236.5 -122.5zM401 854q88 0 144.5 89.5t56.5 230.5t-56.5 230t-144.5 89t-144 -89t-56 -230t56 -230.5t144 -89.5z" />
    <glyph glyph-name="uni2074" unicode="&#x2074;" horiz-adv-x="733" 
d="M461 750v186h-414v98l307 563h133l-301 -546h285v225h113v-225h108v-115h-108v-186h-123z" />
    <glyph glyph-name="uni2075" unicode="&#x2075;" horiz-adv-x="729" 
d="M379 735q-118 0 -201.5 68t-97.5 174h129q12 -55 58.5 -89t111.5 -34q74 0 123 45.5t49 114.5t-48.5 114.5t-119.5 45.5q-45 0 -88.5 -20t-67.5 -50h-121l44 493h471v-116h-365l-23 -250q28 24 72.5 38.5t91.5 14.5q118 0 199.5 -79t81.5 -195q0 -117 -86.5 -196
t-212.5 -79z" />
    <glyph glyph-name="uni2076" unicode="&#x2076;" horiz-adv-x="714" 
d="M379 735q-140 0 -228 101.5t-88 269.5q0 136 57.5 248t168.5 180t254 68h24v-117h-24q-133 0 -226 -80.5t-112 -202.5q35 38 87 60t111 22q117 0 196 -76.5t79 -191.5q0 -120 -86.5 -200.5t-212.5 -80.5zM375 854q72 0 124 46t52 114t-51 112.5t-123 44.5
q-69 0 -123.5 -41.5t-54.5 -95.5q0 -65 48.5 -122.5t127.5 -57.5z" />
    <glyph glyph-name="uni2077" unicode="&#x2077;" horiz-adv-x="647" 
d="M131 750l340 731h-410v116h555v-96l-346 -751h-139z" />
    <glyph glyph-name="uni2078" unicode="&#x2078;" horiz-adv-x="743" 
d="M371 735q-132 0 -218.5 69t-86.5 175q0 70 38 125t105 86q-58 30 -90.5 80t-32.5 112q0 101 80.5 165.5t204.5 64.5q125 0 205.5 -64.5t80.5 -165.5q0 -62 -33.5 -112t-91.5 -80q68 -31 107 -86t39 -125q0 -106 -87 -175t-220 -69zM371 1241q69 0 115 36.5t46 90.5
q0 55 -46 91t-115 36q-68 0 -115 -36t-47 -91q0 -54 47 -90.5t115 -36.5zM371 854q76 0 128 39t52 100q0 60 -51.5 100t-128.5 40q-75 0 -126.5 -40t-51.5 -100q0 -61 51 -100t127 -39z" />
    <glyph glyph-name="uni2079" unicode="&#x2079;" horiz-adv-x="714" 
d="M184 745h-49v117h49q126 0 216.5 79t109.5 206q-34 -39 -88 -61.5t-113 -22.5q-116 0 -194 76.5t-78 191.5q0 120 86.5 200.5t212.5 80.5q139 0 227 -101t88 -270q0 -215 -130.5 -355.5t-336.5 -140.5zM338 1176q69 0 122.5 41.5t53.5 95.5q0 65 -48 122.5t-128 57.5
q-71 0 -122.5 -45.5t-51.5 -114.5q0 -68 51 -112.5t123 -44.5z" />
    <glyph glyph-name="franc" unicode="&#x20a3;" horiz-adv-x="1150" 
d="M211 0v238h-135v161h135v1014h854v-176h-668v-428h582v-176h-582v-234h414v-161h-414v-238h-186z" />
    <glyph glyph-name="lira" unicode="&#x20a4;" horiz-adv-x="1189" 
d="M78 0v176h133v277h-133v145h133v113h-133v145h133v141q0 189 129.5 315t321.5 126t321 -126t129 -315h-190q0 112 -73.5 185t-186.5 73t-187 -73t-74 -185v-141h476v-145h-476v-113h476v-145h-476v-277h732v-176h-1055z" />
    <glyph glyph-name="peseta" unicode="&#x20a7;" horiz-adv-x="1406" 
d="M227 2v887h-133v123h133v403h547q186 0 317.5 -113.5t153.5 -289.5h101v-123h-101q-22 -178 -153 -292t-318 -114h-358v-481h-189zM772 1239h-356v-227h635q-20 101 -97 164t-182 63zM772 659q105 0 182 64t97 166h-635v-230h356z" />
    <glyph glyph-name="uni20A8" unicode="&#x20a8;" horiz-adv-x="2283" 
d="M166 0v1413h604q189 0 315.5 -123t126.5 -307q0 -164 -104.5 -280t-267.5 -138l413 -565h-233l-404 561h-262v-561h-188zM768 1237h-414v-512h414q108 0 180 73t72 183t-72 183t-180 73zM1782 -25q-183 0 -293.5 88.5t-110.5 233.5h181q0 -73 62 -117.5t163 -44.5
q93 0 151 40.5t58 103.5q0 45 -33 77t-85.5 51.5t-116.5 36.5t-128 39.5t-116.5 54t-85.5 86.5t-33 130q0 142 104 228.5t275 86.5q175 0 280 -84.5t105 -224.5h-183q0 68 -55.5 108.5t-148.5 40.5q-89 0 -143 -37.5t-54 -97.5q0 -39 26 -68t68 -46t96 -34.5t110 -31.5
t110 -39t96 -56t68 -83t26 -119q0 -145 -107.5 -233.5t-285.5 -88.5z" />
    <glyph glyph-name="dong" unicode="&#x20ab;" horiz-adv-x="1163" 
d="M532 266q-183 0 -309.5 126.5t-126.5 312.5q0 187 126.5 314.5t309.5 127.5q105 0 191 -45t141 -125v254h-207v112h207v132h160v-132h123v-112h-123v-723q0 -40 22.5 -61t63.5 -21h16v-139h-47q-92 0 -146.5 39t-64.5 114q-57 -82 -143.5 -128t-192.5 -46zM561 406
q129 0 216 86.5t87 214.5q0 127 -87 213t-216 86q-128 0 -214.5 -86t-86.5 -215q0 -127 86.5 -213t214.5 -86zM127 0v123l1020 -2v-121h-1020z" />
    <glyph glyph-name="Euro" unicode="&#x20ac;" horiz-adv-x="1554" 
d="M68 504l45 145h108q-2 18 -2 58q0 39 2 57h-153l45 145h133q64 235 258.5 382t453.5 147q283 0 494 -170v-207q-90 92 -213 143t-258 51q-188 0 -330.5 -94.5t-201.5 -251.5h821l-45 -145h-811q-2 -18 -2 -57q0 -40 2 -58h772l-43 -145h-694q59 -157 201.5 -251.5
t330.5 -94.5q135 0 258 51t213 143v-207q-211 -170 -494 -170q-259 0 -453.5 147t-258.5 382h-178z" />
    <glyph glyph-name="uni20B1" unicode="&#x20b1;" horiz-adv-x="1406" 
d="M227 0v776h-133v125h133v90h-133v127h133v295h549q154 0 273.5 -80.5t171.5 -214.5h127v-127h-99q0 -7 1 -22t1 -23q0 -7 -1 -22.5t-1 -22.5h99v-125h-127q-52 -134 -171.5 -214.5t-273.5 -80.5h-362v-481h-187zM756 1251h-342v-133h594q-40 62 -106.5 97.5t-145.5 35.5z
M1057 946q0 17 -4 45h-639v-90h639q4 28 4 45zM756 643q79 0 145.5 35.5t106.5 97.5h-594v-133h342z" />
    <glyph glyph-name="uni20B5" unicode="&#x20b5;" horiz-adv-x="1650" 
d="M778 -143v120q-189 16 -341 115t-238 260t-86 355t86 355t238 259.5t341 114.5v120h142v-122q229 -22 398.5 -162t229.5 -352h-198q-54 136 -168 224t-262 107v-1089q148 19 262 107.5t168 224.5h198q-60 -212 -229.5 -352t-398.5 -162v-123h-142zM305 707
q0 -217 133 -369.5t340 -177.5v1093q-207 -25 -340 -177t-133 -369z" />
    <glyph glyph-name="uni20B9" unicode="&#x20b9;" horiz-adv-x="1218" 
d="M770 0l-623 551v160h392q110 0 185 76t75 188h-652v145h615q-34 59 -92.5 92t-130.5 33h-392v168h1006l-55 -145h-213q56 -62 84 -148h184l-55 -145h-107q-2 -186 -127.5 -310t-312.5 -124h-141l614 -541h-254z" />
    <glyph glyph-name="uni2116" unicode="&#x2116;" horiz-adv-x="2367" 
d="M1896 686q-162 0 -270 107.5t-108 267.5q0 161 108 269t270 108q163 0 271 -108t108 -269q0 -160 -108.5 -267.5t-270.5 -107.5zM166 0v1413h194l799 -1102v1102h187v-1413h-193l-799 1102v-1102h-188zM1896 836q95 0 159.5 65t64.5 160q0 97 -64.5 162t-159.5 65
t-160 -65t-65 -162q0 -95 65 -160t160 -65zM1544 371v159h703v-159h-703z" />
    <glyph glyph-name="trademark" unicode="&#x2122;" horiz-adv-x="1374" 
d="M612 811v602h136l184 -457l184 457h131v-602h-100v440l-178 -440h-76l-180 440v-440h-101zM219 811v508h-176v94h453v-94h-177v-508h-100z" />
    <glyph glyph-name="uni2150" unicode="&#x2150;" horiz-adv-x="1695" 
d="M238 565v705l-187 -103v125l221 121h86v-848h-120zM182 0l989 1413h154l-989 -1413h-154zM1180 0l340 731h-410v117h555v-96l-346 -752h-139z" />
    <glyph glyph-name="uni2151" unicode="&#x2151;" horiz-adv-x="1648" 
d="M238 565v705l-187 -103v125l221 121h86v-848h-120zM182 0l989 1413h154l-989 -1413h-154zM1118 -4h-49v117h49q126 0 217 78.5t111 205.5q-34 -39 -88 -61.5t-115 -22.5q-116 0 -194 77t-78 192q0 120 86.5 200t212.5 80q139 0 228 -100.5t89 -269.5
q0 -215 -131.5 -355.5t-337.5 -140.5zM1272 426q69 0 123.5 41.5t54.5 95.5q0 64 -48.5 122t-127.5 58q-72 0 -124 -45t-52 -114q0 -68 51 -113t123 -45z" />
    <glyph glyph-name="uni2152" unicode="&#x2152;" horiz-adv-x="2269" 
d="M238 565v705l-187 -103v125l221 121h86v-848h-120zM182 0l989 1413h154l-989 -1413h-154zM1868 -14q-145 0 -236.5 122.5t-91.5 315.5t91.5 315.5t236.5 122.5t236 -122t91 -316t-91 -316t-236 -122zM1233 0v705l-186 -103v125l223 121h86v-848h-123zM1868 104
q88 0 144 89.5t56 230.5t-56 230t-144 89t-144.5 -89t-56.5 -230t56.5 -230.5t144.5 -89.5z" />
    <glyph glyph-name="uni2153" unicode="&#x2153;" horiz-adv-x="1656" 
d="M238 565v705l-187 -103v125l221 121h86v-848h-120zM182 0l989 1413h154l-989 -1413h-154zM1298 -14q-123 0 -207.5 73.5t-84.5 182.5h127q0 -59 47.5 -98.5t117.5 -39.5q69 0 116.5 39.5t47.5 102.5q0 60 -46 100.5t-116 40.5h-110v100h110q62 0 104 37t42 92
q0 57 -43 93t-105 36q-63 0 -106 -35t-43 -89h-125q0 103 78.5 172t195.5 69q114 0 193.5 -66.5t79.5 -164.5q0 -62 -32.5 -112.5t-90.5 -78.5q65 -28 103 -84t38 -125q0 -104 -84.5 -174.5t-206.5 -70.5z" />
    <glyph glyph-name="uni2154" unicode="&#x2154;" horiz-adv-x="1875" 
d="M74 565v97q0 54 23.5 99.5t61.5 78.5t84 63t92 57.5t84 56t61.5 65.5t23.5 79q0 65 -42 104.5t-108 39.5q-64 0 -106.5 -38.5t-42.5 -99.5h-123q0 112 77.5 186t196.5 74q116 0 194.5 -73.5t78.5 -186.5q0 -65 -29 -120t-73 -91.5t-97.5 -72.5t-100.5 -63t-84.5 -63.5
t-47.5 -74.5h442v-117h-565zM401 0l992 1413h153l-991 -1413h-154zM1518 -14q-123 0 -207 73.5t-84 182.5h125q0 -59 48 -98.5t118 -39.5q69 0 117 39.5t48 102.5q0 61 -46 101t-117 40h-109v100h109q63 0 104 36.5t41 92.5q0 57 -42.5 93t-104.5 36t-106 -35.5t-44 -88.5
h-125q0 103 79 172t196 69q116 0 195 -66.5t79 -164.5q0 -62 -33 -112.5t-90 -78.5q65 -28 103 -84t38 -125q0 -104 -85 -174.5t-207 -70.5z" />
    <glyph glyph-name="uni2155" unicode="&#x2155;" horiz-adv-x="1689" 
d="M238 565v705l-187 -103v125l221 121h86v-848h-120zM182 0l989 1413h154l-989 -1413h-154zM1337 -14q-117 0 -201 68t-96 173h127q12 -54 59 -88.5t111 -34.5q75 0 124.5 45.5t49.5 114.5t-48.5 114.5t-119.5 45.5q-46 0 -88.5 -20t-66.5 -50h-121l43 494h471v-117h-364
l-25 -250q68 54 164 54q119 0 200.5 -79t81.5 -196t-86.5 -195.5t-214.5 -78.5z" />
    <glyph glyph-name="uni2156" unicode="&#x2156;" horiz-adv-x="1908" 
d="M74 565v97q0 54 23.5 99.5t61.5 78.5t84 63t92 57.5t84 56t61.5 65.5t23.5 79q0 65 -42 104.5t-108 39.5q-64 0 -106.5 -38.5t-42.5 -99.5h-123q0 112 77.5 186t196.5 74q116 0 194.5 -73.5t78.5 -186.5q0 -65 -29 -120t-73 -91.5t-97.5 -72.5t-100.5 -63t-84.5 -63.5
t-47.5 -74.5h442v-117h-565zM401 0l992 1413h153l-991 -1413h-154zM1556 -14q-117 0 -200.5 67.5t-95.5 173.5h126q12 -54 59 -88.5t111 -34.5q75 0 125 45.5t50 114.5t-48.5 114.5t-119.5 45.5q-45 0 -88.5 -20t-67.5 -50h-121l43 494h471v-117h-364l-23 -250
q28 24 72.5 39t89.5 15q119 0 201 -79t82 -196t-87 -195.5t-215 -78.5z" />
    <glyph glyph-name="uni2157" unicode="&#x2157;" horiz-adv-x="1847" 
d="M354 551q-124 0 -208.5 73.5t-84.5 182.5h127q0 -59 48 -98t118 -39q68 0 116 39t48 102q0 60 -46 100.5t-116 40.5h-110v101h110q62 0 104 37t42 92q0 57 -43.5 93t-104.5 36q-63 0 -106 -35.5t-43 -89.5h-125q0 103 78.5 172t195.5 69q114 0 193.5 -66.5t79.5 -164.5
q0 -62 -33 -112t-90 -78q65 -28 103 -84t38 -125q0 -104 -84.5 -175t-206.5 -71zM340 0l991 1413h154l-991 -1413h-154zM1497 -14q-118 0 -201.5 67.5t-97.5 173.5h129q12 -55 58.5 -89t111.5 -34q74 0 123 45.5t49 114.5t-48.5 114.5t-119.5 45.5q-45 0 -88 -20t-67 -50
h-121l43 494h471v-117h-365l-22 -250q28 24 73 39t91 15q117 0 198.5 -79t81.5 -196t-86.5 -195.5t-212.5 -78.5z" />
    <glyph glyph-name="uni2158" unicode="&#x2158;" horiz-adv-x="1865" 
d="M461 565v187h-414v98l307 563h133l-301 -547h285v226h113v-226h108v-114h-108v-187h-123zM360 0l990 1413h153l-991 -1413h-152zM1516 -14q-118 0 -201.5 67.5t-97.5 173.5h129q12 -55 58.5 -89t111.5 -34q74 0 123 45.5t49 114.5q0 68 -48 114t-118 46q-46 0 -90 -20
t-68 -50h-121l45 494h469v-117h-364l-23 -250q68 54 164 54q119 0 200 -79t81 -196t-85.5 -195.5t-213.5 -78.5z" />
    <glyph glyph-name="uni2159" unicode="&#x2159;" horiz-adv-x="1556" 
d="M238 565v705l-187 -103v125l221 121h86v-848h-120zM182 0l989 1413h154l-989 -1413h-154zM1221 -14q-139 0 -227.5 101t-88.5 269q0 136 57.5 248t168.5 180t253 68h25v-117h-25q-133 0 -224.5 -80t-112.5 -202q34 37 87.5 59.5t112.5 22.5q116 0 194.5 -77t78.5 -192
q0 -120 -86 -200t-213 -80zM1217 104q73 0 124.5 46t51.5 114t-50.5 113t-123.5 45q-69 0 -124 -41.5t-55 -95.5q0 -65 49.5 -123t127.5 -58z" />
    <glyph glyph-name="uni215A" unicode="&#x215a;" horiz-adv-x="1714" 
d="M379 551q-118 0 -201.5 68t-97.5 174h129q12 -55 58.5 -89t111.5 -34q74 0 123 45t49 114t-48.5 114.5t-119.5 45.5q-45 0 -88.5 -19.5t-67.5 -49.5h-121l44 493h471v-117h-365l-23 -249q28 24 72.5 38.5t91.5 14.5q118 0 199.5 -79.5t81.5 -195.5q0 -117 -86.5 -195.5
t-212.5 -78.5zM338 0l991 1413h152l-989 -1413h-154zM1378 -14q-140 0 -228.5 101t-88.5 269q0 136 58 248t169 180t254 68h25v-117h-25q-133 0 -226 -80t-112 -202q34 37 87 59.5t112 22.5q117 0 194.5 -76.5t77.5 -192.5q0 -120 -85.5 -200t-211.5 -80zM1374 104
q72 0 123 46t51 114t-50 113t-122 45q-69 0 -123.5 -41.5t-54.5 -95.5q0 -66 48.5 -123.5t127.5 -57.5z" />
    <glyph glyph-name="oneeighth" unicode="&#x215b;" horiz-adv-x="1687" 
d="M238 565v705l-187 -103v125l221 121h86v-848h-120zM182 0l989 1413h154l-989 -1413h-154zM1315 -14q-132 0 -217.5 68.5t-85.5 174.5q0 70 38 125t105 86q-58 30 -91.5 80.5t-33.5 112.5q0 101 80.5 165t204.5 64q125 0 206 -64t81 -165q0 -63 -33 -113.5t-92 -79.5
q68 -31 106.5 -86t38.5 -125q0 -106 -86.5 -174.5t-220.5 -68.5zM1315 492q69 0 116.5 36t47.5 90q0 55 -47 91t-117 36q-68 0 -115 -36t-47 -91q0 -54 47 -90t115 -36zM1315 104q77 0 128.5 39.5t51.5 100.5q0 60 -51.5 99.5t-128.5 39.5q-75 0 -125.5 -39.5t-50.5 -99.5
q0 -61 50 -100.5t126 -39.5z" />
    <glyph glyph-name="threeeighths" unicode="&#x215c;" horiz-adv-x="1847" 
d="M354 551q-124 0 -208.5 73.5t-84.5 182.5h127q0 -59 48 -98t118 -39q68 0 116 39t48 102q0 60 -46 100.5t-116 40.5h-110v101h110q62 0 104 37t42 92q0 57 -43.5 93t-104.5 36q-63 0 -106 -35.5t-43 -89.5h-125q0 103 78.5 172t195.5 69q114 0 193.5 -66.5t79.5 -164.5
q0 -62 -33 -112t-90 -78q65 -28 103 -84t38 -125q0 -104 -84.5 -175t-206.5 -71zM340 0l991 1413h154l-991 -1413h-154zM1473 -14q-131 0 -217.5 69t-86.5 174q0 69 38.5 124.5t105.5 86.5q-58 30 -90.5 80.5t-32.5 112.5q0 101 80.5 165t202.5 64q126 0 207 -64t81 -165
q0 -62 -33.5 -112.5t-91.5 -80.5q67 -31 105.5 -86.5t38.5 -124.5q0 -106 -86 -174.5t-221 -68.5zM1473 492q70 0 116.5 36t46.5 90q0 55 -46 91t-117 36q-67 0 -113.5 -36t-46.5 -91q0 -54 46.5 -90t113.5 -36zM1473 104q77 0 128.5 39.5t51.5 100.5q0 60 -51 99.5
t-129 39.5q-74 0 -125.5 -40t-51.5 -99q0 -61 51 -100.5t126 -39.5z" />
    <glyph glyph-name="fiveeighths" unicode="&#x215d;" horiz-adv-x="1843" 
d="M379 551q-118 0 -201.5 68t-97.5 174h129q12 -55 58.5 -89t111.5 -34q74 0 123 45t49 114t-48.5 114.5t-119.5 45.5q-45 0 -88.5 -19.5t-67.5 -49.5h-121l44 493h471v-117h-365l-23 -249q28 24 72.5 38.5t91.5 14.5q118 0 199.5 -79.5t81.5 -195.5q0 -117 -86.5 -195.5
t-212.5 -78.5zM338 0l991 1413h152l-989 -1413h-154zM1470 -14q-132 0 -217.5 68.5t-85.5 174.5q0 69 38.5 124.5t105.5 86.5q-58 30 -90.5 80.5t-32.5 112.5q0 101 79.5 165t202.5 64q126 0 206.5 -64t80.5 -165q0 -62 -32.5 -112.5t-90.5 -80.5q67 -31 105.5 -86.5
t38.5 -124.5q0 -106 -86.5 -174.5t-221.5 -68.5zM1470 492q69 0 116.5 36t47.5 90q0 55 -47 91t-117 36q-67 0 -113 -36t-46 -91q0 -54 46.5 -90t112.5 -36zM1470 104q77 0 129 39.5t52 100.5q0 60 -51.5 99.5t-129.5 39.5q-74 0 -125 -39.5t-51 -99.5q0 -61 51 -100.5
t125 -39.5z" />
    <glyph glyph-name="seveneighths" unicode="&#x215e;" horiz-adv-x="1660" 
d="M131 565l340 731h-410v117h555v-96l-346 -752h-139zM154 0l991 1413h153l-991 -1413h-153zM1286 -14q-131 0 -217 69t-86 174q0 70 38 125t105 86q-57 29 -89.5 80t-32.5 113q0 101 80 165t202 64q126 0 207.5 -64t81.5 -165q0 -62 -33.5 -112.5t-91.5 -80.5
q67 -31 105 -86t38 -125q0 -106 -86 -174.5t-221 -68.5zM1286 492q70 0 117 36t47 90q0 55 -46.5 91t-117.5 36q-67 0 -113.5 -36t-46.5 -91q0 -54 46.5 -90t113.5 -36zM1286 104q77 0 128.5 39.5t51.5 100.5q0 60 -51 99.5t-129 39.5q-74 0 -125 -39.5t-51 -99.5
q0 -61 51 -100.5t125 -39.5z" />
    <glyph glyph-name="uni215F" unicode="&#x215f;" horiz-adv-x="933" 
d="M238 565v705l-187 -103v125l221 121h86v-848h-120zM182 0l989 1413h154l-989 -1413h-154z" />
    <glyph glyph-name="uni2189" unicode="&#x2189;" horiz-adv-x="1875" 
d="M401 551q-145 0 -236 122t-91 316t91 316t236 122t236.5 -122.5t91.5 -315.5t-91.5 -315.5t-236.5 -122.5zM403 0l990 1413h153l-991 -1413h-152zM401 670q88 0 144.5 89t56.5 230t-56.5 230.5t-144.5 89.5t-144 -89.5t-56 -230.5t56 -230t144 -89zM1520 -14
q-124 0 -208.5 73.5t-84.5 182.5h127q0 -59 48 -98.5t118 -39.5q68 0 115.5 39.5t47.5 102.5q0 60 -45.5 100.5t-115.5 40.5h-111v100h111q62 0 103.5 37t41.5 92q0 57 -42.5 93t-104.5 36q-64 0 -107 -35t-43 -89h-125q0 103 79 172t196 69q114 0 193 -66.5t79 -164.5
q0 -62 -32.5 -112.5t-90.5 -78.5q65 -28 103 -84t38 -125q0 -104 -84 -174.5t-206 -70.5z" />
    <glyph glyph-name="arrowleft" unicode="&#x2190;" horiz-adv-x="1361" 
d="M604 250l-454 457l454 454l105 -104l-275 -271h778v-161h-776l273 -269z" />
    <glyph glyph-name="arrowup" unicode="&#x2191;" horiz-adv-x="1361" 
d="M600 174v776l-270 -272l-105 106l457 455l455 -455l-105 -106l-272 274v-778h-160z" />
    <glyph glyph-name="arrowright" unicode="&#x2192;" horiz-adv-x="1361" 
d="M150 627v161h774l-271 269l105 106l454 -456l-454 -455l-105 104l273 271h-776z" />
    <glyph glyph-name="arrowdown" unicode="&#x2193;" horiz-adv-x="1361" 
d="M682 174l-457 455l105 106l270 -272v776h160v-778l272 274l105 -106z" />
    <glyph glyph-name="uni2196" unicode="&#x2196;" horiz-adv-x="1361" 
d="M270 453v643l643 2v-150l-383 2l549 -549l-112 -112l-549 549v-385h-148z" />
    <glyph glyph-name="uni2197" unicode="&#x2197;" horiz-adv-x="1361" 
d="M389 289l-113 112l549 549l-383 -2v150l643 -2v-643h-147l2 385z" />
    <glyph glyph-name="uni2198" unicode="&#x2198;" horiz-adv-x="1361" 
d="M446 303v150l385 -2l-550 548l114 115l549 -549l-2 383h148v-643z" />
    <glyph glyph-name="uni2199" unicode="&#x2199;" horiz-adv-x="1361" 
d="M270 305v643h148l-2 -383l549 549l114 -115l-551 -548l385 2v-150z" />
    <glyph glyph-name="minus" unicode="&#x2212;" horiz-adv-x="1093" 
d="M129 524v160h836v-160h-836z" />
    <glyph glyph-name="approxequal" unicode="&#x2248;" horiz-adv-x="1132" 
d="M745 672q-44 0 -84.5 14.5t-70 35t-57 40.5t-57.5 34.5t-60 14.5q-54 0 -89.5 -35.5t-35.5 -89.5h-162q0 133 66.5 216t191.5 83q44 0 84.5 -14.5t71 -34.5t58 -40.5t58 -35t60.5 -14.5q54 0 88.5 35t34.5 88h162q0 -132 -66.5 -214.5t-192.5 -82.5zM745 240
q-44 0 -84.5 14.5t-70 35t-57 40.5t-57.5 34.5t-60 14.5q-54 0 -89.5 -34.5t-35.5 -88.5h-162q0 133 66.5 215t191.5 82q44 0 84.5 -14.5t71 -34.5t58 -40.5t58 -35t60.5 -14.5q54 0 88.5 35.5t34.5 89.5h162q0 -132 -66.5 -215.5t-192.5 -83.5z" />
    <glyph glyph-name="notequal" unicode="&#x2260;" horiz-adv-x="1093" 
d="M264 160l86 188h-221v158h295l90 199h-385v159h459l86 185h155l-84 -185h220v-159h-293l-92 -199h385v-158h-459l-86 -188h-156z" />
    <glyph glyph-name="lessequal" unicode="&#x2264;" horiz-adv-x="950" 
d="M821 387l-692 279v178l692 276v-176l-532 -190l532 -191v-176zM129 121v160h692v-160h-692z" />
    <glyph glyph-name="greaterequal" unicode="&#x2265;" horiz-adv-x="950" 
d="M129 387v176l533 191l-533 190v176l692 -276v-178zM129 121v160h692v-160h-692z" />
    <glyph glyph-name="uni279D" unicode="&#x279d;" horiz-adv-x="2215" 
d="M166 627v159h1456v349l428 -428l-428 -428v348h-1456z" />
    <glyph glyph-name="uni27F5" unicode="&#x27f5;" horiz-adv-x="2215" 
d="M621 252l-455 455l455 456l106 -106l-274 -271h1597v-159h-1595l272 -271z" />
    <glyph glyph-name="uni27F6" unicode="&#x27f6;" horiz-adv-x="2215" 
d="M166 627v159h1597l-274 271l106 106l455 -456l-455 -455l-106 104l272 271h-1595z" />
    <glyph glyph-name="A.swsh" unicode="&#xe008;" horiz-adv-x="2043" 
d="M647 0l504 1237h-588q-128 0 -213.5 -85t-85.5 -212q0 -126 85.5 -210.5t213.5 -84.5v-176q-205 0 -343 135t-138 336q0 202 137.5 337.5t343.5 135.5h883l575 -1413h-206l-138 342h-690l-137 -342h-203zM1055 516h553l-277 692z" />
    <glyph glyph-name="B.swsh" unicode="&#xe009;" horiz-adv-x="2058" 
d="M563 469q-205 0 -343 135t-138 336q0 202 137.5 337.5t343.5 135.5h985q156 0 260.5 -100.5t104.5 -253.5q0 -102 -50.5 -185.5t-129.5 -121.5q119 -31 192.5 -133.5t73.5 -237.5q0 -164 -111.5 -272.5t-277.5 -108.5h-699v1237h-348q-128 0 -213.5 -85t-85.5 -212
q0 -126 85.5 -210.5t213.5 -84.5v-176zM1505 1243h-411v-430h411q89 0 151 62t62 153q0 92 -60.5 153.5t-152.5 61.5zM1567 651h-473v-481h473q101 0 170 69.5t69 172.5q0 102 -68.5 170.5t-170.5 68.5z" />
    <glyph glyph-name="D.swsh" unicode="&#xe00a;" horiz-adv-x="2263" 
d="M563 469q-205 0 -343 135t-138 336q0 202 137.5 337.5t343.5 135.5h893q202 0 366 -92t256.5 -253.5t92.5 -360.5q0 -149 -54.5 -280t-149 -225t-227.5 -148t-284 -54h-545v1237h-348q-128 0 -213.5 -85t-85.5 -212q0 -126 85.5 -210.5t213.5 -84.5v-176zM1452 1237h-354
v-1061h354q226 0 376 152t150 379t-150 378.5t-376 151.5z" />
    <glyph glyph-name="E.swsh" unicode="&#xe00b;" horiz-adv-x="1916" 
d="M563 469q-205 0 -343 135t-138 336q0 202 137.5 337.5t343.5 135.5h1254v-176h-719v-438h651v-176h-651v-447h729v-176h-916v1237h-348q-128 0 -213.5 -85t-85.5 -212q0 -126 85.5 -210.5t213.5 -84.5v-176z" />
    <glyph glyph-name="F.swsh" unicode="&#xe00c;" horiz-adv-x="1859" 
d="M563 469q-205 0 -343 135t-138 336q0 202 137.5 337.5t343.5 135.5h1223v-176h-688v-451h604v-176h-604v-610h-187v1237h-348q-128 0 -213.5 -85t-85.5 -212q0 -126 85.5 -210.5t213.5 -84.5v-176z" />
    <glyph glyph-name="H.swsh" unicode="&#xe00d;" horiz-adv-x="2240" 
d="M563 469q-205 0 -343 135t-138 336q0 202 137.5 337.5t343.5 135.5h535v-614h788v614h187v-1413h-187v623h-788v-623h-187v1237h-348q-128 0 -213.5 -85t-85.5 -212q0 -126 85.5 -210.5t213.5 -84.5v-176z" />
    <glyph glyph-name="I.swsh" unicode="&#xe00e;" horiz-adv-x="1265" 
d="M563 469q-205 0 -343 135t-138 336q0 202 137.5 337.5t343.5 135.5h535v-1413h-187v1237h-348q-128 0 -213.5 -85t-85.5 -212q0 -126 85.5 -210.5t213.5 -84.5v-176z" />
    <glyph glyph-name="K.swsh" unicode="&#xe00f;" horiz-adv-x="2009" 
d="M563 469q-205 0 -343 135t-138 336q0 202 137.5 337.5t343.5 135.5h535v-723l669 723h232l-588 -647l614 -766h-235l-506 631l-186 -193v-438h-187v1237h-348q-128 0 -213.5 -85t-85.5 -212q0 -126 85.5 -210.5t213.5 -84.5v-176z" />
    <glyph glyph-name="L.swsh" unicode="&#xe010;" horiz-adv-x="1826" 
d="M563 469q-205 0 -343 135t-138 336q0 202 137.5 337.5t343.5 135.5h535v-1237h667v-176h-854v1237h-348q-128 0 -213.5 -85t-85.5 -212q0 -126 85.5 -210.5t213.5 -84.5v-176z" />
    <glyph glyph-name="M.swsh" unicode="&#xe011;" horiz-adv-x="2578" 
d="M563 469q-205 0 -343 135t-138 336q0 202 137.5 337.5t343.5 135.5h584l516 -854l518 854h232v-1413h-187v1145l-510 -848h-108l-510 848v-1145h-187v1237h-348q-128 0 -213.5 -85t-85.5 -212q0 -126 85.5 -210.5t213.5 -84.5v-176z" />
    <glyph glyph-name="N.swsh" unicode="&#xe012;" horiz-adv-x="2256" 
d="M563 469q-205 0 -343 135t-138 336q0 202 137.5 337.5t343.5 135.5h543l799 -1102v1102h186v-1413h-195l-798 1102v-1102h-187v1237h-348q-128 0 -213.5 -85t-85.5 -212q0 -126 85.5 -210.5t213.5 -84.5v-176z" />
    <glyph glyph-name="P.swsh" unicode="&#xe013;" horiz-adv-x="2041" 
d="M563 469q-205 0 -343 135t-138 336q0 202 137.5 337.5t343.5 135.5h961q194 0 323 -127t129 -317q0 -189 -129.5 -316t-322.5 -127h-426v-526h-187v1237h-348q-128 0 -213.5 -85t-85.5 -212q0 -126 85.5 -210.5t213.5 -84.5v-176zM1522 1237h-424v-535h424
q113 0 187.5 76t74.5 191t-74.5 191.5t-187.5 76.5z" />
    <glyph glyph-name="R.swsh" unicode="&#xe014;" horiz-adv-x="2041" 
d="M563 469q-205 0 -343 135t-138 336q0 202 137.5 337.5t343.5 135.5h953q188 0 314 -123t126 -307q0 -164 -104 -280t-267 -138l414 -565h-234l-403 561h-264v-561h-187v1237h-348q-128 0 -213.5 -85t-85.5 -212q0 -126 85.5 -210.5t213.5 -84.5v-176zM1511 1237h-413
v-512h413q108 0 180 73t72 183t-72 183t-180 73z" />
    <glyph glyph-name="T.swsh" unicode="&#xe015;" horiz-adv-x="1777" 
d="M563 469q-205 0 -343 135t-138 336q0 202 137.5 337.5t343.5 135.5h1155v-176h-426v-1237h-188v1237h-541q-128 0 -213.5 -85t-85.5 -212q0 -126 85.5 -210.5t213.5 -84.5v-176z" />
    <glyph glyph-name="U.swsh" unicode="&#xe016;" horiz-adv-x="2183" 
d="M563 469q-205 0 -343 135t-138 336q0 202 137.5 337.5t343.5 135.5h524v-868q0 -166 111 -277.5t277 -111.5t276.5 111.5t110.5 277.5v868h188v-872q0 -159 -75 -288.5t-206.5 -203.5t-293.5 -74t-294 74t-207 203.5t-75 288.5v696h-336q-128 0 -213.5 -85t-85.5 -212
q0 -126 85.5 -210.5t213.5 -84.5v-176z" />
    <glyph glyph-name="V.swsh" unicode="&#xe017;" horiz-adv-x="2086" 
d="M563 469q-205 0 -343 135t-138 336q0 202 137.5 337.5t343.5 135.5h336l473 -1169l473 1169h205l-582 -1413h-196l-512 1237h-197q-128 0 -213.5 -85t-85.5 -212q0 -126 85.5 -210.5t213.5 -84.5v-176z" />
    <glyph glyph-name="W.swsh" unicode="&#xe018;" horiz-adv-x="2844" 
d="M563 469q-205 0 -343 135t-138 336q0 202 137.5 337.5t343.5 135.5h332l381 -1163l385 1163h172l389 -1163l377 1163h203l-486 -1413h-192l-379 1137l-377 -1137h-192l-426 1237h-187q-128 0 -213.5 -85t-85.5 -212q0 -126 85.5 -210.5t213.5 -84.5v-176z" />
    <glyph glyph-name="Y.swsh" unicode="&#xe019;" horiz-adv-x="2007" 
d="M563 469q-205 0 -343 135t-138 336q0 202 137.5 337.5t343.5 135.5h322l446 -704l449 704h209l-566 -891v-522h-188v522l-455 715h-217q-128 0 -213.5 -85t-85.5 -212q0 -126 85.5 -210.5t213.5 -84.5v-176z" />
    <glyph glyph-name="J.ss07" horiz-adv-x="1105" 
d="M514 -25q-197 0 -328 130t-131 329h193q0 -122 76 -200t192 -78t192 76t76 192v813h-436v176h625v-989q0 -192 -132 -320.5t-327 -128.5z" />
    </font>
</defs>
</svg>
