<?xml version="1.0" standalone="no"?>
<!DOCTYPE svg PUBLIC "-//W3C//DTD SVG 1.1//EN" "http://www.w3.org/Graphics/SVG/1.1/DTD/svg11.dtd" >
<svg xmlns="http://www.w3.org/2000/svg" xmlns:xlink="http://www.w3.org/1999/xlink" version="1.1">
<metadata>
Created by FontForge 20201107 at Tue May 20 05:28:26 2025
 By 
Copyright (c) 2020, 2022, 2023 by The Type Founders, LLC. All rights reserved.
</metadata>
<defs>
<font id="NeulisSans-Black" horiz-adv-x="0" >
  <font-face 
    font-family="Neulis Sans Black"
    font-weight="900"
    font-stretch="normal"
    units-per-em="2048"
    panose-1="0 0 0 0 0 0 0 0 0 0"
    ascent="1597"
    descent="-451"
    x-height="1044"
    cap-height="1413"
    bbox="-420 -664 2722 2251"
    underline-thickness="102"
    underline-position="-255"
    unicode-range="U+0020-FB02"
  />
<missing-glyph horiz-adv-x="1024" 
d="M102 -451v2048h820v-2048h-820zM205 -348h614v1843h-614v-1843z" />
    <glyph glyph-name="fi" unicode="fi" horiz-adv-x="1398" 
d="M1108 1135q-95 0 -159 63t-64 158t64 158t159 63t159 -63t64 -158t-64 -158t-159 -63zM201 0v709h-140v335h140v43q0 400 444 400h131v-336h-96q-111 0 -111 -104v-3h197v-335h-197v-709h-368zM924 0v1044h368v-1044h-368z" />
    <glyph glyph-name="fl" unicode="fl" horiz-adv-x="1398" 
d="M201 0v709h-140v335h140v43q0 400 444 400h131v-336h-96q-111 0 -111 -104v-3h197v-335h-197v-709h-368zM924 0v1475h368v-1475h-368z" />
    <glyph glyph-name=".notdef" horiz-adv-x="1024" 
d="M102 -451v2048h820v-2048h-820zM205 -348h614v1843h-614v-1843z" />
    <glyph glyph-name=".null" 
 />
    <glyph glyph-name="nonmarkingreturn" horiz-adv-x="682" 
 />
    <glyph glyph-name="space" unicode=" " horiz-adv-x="419" 
 />
    <glyph glyph-name="exclam" unicode="!" horiz-adv-x="602" 
d="M131 512l-25 553v348h392v-348l-25 -553h-342zM301 -25q-101 0 -169.5 68t-68.5 168t68.5 167.5t169.5 67.5t169.5 -67.5t68.5 -167.5t-68.5 -168t-169.5 -68z" />
    <glyph glyph-name="quotedbl" unicode="&#x22;" horiz-adv-x="974" 
d="M569 801l-24 612h364l-24 -612h-316zM90 801l-24 612h364l-24 -612h-316z" />
    <glyph glyph-name="numbersign" unicode="#" horiz-adv-x="1585" 
d="M137 0l90 301h-192v320h287l53 172h-230v319h324l90 301h340l-90 -301h190l91 301h340l-91 -301h193v-319h-289l-51 -172h229v-320h-325l-90 -301h-338l90 301h-191l-90 -301h-340zM662 621h190l53 172h-190z" />
    <glyph glyph-name="dollar" unicode="$" horiz-adv-x="1220" 
d="M563 -141v127q-217 15 -359.5 143t-142.5 313h402q0 -35 28.5 -63t71.5 -39v190q-8 1 -23.5 4.5t-23.5 4.5q-84 15 -159 49t-138 86.5t-100 131.5t-37 173q0 189 136 312.5t345 135.5v129h94v-129q209 -15 345.5 -138t136.5 -300h-400q0 29 -23 52t-59 32v-180
q8 -2 26 -5t26 -5q50 -10 95 -24t99 -37t97.5 -56.5t80.5 -77t57.5 -104.5t20.5 -133q0 -196 -142.5 -324.5t-359.5 -140.5v-127h-94zM483 1006q0 -48 80 -82v153q-36 -8 -58 -26t-22 -45zM758 416q0 53 -101 88v-168q42 6 71.5 27.5t29.5 52.5z" />
    <glyph glyph-name="percent" unicode="%" horiz-adv-x="1822" 
d="M436 713q-158 0 -264 104.5t-106 259.5q0 154 106 257.5t264 103.5t264.5 -103.5t106.5 -257.5q0 -155 -106.5 -259.5t-264.5 -104.5zM205 0l1024 1413h391l-1024 -1413h-391zM436 1008q29 0 48.5 20t19.5 49q0 28 -19.5 47t-48.5 19t-48 -19t-19 -47q0 -29 19 -49
t48 -20zM1386 -25q-158 0 -264 105t-106 260q0 154 106 257t264 103t264.5 -103t106.5 -257q0 -155 -106.5 -260t-264.5 -105zM1386 270q29 0 48.5 20.5t19.5 49.5q0 28 -19.5 47t-48.5 19t-48 -19t-19 -47q0 -30 19 -50t48 -20z" />
    <glyph glyph-name="ampersand" unicode="&#x26;" horiz-adv-x="1304" 
d="M586 -25q-245 0 -395 127.5t-150 333.5q0 225 205 369q-90 154 -90 285q0 151 117 249.5t290 98.5q174 0 292 -98.5t118 -249.5q0 -112 -67 -194t-189 -153l172 -198q4 28 4 45v121h338v-121q0 -178 -103 -322l232 -268h-418l-59 68q-111 -93 -297 -93zM487 1087
q0 -53 48 -120q104 64 104 123q0 30 -22.5 48.5t-55.5 18.5q-31 0 -52.5 -18t-21.5 -52zM395 457q0 -67 57.5 -110.5t147.5 -43.5q36 0 66 6l-226 252q-45 -48 -45 -104z" />
    <glyph glyph-name="quotesingle" unicode="'" horiz-adv-x="495" 
d="M90 801l-24 612h364l-24 -612h-316z" />
    <glyph glyph-name="parenleft" unicode="(" horiz-adv-x="747" 
d="M414 -389q-133 174 -214 437.5t-81 524.5t81 525t214 438h370q-126 -173 -202 -436.5t-76 -526.5t76 -526t202 -436h-370z" />
    <glyph glyph-name="parenright" unicode=")" horiz-adv-x="747" 
d="M-37 -389q126 173 202.5 436.5t76.5 525.5t-76.5 526t-202.5 437h371q133 -174 214 -438t81 -525t-81 -524.5t-214 -437.5h-371z" />
    <glyph glyph-name="asterisk" unicode="*" horiz-adv-x="763" 
d="M270 803v88l13 76l-60 -49l-86 -44l-112 193l86 47l71 25l-71 28l-86 43l112 193l88 -43l58 -49l-13 75v89h224v-89l-13 -73l60 47l86 43l112 -193l-86 -45l-75 -26l75 -29l86 -43l-112 -193l-88 44l-58 49l13 -76v-88h-224z" />
    <glyph glyph-name="plus" unicode="+" horiz-adv-x="1093" 
d="M379 164v274h-273v332h273v274h336v-274h272v-332h-272v-274h-336z" />
    <glyph glyph-name="comma" unicode="," horiz-adv-x="569" 
d="M74 -344v264q90 12 139 84q-75 22 -120.5 83.5t-45.5 143.5q0 101 67.5 168.5t172.5 67.5q102 0 168.5 -68t66.5 -206q0 -134 -65 -255.5t-168 -196.5t-215 -85z" />
    <glyph glyph-name="hyphen" unicode="-" horiz-adv-x="835" 
d="M106 383v356h623v-356h-623z" />
    <glyph glyph-name="period" unicode="." horiz-adv-x="569" 
d="M285 -25q-106 0 -177 71t-71 175t71 175t177 71q105 0 176 -70.5t71 -175.5t-71 -175.5t-176 -70.5z" />
    <glyph glyph-name="slash" unicode="/" horiz-adv-x="1136" 
d="M-27 -307l820 1843h370l-819 -1843h-371z" />
    <glyph glyph-name="zero" unicode="0" horiz-adv-x="1277" 
d="M639 -25q-165 0 -294.5 92.5t-201 259.5t-71.5 380t71.5 380t201 259t294.5 92t294.5 -92t201 -259t71.5 -380t-71.5 -380t-201 -259.5t-294.5 -92.5zM639 352q73 0 119.5 99t46.5 256t-46 255.5t-120 98.5q-72 0 -119 -99t-47 -255t47 -255.5t119 -99.5z" />
    <glyph glyph-name="one" unicode="1" horiz-adv-x="825" 
d="M309 0v963l-246 -136v390l359 196h278v-1413h-391z" />
    <glyph glyph-name="two" unicode="2" horiz-adv-x="1155" 
d="M74 0v223q0 86 32.5 164t84.5 136t115 109.5t126 94.5t115 81.5t84.5 79t32.5 79.5q0 36 -26.5 58t-66.5 22q-41 0 -66.5 -24t-25.5 -67h-401q0 208 142 345t355 137q208 0 349 -130.5t141 -324.5q0 -57 -13.5 -110.5t-34.5 -96.5t-55.5 -87t-66.5 -76t-77.5 -70
t-78.5 -62t-80.5 -58.5t-72.5 -53.5h483v-369h-995z" />
    <glyph glyph-name="three" unicode="3" horiz-adv-x="1153" 
d="M573 -25q-221 0 -370.5 136.5t-149.5 337.5h402q0 -41 34.5 -69t81.5 -28q46 0 81.5 26.5t35.5 74.5q0 51 -41.5 85.5t-111.5 34.5h-166v314h166q58 0 95.5 26t37.5 70q0 39 -29.5 58.5t-65.5 19.5q-39 0 -68.5 -21.5t-29.5 -54.5h-401q0 192 143 322.5t356 130.5
q134 0 248 -53.5t181 -147.5t67 -205q0 -89 -44.5 -167t-119.5 -130q85 -54 135 -143.5t50 -188.5q0 -118 -70 -216.5t-188.5 -155t-258.5 -56.5z" />
    <glyph glyph-name="four" unicode="4" horiz-adv-x="1216" 
d="M45 225v320l481 868h432l-456 -819h184v180h371v-180h114v-369h-114v-225h-391v225h-621z" />
    <glyph glyph-name="five" unicode="5" horiz-adv-x="1161" 
d="M600 -25q-216 0 -364 127.5t-162 321.5h405q12 -32 45 -52t76 -20q54 0 90.5 31t36.5 78t-36 79.5t-89 32.5q-58 0 -108 -43h-388l78 883h846v-369h-510l-14 -145q68 21 137 21q202 0 343.5 -135.5t141.5 -333.5q0 -134 -69 -243t-190 -171t-269 -62z" />
    <glyph glyph-name="six" unicode="6" horiz-adv-x="1155" 
d="M610 -25q-249 0 -405 173t-156 454q0 131 35.5 251.5t108.5 224t177 180t249.5 120t316.5 43.5h41v-368h-41q-314 0 -432 -168q88 37 188 37q190 0 317.5 -129.5t127.5 -323.5q0 -211 -150.5 -352.5t-376.5 -141.5zM602 352q57 0 95 30.5t38 76.5t-38 76t-95 30
q-56 0 -93.5 -30t-37.5 -76t37.5 -76.5t93.5 -30.5z" />
    <glyph glyph-name="seven" unicode="7" horiz-adv-x="1048" 
d="M113 0l454 1044h-506v369h967v-307l-475 -1106h-440z" />
    <glyph glyph-name="eight" unicode="8" horiz-adv-x="1204" 
d="M602 -25q-242 0 -390.5 119.5t-148.5 313.5q0 208 173 329q-138 110 -138 293q0 184 139 296t365 112t365 -112t139 -296t-137 -293q172 -120 172 -329q0 -194 -148.5 -313.5t-390.5 -119.5zM602 903q45 0 74 22.5t29 57.5t-29 56.5t-74 21.5t-73.5 -21.5t-28.5 -56.5
t29 -57.5t73 -22.5zM602 352q61 0 99 28.5t38 74.5t-38 74t-99 28t-99 -28t-38 -74t38 -74.5t99 -28.5z" />
    <glyph glyph-name="nine" unicode="9" horiz-adv-x="1155" 
d="M260 -8h-82v368h82q273 0 391 168q-86 -36 -188 -36q-191 0 -318 129.5t-127 322.5q0 211 150.5 352.5t376.5 141.5q249 0 405 -173t156 -454q0 -131 -35 -252t-106 -224t-171 -179.5t-237.5 -120t-296.5 -43.5zM553 848q56 0 93.5 30t37.5 76t-37.5 76.5t-93.5 30.5
q-57 0 -95 -30.5t-38 -76.5t38 -76t95 -30z" />
    <glyph glyph-name="colon" unicode=":" horiz-adv-x="577" 
d="M289 598q-101 0 -169.5 68t-68.5 168t68.5 167.5t169.5 67.5t169 -67.5t68 -167.5t-68 -168t-169 -68zM289 -25q-101 0 -169.5 68t-68.5 168t68.5 167.5t169.5 67.5t169 -67.5t68 -167.5t-68 -168t-169 -68z" />
    <glyph glyph-name="semicolon" unicode=";" horiz-adv-x="577" 
d="M289 598q-101 0 -169.5 68t-68.5 168t68.5 167.5t169.5 67.5t169 -67.5t68 -167.5t-68 -168t-169 -68zM78 -344v264q90 12 139 84q-75 22 -120.5 83.5t-45.5 143.5q0 101 67.5 168.5t172.5 67.5q102 0 168.5 -68t66.5 -206q0 -134 -65 -255.5t-168 -196.5t-215 -85z" />
    <glyph glyph-name="less" unicode="&#x3c;" horiz-adv-x="950" 
d="M844 92l-738 348v332l738 348v-366l-355 -148l355 -147v-367z" />
    <glyph glyph-name="equal" unicode="=" horiz-adv-x="1093" 
d="M106 666v331h881v-331h-881zM106 215v332h881v-332h-881z" />
    <glyph glyph-name="greater" unicode="&#x3e;" horiz-adv-x="950" 
d="M106 92v367l355 147l-355 148v366l738 -348v-332z" />
    <glyph glyph-name="question" unicode="?" horiz-adv-x="1030" 
d="M307 512v31q0 214 180 329q36 23 54 36.5t33.5 35t15.5 43.5q0 32 -25.5 53t-62.5 21t-62.5 -21t-25.5 -53h-402q0 193 140.5 322t349.5 129t349 -126t140 -315q0 -63 -15 -113t-46 -88t-56.5 -60.5t-66.5 -51.5q-54 -38 -82.5 -70.5t-28.5 -70.5v-31h-389zM502 -25
q-101 0 -169.5 68t-68.5 168t68.5 167.5t169.5 67.5t169 -67.5t68 -167.5t-68 -168t-169 -68z" />
    <glyph glyph-name="at" unicode="@" horiz-adv-x="1687" 
d="M764 184q-146 0 -241 105t-95 260q0 157 92.5 263t222.5 106q99 0 168 -66v41h297v-410q0 -29 18.5 -47t47.5 -18q49 0 77.5 54.5t28.5 143.5q0 134 -70 243.5t-191 171t-267 61.5q-155 0 -280 -70.5t-195 -194t-70 -276.5t69.5 -274.5t204 -193t312.5 -71.5
q93 0 192.5 18.5t169.5 47.5v-230q-136 -65 -354 -65q-187 0 -344.5 59t-264.5 161.5t-166.5 243t-59.5 302.5t59.5 305t163 245.5t250 162t313.5 59.5q214 0 390 -91.5t278 -254.5t102 -363q0 -195 -97.5 -311.5t-269.5 -116.5q-86 0 -159.5 29t-120.5 82
q-68 -111 -211 -111zM821 467q38 0 64 24.5t26 59.5q0 36 -26.5 60t-63.5 24t-63.5 -24t-26.5 -60q0 -35 26 -59.5t64 -24.5z" />
    <glyph glyph-name="A" unicode="A" horiz-adv-x="1435" 
d="M-20 0l507 1413h461l508 -1413h-428l-63 195h-502l-64 -195h-419zM578 555h272l-135 424z" />
    <glyph glyph-name="B" unicode="B" horiz-adv-x="1327" 
d="M117 0v1413h735q164 0 275.5 -104t111.5 -262q0 -93 -39 -173.5t-104 -123.5q91 -40 149 -142t58 -223q0 -169 -115.5 -277t-290.5 -108h-780zM752 1061h-256v-172h256q37 0 61.5 24.5t24.5 61.5t-24.5 61.5t-61.5 24.5zM799 557h-303v-205h303q43 0 72.5 30t29.5 73
t-29.5 72.5t-72.5 29.5z" />
    <glyph glyph-name="C" unicode="C" horiz-adv-x="1572" 
d="M803 -25q-158 0 -297.5 56.5t-239.5 153.5t-157.5 232.5t-57.5 289.5q0 205 98 372.5t270.5 263t383.5 95.5q186 0 343 -75.5t258 -209t128 -303.5h-416q-32 96 -117.5 153.5t-195.5 57.5q-150 0 -250 -101t-100 -253t100.5 -253.5t249.5 -101.5q110 0 195.5 57.5
t117.5 153.5h416q-27 -170 -128 -303.5t-258 -209t-343 -75.5z" />
    <glyph glyph-name="D" unicode="D" horiz-adv-x="1458" 
d="M117 0v1413h563q205 0 371.5 -92t261 -253.5t94.5 -360.5t-94.5 -361t-261 -254t-371.5 -92h-563zM672 1044h-164v-675h164q143 0 238.5 96.5t95.5 241.5t-95.5 241t-238.5 96z" />
    <glyph glyph-name="E" unicode="E" horiz-adv-x="1140" 
d="M117 0v1413h956v-369h-565v-149h500v-369h-500v-157h575v-369h-966z" />
    <glyph glyph-name="F" unicode="F" horiz-adv-x="1087" 
d="M117 0v1413h925v-369h-534v-165h459v-369h-459v-510h-391z" />
    <glyph glyph-name="G" unicode="G" horiz-adv-x="1585" 
d="M803 -25q-158 0 -297.5 56.5t-239.5 153.5t-157.5 232.5t-57.5 289.5q0 205 98 372.5t270.5 263t383.5 95.5q259 0 455.5 -139.5t246.5 -354.5h-436q-96 117 -266 117q-150 0 -250 -101t-100 -253t100.5 -253.5t249.5 -101.5q90 0 164.5 36.5t117.5 98.5h-243v355h692
v-135q0 -206 -93 -373t-261 -263t-377 -96z" />
    <glyph glyph-name="H" unicode="H" horiz-adv-x="1458" 
d="M117 0v1413h391v-518h442v518h391v-1413h-391v526h-442v-526h-391z" />
    <glyph glyph-name="I" unicode="I" horiz-adv-x="624" 
d="M117 0v1413h391v-1413h-391z" />
    <glyph glyph-name="J" unicode="J" horiz-adv-x="1128" 
d="M516 -25q-223 0 -369.5 145.5t-146.5 371.5h401q0 -65 33 -102.5t86 -37.5q52 0 86.5 34t34.5 85v942h391v-942q0 -212 -147.5 -354t-368.5 -142z" />
    <glyph glyph-name="K" unicode="K" horiz-adv-x="1331" 
d="M117 0v1413h391v-528l375 528h477l-514 -668l528 -745h-485l-293 440l-88 -100v-340h-391z" />
    <glyph glyph-name="L" unicode="L" horiz-adv-x="1056" 
d="M117 0v1413h391v-1044h514v-369h-905z" />
    <glyph glyph-name="M" unicode="M" horiz-adv-x="1855" 
d="M117 0v1413h483l332 -653l330 653h477v-1413h-391v819l-310 -614h-221l-309 614v-819h-391z" />
    <glyph glyph-name="N" unicode="N" horiz-adv-x="1482" 
d="M117 0v1413h391l467 -723v723h391v-1413h-391l-467 723v-723h-391z" />
    <glyph glyph-name="O" unicode="O" horiz-adv-x="1605" 
d="M803 -25q-158 0 -297.5 56.5t-239.5 153.5t-157.5 232.5t-57.5 289.5q0 205 98 372.5t270.5 263t383.5 95.5t383 -95.5t270 -263t98 -372.5t-98 -373t-270 -263.5t-383 -95.5zM803 352q149 0 249.5 101.5t100.5 253.5t-100 253t-250 101t-250 -101t-100 -253
t100.5 -253.5t249.5 -101.5z" />
    <glyph glyph-name="P" unicode="P" horiz-adv-x="1335" 
d="M117 0v1413h676q223 0 372.5 -143.5t149.5 -358.5t-149.5 -358t-372.5 -143h-285v-410h-391zM784 1044h-276v-266h276q55 0 92 38t37 95t-37 95t-92 38z" />
    <glyph glyph-name="Q" unicode="Q" horiz-adv-x="1605" 
d="M803 -25q-158 0 -297.5 56.5t-239.5 153.5t-157.5 232.5t-57.5 289.5q0 205 98 372.5t270.5 263t383.5 95.5t383 -95.5t270 -263t98 -372.5q0 -189 -84 -347t-231 -258l299 -360h-457l-194 238q-73 -5 -84 -5zM803 352q149 0 249.5 101.5t100.5 253.5t-100 253t-250 101
t-250 -101t-100 -253t100.5 -253.5t249.5 -101.5z" />
    <glyph glyph-name="R" unicode="R" horiz-adv-x="1345" 
d="M117 0v1413h655q223 0 372.5 -142.5t149.5 -355.5q0 -137 -68 -246.5t-186 -170.5l297 -498h-485l-236 438h-108v-438h-391zM764 1044h-256v-266h256q55 0 92 38t37 95t-37 95t-92 38z" />
    <glyph glyph-name="S" unicode="S" horiz-adv-x="1206" 
d="M608 -25q-238 0 -397.5 133.5t-159.5 329.5h402q0 -47 46.5 -80.5t112.5 -33.5q58 0 100 24.5t42 59.5q0 25 -23.5 45.5t-63 36t-90.5 31t-107.5 34.5t-113 42t-107.5 58t-90.5 78.5t-63 107t-23.5 140.5q0 203 150.5 330t377.5 127q228 0 381.5 -127.5t153.5 -317.5
h-402q0 41 -39.5 69t-97.5 28q-52 0 -87.5 -21t-35.5 -57q0 -26 23.5 -46t63 -34t90.5 -27.5t107.5 -30.5t113 -38.5t107.5 -55t90.5 -76.5t63 -107.5t23.5 -143.5q0 -213 -156.5 -345.5t-390.5 -132.5z" />
    <glyph glyph-name="T" unicode="T" horiz-adv-x="1161" 
d="M385 0v1044h-340v369h1071v-369h-340v-1044h-391z" />
    <glyph glyph-name="U" unicode="U" horiz-adv-x="1388" 
d="M694 -25q-126 0 -237 44t-190 120.5t-125 184t-46 229.5v860h391v-854q0 -89 59 -148t148 -59t148 59t59 148v854h391v-860q0 -122 -46 -229.5t-125 -184t-190 -120.5t-237 -44z" />
    <glyph glyph-name="V" unicode="V" horiz-adv-x="1464" 
d="M532 0l-536 1413h436l305 -881l303 881h428l-536 -1413h-400z" />
    <glyph glyph-name="W" unicode="W" horiz-adv-x="2177" 
d="M477 0l-475 1413h432l244 -858l240 858h352l243 -858l240 858h422l-471 -1413h-391l-223 788l-222 -788h-391z" />
    <glyph glyph-name="X" unicode="X" horiz-adv-x="1484" 
d="M-2 0l477 711l-469 702h481l258 -418l256 418h478l-469 -702l477 -711h-481l-267 426l-264 -426h-477z" />
    <glyph glyph-name="Y" unicode="Y" horiz-adv-x="1386" 
d="M498 0v465l-521 948h445l276 -534l275 534h436l-520 -948v-465h-391z" />
    <glyph glyph-name="Z" unicode="Z" horiz-adv-x="1257" 
d="M61 0v281l582 763h-573v369h1112v-280l-582 -764h596v-369h-1135z" />
    <glyph glyph-name="bracketleft" unicode="[" horiz-adv-x="757" 
d="M139 -389v1925h584v-348h-203v-1229h203v-348h-584z" />
    <glyph glyph-name="backslash" unicode="\" horiz-adv-x="1136" 
d="M793 -307l-820 1843h371l819 -1843h-370z" />
    <glyph glyph-name="bracketright" unicode="]" horiz-adv-x="757" 
d="M35 -389v348h203v1229h-203v348h583v-1925h-583z" />
    <glyph glyph-name="asciicircum" unicode="^" horiz-adv-x="917" 
d="M25 872l266 541h336l266 -541h-330l-104 234l-105 -234h-329z" />
    <glyph glyph-name="underscore" unicode="_" horiz-adv-x="962" 
d="M6 -395v311h950v-311h-950z" />
    <glyph glyph-name="grave" unicode="`" horiz-adv-x="659" 
d="M274 1135l-274 323h459l200 -323h-385z" />
    <glyph glyph-name="a" unicode="a" horiz-adv-x="1275" 
d="M543 -25q-139 0 -252.5 71.5t-177.5 197t-64 278.5t64 278.5t177.5 197t252.5 71.5q148 0 262 -90v65h369v-1044h-369v66q-115 -91 -262 -91zM616 332q82 0 135.5 54t53.5 136t-53.5 136.5t-135.5 54.5q-81 0 -134.5 -54.5t-53.5 -136.5t53 -136t135 -54z" />
    <glyph glyph-name="b" unicode="b" horiz-adv-x="1280" 
d="M106 0v1475h369v-496q114 90 262 90q139 0 252.5 -71.5t177.5 -197t64 -278.5t-64 -278.5t-177.5 -197t-252.5 -71.5q-147 0 -262 91v-66h-369zM664 332q82 0 135 54t53 136t-53.5 136.5t-134.5 54.5q-82 0 -135.5 -54.5t-53.5 -136.5t53.5 -136t135.5 -54z" />
    <glyph glyph-name="c" unicode="c" horiz-adv-x="1200" 
d="M610 -25q-160 0 -290 71.5t-203.5 197t-73.5 278.5t73.5 278.5t203.5 197t290 71.5q143 0 263.5 -58.5t195.5 -162t90 -234.5h-391q-17 45 -60 72t-98 27q-81 0 -134.5 -54.5t-53.5 -136.5t53 -136t135 -54q55 0 98 26.5t60 71.5h391q-15 -131 -90 -234.5t-195.5 -162
t-263.5 -58.5z" />
    <glyph glyph-name="d" unicode="d" horiz-adv-x="1280" 
d="M543 -25q-139 0 -252.5 71.5t-177.5 197t-64 278.5t64 278.5t177.5 197t252.5 71.5q148 0 262 -90v496h369v-1475h-369v66q-115 -91 -262 -91zM616 332q82 0 135.5 54t53.5 136t-53.5 136.5t-135.5 54.5q-81 0 -134.5 -54.5t-53.5 -136.5t53 -136t135 -54z" />
    <glyph glyph-name="e" unicode="e" horiz-adv-x="1218" 
d="M610 -25q-160 0 -290 71.5t-203.5 197t-73.5 278.5t73.5 278.5t203.5 197t290 71.5t290 -71t204 -199t74 -287q0 -54 -9 -94h-731q22 -65 71 -101t116 -36q96 0 153 61h387q-56 -165 -207 -266t-348 -101zM610 764q-61 0 -106.5 -36t-65.5 -99h348q-20 64 -66 99.5
t-110 35.5z" />
    <glyph glyph-name="f" unicode="f" horiz-adv-x="817" 
d="M201 0v709h-140v335h140v43q0 400 444 400h131v-336h-96q-111 0 -111 -104v-3h197v-335h-197v-709h-368z" />
    <glyph glyph-name="g" unicode="g" horiz-adv-x="1271" 
d="M543 33q-212 0 -353 148t-141 370t141 370t353 148q149 0 262 -86v61h369v-931q0 -238 -148.5 -382.5t-392.5 -144.5q-209 0 -356 105.5t-177 283.5h379q22 -35 64.5 -56t93.5 -21q79 0 123.5 51.5t44.5 144.5v25q-113 -86 -262 -86zM616 367q81 0 135 53t54 131t-54 131
t-135 53t-134.5 -53t-53.5 -131t53.5 -131t134.5 -53z" />
    <glyph glyph-name="h" unicode="h" horiz-adv-x="1226" 
d="M106 0v1475h369v-517q117 111 283 111q173 0 279 -105t106 -278v-686h-369v561q0 69 -38.5 110.5t-102.5 41.5q-71 0 -114.5 -43t-43.5 -113v-557h-369z" />
    <glyph glyph-name="i" unicode="i" horiz-adv-x="581" 
d="M291 1135q-95 0 -159 63t-64 158t64 158t159 63t159 -63t64 -158t-64 -158t-159 -63zM106 0v1044h369v-1044h-369z" />
    <glyph glyph-name="j" unicode="j" horiz-adv-x="581" 
d="M295 1135q-95 0 -159 63t-64 158t64 158t159 63t159 -63t64 -158t-64 -158t-159 -63zM-66 -414v357h46q131 0 131 125v976h368v-1017q0 -226 -116 -333.5t-369 -107.5h-60z" />
    <glyph glyph-name="k" unicode="k" horiz-adv-x="1175" 
d="M106 0v1475h369v-746l266 315h465l-418 -458l433 -586h-471l-215 309l-60 -65v-244h-369z" />
    <glyph glyph-name="l" unicode="l" horiz-adv-x="581" 
d="M106 0v1475h369v-1475h-369z" />
    <glyph glyph-name="m" unicode="m" horiz-adv-x="1841" 
d="M102 0v1044h369v-77q111 102 270 102q101 0 181 -39.5t127 -111.5q130 151 335 151q168 0 270.5 -105t102.5 -278v-686h-368v573q0 63 -35.5 101.5t-93.5 38.5q-65 0 -105.5 -40t-40.5 -104v-569h-369v573q0 63 -35.5 101.5t-93.5 38.5q-65 0 -105 -40t-40 -104v-569
h-369z" />
    <glyph glyph-name="n" unicode="n" horiz-adv-x="1222" 
d="M102 0v1044h369v-77q117 102 283 102q173 0 279 -105t106 -278v-686h-369v561q0 69 -38.5 110.5t-102.5 41.5q-71 0 -114.5 -43t-43.5 -113v-557h-369z" />
    <glyph glyph-name="o" unicode="o" horiz-adv-x="1220" 
d="M610 -25q-160 0 -290 71.5t-203.5 197t-73.5 278.5t73.5 278.5t203.5 197t290 71.5q243 0 405.5 -157t162.5 -390t-162.5 -390t-405.5 -157zM610 332q82 0 135.5 54t53.5 136t-53.5 136.5t-135.5 54.5q-81 0 -134.5 -54.5t-53.5 -136.5t53 -136t135 -54z" />
    <glyph glyph-name="p" unicode="p" horiz-adv-x="1275" 
d="M102 -389v1433h369v-65q114 90 262 90q139 0 252.5 -71.5t177.5 -197t64 -278.5t-64 -278.5t-177.5 -197t-252.5 -71.5q-147 0 -262 91v-455h-369zM659 332q82 0 135.5 54t53.5 136t-53.5 136.5t-135.5 54.5q-81 0 -134.5 -54.5t-53.5 -136.5t53 -136t135 -54z" />
    <glyph glyph-name="q" unicode="q" horiz-adv-x="1275" 
d="M543 -25q-139 0 -252.5 71.5t-177.5 197t-64 278.5t64 278.5t177.5 197t252.5 71.5q148 0 262 -90v65h369v-1433h-369v455q-115 -91 -262 -91zM616 332q82 0 135.5 54t53.5 136t-53.5 136.5t-135.5 54.5q-81 0 -134.5 -54.5t-53.5 -136.5t53 -136t135 -54z" />
    <glyph glyph-name="r" unicode="r" horiz-adv-x="817" 
d="M102 0v1044h369v-120q121 137 281 137h47v-379h-47q-137 0 -209 -57.5t-72 -157.5v-467h-369z" />
    <glyph glyph-name="s" unicode="s" horiz-adv-x="1009" 
d="M514 -25q-206 0 -338.5 103t-132.5 252h363q0 -33 31.5 -55.5t76.5 -22.5q37 0 63.5 15t26.5 38q0 21 -23.5 36t-62 24t-87.5 21.5t-100.5 26t-100.5 39t-87.5 58.5t-62 87.5t-23.5 123.5q0 87 36.5 155t98.5 109.5t139.5 62.5t164.5 21q193 0 322.5 -98.5t129.5 -239.5
h-358q0 28 -27.5 47t-66.5 19q-33 0 -56.5 -14.5t-23.5 -37.5q0 -20 23.5 -34.5t62.5 -23.5t88.5 -21.5t101 -25.5t101 -38t88.5 -57.5t62.5 -85t23.5 -119.5q0 -162 -126.5 -263.5t-326.5 -101.5z" />
    <glyph glyph-name="t" unicode="t" horiz-adv-x="817" 
d="M588 0q-404 0 -404 358v351h-139v335h68q92 0 92 93v174h348v-267h197v-335h-197v-289q0 -84 90 -84h107v-336h-162z" />
    <glyph glyph-name="u" unicode="u" horiz-adv-x="1198" 
d="M457 -25q-168 0 -270.5 105t-102.5 278v686h369v-573q0 -63 35.5 -101t93.5 -38q65 0 105 39.5t40 103.5v569h369v-1044h-369v78q-112 -103 -270 -103z" />
    <glyph glyph-name="v" unicode="v" horiz-adv-x="1167" 
d="M395 0l-405 1044h420l178 -555l178 555h412l-406 -1044h-377z" />
    <glyph glyph-name="w" unicode="w" horiz-adv-x="1757" 
d="M352 0l-358 1044h420l137 -540l145 540h375l146 -540l137 540h409l-358 -1044h-377l-149 578l-150 -578h-377z" />
    <glyph glyph-name="x" unicode="x" horiz-adv-x="1177" 
d="M-4 0l346 524l-340 520h447l143 -247l143 247h441l-340 -520l346 -524h-447l-149 256l-150 -256h-440z" />
    <glyph glyph-name="y" unicode="y" horiz-adv-x="1167" 
d="M225 -389l162 407l-397 1026h420l178 -552l178 552h412l-557 -1433h-396z" />
    <glyph glyph-name="z" unicode="z" horiz-adv-x="1052" 
d="M61 0v268l367 420h-358v356h907v-268l-367 -420h381v-356h-930z" />
    <glyph glyph-name="braceleft" unicode="{" horiz-adv-x="862" 
d="M575 -389q-148 0 -237.5 90.5t-89.5 239.5v346q0 52 -30 83t-81 31h-80v349h80q51 0 81 31t30 83v342q0 149 89.5 239.5t237.5 90.5h252v-348h-104q-43 0 -68.5 -27t-25.5 -71v-326q0 -63 -35.5 -113t-97.5 -76q62 -28 97.5 -78t35.5 -112v-328q0 -44 25.5 -71t68.5 -27
h104v-348h-252z" />
    <glyph glyph-name="bar" unicode="|" horiz-adv-x="651" 
d="M158 -389v1925h336v-1925h-336z" />
    <glyph glyph-name="braceright" unicode="}" horiz-adv-x="862" 
d="M35 -389v348h104q43 0 68.5 27t25.5 71v328q0 62 36 112t98 78q-62 27 -98 77t-36 112v326q0 44 -25.5 71t-68.5 27h-104v348h252q148 0 237.5 -90.5t89.5 -239.5v-342q0 -52 30 -83t81 -31h80v-349h-80q-51 0 -81 -31t-30 -83v-346q0 -149 -89.5 -239.5t-237.5 -90.5
h-252z" />
    <glyph glyph-name="asciitilde" unicode="~" horiz-adv-x="1249" 
d="M805 395q-66 0 -127.5 17t-105 34t-64.5 17q-29 0 -47.5 -18t-18.5 -46h-336q0 95 18 170.5t56 135t105 92t159 32.5q66 0 127.5 -16.5t105 -33.5t64.5 -17q29 0 47.5 17.5t18.5 45.5h336q0 -95 -18 -170.5t-56 -135t-105 -92t-159 -32.5z" />
    <glyph glyph-name="uni00A0" unicode="&#xa0;" horiz-adv-x="419" 
 />
    <glyph glyph-name="exclamdown" unicode="&#xa1;" horiz-adv-x="602" 
d="M301 598q-101 0 -169.5 68t-68.5 168t68.5 167.5t169.5 67.5t169.5 -67.5t68.5 -167.5t-68.5 -168t-169.5 -68zM106 -369v349l25 552h342l25 -552v-349h-392z" />
    <glyph glyph-name="cent" unicode="&#xa2;" horiz-adv-x="1263" 
d="M539 0v166q-204 32 -334.5 182.5t-130.5 356.5t130.5 356t334.5 182v170h204v-170q180 -29 304.5 -151t152.5 -295h-391q-25 44 -66 69v-323q41 25 66 69h391q-28 -173 -152.5 -295t-304.5 -151v-166h-204zM453 705q0 -108 86 -162v323q-86 -54 -86 -161z" />
    <glyph glyph-name="sterling" unicode="&#xa3;" horiz-adv-x="1214" 
d="M76 0v369h90v153h-90v336h90v105q0 204 142 339.5t354 135.5t353.5 -135.5t141.5 -339.5h-391q0 43 -29.5 70.5t-74.5 27.5t-75 -28t-30 -70v-105h383v-336h-383v-153h621v-369h-1102z" />
    <glyph glyph-name="currency" unicode="&#xa4;" horiz-adv-x="1148" 
d="M287 201l-226 223l125 125q-32 78 -32 160q0 90 34 159l-127 127l224 224l141 -140q73 25 149 25q73 0 150 -23l139 138l223 -226l-122 -123q34 -72 34 -161q0 -90 -34 -162l122 -123l-223 -223l-139 137q-77 -23 -150 -23t-147 23zM575 598q47 0 80 32t33 79
q0 49 -32.5 80.5t-80.5 31.5q-47 0 -78.5 -32.5t-31.5 -79.5t31.5 -79t78.5 -32z" />
    <glyph glyph-name="yen" unicode="&#xa5;" horiz-adv-x="1361" 
d="M272 180v180h215v74h-215v180h134l-439 799h445l276 -534l277 534h430l-434 -799h135v-180h-217v-74h217v-180h-217v-180h-392v180h-215z" />
    <glyph glyph-name="brokenbar" unicode="&#xa6;" horiz-adv-x="651" 
d="M158 696v840h336v-840h-336zM158 -389v840h336v-840h-336z" />
    <glyph glyph-name="section" unicode="&#xa7;" horiz-adv-x="1116" 
d="M561 -195q-197 0 -329 104.5t-132 254.5h365q0 -34 28.5 -58t69.5 -24q36 0 62 17.5t26 43.5q0 37 -48.5 61.5t-143.5 45.5q-59 13 -105.5 27.5t-98.5 42.5t-86.5 63.5t-57.5 91.5t-23 125q0 151 115 248q-101 94 -101 227q0 115 65 199.5t166 124t222 39.5
q194 0 326.5 -104.5t132.5 -254.5h-365q0 34 -29 58t-67 24q-36 0 -62 -17.5t-26 -43.5q0 -37 49.5 -61.5t147.5 -45.5q56 -12 101 -26.5t97 -42.5t86.5 -63.5t58 -91.5t23.5 -126q0 -152 -117 -248q103 -86 103 -227q0 -115 -65 -199.5t-166 -124t-222 -39.5zM569 543
q42 4 69.5 23.5t27.5 43.5q0 64 -119 90q-43 -4 -69.5 -23t-26.5 -44q0 -62 118 -90z" />
    <glyph glyph-name="dieresis" unicode="&#xa8;" horiz-adv-x="860" 
d="M662 1116q-85 0 -142 56t-57 141q0 84 57 140t142 56t141.5 -55.5t56.5 -140.5t-56.5 -141t-141.5 -56zM199 1116q-85 0 -142 56t-57 141q0 84 57 140t142 56t141.5 -55.5t56.5 -140.5t-56.5 -141t-141.5 -56z" />
    <glyph glyph-name="copyright" unicode="&#xa9;" horiz-adv-x="1605" 
d="M803 -25q-205 0 -372.5 95.5t-263 263.5t-95.5 373t95.5 372.5t263 263t372.5 95.5t372.5 -95.5t263 -263t95.5 -372.5t-95.5 -373t-263 -263.5t-372.5 -95.5zM803 217q203 0 341 140.5t138 349.5t-138 349t-341 140t-341 -140t-138 -349t138 -349.5t341 -140.5zM803 346
q-155 0 -258 103.5t-103 257.5t103 257t258 103q142 0 243 -91t115 -231h-293q-18 41 -65 41q-33 0 -54.5 -23t-21.5 -56t21.5 -56.5t54.5 -23.5q47 0 65 41h293q-14 -140 -115 -231t-243 -91z" />
    <glyph glyph-name="ordfeminine" unicode="&#xaa;" horiz-adv-x="700" 
d="M285 842q-110 0 -185 84.5t-75 210.5t75 210.5t185 84.5q65 0 123 -48v33h268v-561h-268v33q-57 -47 -123 -47zM352 1077q24 0 40 17t16 43t-16 42.5t-40 16.5q-25 0 -41 -16.5t-16 -42.5t16 -43t41 -17z" />
    <glyph glyph-name="guillemotleft" unicode="&#xab;" horiz-adv-x="1347" 
d="M887 119l-281 422l281 422h430l-283 -422l283 -422h-430zM291 119l-281 422l281 422h430l-283 -422l283 -422h-430z" />
    <glyph glyph-name="logicalnot" unicode="&#xac;" horiz-adv-x="1093" 
d="M651 164v274h-545v332h881v-606h-336z" />
    <glyph glyph-name="uni00AD" unicode="&#xad;" horiz-adv-x="835" 
d="M106 383v356h623v-356h-623z" />
    <glyph glyph-name="registered" unicode="&#xae;" horiz-adv-x="817" 
d="M410 670q-164 0 -274.5 109.5t-110.5 273.5t110.5 274.5t274.5 110.5t273.5 -110.5t109.5 -274.5t-109.5 -273.5t-273.5 -109.5zM410 795q107 0 179.5 74t72.5 184t-72.5 185t-179.5 75q-109 0 -181.5 -75t-72.5 -185t72.5 -184t181.5 -74zM281 883v370h147
q58 0 97.5 -39.5t39.5 -97.5q0 -60 -43 -100l58 -133h-125l-39 98h-15v-98h-120zM418 1145h-17v-58h17q12 0 20 8.5t8 20.5t-8 20.5t-20 8.5z" />
    <glyph glyph-name="macron" unicode="&#xaf;" horiz-adv-x="602" 
d="M0 1147v307h602v-307h-602z" />
    <glyph glyph-name="degree" unicode="&#xb0;" horiz-adv-x="790" 
d="M395 733q-154 0 -257 101t-103 253q0 149 103 250t257 101t257.5 -101t103.5 -250q0 -152 -103.5 -253t-257.5 -101zM395 1018q29 0 48.5 20t19.5 49q0 28 -19.5 47t-48.5 19t-48 -19t-19 -47q0 -29 19 -49t48 -20z" />
    <glyph glyph-name="plusminus" unicode="&#xb1;" horiz-adv-x="1093" 
d="M379 410v213h-273v331h273v213h336v-213h272v-331h-272v-213h-336zM106 0v332h881v-332h-881z" />
    <glyph glyph-name="uni00B2" unicode="&#xb2;" horiz-adv-x="727" 
d="M59 750v137q0 71 36.5 132t88.5 102.5t103.5 76.5t88 68.5t36.5 62.5q0 41 -52 41q-53 0 -53 -49h-246q0 126 86 208.5t215 82.5q125 0 210 -78t85 -195q0 -33 -8 -64.5t-18.5 -56t-31.5 -51.5t-36.5 -44t-44.5 -42t-44 -36t-47 -34.5t-42 -31.5h274v-229h-600z" />
    <glyph glyph-name="uni00B3" unicode="&#xb3;" horiz-adv-x="724" 
d="M360 735q-132 0 -222.5 82t-90.5 203h250q0 -23 19 -38t44 -15q24 0 43 14.5t19 42.5q0 27 -24 46.5t-62 19.5h-98v194h98q33 0 54.5 14.5t21.5 38.5t-16.5 34.5t-35.5 10.5q-22 0 -37.5 -12.5t-15.5 -30.5h-248q0 116 86 194.5t215 78.5q124 0 211.5 -71t87.5 -173
q0 -52 -25.5 -98.5t-70.5 -77.5q50 -34 79.5 -87.5t29.5 -111.5q0 -108 -92 -183t-220 -75z" />
    <glyph glyph-name="acute" unicode="&#xb4;" horiz-adv-x="659" 
d="M0 1135l201 323h458l-274 -323h-385z" />
    <glyph glyph-name="paragraph" unicode="&#xb6;" horiz-adv-x="1398" 
d="M541 -389v921h-54q-187 0 -313.5 126.5t-126.5 314.5q0 187 126.5 313.5t313.5 126.5h795v-1802h-315v1491h-111v-1491h-315z" />
    <glyph glyph-name="periodcentered" unicode="&#xb7;" horiz-adv-x="708" 
d="M354 315q-106 0 -177 71t-71 175t71 175t177 71t177 -71t71 -175t-71 -175t-177 -71z" />
    <glyph glyph-name="cedilla" unicode="&#xb8;" horiz-adv-x="557" 
d="M279 -541q-115 0 -194 68t-85 170h219q6 -19 22.5 -30t37.5 -11q25 0 43 16t18 39q0 24 -18.5 41t-42.5 17q-34 0 -54 -25l-202 90l137 166v4h254v-4l-47 -53q83 -14 136.5 -79.5t53.5 -156.5q0 -106 -79.5 -179t-198.5 -73z" />
    <glyph glyph-name="uni00B9" unicode="&#xb9;" horiz-adv-x="528" 
d="M199 750v565l-146 -82v246l215 118h172v-847h-241z" />
    <glyph glyph-name="ordmasculine" unicode="&#xba;" horiz-adv-x="704" 
d="M352 842q-138 0 -232.5 84.5t-94.5 210.5t94.5 210.5t232.5 84.5t233 -84.5t95 -210.5t-95 -210.5t-233 -84.5zM352 1077q24 0 41 17t17 43q0 25 -17 42t-41 17t-40.5 -16.5t-16.5 -42.5t16.5 -43t40.5 -17z" />
    <glyph glyph-name="guillemotright" unicode="&#xbb;" horiz-adv-x="1347" 
d="M627 119l282 422l-282 422h430l280 -422l-280 -422h-430zM31 119l282 422l-282 422h430l280 -422l-280 -422h-430z" />
    <glyph glyph-name="onequarter" unicode="&#xbc;" horiz-adv-x="1683" 
d="M199 565v565l-146 -81v245l215 119h172v-848h-241zM211 0l946 1413h305l-946 -1413h-305zM963 131v199l278 518h260l-268 -488h119v91h223v-91h65v-229h-65v-131h-244v131h-368z" />
    <glyph glyph-name="onehalf" unicode="&#xbd;" horiz-adv-x="1779" 
d="M199 565v565l-146 -81v245l215 119h172v-848h-241zM211 0l946 1413h305l-946 -1413h-305zM1112 0v137q0 60 26 113.5t65 90t85 72t85 61t65 53.5t26 53q0 41 -51 41q-53 0 -53 -50h-246q0 126 86 208.5t215 82.5q125 0 210 -78t85 -194q0 -33 -8 -64.5t-18.5 -56
t-31.5 -52t-36 -44.5t-44.5 -42t-44 -36t-47.5 -35t-42 -31h274v-229h-600z" />
    <glyph glyph-name="threequarters" unicode="&#xbe;" horiz-adv-x="1798" 
d="M360 551q-132 0 -222.5 82t-90.5 203h250q0 -23 19 -38.5t44 -15.5q24 0 43 15t19 43q0 27 -23.5 46t-62.5 19h-98v195h98q33 0 54.5 14.5t21.5 38.5t-16.5 34.5t-35.5 10.5q-22 0 -37.5 -12.5t-15.5 -30.5h-248q0 116 86 194t215 78q124 0 211.5 -70.5t87.5 -172.5
q0 -52 -25.5 -98.5t-70.5 -77.5q50 -34 79.5 -87.5t29.5 -111.5q0 -108 -92 -183t-220 -75zM326 0l946 1413h305l-946 -1413h-305zM1077 131v199l279 518h260l-268 -488h118v91h224v-91h65v-229h-65v-131h-244v131h-369z" />
    <glyph glyph-name="questiondown" unicode="&#xbf;" horiz-adv-x="972" 
d="M500 598q-101 0 -169.5 68t-68.5 168t68.5 167.5t169.5 67.5t169 -67.5t68 -167.5t-68 -168t-169 -68zM500 -393q-210 0 -350 125.5t-140 314.5q0 51 12 95t28 73.5t44 59t48 46t53 39.5q53 37 81.5 70.5t28.5 71.5v30h389v-30q0 -215 -180 -330q-53 -34 -77.5 -58.5
t-24.5 -56.5t25.5 -52.5t62.5 -20.5t62.5 20.5t25.5 52.5h401q0 -193 -140 -321.5t-349 -128.5z" />
    <glyph glyph-name="Agrave" unicode="&#xc0;" horiz-adv-x="1435" 
d="M539 1503l-275 324h459l201 -324h-385zM-20 0l507 1413h461l508 -1413h-428l-63 195h-502l-64 -195h-419zM578 555h272l-135 424z" />
    <glyph glyph-name="Aacute" unicode="&#xc1;" horiz-adv-x="1435" 
d="M510 1503l201 324h458l-274 -324h-385zM-20 0l507 1413h461l508 -1413h-428l-63 195h-502l-64 -195h-419zM578 555h272l-135 424z" />
    <glyph glyph-name="Acircumflex" unicode="&#xc2;" horiz-adv-x="1435" 
d="M295 1503l201 324h442l201 -324h-344l-78 123l-78 -123h-344zM-20 0l507 1413h461l508 -1413h-428l-63 195h-502l-64 -195h-419zM578 555h272l-135 424z" />
    <glyph glyph-name="Atilde" unicode="&#xc3;" horiz-adv-x="1435" 
d="M844 1513q-48 0 -90 14t-71.5 28t-47.5 14q-24 0 -38.5 -15.5t-14.5 -37.5h-256q0 152 67 248t195 96q47 0 88.5 -14.5t71.5 -29t49 -14.5q23 0 38 16t15 40h256q0 -155 -66.5 -250t-195.5 -95zM-20 0l507 1413h461l508 -1413h-428l-63 195h-502l-64 -195h-419zM578 555
h272l-135 424z" />
    <glyph glyph-name="Adieresis" unicode="&#xc4;" horiz-adv-x="1435" 
d="M948 1485q-85 0 -141.5 55.5t-56.5 140.5t56.5 141t141.5 56t142 -56t57 -141q0 -84 -57 -140t-142 -56zM485 1485q-85 0 -141.5 55.5t-56.5 140.5t56.5 141t141.5 56t142 -56t57 -141q0 -84 -57 -140t-142 -56zM-20 0l507 1413h461l508 -1413h-428l-63 195h-502
l-64 -195h-419zM578 555h272l-135 424z" />
    <glyph glyph-name="Aring" unicode="&#xc5;" horiz-adv-x="1435" 
d="M717 1483q-104 0 -175 68t-71 169t71 169.5t175 68.5t175 -68.5t71 -169.5t-71 -169t-175 -68zM717 1661q25 0 41 16.5t16 42.5t-16 43t-41 17t-41.5 -17t-16.5 -43t16.5 -42.5t41.5 -16.5zM-20 0l507 1413h461l508 -1413h-428l-63 195h-502l-64 -195h-419zM578 555h272
l-135 424z" />
    <glyph glyph-name="AE" unicode="&#xc6;" horiz-adv-x="1902" 
d="M-82 0l784 1413h1133v-369h-545v-149h479v-369h-479v-157h555v-369h-946v186h-434l-103 -186h-444zM662 547h237v432z" />
    <glyph glyph-name="Ccedilla" unicode="&#xc7;" horiz-adv-x="1572" 
d="M811 -543q-115 0 -194 68t-85 170h220q6 -19 22.5 -30t36.5 -11q25 0 43 16t18 39q0 24 -18.5 41t-42.5 17q-33 0 -53 -25l-203 90l125 152q-275 40 -452 241.5t-177 481.5q0 205 98 372.5t270.5 263t383.5 95.5q186 0 343 -75.5t258 -209t128 -303.5h-416
q-32 96 -117.5 153.5t-195.5 57.5q-150 0 -250 -101t-100 -253t100.5 -253.5t249.5 -101.5q110 0 195.5 57.5t117.5 153.5h416q-37 -225 -199.5 -382t-396.5 -195l-37 -41q84 -14 137.5 -80t53.5 -156q0 -106 -80 -179t-199 -73z" />
    <glyph glyph-name="Egrave" unicode="&#xc8;" horiz-adv-x="1140" 
d="M436 1503l-274 324h459l200 -324h-385zM117 0v1413h956v-369h-565v-149h500v-369h-500v-157h575v-369h-966z" />
    <glyph glyph-name="Eacute" unicode="&#xc9;" horiz-adv-x="1140" 
d="M408 1503l200 324h459l-274 -324h-385zM117 0v1413h956v-369h-565v-149h500v-369h-500v-157h575v-369h-966z" />
    <glyph glyph-name="Ecircumflex" unicode="&#xca;" horiz-adv-x="1140" 
d="M193 1503l200 324h443l200 -324h-344l-78 123l-77 -123h-344zM117 0v1413h956v-369h-565v-149h500v-369h-500v-157h575v-369h-966z" />
    <glyph glyph-name="Edieresis" unicode="&#xcb;" horiz-adv-x="1140" 
d="M846 1485q-85 0 -142 56t-57 140q0 85 57 141t142 56t141.5 -56t56.5 -141t-56.5 -140.5t-141.5 -55.5zM383 1485q-85 0 -142 56t-57 140q0 85 57 141t142 56t142 -56t57 -141q0 -84 -57 -140t-142 -56zM117 0v1413h956v-369h-565v-149h500v-369h-500v-157h575v-369h-966
z" />
    <glyph glyph-name="Igrave" unicode="&#xcc;" horiz-adv-x="624" 
d="M135 1503l-274 324h458l201 -324h-385zM117 0v1413h391v-1413h-391z" />
    <glyph glyph-name="Iacute" unicode="&#xcd;" horiz-adv-x="624" 
d="M106 1503l201 324h459l-274 -324h-386zM117 0v1413h391v-1413h-391z" />
    <glyph glyph-name="Icircumflex" unicode="&#xce;" horiz-adv-x="624" 
d="M-109 1503l201 324h443l200 -324h-344l-78 123l-77 -123h-345zM117 0v1413h391v-1413h-391z" />
    <glyph glyph-name="Idieresis" unicode="&#xcf;" horiz-adv-x="624" 
d="M545 1485q-85 0 -142 56t-57 140q0 85 57 141t142 56t141.5 -56t56.5 -141t-56.5 -140.5t-141.5 -55.5zM82 1485q-85 0 -142 56t-57 140q0 85 57 141t142 56t142 -56t57 -141q0 -84 -57 -140t-142 -56zM117 0v1413h391v-1413h-391z" />
    <glyph glyph-name="Eth" unicode="&#xd0;" horiz-adv-x="1458" 
d="M117 0v575h-117v263h117v575h563q205 0 371.5 -92t261 -253.5t94.5 -360.5t-94.5 -361t-261 -254t-371.5 -92h-563zM664 575h-156v-206h164q143 0 238.5 96.5t95.5 241.5t-95.5 241t-238.5 96h-164v-206h156v-263z" />
    <glyph glyph-name="Ntilde" unicode="&#xd1;" horiz-adv-x="1482" 
d="M879 1513q-63 0 -128 28t-81 28q-24 0 -39 -15.5t-15 -37.5h-256q0 152 67.5 248t195.5 96q47 0 88.5 -14.5t71 -29t48.5 -14.5q23 0 38.5 16.5t15.5 39.5h256q0 -155 -66.5 -250t-195.5 -95zM117 0v1413h391l467 -723v723h391v-1413h-391l-467 723v-723h-391z" />
    <glyph glyph-name="Ograve" unicode="&#xd2;" horiz-adv-x="1605" 
d="M625 1503l-275 324h459l201 -324h-385zM803 -25q-158 0 -297.5 56.5t-239.5 153.5t-157.5 232.5t-57.5 289.5q0 205 98 372.5t270.5 263t383.5 95.5t383 -95.5t270 -263t98 -372.5t-98 -373t-270 -263.5t-383 -95.5zM803 352q149 0 249.5 101.5t100.5 253.5t-100 253
t-250 101t-250 -101t-100 -253t100.5 -253.5t249.5 -101.5z" />
    <glyph glyph-name="Oacute" unicode="&#xd3;" horiz-adv-x="1605" 
d="M596 1503l201 324h458l-274 -324h-385zM803 -25q-158 0 -297.5 56.5t-239.5 153.5t-157.5 232.5t-57.5 289.5q0 205 98 372.5t270.5 263t383.5 95.5t383 -95.5t270 -263t98 -372.5t-98 -373t-270 -263.5t-383 -95.5zM803 352q149 0 249.5 101.5t100.5 253.5t-100 253
t-250 101t-250 -101t-100 -253t100.5 -253.5t249.5 -101.5z" />
    <glyph glyph-name="Ocircumflex" unicode="&#xd4;" horiz-adv-x="1605" 
d="M381 1503l201 324h442l201 -324h-344l-78 123l-78 -123h-344zM803 -25q-158 0 -297.5 56.5t-239.5 153.5t-157.5 232.5t-57.5 289.5q0 205 98 372.5t270.5 263t383.5 95.5t383 -95.5t270 -263t98 -372.5t-98 -373t-270 -263.5t-383 -95.5zM803 352q149 0 249.5 101.5
t100.5 253.5t-100 253t-250 101t-250 -101t-100 -253t100.5 -253.5t249.5 -101.5z" />
    <glyph glyph-name="Otilde" unicode="&#xd5;" horiz-adv-x="1605" 
d="M930 1513q-48 0 -90 14t-71.5 28t-47.5 14q-24 0 -38.5 -15.5t-14.5 -37.5h-256q0 152 67 248t195 96q47 0 88.5 -14.5t71.5 -29t49 -14.5q23 0 38 16t15 40h256q0 -155 -66.5 -250t-195.5 -95zM803 -25q-158 0 -297.5 56.5t-239.5 153.5t-157.5 232.5t-57.5 289.5
q0 205 98 372.5t270.5 263t383.5 95.5t383 -95.5t270 -263t98 -372.5t-98 -373t-270 -263.5t-383 -95.5zM803 352q149 0 249.5 101.5t100.5 253.5t-100 253t-250 101t-250 -101t-100 -253t100.5 -253.5t249.5 -101.5z" />
    <glyph glyph-name="Odieresis" unicode="&#xd6;" horiz-adv-x="1605" 
d="M1034 1485q-85 0 -141.5 55.5t-56.5 140.5t56.5 141t141.5 56t142 -56t57 -141q0 -84 -57 -140t-142 -56zM571 1485q-85 0 -141.5 55.5t-56.5 140.5t56.5 141t141.5 56t142 -56t57 -141q0 -84 -57 -140t-142 -56zM803 -25q-158 0 -297.5 56.5t-239.5 153.5t-157.5 232.5
t-57.5 289.5q0 205 98 372.5t270.5 263t383.5 95.5t383 -95.5t270 -263t98 -372.5t-98 -373t-270 -263.5t-383 -95.5zM803 352q149 0 249.5 101.5t100.5 253.5t-100 253t-250 101t-250 -101t-100 -253t100.5 -253.5t249.5 -101.5z" />
    <glyph glyph-name="multiply" unicode="&#xd7;" horiz-adv-x="1077" 
d="M348 172l-242 242l191 190l-191 191l242 241l191 -190l190 190l242 -241l-191 -191l191 -190l-242 -242l-190 190z" />
    <glyph glyph-name="Oslash" unicode="&#xd8;" horiz-adv-x="1605" 
d="M47 0l186 221q-182 201 -182 486q0 205 98 372.5t270.5 263t383.5 95.5q206 0 379 -95l57 70h317l-184 -219q182 -201 182 -487q0 -205 -98 -373t-270 -263.5t-383 -95.5q-203 0 -379 95l-59 -70h-318zM453 707q0 -97 43 -175l428 508q-55 21 -121 21q-150 0 -250 -101
t-100 -253zM803 352q149 0 249.5 101.5t100.5 253.5q0 95 -43 176l-430 -510q65 -21 123 -21z" />
    <glyph glyph-name="Ugrave" unicode="&#xd9;" horiz-adv-x="1388" 
d="M516 1503l-274 324h458l201 -324h-385zM694 -25q-126 0 -237 44t-190 120.5t-125 184t-46 229.5v860h391v-854q0 -89 59 -148t148 -59t148 59t59 148v854h391v-860q0 -122 -46 -229.5t-125 -184t-190 -120.5t-237 -44z" />
    <glyph glyph-name="Uacute" unicode="&#xda;" horiz-adv-x="1388" 
d="M487 1503l201 324h459l-275 -324h-385zM694 -25q-126 0 -237 44t-190 120.5t-125 184t-46 229.5v860h391v-854q0 -89 59 -148t148 -59t148 59t59 148v854h391v-860q0 -122 -46 -229.5t-125 -184t-190 -120.5t-237 -44z" />
    <glyph glyph-name="Ucircumflex" unicode="&#xdb;" horiz-adv-x="1388" 
d="M272 1503l201 324h442l201 -324h-344l-78 123l-78 -123h-344zM694 -25q-126 0 -237 44t-190 120.5t-125 184t-46 229.5v860h391v-854q0 -89 59 -148t148 -59t148 59t59 148v854h391v-860q0 -122 -46 -229.5t-125 -184t-190 -120.5t-237 -44z" />
    <glyph glyph-name="Udieresis" unicode="&#xdc;" horiz-adv-x="1388" 
d="M926 1485q-85 0 -142 56t-57 140q0 85 57 141t142 56t141.5 -56t56.5 -141t-56.5 -140.5t-141.5 -55.5zM463 1485q-85 0 -142 56t-57 140q0 85 57 141t142 56t142 -56t57 -141q0 -84 -57 -140t-142 -56zM694 -25q-126 0 -237 44t-190 120.5t-125 184t-46 229.5v860h391
v-854q0 -89 59 -148t148 -59t148 59t59 148v854h391v-860q0 -122 -46 -229.5t-125 -184t-190 -120.5t-237 -44z" />
    <glyph glyph-name="Yacute" unicode="&#xdd;" horiz-adv-x="1386" 
d="M487 1503l201 324h459l-275 -324h-385zM498 0v465l-521 948h445l276 -534l275 534h436l-520 -948v-465h-391z" />
    <glyph glyph-name="Thorn" unicode="&#xde;" horiz-adv-x="1329" 
d="M117 0v1413h391v-205h285q223 0 372.5 -143t149.5 -358t-149.5 -358.5t-372.5 -143.5h-285v-205h-391zM784 840h-276v-267h276q55 0 92 38.5t37 95.5t-37 95t-92 38z" />
    <glyph glyph-name="germandbls" unicode="&#xdf;" horiz-adv-x="1124" 
d="M649 -25q-67 0 -110 15v356q25 -14 67 -14q51 0 85 34t34 85t-34 84.5t-85 33.5h-43v353h17q47 0 78.5 31.5t31.5 78.5t-31.5 79t-78.5 32t-79 -32t-32 -79v-1032h-369v1063q0 187 137 311.5t343 124.5q209 0 349 -125.5t140 -306.5q0 -98 -45 -184t-121 -138
q91 -40 146 -132t55 -210q0 -180 -131 -304t-324 -124z" />
    <glyph glyph-name="agrave" unicode="&#xe0;" horiz-adv-x="1275" 
d="M471 1135l-274 323h458l201 -323h-385zM543 -25q-139 0 -252.5 71.5t-177.5 197t-64 278.5t64 278.5t177.5 197t252.5 71.5q148 0 262 -90v65h369v-1044h-369v66q-115 -91 -262 -91zM616 332q82 0 135.5 54t53.5 136t-53.5 136.5t-135.5 54.5q-81 0 -134.5 -54.5
t-53.5 -136.5t53 -136t135 -54z" />
    <glyph glyph-name="aacute" unicode="&#xe1;" horiz-adv-x="1275" 
d="M442 1135l201 323h459l-275 -323h-385zM543 -25q-139 0 -252.5 71.5t-177.5 197t-64 278.5t64 278.5t177.5 197t252.5 71.5q148 0 262 -90v65h369v-1044h-369v66q-115 -91 -262 -91zM616 332q82 0 135.5 54t53.5 136t-53.5 136.5t-135.5 54.5q-81 0 -134.5 -54.5
t-53.5 -136.5t53 -136t135 -54z" />
    <glyph glyph-name="acircumflex" unicode="&#xe2;" horiz-adv-x="1275" 
d="M227 1135l201 323h442l201 -323h-344l-78 122l-78 -122h-344zM543 -25q-139 0 -252.5 71.5t-177.5 197t-64 278.5t64 278.5t177.5 197t252.5 71.5q148 0 262 -90v65h369v-1044h-369v66q-115 -91 -262 -91zM616 332q82 0 135.5 54t53.5 136t-53.5 136.5t-135.5 54.5
q-81 0 -134.5 -54.5t-53.5 -136.5t53 -136t135 -54z" />
    <glyph glyph-name="atilde" unicode="&#xe3;" horiz-adv-x="1275" 
d="M776 1145q-48 0 -90 13.5t-71.5 27.5t-47.5 14q-24 0 -38.5 -15.5t-14.5 -37.5h-256q0 152 67 248t195 96q47 0 88.5 -14.5t71.5 -28.5t49 -14q23 0 38 16t15 39h256q0 -155 -66.5 -249.5t-195.5 -94.5zM543 -25q-139 0 -252.5 71.5t-177.5 197t-64 278.5t64 278.5
t177.5 197t252.5 71.5q148 0 262 -90v65h369v-1044h-369v66q-115 -91 -262 -91zM616 332q82 0 135.5 54t53.5 136t-53.5 136.5t-135.5 54.5q-81 0 -134.5 -54.5t-53.5 -136.5t53 -136t135 -54z" />
    <glyph glyph-name="adieresis" unicode="&#xe4;" horiz-adv-x="1275" 
d="M881 1116q-85 0 -142 56t-57 141q0 84 57 140t142 56t141.5 -55.5t56.5 -140.5t-56.5 -141t-141.5 -56zM418 1116q-85 0 -142 56t-57 141q0 84 57 140t142 56t141.5 -55.5t56.5 -140.5t-56.5 -141t-141.5 -56zM543 -25q-139 0 -252.5 71.5t-177.5 197t-64 278.5t64 278.5
t177.5 197t252.5 71.5q148 0 262 -90v65h369v-1044h-369v66q-115 -91 -262 -91zM616 332q82 0 135.5 54t53.5 136t-53.5 136.5t-135.5 54.5q-81 0 -134.5 -54.5t-53.5 -136.5t53 -136t135 -54z" />
    <glyph glyph-name="aring" unicode="&#xe5;" horiz-adv-x="1275" 
d="M649 1114q-104 0 -175 68.5t-71 169.5t71 169t175 68t175 -68t71 -169t-71 -169.5t-175 -68.5zM649 1292q25 0 41.5 17t16.5 43t-16.5 42.5t-41.5 16.5t-41 -16.5t-16 -42.5t16 -43t41 -17zM543 -25q-139 0 -252.5 71.5t-177.5 197t-64 278.5t64 278.5t177.5 197
t252.5 71.5q148 0 262 -90v65h369v-1044h-369v66q-115 -91 -262 -91zM616 332q82 0 135.5 54t53.5 136t-53.5 136.5t-135.5 54.5q-81 0 -134.5 -54.5t-53.5 -136.5t53 -136t135 -54z" />
    <glyph glyph-name="ae" unicode="&#xe6;" horiz-adv-x="1826" 
d="M440 -25q-179 0 -285 89.5t-106 238.5q0 148 105 237t278 89h240v55q0 41 -29 65.5t-76 24.5q-46 0 -74 -21.5t-28 -58.5h-373q0 167 135 271t342 104q202 0 326 -102q139 102 330 102q155 0 283.5 -70.5t203 -198t74.5 -286.5q0 -60 -8 -96h-731q22 -65 69.5 -101
t112.5 -36q51 0 94 18.5t57 42.5h387q-56 -165 -202.5 -266t-339.5 -101q-119 0 -222 42.5t-178 117.5q-53 -73 -156.5 -116.5t-228.5 -43.5zM1219 764q-61 0 -106.5 -36t-65.5 -99h348q-20 64 -66 99.5t-110 35.5zM551 242q91 0 158 77q-23 63 -27 99h-147q-47 0 -77 -24
t-30 -62q0 -40 34 -65t89 -25z" />
    <glyph glyph-name="ccedilla" unicode="&#xe7;" horiz-adv-x="1200" 
d="M618 -543q-115 0 -193.5 68t-84.5 170h219q6 -19 22.5 -30t36.5 -11q25 0 43.5 16t18.5 39q0 24 -19 41t-43 17q-33 0 -53 -25l-203 90l127 154q-197 39 -321.5 186.5t-124.5 349.5q0 153 73.5 278.5t203.5 197t290 71.5q143 0 263.5 -58.5t195.5 -162t90 -234.5h-391
q-17 45 -60 72t-98 27q-81 0 -134.5 -54.5t-53.5 -136.5t53 -136t135 -54q55 0 98 26.5t60 71.5h391q-20 -165 -131.5 -284t-279.5 -156l-41 -45q83 -14 136.5 -79.5t53.5 -156.5q0 -106 -80 -179t-199 -73z" />
    <glyph glyph-name="egrave" unicode="&#xe8;" horiz-adv-x="1218" 
d="M432 1135l-274 323h458l201 -323h-385zM610 -25q-160 0 -290 71.5t-203.5 197t-73.5 278.5t73.5 278.5t203.5 197t290 71.5t290 -71t204 -199t74 -287q0 -54 -9 -94h-731q22 -65 71 -101t116 -36q96 0 153 61h387q-56 -165 -207 -266t-348 -101zM610 764
q-61 0 -106.5 -36t-65.5 -99h348q-20 64 -66 99.5t-110 35.5z" />
    <glyph glyph-name="eacute" unicode="&#xe9;" horiz-adv-x="1218" 
d="M403 1135l201 323h459l-275 -323h-385zM610 -25q-160 0 -290 71.5t-203.5 197t-73.5 278.5t73.5 278.5t203.5 197t290 71.5t290 -71t204 -199t74 -287q0 -54 -9 -94h-731q22 -65 71 -101t116 -36q96 0 153 61h387q-56 -165 -207 -266t-348 -101zM610 764
q-61 0 -106.5 -36t-65.5 -99h348q-20 64 -66 99.5t-110 35.5z" />
    <glyph glyph-name="ecircumflex" unicode="&#xea;" horiz-adv-x="1218" 
d="M188 1135l201 323h442l201 -323h-344l-78 122l-78 -122h-344zM610 -25q-160 0 -290 71.5t-203.5 197t-73.5 278.5t73.5 278.5t203.5 197t290 71.5t290 -71t204 -199t74 -287q0 -54 -9 -94h-731q22 -65 71 -101t116 -36q96 0 153 61h387q-56 -165 -207 -266t-348 -101z
M610 764q-61 0 -106.5 -36t-65.5 -99h348q-20 64 -66 99.5t-110 35.5z" />
    <glyph glyph-name="edieresis" unicode="&#xeb;" horiz-adv-x="1218" 
d="M842 1116q-85 0 -142 56t-57 141q0 84 57 140t142 56t141.5 -55.5t56.5 -140.5t-56.5 -141t-141.5 -56zM379 1116q-85 0 -142 56t-57 141q0 84 57 140t142 56t142 -56t57 -140q0 -85 -57 -141t-142 -56zM610 -25q-160 0 -290 71.5t-203.5 197t-73.5 278.5t73.5 278.5
t203.5 197t290 71.5t290 -71t204 -199t74 -287q0 -54 -9 -94h-731q22 -65 71 -101t116 -36q96 0 153 61h387q-56 -165 -207 -266t-348 -101zM610 764q-61 0 -106.5 -36t-65.5 -99h348q-20 64 -66 99.5t-110 35.5z" />
    <glyph glyph-name="igrave" unicode="&#xec;" horiz-adv-x="573" 
d="M109 1135l-275 323h459l201 -323h-385zM102 0v1044h369v-1044h-369z" />
    <glyph glyph-name="iacute" unicode="&#xed;" horiz-adv-x="573" 
d="M80 1135l201 323h458l-274 -323h-385zM102 0v1044h369v-1044h-369z" />
    <glyph glyph-name="icircumflex" unicode="&#xee;" horiz-adv-x="573" 
d="M-135 1135l201 323h442l201 -323h-344l-78 122l-78 -122h-344zM102 0v1044h369v-1044h-369z" />
    <glyph glyph-name="idieresis" unicode="&#xef;" horiz-adv-x="573" 
d="M518 1116q-85 0 -142 56t-57 141q0 84 57 140t142 56t142 -56t57 -140q0 -85 -57 -141t-142 -56zM55 1116q-85 0 -141.5 56t-56.5 141t56.5 140.5t141.5 55.5t142 -56t57 -140q0 -85 -57 -141t-142 -56zM102 0v1044h369v-1044h-369z" />
    <glyph glyph-name="eth" unicode="&#xf0;" horiz-adv-x="1132" 
d="M569 -25q-231 0 -381.5 144.5t-150.5 363.5q0 140 64 256.5t171.5 182t233.5 65.5q57 0 106 -14q-66 60 -145 100l-47 -61h-260l100 131q-47 8 -104 8v348q175 0 329 -63l50 63h260l-125 -162q194 -135 307 -349.5t113 -448.5q0 -136 -40 -244t-110.5 -177.5t-165 -106
t-205.5 -36.5zM563 332q63 0 105.5 42.5t42.5 106.5t-42.5 107t-105.5 43t-105 -43t-42 -107t42 -106.5t105 -42.5z" />
    <glyph glyph-name="ntilde" unicode="&#xf1;" horiz-adv-x="1222" 
d="M772 1145q-48 0 -90 13.5t-71.5 27.5t-47.5 14q-24 0 -38.5 -15.5t-14.5 -37.5h-256q0 152 67 248t195 96q47 0 88.5 -14.5t71.5 -28.5t49 -14q23 0 38 16t15 39h256q0 -155 -66.5 -249.5t-195.5 -94.5zM102 0v1044h369v-77q117 102 283 102q173 0 279 -105t106 -278
v-686h-369v561q0 69 -38.5 110.5t-102.5 41.5q-71 0 -114.5 -43t-43.5 -113v-557h-369z" />
    <glyph glyph-name="ograve" unicode="&#xf2;" horiz-adv-x="1220" 
d="M432 1135l-274 323h458l201 -323h-385zM610 -25q-160 0 -290 71.5t-203.5 197t-73.5 278.5t73.5 278.5t203.5 197t290 71.5q243 0 405.5 -157t162.5 -390t-162.5 -390t-405.5 -157zM610 332q82 0 135.5 54t53.5 136t-53.5 136.5t-135.5 54.5q-81 0 -134.5 -54.5
t-53.5 -136.5t53 -136t135 -54z" />
    <glyph glyph-name="oacute" unicode="&#xf3;" horiz-adv-x="1220" 
d="M403 1135l201 323h459l-275 -323h-385zM610 -25q-160 0 -290 71.5t-203.5 197t-73.5 278.5t73.5 278.5t203.5 197t290 71.5q243 0 405.5 -157t162.5 -390t-162.5 -390t-405.5 -157zM610 332q82 0 135.5 54t53.5 136t-53.5 136.5t-135.5 54.5q-81 0 -134.5 -54.5
t-53.5 -136.5t53 -136t135 -54z" />
    <glyph glyph-name="ocircumflex" unicode="&#xf4;" horiz-adv-x="1220" 
d="M188 1135l201 323h442l201 -323h-344l-78 122l-78 -122h-344zM610 -25q-160 0 -290 71.5t-203.5 197t-73.5 278.5t73.5 278.5t203.5 197t290 71.5q243 0 405.5 -157t162.5 -390t-162.5 -390t-405.5 -157zM610 332q82 0 135.5 54t53.5 136t-53.5 136.5t-135.5 54.5
q-81 0 -134.5 -54.5t-53.5 -136.5t53 -136t135 -54z" />
    <glyph glyph-name="otilde" unicode="&#xf5;" horiz-adv-x="1220" 
d="M737 1145q-63 0 -128 27.5t-81 27.5q-24 0 -38.5 -15.5t-14.5 -37.5h-256q0 152 67 248t195 96q47 0 88.5 -14.5t71.5 -28.5t49 -14q23 0 38 16t15 39h256q0 -155 -66.5 -249.5t-195.5 -94.5zM610 -25q-160 0 -290 71.5t-203.5 197t-73.5 278.5t73.5 278.5t203.5 197
t290 71.5q243 0 405.5 -157t162.5 -390t-162.5 -390t-405.5 -157zM610 332q82 0 135.5 54t53.5 136t-53.5 136.5t-135.5 54.5q-81 0 -134.5 -54.5t-53.5 -136.5t53 -136t135 -54z" />
    <glyph glyph-name="odieresis" unicode="&#xf6;" horiz-adv-x="1220" 
d="M842 1116q-85 0 -142 56t-57 141q0 84 57 140t142 56t141.5 -55.5t56.5 -140.5t-56.5 -141t-141.5 -56zM379 1116q-85 0 -142 56t-57 141q0 84 57 140t142 56t142 -56t57 -140q0 -85 -57 -141t-142 -56zM610 -25q-160 0 -290 71.5t-203.5 197t-73.5 278.5t73.5 278.5
t203.5 197t290 71.5q243 0 405.5 -157t162.5 -390t-162.5 -390t-405.5 -157zM610 332q82 0 135.5 54t53.5 136t-53.5 136.5t-135.5 54.5q-81 0 -134.5 -54.5t-53.5 -136.5t53 -136t135 -54z" />
    <glyph glyph-name="divide" unicode="&#xf7;" horiz-adv-x="1093" 
d="M547 815q-80 0 -134.5 53t-54.5 131t54.5 131.5t134.5 53.5q79 0 133.5 -53.5t54.5 -131.5t-54 -131t-134 -53zM106 455v303h881v-303h-881zM547 27q-80 0 -134.5 53t-54.5 131t54.5 131t134.5 53t134 -53t54 -131t-54 -131t-134 -53z" />
    <glyph glyph-name="oslash" unicode="&#xf8;" horiz-adv-x="1220" 
d="M20 0l150 170q-127 149 -127 352q0 153 73.5 278.5t203.5 197t290 71.5q157 0 291 -72l41 47h256l-149 -167q129 -148 129 -355q0 -233 -162.5 -390t-405.5 -157q-159 0 -291 74l-43 -49h-256zM422 522q0 -36 8 -57l217 244q-24 4 -37 4q-81 0 -134.5 -54.5t-53.5 -136.5
zM610 332q82 0 135.5 54t53.5 136q0 36 -8 60l-220 -246q24 -4 39 -4z" />
    <glyph glyph-name="ugrave" unicode="&#xf9;" horiz-adv-x="1198" 
d="M412 1135l-275 323h459l201 -323h-385zM457 -25q-168 0 -270.5 105t-102.5 278v686h369v-573q0 -63 35.5 -101t93.5 -38q65 0 105 39.5t40 103.5v569h369v-1044h-369v78q-112 -103 -270 -103z" />
    <glyph glyph-name="uacute" unicode="&#xfa;" horiz-adv-x="1198" 
d="M383 1135l201 323h458l-274 -323h-385zM457 -25q-168 0 -270.5 105t-102.5 278v686h369v-573q0 -63 35.5 -101t93.5 -38q65 0 105 39.5t40 103.5v569h369v-1044h-369v78q-112 -103 -270 -103z" />
    <glyph glyph-name="ucircumflex" unicode="&#xfb;" horiz-adv-x="1198" 
d="M168 1135l201 323h442l201 -323h-344l-78 122l-78 -122h-344zM457 -25q-168 0 -270.5 105t-102.5 278v686h369v-573q0 -63 35.5 -101t93.5 -38q65 0 105 39.5t40 103.5v569h369v-1044h-369v78q-112 -103 -270 -103z" />
    <glyph glyph-name="udieresis" unicode="&#xfc;" horiz-adv-x="1198" 
d="M821 1116q-85 0 -141.5 56t-56.5 141t56.5 140.5t141.5 55.5t142 -56t57 -140q0 -85 -57 -141t-142 -56zM358 1116q-85 0 -141.5 56t-56.5 141t56.5 140.5t141.5 55.5t142 -56t57 -140q0 -85 -57 -141t-142 -56zM457 -25q-168 0 -270.5 105t-102.5 278v686h369v-573
q0 -63 35.5 -101t93.5 -38q65 0 105 39.5t40 103.5v569h369v-1044h-369v78q-112 -103 -270 -103z" />
    <glyph glyph-name="yacute" unicode="&#xfd;" horiz-adv-x="1167" 
d="M377 1135l201 323h458l-274 -323h-385zM225 -389l162 407l-397 1026h420l178 -552l178 552h412l-557 -1433h-396z" />
    <glyph glyph-name="thorn" unicode="&#xfe;" horiz-adv-x="1280" 
d="M106 -389v1864h369v-496q114 90 262 90q139 0 252.5 -71.5t177.5 -197t64 -278.5t-64 -278.5t-177.5 -197t-252.5 -71.5q-147 0 -262 91v-455h-369zM664 332q82 0 135 54t53 136t-53.5 136.5t-134.5 54.5q-82 0 -135.5 -54.5t-53.5 -136.5t53.5 -136t135.5 -54z" />
    <glyph glyph-name="ydieresis" unicode="&#xff;" horiz-adv-x="1167" 
d="M815 1116q-85 0 -142 56t-57 141q0 84 57 140t142 56t142 -56t57 -140q0 -85 -57 -141t-142 -56zM352 1116q-85 0 -141.5 56t-56.5 141t56.5 140.5t141.5 55.5t142 -56t57 -140q0 -85 -57 -141t-142 -56zM225 -389l162 407l-397 1026h420l178 -552l178 552h412
l-557 -1433h-396z" />
    <glyph glyph-name="Amacron" unicode="&#x100;" horiz-adv-x="1435" 
d="M416 1516v307h602v-307h-602zM-20 0l507 1413h461l508 -1413h-428l-63 195h-502l-64 -195h-419zM578 555h272l-135 424z" />
    <glyph glyph-name="amacron" unicode="&#x101;" horiz-adv-x="1275" 
d="M348 1147v307h602v-307h-602zM543 -25q-139 0 -252.5 71.5t-177.5 197t-64 278.5t64 278.5t177.5 197t252.5 71.5q148 0 262 -90v65h369v-1044h-369v66q-115 -91 -262 -91zM616 332q82 0 135.5 54t53.5 136t-53.5 136.5t-135.5 54.5q-81 0 -134.5 -54.5t-53.5 -136.5
t53 -136t135 -54z" />
    <glyph glyph-name="Abreve" unicode="&#x102;" horiz-adv-x="1435" 
d="M717 1483q-158 0 -263.5 99.5t-105.5 248.5h283q0 -38 24.5 -63t61.5 -25t61.5 25t24.5 63h282q0 -149 -105 -248.5t-263 -99.5zM-20 0l507 1413h461l508 -1413h-428l-63 195h-502l-64 -195h-419zM578 555h272l-135 424z" />
    <glyph glyph-name="abreve" unicode="&#x103;" horiz-adv-x="1275" 
d="M649 1114q-158 0 -263 99.5t-105 248.5h282q0 -38 24.5 -63t61.5 -25t61.5 25t24.5 63h283q0 -149 -105.5 -248.5t-263.5 -99.5zM543 -25q-139 0 -252.5 71.5t-177.5 197t-64 278.5t64 278.5t177.5 197t252.5 71.5q148 0 262 -90v65h369v-1044h-369v66q-115 -91 -262 -91
zM616 332q82 0 135.5 54t53.5 136t-53.5 136.5t-135.5 54.5q-81 0 -134.5 -54.5t-53.5 -136.5t53 -136t135 -54z" />
    <glyph glyph-name="Aogonek" unicode="&#x104;" horiz-adv-x="1435" 
d="M-20 0l507 1413h461l508 -1413h-2q-215 -91 -215 -190q0 -37 25.5 -55.5t58.5 -18.5q31 0 68 13.5t63 35.5v-256q-34 -23 -94 -39t-117 -16q-126 0 -209.5 72t-83.5 180q0 88 57 162.5t148 111.5h-127l-63 195h-502l-64 -195h-419zM578 555h272l-135 424z" />
    <glyph glyph-name="aogonek" unicode="&#x105;" horiz-adv-x="1275" 
d="M543 -25q-139 0 -252.5 71.5t-177.5 197t-64 278.5t64 278.5t177.5 197t252.5 71.5q148 0 262 -90v65h369v-1044h-3q-215 -91 -215 -190q0 -37 25.5 -55.5t58.5 -18.5q31 0 68 13.5t63 35.5v-256q-34 -23 -93.5 -39t-116.5 -16q-126 0 -209.5 72t-83.5 180
q0 88 56.5 162.5t147.5 111.5h-67v66q-115 -91 -262 -91zM616 332q82 0 135.5 54t53.5 136t-53.5 136.5t-135.5 54.5q-81 0 -134.5 -54.5t-53.5 -136.5t53 -136t135 -54z" />
    <glyph glyph-name="Cacute" unicode="&#x106;" horiz-adv-x="1572" 
d="M596 1503l201 324h458l-274 -324h-385zM803 -25q-158 0 -297.5 56.5t-239.5 153.5t-157.5 232.5t-57.5 289.5q0 205 98 372.5t270.5 263t383.5 95.5q186 0 343 -75.5t258 -209t128 -303.5h-416q-32 96 -117.5 153.5t-195.5 57.5q-150 0 -250 -101t-100 -253t100.5 -253.5
t249.5 -101.5q110 0 195.5 57.5t117.5 153.5h416q-27 -170 -128 -303.5t-258 -209t-343 -75.5z" />
    <glyph glyph-name="cacute" unicode="&#x107;" horiz-adv-x="1200" 
d="M403 1135l201 323h459l-275 -323h-385zM610 -25q-160 0 -290 71.5t-203.5 197t-73.5 278.5t73.5 278.5t203.5 197t290 71.5q143 0 263.5 -58.5t195.5 -162t90 -234.5h-391q-17 45 -60 72t-98 27q-81 0 -134.5 -54.5t-53.5 -136.5t53 -136t135 -54q55 0 98 26.5t60 71.5
h391q-15 -131 -90 -234.5t-195.5 -162t-263.5 -58.5z" />
    <glyph glyph-name="Ccircumflex" unicode="&#x108;" horiz-adv-x="1572" 
d="M381 1503l201 324h442l201 -324h-344l-78 123l-78 -123h-344zM803 -25q-158 0 -297.5 56.5t-239.5 153.5t-157.5 232.5t-57.5 289.5q0 205 98 372.5t270.5 263t383.5 95.5q186 0 343 -75.5t258 -209t128 -303.5h-416q-32 96 -117.5 153.5t-195.5 57.5q-150 0 -250 -101
t-100 -253t100.5 -253.5t249.5 -101.5q110 0 195.5 57.5t117.5 153.5h416q-27 -170 -128 -303.5t-258 -209t-343 -75.5z" />
    <glyph glyph-name="ccircumflex" unicode="&#x109;" horiz-adv-x="1200" 
d="M188 1135l201 323h442l201 -323h-344l-78 122l-78 -122h-344zM610 -25q-160 0 -290 71.5t-203.5 197t-73.5 278.5t73.5 278.5t203.5 197t290 71.5q143 0 263.5 -58.5t195.5 -162t90 -234.5h-391q-17 45 -60 72t-98 27q-81 0 -134.5 -54.5t-53.5 -136.5t53 -136t135 -54
q55 0 98 26.5t60 71.5h391q-15 -131 -90 -234.5t-195.5 -162t-263.5 -58.5z" />
    <glyph glyph-name="Cdotaccent" unicode="&#x10a;" horiz-adv-x="1572" 
d="M803 1485q-89 0 -149 59t-60 148t59.5 147.5t149.5 58.5t149.5 -58.5t59.5 -147.5t-60 -148t-149 -59zM803 -25q-158 0 -297.5 56.5t-239.5 153.5t-157.5 232.5t-57.5 289.5q0 205 98 372.5t270.5 263t383.5 95.5q186 0 343 -75.5t258 -209t128 -303.5h-416
q-32 96 -117.5 153.5t-195.5 57.5q-150 0 -250 -101t-100 -253t100.5 -253.5t249.5 -101.5q110 0 195.5 57.5t117.5 153.5h416q-27 -170 -128 -303.5t-258 -209t-343 -75.5z" />
    <glyph glyph-name="cdotaccent" unicode="&#x10b;" horiz-adv-x="1200" 
d="M610 1116q-89 0 -149 59t-60 148t60 148t149 59t149 -59t60 -148t-60 -148t-149 -59zM610 -25q-160 0 -290 71.5t-203.5 197t-73.5 278.5t73.5 278.5t203.5 197t290 71.5q143 0 263.5 -58.5t195.5 -162t90 -234.5h-391q-17 45 -60 72t-98 27q-81 0 -134.5 -54.5
t-53.5 -136.5t53 -136t135 -54q55 0 98 26.5t60 71.5h391q-15 -131 -90 -234.5t-195.5 -162t-263.5 -58.5z" />
    <glyph glyph-name="Ccaron" unicode="&#x10c;" horiz-adv-x="1572" 
d="M582 1503l-201 324h344l78 -123l78 123h344l-201 -324h-442zM803 -25q-158 0 -297.5 56.5t-239.5 153.5t-157.5 232.5t-57.5 289.5q0 205 98 372.5t270.5 263t383.5 95.5q186 0 343 -75.5t258 -209t128 -303.5h-416q-32 96 -117.5 153.5t-195.5 57.5q-150 0 -250 -101
t-100 -253t100.5 -253.5t249.5 -101.5q110 0 195.5 57.5t117.5 153.5h416q-27 -170 -128 -303.5t-258 -209t-343 -75.5z" />
    <glyph glyph-name="ccaron" unicode="&#x10d;" horiz-adv-x="1200" 
d="M389 1135l-201 323h344l78 -123l78 123h344l-201 -323h-442zM610 -25q-160 0 -290 71.5t-203.5 197t-73.5 278.5t73.5 278.5t203.5 197t290 71.5q143 0 263.5 -58.5t195.5 -162t90 -234.5h-391q-17 45 -60 72t-98 27q-81 0 -134.5 -54.5t-53.5 -136.5t53 -136t135 -54
q55 0 98 26.5t60 71.5h391q-15 -131 -90 -234.5t-195.5 -162t-263.5 -58.5z" />
    <glyph glyph-name="Dcaron" unicode="&#x10e;" horiz-adv-x="1458" 
d="M494 1503l-201 324h344l78 -123l78 123h344l-201 -324h-442zM117 0v1413h563q205 0 371.5 -92t261 -253.5t94.5 -360.5t-94.5 -361t-261 -254t-371.5 -92h-563zM672 1044h-164v-675h164q143 0 238.5 96.5t95.5 241.5t-95.5 241t-238.5 96z" />
    <glyph glyph-name="dcaron" unicode="&#x10f;" horiz-adv-x="1626" 
d="M1278 907v205q56 6 90 33q-53 22 -84 69t-31 105q0 78 55.5 129t143.5 51q85 0 142 -54t57 -165q0 -108 -54.5 -193.5t-138.5 -130.5t-180 -49zM543 -25q-139 0 -252.5 71.5t-177.5 197t-64 278.5t64 278.5t177.5 197t252.5 71.5q148 0 262 -90v496h369v-1475h-369v66
q-115 -91 -262 -91zM616 332q82 0 135.5 54t53.5 136t-53.5 136.5t-135.5 54.5q-81 0 -134.5 -54.5t-53.5 -136.5t53 -136t135 -54z" />
    <glyph glyph-name="Dcroat" unicode="&#x110;" horiz-adv-x="1458" 
d="M117 0v575h-117v263h117v575h563q205 0 371.5 -92t261 -253.5t94.5 -360.5t-94.5 -361t-261 -254t-371.5 -92h-563zM664 575h-156v-206h164q143 0 238.5 96.5t95.5 241.5t-95.5 241t-238.5 96h-164v-206h156v-263z" />
    <glyph glyph-name="dcroat" unicode="&#x111;" horiz-adv-x="1280" 
d="M543 -25q-139 0 -252.5 71.5t-177.5 197t-64 278.5t64 278.5t177.5 197t252.5 71.5q148 0 262 -90v135h-189v262h189v99h369v-99h106v-262h-106v-1114h-369v66q-115 -91 -262 -91zM616 332q82 0 135.5 54t53.5 136t-53.5 136.5t-135.5 54.5q-81 0 -134.5 -54.5
t-53.5 -136.5t53 -136t135 -54z" />
    <glyph glyph-name="Emacron" unicode="&#x112;" horiz-adv-x="1140" 
d="M313 1516v307h602v-307h-602zM117 0v1413h956v-369h-565v-149h500v-369h-500v-157h575v-369h-966z" />
    <glyph glyph-name="emacron" unicode="&#x113;" horiz-adv-x="1218" 
d="M309 1147v307h602v-307h-602zM610 -25q-160 0 -290 71.5t-203.5 197t-73.5 278.5t73.5 278.5t203.5 197t290 71.5t290 -71t204 -199t74 -287q0 -54 -9 -94h-731q22 -65 71 -101t116 -36q96 0 153 61h387q-56 -165 -207 -266t-348 -101zM610 764q-61 0 -106.5 -36
t-65.5 -99h348q-20 64 -66 99.5t-110 35.5z" />
    <glyph glyph-name="Ebreve" unicode="&#x114;" horiz-adv-x="1140" 
d="M614 1483q-158 0 -263 99.5t-105 248.5h282q0 -38 24.5 -63t61.5 -25t61.5 25t24.5 63h283q0 -149 -105.5 -248.5t-263.5 -99.5zM117 0v1413h956v-369h-565v-149h500v-369h-500v-157h575v-369h-966z" />
    <glyph glyph-name="ebreve" unicode="&#x115;" horiz-adv-x="1218" 
d="M610 1114q-158 0 -263 99.5t-105 248.5h282q0 -38 24.5 -63t61.5 -25t61.5 25t24.5 63h283q0 -149 -105.5 -248.5t-263.5 -99.5zM610 -25q-160 0 -290 71.5t-203.5 197t-73.5 278.5t73.5 278.5t203.5 197t290 71.5t290 -71t204 -199t74 -287q0 -54 -9 -94h-731
q22 -65 71 -101t116 -36q96 0 153 61h387q-56 -165 -207 -266t-348 -101zM610 764q-61 0 -106.5 -36t-65.5 -99h348q-20 64 -66 99.5t-110 35.5z" />
    <glyph glyph-name="Edotaccent" unicode="&#x116;" horiz-adv-x="1140" 
d="M614 1485q-89 0 -148.5 59t-59.5 148t59.5 147.5t148.5 58.5q90 0 149.5 -58.5t59.5 -147.5t-60 -148t-149 -59zM117 0v1413h956v-369h-565v-149h500v-369h-500v-157h575v-369h-966z" />
    <glyph glyph-name="edotaccent" unicode="&#x117;" horiz-adv-x="1218" 
d="M610 1116q-89 0 -149 59t-60 148t60 148t149 59t149 -59t60 -148t-60 -148t-149 -59zM610 -25q-160 0 -290 71.5t-203.5 197t-73.5 278.5t73.5 278.5t203.5 197t290 71.5t290 -71t204 -199t74 -287q0 -54 -9 -94h-731q22 -65 71 -101t116 -36q96 0 153 61h387
q-56 -165 -207 -266t-348 -101zM610 764q-61 0 -106.5 -36t-65.5 -99h348q-20 64 -66 99.5t-110 35.5z" />
    <glyph glyph-name="Eogonek" unicode="&#x118;" horiz-adv-x="1140" 
d="M117 0v1413h956v-369h-565v-149h500v-369h-500v-157h575v-369h-4q-215 -91 -215 -190q0 -37 25.5 -55.5t58.5 -18.5q31 0 68 13.5t63 35.5v-256q-34 -23 -94 -39t-117 -16q-126 0 -209.5 72t-83.5 180q0 88 57 162.5t148 111.5h-663z" />
    <glyph glyph-name="eogonek" unicode="&#x119;" horiz-adv-x="1218" 
d="M733 -528q-130 0 -216.5 77.5t-86.5 194.5q0 136 100 236q-214 28 -350.5 178.5t-136.5 363.5q0 153 73.5 278.5t203.5 197t290 71.5t290 -71t204 -199t74 -287q0 -54 -9 -94h-731q22 -65 71 -101t116 -36q96 0 153 61h387q-35 -104 -111 -185t-182 -128
q-143 -98 -143 -205q0 -42 26 -66t66 -24q29 0 63.5 13.5t59.5 35.5v-256q-34 -23 -94 -39t-117 -16zM610 764q-61 0 -106.5 -36t-65.5 -99h348q-20 64 -66 99.5t-110 35.5z" />
    <glyph glyph-name="Ecaron" unicode="&#x11a;" horiz-adv-x="1140" 
d="M393 1503l-200 324h344l77 -123l78 123h344l-200 -324h-443zM117 0v1413h956v-369h-565v-149h500v-369h-500v-157h575v-369h-966z" />
    <glyph glyph-name="ecaron" unicode="&#x11b;" horiz-adv-x="1218" 
d="M389 1135l-201 323h344l78 -123l78 123h344l-201 -323h-442zM610 -25q-160 0 -290 71.5t-203.5 197t-73.5 278.5t73.5 278.5t203.5 197t290 71.5t290 -71t204 -199t74 -287q0 -54 -9 -94h-731q22 -65 71 -101t116 -36q96 0 153 61h387q-56 -165 -207 -266t-348 -101z
M610 764q-61 0 -106.5 -36t-65.5 -99h348q-20 64 -66 99.5t-110 35.5z" />
    <glyph glyph-name="Gcircumflex" unicode="&#x11c;" horiz-adv-x="1585" 
d="M381 1503l201 324h442l201 -324h-344l-78 123l-78 -123h-344zM803 -25q-158 0 -297.5 56.5t-239.5 153.5t-157.5 232.5t-57.5 289.5q0 205 98 372.5t270.5 263t383.5 95.5q259 0 455.5 -139.5t246.5 -354.5h-436q-96 117 -266 117q-150 0 -250 -101t-100 -253
t100.5 -253.5t249.5 -101.5q90 0 164.5 36.5t117.5 98.5h-243v355h692v-135q0 -206 -93 -373t-261 -263t-377 -96z" />
    <glyph glyph-name="gcircumflex" unicode="&#x11d;" horiz-adv-x="1271" 
d="M227 1135l201 323h442l201 -323h-344l-78 122l-78 -122h-344zM543 33q-212 0 -353 148t-141 370t141 370t353 148q149 0 262 -86v61h369v-931q0 -238 -148.5 -382.5t-392.5 -144.5q-209 0 -356 105.5t-177 283.5h379q22 -35 64.5 -56t93.5 -21q79 0 123.5 51.5
t44.5 144.5v25q-113 -86 -262 -86zM616 367q81 0 135 53t54 131t-54 131t-135 53t-134.5 -53t-53.5 -131t53.5 -131t134.5 -53z" />
    <glyph glyph-name="Gbreve" unicode="&#x11e;" horiz-adv-x="1585" 
d="M803 1483q-158 0 -263.5 99.5t-105.5 248.5h283q0 -38 24.5 -63t61.5 -25t61.5 25t24.5 63h282q0 -149 -105 -248.5t-263 -99.5zM803 -25q-158 0 -297.5 56.5t-239.5 153.5t-157.5 232.5t-57.5 289.5q0 205 98 372.5t270.5 263t383.5 95.5q259 0 455.5 -139.5
t246.5 -354.5h-436q-96 117 -266 117q-150 0 -250 -101t-100 -253t100.5 -253.5t249.5 -101.5q90 0 164.5 36.5t117.5 98.5h-243v355h692v-135q0 -206 -93 -373t-261 -263t-377 -96z" />
    <glyph glyph-name="gbreve" unicode="&#x11f;" horiz-adv-x="1271" 
d="M649 1114q-158 0 -263 99.5t-105 248.5h282q0 -38 24.5 -63t61.5 -25t61.5 25t24.5 63h283q0 -149 -105.5 -248.5t-263.5 -99.5zM543 33q-212 0 -353 148t-141 370t141 370t353 148q149 0 262 -86v61h369v-931q0 -238 -148.5 -382.5t-392.5 -144.5q-209 0 -356 105.5
t-177 283.5h379q22 -35 64.5 -56t93.5 -21q79 0 123.5 51.5t44.5 144.5v25q-113 -86 -262 -86zM616 367q81 0 135 53t54 131t-54 131t-135 53t-134.5 -53t-53.5 -131t53.5 -131t134.5 -53z" />
    <glyph glyph-name="Gdotaccent" unicode="&#x120;" horiz-adv-x="1585" 
d="M803 1485q-89 0 -149 59t-60 148t59.5 147.5t149.5 58.5t149.5 -58.5t59.5 -147.5t-60 -148t-149 -59zM803 -25q-158 0 -297.5 56.5t-239.5 153.5t-157.5 232.5t-57.5 289.5q0 205 98 372.5t270.5 263t383.5 95.5q259 0 455.5 -139.5t246.5 -354.5h-436q-96 117 -266 117
q-150 0 -250 -101t-100 -253t100.5 -253.5t249.5 -101.5q90 0 164.5 36.5t117.5 98.5h-243v355h692v-135q0 -206 -93 -373t-261 -263t-377 -96z" />
    <glyph glyph-name="gdotaccent" unicode="&#x121;" horiz-adv-x="1271" 
d="M649 1116q-89 0 -149 59t-60 148t60 148t149 59t149 -59t60 -148t-60 -148t-149 -59zM543 33q-212 0 -353 148t-141 370t141 370t353 148q149 0 262 -86v61h369v-931q0 -238 -148.5 -382.5t-392.5 -144.5q-209 0 -356 105.5t-177 283.5h379q22 -35 64.5 -56t93.5 -21
q79 0 123.5 51.5t44.5 144.5v25q-113 -86 -262 -86zM616 367q81 0 135 53t54 131t-54 131t-135 53t-134.5 -53t-53.5 -131t53.5 -131t134.5 -53z" />
    <glyph glyph-name="uni0122" unicode="&#x122;" horiz-adv-x="1585" 
d="M803 -25q-158 0 -297.5 56.5t-239.5 153.5t-157.5 232.5t-57.5 289.5q0 205 98 372.5t270.5 263t383.5 95.5q259 0 455.5 -139.5t246.5 -354.5h-436q-96 117 -266 117q-150 0 -250 -101t-100 -253t100.5 -253.5t249.5 -101.5q90 0 164.5 36.5t117.5 98.5h-243v355h692
v-135q0 -206 -93 -373t-261 -263t-377 -96zM629 -664v205q55 6 90 33q-53 22 -84 69t-31 105q0 78 55.5 129t143.5 51q84 0 141 -54t57 -165q0 -161 -111.5 -264t-260.5 -109z" />
    <glyph glyph-name="uni0123" unicode="&#x123;" horiz-adv-x="1271" 
d="M649 1114q-84 0 -141 54t-57 165q0 161 111.5 264t260.5 109v-205q-55 -6 -90 -33q53 -22 84 -69t31 -105q0 -78 -55.5 -129t-143.5 -51zM543 33q-212 0 -353 148t-141 370t141 370t353 148q149 0 262 -86v61h369v-931q0 -238 -148.5 -382.5t-392.5 -144.5
q-209 0 -356 105.5t-177 283.5h379q22 -35 64.5 -56t93.5 -21q79 0 123.5 51.5t44.5 144.5v25q-113 -86 -262 -86zM616 367q81 0 135 53t54 131t-54 131t-135 53t-134.5 -53t-53.5 -131t53.5 -131t134.5 -53z" />
    <glyph glyph-name="Hcircumflex" unicode="&#x124;" horiz-adv-x="1458" 
d="M309 1503l201 324h442l201 -324h-344l-78 123l-78 -123h-344zM117 0v1413h391v-518h442v518h391v-1413h-391v526h-442v-526h-391z" />
    <glyph glyph-name="hcircumflex" unicode="&#x125;" horiz-adv-x="1226" 
d="M-131 1544l201 324h442l201 -324h-344l-78 123l-78 -123h-344zM106 0v1475h369v-517q117 111 283 111q173 0 279 -105t106 -278v-686h-369v561q0 69 -38.5 110.5t-102.5 41.5q-71 0 -114.5 -43t-43.5 -113v-557h-369z" />
    <glyph glyph-name="Hbar" unicode="&#x126;" horiz-adv-x="1458" 
d="M117 0v991h-109v266h109v156h391v-156h442v156h391v-156h109v-266h-109v-991h-391v526h-442v-526h-391zM508 895h442v96h-442v-96z" />
    <glyph glyph-name="hbar" unicode="&#x127;" horiz-adv-x="1226" 
d="M106 0v1114h-106v262h106v99h369v-99h189v-262h-189v-156q117 111 283 111q173 0 279 -105t106 -278v-686h-369v561q0 69 -38.5 110.5t-102.5 41.5q-71 0 -114.5 -43t-43.5 -113v-557h-369z" />
    <glyph glyph-name="Itilde" unicode="&#x128;" horiz-adv-x="624" 
d="M440 1513q-48 0 -90 14t-71.5 28t-47.5 14q-24 0 -38.5 -15.5t-14.5 -37.5h-256q0 152 67 248t195 96q47 0 88.5 -14.5t71.5 -29t49 -14.5q23 0 38 16t15 40h256q0 -155 -66.5 -250t-195.5 -95zM117 0v1413h391v-1413h-391z" />
    <glyph glyph-name="itilde" unicode="&#x129;" horiz-adv-x="573" 
d="M414 1145q-48 0 -90 13.5t-71.5 27.5t-47.5 14q-24 0 -38.5 -15.5t-14.5 -37.5h-256q0 152 67 248t195 96q47 0 88.5 -14.5t71.5 -28.5t49 -14q23 0 38 16t15 39h256q0 -155 -66.5 -249.5t-195.5 -94.5zM102 0v1044h369v-1044h-369z" />
    <glyph glyph-name="Imacron" unicode="&#x12a;" horiz-adv-x="624" 
d="M12 1516v307h602v-307h-602zM117 0v1413h391v-1413h-391z" />
    <glyph glyph-name="imacron" unicode="&#x12b;" horiz-adv-x="573" 
d="M-14 1147v307h602v-307h-602zM102 0v1044h369v-1044h-369z" />
    <glyph glyph-name="Ibreve" unicode="&#x12c;" horiz-adv-x="624" 
d="M313 1483q-158 0 -263 99.5t-105 248.5h282q0 -38 24.5 -63t61.5 -25t61.5 25t24.5 63h283q0 -149 -105.5 -248.5t-263.5 -99.5zM117 0v1413h391v-1413h-391z" />
    <glyph glyph-name="ibreve" unicode="&#x12d;" horiz-adv-x="573" 
d="M287 1114q-158 0 -263.5 99.5t-105.5 248.5h283q0 -38 24.5 -63t61.5 -25t61.5 25t24.5 63h282q0 -149 -105 -248.5t-263 -99.5zM102 0v1044h369v-1044h-369z" />
    <glyph glyph-name="Iogonek" unicode="&#x12e;" horiz-adv-x="624" 
d="M117 0v1413h391v-1413h-2q-215 -91 -215 -190q0 -37 25.5 -55.5t58.5 -18.5q31 0 68 13.5t63 35.5v-256q-34 -23 -94 -39t-117 -16q-126 0 -209.5 72t-83.5 180q0 88 57 162.5t148 111.5h-90z" />
    <glyph glyph-name="iogonek" unicode="&#x12f;" horiz-adv-x="573" 
d="M287 1116q-89 0 -149 59t-60 148t60 148t149 59t149 -59t60 -148t-60 -148t-149 -59zM102 0v1044h369v-1044h-2q-215 -91 -215 -190q0 -37 25.5 -55.5t58.5 -18.5q31 0 68 13.5t63 35.5v-256q-34 -23 -94 -39t-117 -16q-126 0 -209.5 72t-83.5 180q0 88 57 162.5
t148 111.5h-68z" />
    <glyph glyph-name="Idotaccent" unicode="&#x130;" horiz-adv-x="624" 
d="M313 1485q-89 0 -149 59t-60 148t59.5 147.5t149.5 58.5t149.5 -58.5t59.5 -147.5t-60 -148t-149 -59zM117 0v1413h391v-1413h-391z" />
    <glyph glyph-name="dotlessi" unicode="&#x131;" horiz-adv-x="573" 
d="M102 0v1044h369v-1044h-369z" />
    <glyph glyph-name="IJ" unicode="&#x132;" horiz-adv-x="1753" 
d="M117 0v1413h391v-1413h-391zM1141 -25q-223 0 -369.5 145.5t-146.5 371.5h401q0 -65 33 -102.5t86 -37.5q52 0 86.5 34t34.5 85v942h391v-942q0 -212 -147.5 -354t-368.5 -142z" />
    <glyph glyph-name="ij" unicode="&#x133;" horiz-adv-x="1163" 
d="M291 1135q-95 0 -159 63t-64 158t64 158t159 63t159 -63t64 -158t-64 -158t-159 -63zM877 1135q-96 0 -160 63t-64 158t64 158t160 63q95 0 159 -63t64 -158t-64 -158t-159 -63zM106 0v1044h369v-1044h-369zM516 -414v357h45q131 0 131 125v976h369v-1017
q0 -226 -116.5 -333.5t-369.5 -107.5h-59z" />
    <glyph glyph-name="Jcircumflex" unicode="&#x134;" horiz-adv-x="1128" 
d="M414 1503l200 324h443l200 -324h-344l-77 123l-78 -123h-344zM516 -25q-223 0 -369.5 145.5t-146.5 371.5h401q0 -65 33 -102.5t86 -37.5q52 0 86.5 34t34.5 85v942h391v-942q0 -212 -147.5 -354t-368.5 -142z" />
    <glyph glyph-name="jcircumflex" unicode="&#x135;" horiz-adv-x="581" 
d="M-127 1135l201 323h442l201 -323h-344l-78 122l-78 -122h-344zM-66 -414v357h46q131 0 131 125v976h368v-1017q0 -226 -116 -333.5t-369 -107.5h-60z" />
    <glyph glyph-name="uni0136" unicode="&#x136;" horiz-adv-x="1331" 
d="M117 0v1413h391v-528l375 528h477l-514 -668l528 -745h-485l-293 440l-88 -100v-340h-391zM565 -664v205q55 6 90 33q-53 22 -83.5 69t-30.5 105q0 78 55 129t143 51q85 0 142 -54t57 -165q0 -108 -54.5 -193.5t-138.5 -130.5t-180 -49z" />
    <glyph glyph-name="uni0137" unicode="&#x137;" horiz-adv-x="1175" 
d="M106 0v1475h369v-746l266 315h465l-418 -458l433 -586h-471l-215 309l-60 -65v-244h-369zM471 -664v205q55 6 90 33q-53 22 -84 69t-31 105q0 78 55.5 129t143.5 51q85 0 142 -54t57 -165q0 -108 -54.5 -193.5t-138.5 -130.5t-180 -49z" />
    <glyph glyph-name="Lacute" unicode="&#x139;" horiz-adv-x="1056" 
d="M106 1503l201 324h459l-274 -324h-386zM117 0v1413h391v-1044h514v-369h-905z" />
    <glyph glyph-name="lacute" unicode="&#x13a;" horiz-adv-x="581" 
d="M84 1544l201 324h458l-274 -324h-385zM106 0v1475h369v-1475h-369z" />
    <glyph glyph-name="uni013B" unicode="&#x13b;" horiz-adv-x="1056" 
d="M117 0v1413h391v-1044h514v-369h-905zM408 -664v205q56 6 90 33q-53 22 -84 69t-31 105q0 78 55.5 129t143.5 51q84 0 141 -54t57 -165q0 -161 -111.5 -264t-260.5 -109z" />
    <glyph glyph-name="uni013C" unicode="&#x13c;" horiz-adv-x="581" 
d="M106 0v1475h369v-1475h-369zM117 -664v205q55 6 90 33q-53 22 -84 69t-31 105q0 78 55.5 129t143.5 51q84 0 141 -54t57 -165q0 -161 -111.5 -264t-260.5 -109z" />
    <glyph glyph-name="Lcaron" unicode="&#x13d;" horiz-adv-x="1056" 
d="M633 846v205q57 6 90 32q-53 22 -84 69t-31 105q0 78 55.5 129.5t143.5 51.5q85 0 142 -54t57 -165q0 -108 -54.5 -193.5t-138.5 -130.5t-180 -49zM117 0v1413h391v-1044h514v-369h-905z" />
    <glyph glyph-name="lcaron" unicode="&#x13e;" horiz-adv-x="927" 
d="M580 907v205q56 6 90 33q-53 22 -84 69t-31 105q0 78 55.5 129t143.5 51q84 0 141 -54t57 -165q0 -161 -111.5 -264t-260.5 -109zM106 0v1475h369v-1475h-369z" />
    <glyph glyph-name="Ldot" unicode="&#x13f;" horiz-adv-x="1056" 
d="M117 0v1413h391v-1044h514v-369h-905zM799 528q-94 0 -156.5 63t-62.5 157t62.5 156.5t156.5 62.5t156.5 -62.5t62.5 -156.5t-62.5 -157t-156.5 -63z" />
    <glyph glyph-name="ldot" unicode="&#x140;" horiz-adv-x="987" 
d="M106 0v1475h369v-1475h-369zM764 518q-94 0 -156.5 62.5t-62.5 156.5t62.5 156.5t156.5 62.5t156.5 -62.5t62.5 -156.5t-62.5 -156.5t-156.5 -62.5z" />
    <glyph glyph-name="Lslash" unicode="&#x141;" horiz-adv-x="1056" 
d="M117 0v422l-107 -55v352l107 55v639h391v-440l190 98v-352l-190 -98v-252h514v-369h-905z" />
    <glyph glyph-name="lslash" unicode="&#x142;" horiz-adv-x="598" 
d="M115 0v498l-90 -52v291l90 51v687h368v-476l90 52v-291l-90 -51v-709h-368z" />
    <glyph glyph-name="Nacute" unicode="&#x143;" horiz-adv-x="1482" 
d="M545 1503l200 324h459l-274 -324h-385zM117 0v1413h391l467 -723v723h391v-1413h-391l-467 723v-723h-391z" />
    <glyph glyph-name="nacute" unicode="&#x144;" horiz-adv-x="1222" 
d="M438 1135l201 323h459l-275 -323h-385zM102 0v1044h369v-77q117 102 283 102q173 0 279 -105t106 -278v-686h-369v561q0 69 -38.5 110.5t-102.5 41.5q-71 0 -114.5 -43t-43.5 -113v-557h-369z" />
    <glyph glyph-name="uni0145" unicode="&#x145;" horiz-adv-x="1482" 
d="M117 0v1413h391l467 -723v723h391v-1413h-391l-467 723v-723h-391zM567 -664v205q55 6 90 33q-53 22 -83.5 69t-30.5 105q0 78 55 129t143 51q85 0 142 -54t57 -165q0 -108 -54.5 -193.5t-138.5 -130.5t-180 -49z" />
    <glyph glyph-name="uni0146" unicode="&#x146;" horiz-adv-x="1222" 
d="M102 0v1044h369v-77q117 102 283 102q173 0 279 -105t106 -278v-686h-369v561q0 69 -38.5 110.5t-102.5 41.5q-71 0 -114.5 -43t-43.5 -113v-557h-369zM446 -664v205q57 6 91 33q-53 22 -84 69t-31 105q0 78 55.5 129t143.5 51q84 0 141 -54t57 -165q0 -108 -54.5 -193.5
t-138.5 -130.5t-180 -49z" />
    <glyph glyph-name="Ncaron" unicode="&#x147;" horiz-adv-x="1482" 
d="M530 1503l-200 324h344l78 -123l77 123h345l-201 -324h-443zM117 0v1413h391l467 -723v723h391v-1413h-391l-467 723v-723h-391z" />
    <glyph glyph-name="ncaron" unicode="&#x148;" horiz-adv-x="1222" 
d="M424 1135l-201 323h344l78 -123l78 123h344l-201 -323h-442zM102 0v1044h369v-77q117 102 283 102q173 0 279 -105t106 -278v-686h-369v561q0 69 -38.5 110.5t-102.5 41.5q-71 0 -114.5 -43t-43.5 -113v-557h-369z" />
    <glyph glyph-name="Eng" unicode="&#x14a;" horiz-adv-x="1482" 
d="M887 -434v356q42 0 65 18t23 52v8l-467 723v-723h-391v1413h391l467 -723v723h391v-1433q0 -414 -479 -414z" />
    <glyph glyph-name="eng" unicode="&#x14b;" horiz-adv-x="1222" 
d="M102 0v1044h369v-77q117 102 283 102q173 0 279 -105t106 -278v-706q0 -414 -467 -414v356q98 0 98 70v569q0 69 -38.5 110.5t-102.5 41.5q-71 0 -114.5 -43t-43.5 -113v-557h-369z" />
    <glyph glyph-name="Omacron" unicode="&#x14c;" horiz-adv-x="1605" 
d="M502 1516v307h602v-307h-602zM803 -25q-158 0 -297.5 56.5t-239.5 153.5t-157.5 232.5t-57.5 289.5q0 205 98 372.5t270.5 263t383.5 95.5t383 -95.5t270 -263t98 -372.5t-98 -373t-270 -263.5t-383 -95.5zM803 352q149 0 249.5 101.5t100.5 253.5t-100 253t-250 101
t-250 -101t-100 -253t100.5 -253.5t249.5 -101.5z" />
    <glyph glyph-name="omacron" unicode="&#x14d;" horiz-adv-x="1220" 
d="M309 1147v307h602v-307h-602zM610 -25q-160 0 -290 71.5t-203.5 197t-73.5 278.5t73.5 278.5t203.5 197t290 71.5q243 0 405.5 -157t162.5 -390t-162.5 -390t-405.5 -157zM610 332q82 0 135.5 54t53.5 136t-53.5 136.5t-135.5 54.5q-81 0 -134.5 -54.5t-53.5 -136.5
t53 -136t135 -54z" />
    <glyph glyph-name="Obreve" unicode="&#x14e;" horiz-adv-x="1605" 
d="M803 1483q-158 0 -263.5 99.5t-105.5 248.5h283q0 -38 24.5 -63t61.5 -25t61.5 25t24.5 63h282q0 -149 -105 -248.5t-263 -99.5zM803 -25q-158 0 -297.5 56.5t-239.5 153.5t-157.5 232.5t-57.5 289.5q0 205 98 372.5t270.5 263t383.5 95.5t383 -95.5t270 -263t98 -372.5
t-98 -373t-270 -263.5t-383 -95.5zM803 352q149 0 249.5 101.5t100.5 253.5t-100 253t-250 101t-250 -101t-100 -253t100.5 -253.5t249.5 -101.5z" />
    <glyph glyph-name="obreve" unicode="&#x14f;" horiz-adv-x="1220" 
d="M610 1114q-158 0 -263 99.5t-105 248.5h282q0 -38 24.5 -63t61.5 -25t61.5 25t24.5 63h283q0 -149 -105.5 -248.5t-263.5 -99.5zM610 -25q-160 0 -290 71.5t-203.5 197t-73.5 278.5t73.5 278.5t203.5 197t290 71.5q243 0 405.5 -157t162.5 -390t-162.5 -390t-405.5 -157z
M610 332q82 0 135.5 54t53.5 136t-53.5 136.5t-135.5 54.5q-81 0 -134.5 -54.5t-53.5 -136.5t53 -136t135 -54z" />
    <glyph glyph-name="Ohungarumlaut" unicode="&#x150;" horiz-adv-x="1605" 
d="M862 1503l180 324h398l-223 -324h-355zM371 1503l180 324h397l-223 -324h-354zM803 -25q-158 0 -297.5 56.5t-239.5 153.5t-157.5 232.5t-57.5 289.5q0 205 98 372.5t270.5 263t383.5 95.5t383 -95.5t270 -263t98 -372.5t-98 -373t-270 -263.5t-383 -95.5zM803 352
q149 0 249.5 101.5t100.5 253.5t-100 253t-250 101t-250 -101t-100 -253t100.5 -253.5t249.5 -101.5z" />
    <glyph glyph-name="ohungarumlaut" unicode="&#x151;" horiz-adv-x="1220" 
d="M670 1135l180 323h397l-223 -323h-354zM178 1135l180 323h398l-224 -323h-354zM610 -25q-160 0 -290 71.5t-203.5 197t-73.5 278.5t73.5 278.5t203.5 197t290 71.5q243 0 405.5 -157t162.5 -390t-162.5 -390t-405.5 -157zM610 332q82 0 135.5 54t53.5 136t-53.5 136.5
t-135.5 54.5q-81 0 -134.5 -54.5t-53.5 -136.5t53 -136t135 -54z" />
    <glyph glyph-name="OE" unicode="&#x152;" horiz-adv-x="1861" 
d="M778 0q-205 0 -371.5 92t-261 254t-94.5 361t94.5 360.5t261 253.5t371.5 92h1016v-369h-545v-149h480v-369h-480v-157h555v-369h-1026zM786 369h72v675h-72q-143 0 -238 -96t-95 -241t95 -241.5t238 -96.5z" />
    <glyph glyph-name="oe" unicode="&#x153;" horiz-adv-x="1974" 
d="M592 -25q-152 0 -277.5 71.5t-198.5 197t-73 278.5t73 278.5t198.5 197t277.5 71.5q121 0 223 -46.5t172 -131.5q72 85 174.5 131.5t224.5 46.5q152 0 277 -71.5t197.5 -199t72.5 -284.5q0 -60 -8 -96h-731q22 -65 69.5 -101t112.5 -36q51 0 94.5 18.5t57.5 42.5h387
q-48 -158 -195 -262.5t-336 -104.5q-121 0 -223 47t-174 132q-70 -85 -172 -132t-223 -47zM1366 764q-61 0 -106.5 -36t-65.5 -99h348q-20 64 -66 99.5t-110 35.5zM610 332q82 0 135.5 54t53.5 136t-53.5 136.5t-135.5 54.5q-81 0 -134.5 -54.5t-53.5 -136.5t53 -136
t135 -54z" />
    <glyph glyph-name="Racute" unicode="&#x154;" horiz-adv-x="1345" 
d="M473 1503l201 324h459l-275 -324h-385zM117 0v1413h655q223 0 372.5 -142.5t149.5 -355.5q0 -137 -68 -246.5t-186 -170.5l297 -498h-485l-236 438h-108v-438h-391zM764 1044h-256v-266h256q55 0 92 38t37 95t-37 95t-92 38z" />
    <glyph glyph-name="racute" unicode="&#x155;" horiz-adv-x="817" 
d="M254 1135l201 323h458l-274 -323h-385zM102 0v1044h369v-120q121 137 281 137h47v-379h-47q-137 0 -209 -57.5t-72 -157.5v-467h-369z" />
    <glyph glyph-name="uni0156" unicode="&#x156;" horiz-adv-x="1345" 
d="M117 0v1413h655q223 0 372.5 -142.5t149.5 -355.5q0 -137 -68 -246.5t-186 -170.5l297 -498h-485l-236 438h-108v-438h-391zM764 1044h-256v-266h256q55 0 92 38t37 95t-37 95t-92 38zM526 -664v205q56 6 90 33q-53 22 -83.5 69t-30.5 105q0 78 55 129t143 51
q85 0 142 -54t57 -165q0 -108 -54.5 -193.5t-138.5 -130.5t-180 -49z" />
    <glyph glyph-name="uni0157" unicode="&#x157;" horiz-adv-x="817" 
d="M102 0v1044h369v-120q121 137 281 137h47v-379h-47q-137 0 -209 -57.5t-72 -157.5v-467h-369zM113 -664v205q55 6 90 33q-53 22 -84 69t-31 105q0 78 55.5 129t143.5 51q84 0 141 -54t57 -165q0 -161 -111.5 -264t-260.5 -109z" />
    <glyph glyph-name="Rcaron" unicode="&#x158;" horiz-adv-x="1345" 
d="M459 1503l-201 324h344l78 -123l78 123h344l-201 -324h-442zM117 0v1413h655q223 0 372.5 -142.5t149.5 -355.5q0 -137 -68 -246.5t-186 -170.5l297 -498h-485l-236 438h-108v-438h-391zM764 1044h-256v-266h256q55 0 92 38t37 95t-37 95t-92 38z" />
    <glyph glyph-name="rcaron" unicode="&#x159;" horiz-adv-x="817" 
d="M240 1135l-201 323h344l78 -123l78 123h344l-201 -323h-442zM102 0v1044h369v-120q121 137 281 137h47v-379h-47q-137 0 -209 -57.5t-72 -157.5v-467h-369z" />
    <glyph glyph-name="Sacute" unicode="&#x15a;" horiz-adv-x="1206" 
d="M397 1503l201 324h459l-275 -324h-385zM608 -25q-238 0 -397.5 133.5t-159.5 329.5h402q0 -47 46.5 -80.5t112.5 -33.5q58 0 100 24.5t42 59.5q0 25 -23.5 45.5t-63 36t-90.5 31t-107.5 34.5t-113 42t-107.5 58t-90.5 78.5t-63 107t-23.5 140.5q0 203 150.5 330
t377.5 127q228 0 381.5 -127.5t153.5 -317.5h-402q0 41 -39.5 69t-97.5 28q-52 0 -87.5 -21t-35.5 -57q0 -26 23.5 -46t63 -34t90.5 -27.5t107.5 -30.5t113 -38.5t107.5 -55t90.5 -76.5t63 -107.5t23.5 -143.5q0 -213 -156.5 -345.5t-390.5 -132.5z" />
    <glyph glyph-name="sacute" unicode="&#x15b;" horiz-adv-x="1009" 
d="M299 1135l201 323h458l-274 -323h-385zM514 -25q-206 0 -338.5 103t-132.5 252h363q0 -33 31.5 -55.5t76.5 -22.5q37 0 63.5 15t26.5 38q0 21 -23.5 36t-62 24t-87.5 21.5t-100.5 26t-100.5 39t-87.5 58.5t-62 87.5t-23.5 123.5q0 87 36.5 155t98.5 109.5t139.5 62.5
t164.5 21q193 0 322.5 -98.5t129.5 -239.5h-358q0 28 -27.5 47t-66.5 19q-33 0 -56.5 -14.5t-23.5 -37.5q0 -20 23.5 -34.5t62.5 -23.5t88.5 -21.5t101 -25.5t101 -38t88.5 -57.5t62.5 -85t23.5 -119.5q0 -162 -126.5 -263.5t-326.5 -101.5z" />
    <glyph glyph-name="Scircumflex" unicode="&#x15c;" horiz-adv-x="1206" 
d="M182 1503l201 324h442l201 -324h-344l-78 123l-78 -123h-344zM608 -25q-238 0 -397.5 133.5t-159.5 329.5h402q0 -47 46.5 -80.5t112.5 -33.5q58 0 100 24.5t42 59.5q0 25 -23.5 45.5t-63 36t-90.5 31t-107.5 34.5t-113 42t-107.5 58t-90.5 78.5t-63 107t-23.5 140.5
q0 203 150.5 330t377.5 127q228 0 381.5 -127.5t153.5 -317.5h-402q0 41 -39.5 69t-97.5 28q-52 0 -87.5 -21t-35.5 -57q0 -26 23.5 -46t63 -34t90.5 -27.5t107.5 -30.5t113 -38.5t107.5 -55t90.5 -76.5t63 -107.5t23.5 -143.5q0 -213 -156.5 -345.5t-390.5 -132.5z" />
    <glyph glyph-name="scircumflex" unicode="&#x15d;" horiz-adv-x="1009" 
d="M84 1135l201 323h442l201 -323h-344l-78 122l-78 -122h-344zM514 -25q-206 0 -338.5 103t-132.5 252h363q0 -33 31.5 -55.5t76.5 -22.5q37 0 63.5 15t26.5 38q0 21 -23.5 36t-62 24t-87.5 21.5t-100.5 26t-100.5 39t-87.5 58.5t-62 87.5t-23.5 123.5q0 87 36.5 155
t98.5 109.5t139.5 62.5t164.5 21q193 0 322.5 -98.5t129.5 -239.5h-358q0 28 -27.5 47t-66.5 19q-33 0 -56.5 -14.5t-23.5 -37.5q0 -20 23.5 -34.5t62.5 -23.5t88.5 -21.5t101 -25.5t101 -38t88.5 -57.5t62.5 -85t23.5 -119.5q0 -162 -126.5 -263.5t-326.5 -101.5z" />
    <glyph glyph-name="Scedilla" unicode="&#x15e;" horiz-adv-x="1206" 
d="M612 -543q-115 0 -193.5 68t-84.5 170h219q6 -19 22.5 -30t36.5 -11q25 0 43.5 16t18.5 39q0 24 -19 41t-43 17q-33 0 -53 -25l-203 90l127 154q-191 34 -311.5 159t-120.5 293h402q0 -47 46.5 -80.5t112.5 -33.5q58 0 100 24.5t42 59.5q0 25 -23.5 45.5t-63 36t-90.5 31
t-107.5 34.5t-113 42t-107.5 58t-90.5 78.5t-63 107t-23.5 140.5q0 203 150.5 330t377.5 127q228 0 381.5 -127.5t153.5 -317.5h-402q0 41 -39.5 69t-97.5 28q-52 0 -87.5 -21t-35.5 -57q0 -26 23.5 -46t63 -34t90.5 -27.5t107.5 -30.5t113 -38.5t107.5 -55t90.5 -76.5
t63 -107.5t23.5 -143.5q0 -181 -115.5 -306t-302.5 -159l-37 -43q84 -14 137.5 -80t53.5 -156q0 -106 -80 -179t-199 -73z" />
    <glyph glyph-name="scedilla" unicode="&#x15f;" horiz-adv-x="1009" 
d="M514 -543q-115 0 -193.5 68t-84.5 170h219q6 -19 22.5 -30t36.5 -11q25 0 43 16t18 39q0 24 -18.5 41t-42.5 17q-33 0 -53 -25l-203 90l129 156q-156 31 -250 124.5t-94 217.5h363q0 -33 31.5 -55.5t76.5 -22.5q37 0 63.5 15t26.5 38q0 21 -23.5 36t-62 24t-87.5 21.5
t-100.5 26t-100.5 39t-87.5 58.5t-62 87.5t-23.5 123.5q0 87 36.5 155t98.5 109.5t139.5 62.5t164.5 21q193 0 322.5 -98.5t129.5 -239.5h-358q0 28 -27.5 47t-66.5 19q-33 0 -56.5 -14.5t-23.5 -37.5q0 -20 23.5 -34.5t62.5 -23.5t88.5 -21.5t101 -25.5t101 -38t88.5 -57.5
t62.5 -85t23.5 -119.5q0 -134 -89 -228.5t-239 -123.5l-37 -43q84 -14 137.5 -80t53.5 -156q0 -106 -80 -179t-199 -73z" />
    <glyph glyph-name="Scaron" unicode="&#x160;" horiz-adv-x="1206" 
d="M383 1503l-201 324h344l78 -123l78 123h344l-201 -324h-442zM608 -25q-238 0 -397.5 133.5t-159.5 329.5h402q0 -47 46.5 -80.5t112.5 -33.5q58 0 100 24.5t42 59.5q0 25 -23.5 45.5t-63 36t-90.5 31t-107.5 34.5t-113 42t-107.5 58t-90.5 78.5t-63 107t-23.5 140.5
q0 203 150.5 330t377.5 127q228 0 381.5 -127.5t153.5 -317.5h-402q0 41 -39.5 69t-97.5 28q-52 0 -87.5 -21t-35.5 -57q0 -26 23.5 -46t63 -34t90.5 -27.5t107.5 -30.5t113 -38.5t107.5 -55t90.5 -76.5t63 -107.5t23.5 -143.5q0 -213 -156.5 -345.5t-390.5 -132.5z" />
    <glyph glyph-name="scaron" unicode="&#x161;" horiz-adv-x="1009" 
d="M285 1135l-201 323h344l78 -123l78 123h344l-201 -323h-442zM514 -25q-206 0 -338.5 103t-132.5 252h363q0 -33 31.5 -55.5t76.5 -22.5q37 0 63.5 15t26.5 38q0 21 -23.5 36t-62 24t-87.5 21.5t-100.5 26t-100.5 39t-87.5 58.5t-62 87.5t-23.5 123.5q0 87 36.5 155
t98.5 109.5t139.5 62.5t164.5 21q193 0 322.5 -98.5t129.5 -239.5h-358q0 28 -27.5 47t-66.5 19q-33 0 -56.5 -14.5t-23.5 -37.5q0 -20 23.5 -34.5t62.5 -23.5t88.5 -21.5t101 -25.5t101 -38t88.5 -57.5t62.5 -85t23.5 -119.5q0 -162 -126.5 -263.5t-326.5 -101.5z" />
    <glyph glyph-name="uni0162" unicode="&#x162;" horiz-adv-x="1161" 
d="M385 0v1044h-340v369h1071v-369h-340v-1044h-63l-47 -53q83 -14 136.5 -79.5t53.5 -156.5q0 -106 -79.5 -179t-198.5 -73t-199 73t-80 179h217q0 -23 19 -39t43 -16q25 0 43 16t18 39q0 24 -18.5 41t-42.5 17q-34 0 -54 -25l-202 90l137 166h-74z" />
    <glyph glyph-name="uni0163" unicode="&#x163;" horiz-adv-x="817" 
d="M471 -543q-115 0 -193.5 68t-84.5 170h219q6 -19 22.5 -30t36.5 -11q25 0 43 16t18 39q0 24 -18.5 41t-42.5 17q-33 0 -53 -25l-203 90l166 201q-197 74 -197 325v351h-139v335h68q92 0 92 93v174h348v-267h197v-335h-197v-289q0 -84 90 -84h107v-336h-142l-49 -55
q84 -15 137.5 -80.5t53.5 -155.5q0 -106 -80 -179t-199 -73z" />
    <glyph glyph-name="Tcaron" unicode="&#x164;" horiz-adv-x="1161" 
d="M360 1503l-200 324h344l78 -123l77 123h345l-201 -324h-443zM385 0v1044h-340v369h1071v-369h-340v-1044h-391z" />
    <glyph glyph-name="tcaron" unicode="&#x165;" horiz-adv-x="817" 
d="M629 1096v204q55 6 90 33q-53 22 -84 69t-31 105q0 78 55.5 129.5t143.5 51.5q84 0 141 -54.5t57 -165.5q0 -108 -54.5 -193.5t-138 -130t-179.5 -48.5zM588 0q-404 0 -404 358v351h-139v335h68q92 0 92 93v174h348v-267h197v-335h-197v-289q0 -84 90 -84h107v-336h-162z
" />
    <glyph glyph-name="Tbar" unicode="&#x166;" horiz-adv-x="1161" 
d="M385 0v494h-135v262h135v288h-340v369h1071v-369h-340v-288h137v-262h-137v-494h-391z" />
    <glyph glyph-name="tbar" unicode="&#x167;" horiz-adv-x="817" 
d="M63 397v262h121v50h-139v335h68q92 0 92 93v174h348v-267h197v-335h-197v-50h174v-262h-172q12 -61 88 -61h107v-336h-162q-404 0 -404 358v39h-121z" />
    <glyph glyph-name="Utilde" unicode="&#x168;" horiz-adv-x="1388" 
d="M821 1513q-63 0 -128 28t-81 28q-24 0 -38.5 -15.5t-14.5 -37.5h-256q0 152 67 248t195 96q47 0 88.5 -14.5t71.5 -29t49 -14.5q23 0 38 16t15 40h256q0 -155 -66.5 -250t-195.5 -95zM694 -25q-126 0 -237 44t-190 120.5t-125 184t-46 229.5v860h391v-854q0 -89 59 -148
t148 -59t148 59t59 148v854h391v-860q0 -122 -46 -229.5t-125 -184t-190 -120.5t-237 -44z" />
    <glyph glyph-name="utilde" unicode="&#x169;" horiz-adv-x="1198" 
d="M717 1145q-63 0 -128 27.5t-81 27.5q-24 0 -38.5 -15.5t-14.5 -37.5h-256q0 152 67 248t195 96q47 0 88.5 -14.5t71.5 -28.5t49 -14q23 0 38 16t15 39h256q0 -155 -66.5 -249.5t-195.5 -94.5zM457 -25q-168 0 -270.5 105t-102.5 278v686h369v-573q0 -63 35.5 -101
t93.5 -38q65 0 105 39.5t40 103.5v569h369v-1044h-369v78q-112 -103 -270 -103z" />
    <glyph glyph-name="Umacron" unicode="&#x16a;" horiz-adv-x="1388" 
d="M393 1516v307h602v-307h-602zM694 -25q-126 0 -237 44t-190 120.5t-125 184t-46 229.5v860h391v-854q0 -89 59 -148t148 -59t148 59t59 148v854h391v-860q0 -122 -46 -229.5t-125 -184t-190 -120.5t-237 -44z" />
    <glyph glyph-name="umacron" unicode="&#x16b;" horiz-adv-x="1198" 
d="M289 1147v307h602v-307h-602zM457 -25q-168 0 -270.5 105t-102.5 278v686h369v-573q0 -63 35.5 -101t93.5 -38q65 0 105 39.5t40 103.5v569h369v-1044h-369v78q-112 -103 -270 -103z" />
    <glyph glyph-name="Ubreve" unicode="&#x16c;" horiz-adv-x="1388" 
d="M694 1483q-158 0 -263 99.5t-105 248.5h282q0 -38 24.5 -63t61.5 -25t61.5 25t24.5 63h283q0 -149 -105.5 -248.5t-263.5 -99.5zM694 -25q-126 0 -237 44t-190 120.5t-125 184t-46 229.5v860h391v-854q0 -89 59 -148t148 -59t148 59t59 148v854h391v-860
q0 -122 -46 -229.5t-125 -184t-190 -120.5t-237 -44z" />
    <glyph glyph-name="ubreve" unicode="&#x16d;" horiz-adv-x="1198" 
d="M590 1114q-158 0 -263.5 99.5t-105.5 248.5h283q0 -38 24.5 -63t61.5 -25t61.5 25t24.5 63h282q0 -149 -105 -248.5t-263 -99.5zM457 -25q-168 0 -270.5 105t-102.5 278v686h369v-573q0 -63 35.5 -101t93.5 -38q65 0 105 39.5t40 103.5v569h369v-1044h-369v78
q-112 -103 -270 -103z" />
    <glyph glyph-name="Uring" unicode="&#x16e;" horiz-adv-x="1388" 
d="M694 1483q-104 0 -174.5 68t-70.5 169t70.5 169.5t174.5 68.5t175 -68.5t71 -169.5t-71 -169t-175 -68zM694 1661q25 0 41.5 16.5t16.5 42.5t-16.5 43t-41.5 17t-41 -17t-16 -43t16 -42.5t41 -16.5zM694 -25q-126 0 -237 44t-190 120.5t-125 184t-46 229.5v860h391v-854
q0 -89 59 -148t148 -59t148 59t59 148v854h391v-860q0 -122 -46 -229.5t-125 -184t-190 -120.5t-237 -44z" />
    <glyph glyph-name="uring" unicode="&#x16f;" horiz-adv-x="1198" 
d="M590 1114q-104 0 -175 68.5t-71 169.5t71 169t175 68t175 -68t71 -169t-71 -169.5t-175 -68.5zM590 1292q25 0 41 17t16 43t-16 42.5t-41 16.5t-41.5 -16.5t-16.5 -42.5t16.5 -43t41.5 -17zM457 -25q-168 0 -270.5 105t-102.5 278v686h369v-573q0 -63 35.5 -101t93.5 -38
q65 0 105 39.5t40 103.5v569h369v-1044h-369v78q-112 -103 -270 -103z" />
    <glyph glyph-name="Uhungarumlaut" unicode="&#x170;" horiz-adv-x="1388" 
d="M754 1503l180 324h397l-223 -324h-354zM262 1503l180 324h398l-224 -324h-354zM694 -25q-126 0 -237 44t-190 120.5t-125 184t-46 229.5v860h391v-854q0 -89 59 -148t148 -59t148 59t59 148v854h391v-860q0 -122 -46 -229.5t-125 -184t-190 -120.5t-237 -44z" />
    <glyph glyph-name="uhungarumlaut" unicode="&#x171;" horiz-adv-x="1198" 
d="M649 1135l180 323h398l-223 -323h-355zM158 1135l180 323h397l-223 -323h-354zM457 -25q-168 0 -270.5 105t-102.5 278v686h369v-573q0 -63 35.5 -101t93.5 -38q65 0 105 39.5t40 103.5v569h369v-1044h-369v78q-112 -103 -270 -103z" />
    <glyph glyph-name="Uogonek" unicode="&#x172;" horiz-adv-x="1388" 
d="M764 -485q-126 0 -209.5 72t-83.5 180q0 126 111 219q-214 36 -350 192.5t-136 374.5v860h391v-854q0 -89 59 -148t148 -59t148 59t59 148v854h391v-860q0 -188 -104 -333.5t-275 -207.5q-153 -76 -153 -162q0 -37 25 -55t59 -18q31 0 68 13.5t63 35.5v-256
q-34 -23 -94 -39t-117 -16z" />
    <glyph glyph-name="uogonek" unicode="&#x173;" horiz-adv-x="1198" 
d="M457 -25q-168 0 -270.5 105t-102.5 278v686h369v-573q0 -63 35.5 -101t93.5 -38q65 0 105 39.5t40 103.5v569h369v-1044h-2q-215 -91 -215 -190q0 -37 25.5 -55.5t58.5 -18.5q31 0 68 13.5t63 35.5v-256q-34 -23 -94 -39t-117 -16q-126 0 -209.5 72t-83.5 180
q0 88 57 162.5t148 111.5h-68v78q-112 -103 -270 -103z" />
    <glyph glyph-name="Wcircumflex" unicode="&#x174;" horiz-adv-x="2177" 
d="M668 1503l200 324h443l200 -324h-344l-77 123l-78 -123h-344zM477 0l-475 1413h432l244 -858l240 858h352l243 -858l240 858h422l-471 -1413h-391l-223 788l-222 -788h-391z" />
    <glyph glyph-name="wcircumflex" unicode="&#x175;" horiz-adv-x="1757" 
d="M457 1135l200 323h443l200 -323h-344l-77 122l-78 -122h-344zM352 0l-358 1044h420l137 -540l145 540h375l146 -540l137 540h409l-358 -1044h-377l-149 578l-150 -578h-377z" />
    <glyph glyph-name="Ycircumflex" unicode="&#x176;" horiz-adv-x="1386" 
d="M272 1503l201 324h442l201 -324h-344l-78 123l-78 -123h-344zM498 0v465l-521 948h445l276 -534l275 534h436l-520 -948v-465h-391z" />
    <glyph glyph-name="ycircumflex" unicode="&#x177;" horiz-adv-x="1167" 
d="M162 1135l200 323h443l201 -323h-344l-78 122l-78 -122h-344zM225 -389l162 407l-397 1026h420l178 -552l178 552h412l-557 -1433h-396z" />
    <glyph glyph-name="Ydieresis" unicode="&#x178;" horiz-adv-x="1386" 
d="M926 1485q-85 0 -142 56t-57 140q0 85 57 141t142 56t141.5 -56t56.5 -141t-56.5 -140.5t-141.5 -55.5zM463 1485q-85 0 -142 56t-57 140q0 85 57 141t142 56t142 -56t57 -141q0 -84 -57 -140t-142 -56zM498 0v465l-521 948h445l276 -534l275 534h436l-520 -948v-465
h-391z" />
    <glyph glyph-name="Zacute" unicode="&#x179;" horiz-adv-x="1257" 
d="M420 1503l201 324h458l-274 -324h-385zM61 0v281l582 763h-573v369h1112v-280l-582 -764h596v-369h-1135z" />
    <glyph glyph-name="zacute" unicode="&#x17a;" horiz-adv-x="1052" 
d="M319 1135l201 323h459l-274 -323h-386zM61 0v268l367 420h-358v356h907v-268l-367 -420h381v-356h-930z" />
    <glyph glyph-name="Zdotaccent" unicode="&#x17b;" horiz-adv-x="1257" 
d="M627 1485q-89 0 -149 59t-60 148t59.5 147.5t149.5 58.5t149.5 -58.5t59.5 -147.5t-60 -148t-149 -59zM61 0v281l582 763h-573v369h1112v-280l-582 -764h596v-369h-1135z" />
    <glyph glyph-name="zdotaccent" unicode="&#x17c;" horiz-adv-x="1052" 
d="M526 1116q-89 0 -149 59t-60 148t60 148t149 59t149 -59t60 -148t-60 -148t-149 -59zM61 0v268l367 420h-358v356h907v-268l-367 -420h381v-356h-930z" />
    <glyph glyph-name="Zcaron" unicode="&#x17d;" horiz-adv-x="1257" 
d="M406 1503l-201 324h344l78 -123l78 123h344l-201 -324h-442zM61 0v281l582 763h-573v369h1112v-280l-582 -764h596v-369h-1135z" />
    <glyph glyph-name="zcaron" unicode="&#x17e;" horiz-adv-x="1052" 
d="M305 1135l-201 323h345l77 -123l78 123h344l-200 -323h-443zM61 0v268l367 420h-358v356h907v-268l-367 -420h381v-356h-930z" />
    <glyph glyph-name="florin" unicode="&#x192;" horiz-adv-x="966" 
d="M0 -389v377q80 0 131.5 37t63.5 104l71 414h-143v336h201l24 141q68 393 578 393v-377q-80 0 -131.5 -37t-63.5 -104l-2 -16h156v-336h-215l-92 -539q-68 -393 -578 -393z" />
    <glyph glyph-name="Ohorn" unicode="&#x1a0;" horiz-adv-x="1605" 
d="M803 -25q-158 0 -297.5 56.5t-239.5 153.5t-157.5 232.5t-57.5 289.5q0 205 98 372.5t270.5 263t383.5 95.5h291q71 0 71 71v23h357v-100q0 -187 -133 -258q165 -198 165 -467q0 -205 -98 -373t-270 -263.5t-383 -95.5zM803 352q149 0 249.5 101.5t100.5 253.5t-100 253
t-250 101t-250 -101t-100 -253t100.5 -253.5t249.5 -101.5z" />
    <glyph glyph-name="ohorn" unicode="&#x1a1;" horiz-adv-x="1220" 
d="M610 -25q-160 0 -290 71.5t-203.5 197t-73.5 278.5t73.5 278.5t203.5 197t290 71.5h127q72 0 72 72v22h356v-100q0 -151 -86 -225q99 -138 99 -316q0 -233 -162.5 -390t-405.5 -157zM610 332q82 0 135.5 54t53.5 136t-53.5 136.5t-135.5 54.5q-81 0 -134.5 -54.5
t-53.5 -136.5t53 -136t135 -54z" />
    <glyph glyph-name="Uhorn" unicode="&#x1af;" horiz-adv-x="1562" 
d="M694 -25q-126 0 -237 44t-190 120.5t-125 184t-46 229.5v860h391v-854q0 -89 59 -148t148 -59t148 59t59 148v854h275q71 0 71 72v22h357v-100q0 -286 -312 -301v-553q0 -122 -46 -229.5t-125 -184t-190 -120.5t-237 -44z" />
    <glyph glyph-name="uhorn" unicode="&#x1b0;" horiz-adv-x="1284" 
d="M457 -25q-168 0 -270.5 105t-102.5 278v686h369v-573q0 -63 35.5 -101t93.5 -38q65 0 105 39.5t40 103.5v569h154q71 0 71 72v23h357v-101q0 -236 -213 -286v-752h-369v78q-112 -103 -270 -103z" />
    <glyph glyph-name="uni01C4" unicode="&#x1c4;" horiz-adv-x="2648" 
d="M1796 1503l-201 324h344l78 -123l78 123h344l-201 -324h-442zM117 0v1413h563q205 0 371.5 -92t261 -253.5t94.5 -360.5t-94.5 -361t-261 -254t-371.5 -92h-563zM1452 0v281l582 763h-574v369h1112v-280l-581 -764h596v-369h-1135zM672 1044h-164v-675h164
q143 0 238.5 96.5t95.5 241.5t-95.5 241t-238.5 96z" />
    <glyph glyph-name="uni01C5" unicode="&#x1c5;" horiz-adv-x="2510" 
d="M1763 1135l-200 323h344l78 -123l77 123h344l-200 -323h-443zM117 0v1413h563q205 0 371.5 -92t261 -253.5t94.5 -360.5t-94.5 -361t-261 -254t-371.5 -92h-563zM672 1044h-164v-675h164q143 0 238.5 96.5t95.5 241.5t-95.5 241t-238.5 96zM1520 0v268l366 420h-358v356
h907v-268l-367 -420h381v-356h-929z" />
    <glyph glyph-name="uni01C6" unicode="&#x1c6;" horiz-adv-x="2332" 
d="M543 -25q-139 0 -252.5 71.5t-177.5 197t-64 278.5t64 278.5t177.5 197t252.5 71.5q148 0 262 -90v496h369v-1475h-369v66q-115 -91 -262 -91zM1585 1135l-201 323h345l77 -123l78 123h344l-200 -323h-443zM1341 0v268l367 420h-358v356h907v-268l-367 -420h381v-356
h-930zM616 332q82 0 135.5 54t53.5 136t-53.5 136.5t-135.5 54.5q-81 0 -134.5 -54.5t-53.5 -136.5t53 -136t135 -54z" />
    <glyph glyph-name="uni01C7" unicode="&#x1c7;" horiz-adv-x="2209" 
d="M117 0v1413h391v-1044h514v-369h-905zM1597 -25q-223 0 -369.5 145.5t-146.5 371.5h402q0 -65 33 -102.5t86 -37.5q52 0 86 34t34 85v942h392v-942q0 -212 -148 -354t-369 -142z" />
    <glyph glyph-name="uni01C8" unicode="&#x1c8;" horiz-adv-x="1658" 
d="M1372 1135q-95 0 -159 63t-64 158t64 158t159 63t159 -63t64 -158t-64 -158t-159 -63zM117 0v1413h391v-1044h514v-369h-905zM1012 -414v357h45q131 0 131 125v976h368v-1017q0 -226 -116 -333.5t-369 -107.5h-59z" />
    <glyph glyph-name="uni01C9" unicode="&#x1c9;" horiz-adv-x="1204" 
d="M918 1135q-96 0 -160 63t-64 158t64 158t160 63q95 0 159 -63t64 -158t-64 -158t-159 -63zM106 0v1475h369v-1475h-369zM557 -414v357h45q131 0 131 125v976h369v-1017q0 -226 -116.5 -333.5t-369.5 -107.5h-59z" />
    <glyph glyph-name="uni01CA" unicode="&#x1ca;" horiz-adv-x="2611" 
d="M117 0v1413h391l467 -723v723h391v-1413h-391l-467 723v-723h-391zM1999 -25q-223 0 -369.5 145.5t-146.5 371.5h401q0 -65 33 -102.5t86 -37.5q52 0 86.5 34t34.5 85v942h391v-942q0 -212 -147.5 -354t-368.5 -142z" />
    <glyph glyph-name="uni01CB" unicode="&#x1cb;" horiz-adv-x="2064" 
d="M1778 1135q-96 0 -160 63t-64 158t64 158t160 63q95 0 159 -63t64 -158t-64 -158t-159 -63zM117 0v1413h391l467 -723v723h391v-1413h-391l-467 723v-723h-391zM1417 -414v357h45q131 0 131 125v976h369v-1017q0 -226 -116 -333.5t-369 -107.5h-60z" />
    <glyph glyph-name="uni01CC" unicode="&#x1cc;" horiz-adv-x="1845" 
d="M1559 1135q-96 0 -160 63t-64 158t64 158t160 63q95 0 159 -63t64 -158t-64 -158t-159 -63zM102 0v1044h369v-77q117 102 283 102q173 0 279 -105t106 -278v-686h-369v561q0 69 -38.5 110.5t-102.5 41.5q-71 0 -114.5 -43t-43.5 -113v-557h-369zM1198 -414v357h45
q131 0 131 125v976h369v-1017q0 -226 -116.5 -333.5t-369.5 -107.5h-59z" />
    <glyph glyph-name="uni01CD" unicode="&#x1cd;" horiz-adv-x="1435" 
d="M496 1503l-201 324h344l78 -123l78 123h344l-201 -324h-442zM-20 0l507 1413h461l508 -1413h-428l-63 195h-502l-64 -195h-419zM578 555h272l-135 424z" />
    <glyph glyph-name="uni01CE" unicode="&#x1ce;" horiz-adv-x="1275" 
d="M428 1135l-201 323h344l78 -123l78 123h344l-201 -323h-442zM543 -25q-139 0 -252.5 71.5t-177.5 197t-64 278.5t64 278.5t177.5 197t252.5 71.5q148 0 262 -90v65h369v-1044h-369v66q-115 -91 -262 -91zM616 332q82 0 135.5 54t53.5 136t-53.5 136.5t-135.5 54.5
q-81 0 -134.5 -54.5t-53.5 -136.5t53 -136t135 -54z" />
    <glyph glyph-name="Gcaron" unicode="&#x1e6;" horiz-adv-x="1585" 
d="M582 1503l-201 324h344l78 -123l78 123h344l-201 -324h-442zM803 -25q-158 0 -297.5 56.5t-239.5 153.5t-157.5 232.5t-57.5 289.5q0 205 98 372.5t270.5 263t383.5 95.5q259 0 455.5 -139.5t246.5 -354.5h-436q-96 117 -266 117q-150 0 -250 -101t-100 -253
t100.5 -253.5t249.5 -101.5q90 0 164.5 36.5t117.5 98.5h-243v355h692v-135q0 -206 -93 -373t-261 -263t-377 -96z" />
    <glyph glyph-name="gcaron" unicode="&#x1e7;" horiz-adv-x="1271" 
d="M428 1135l-201 323h344l78 -123l78 123h344l-201 -323h-442zM543 33q-212 0 -353 148t-141 370t141 370t353 148q149 0 262 -86v61h369v-931q0 -238 -148.5 -382.5t-392.5 -144.5q-209 0 -356 105.5t-177 283.5h379q22 -35 64.5 -56t93.5 -21q79 0 123.5 51.5t44.5 144.5
v25q-113 -86 -262 -86zM616 367q81 0 135 53t54 131t-54 131t-135 53t-134.5 -53t-53.5 -131t53.5 -131t134.5 -53z" />
    <glyph glyph-name="uni01EA" unicode="&#x1ea;" horiz-adv-x="1605" 
d="M907 -485q-126 0 -209.5 72t-83.5 180q0 121 105 213q-191 19 -343 118t-238.5 258.5t-86.5 350.5q0 205 98 372.5t270.5 263t383.5 95.5t383 -95.5t270 -263t98 -372.5q0 -239 -131.5 -424.5t-349.5 -262.5q-170 -81 -170 -170q0 -37 25 -55t59 -18q31 0 68 13.5
t63 35.5v-256q-34 -23 -94 -39t-117 -16zM803 352q149 0 249.5 101.5t100.5 253.5t-100 253t-250 101t-250 -101t-100 -253t100.5 -253.5t249.5 -101.5z" />
    <glyph glyph-name="uni01EB" unicode="&#x1eb;" horiz-adv-x="1220" 
d="M674 -485q-126 0 -209.5 72t-83.5 180q0 130 113 219q-199 37 -325 185t-126 351q0 153 73.5 278.5t203.5 197t290 71.5q243 0 405.5 -157t162.5 -390q0 -178 -97.5 -314.5t-259.5 -195.5q-151 -77 -151 -162q0 -37 25 -55t59 -18q31 0 68 13.5t63 35.5v-256
q-34 -23 -94 -39t-117 -16zM610 332q82 0 135.5 54t53.5 136t-53.5 136.5t-135.5 54.5q-81 0 -134.5 -54.5t-53.5 -136.5t53 -136t135 -54z" />
    <glyph glyph-name="uni01F1" unicode="&#x1f1;" horiz-adv-x="2648" 
d="M117 0v1413h563q205 0 371.5 -92t261 -253.5t94.5 -360.5t-94.5 -361t-261 -254t-371.5 -92h-563zM1452 0v281l582 763h-574v369h1112v-280l-581 -764h596v-369h-1135zM672 1044h-164v-675h164q143 0 238.5 96.5t95.5 241.5t-95.5 241t-238.5 96z" />
    <glyph glyph-name="uni01F2" unicode="&#x1f2;" horiz-adv-x="2510" 
d="M117 0v1413h563q205 0 371.5 -92t261 -253.5t94.5 -360.5t-94.5 -361t-261 -254t-371.5 -92h-563zM672 1044h-164v-675h164q143 0 238.5 96.5t95.5 241.5t-95.5 241t-238.5 96zM1520 0v268l366 420h-358v356h907v-268l-367 -420h381v-356h-929z" />
    <glyph glyph-name="uni01F3" unicode="&#x1f3;" horiz-adv-x="2332" 
d="M543 -25q-139 0 -252.5 71.5t-177.5 197t-64 278.5t64 278.5t177.5 197t252.5 71.5q148 0 262 -90v496h369v-1475h-369v66q-115 -91 -262 -91zM1341 0v268l367 420h-358v356h907v-268l-367 -420h381v-356h-930zM616 332q82 0 135.5 54t53.5 136t-53.5 136.5t-135.5 54.5
q-81 0 -134.5 -54.5t-53.5 -136.5t53 -136t135 -54z" />
    <glyph glyph-name="uni01F4" unicode="&#x1f4;" horiz-adv-x="1585" 
d="M596 1503l201 324h458l-274 -324h-385zM803 -25q-158 0 -297.5 56.5t-239.5 153.5t-157.5 232.5t-57.5 289.5q0 205 98 372.5t270.5 263t383.5 95.5q259 0 455.5 -139.5t246.5 -354.5h-436q-96 117 -266 117q-150 0 -250 -101t-100 -253t100.5 -253.5t249.5 -101.5
q90 0 164.5 36.5t117.5 98.5h-243v355h692v-135q0 -206 -93 -373t-261 -263t-377 -96z" />
    <glyph glyph-name="uni01F5" unicode="&#x1f5;" horiz-adv-x="1271" 
d="M442 1135l201 323h459l-275 -323h-385zM543 33q-212 0 -353 148t-141 370t141 370t353 148q149 0 262 -86v61h369v-931q0 -238 -148.5 -382.5t-392.5 -144.5q-209 0 -356 105.5t-177 283.5h379q22 -35 64.5 -56t93.5 -21q79 0 123.5 51.5t44.5 144.5v25
q-113 -86 -262 -86zM616 367q81 0 135 53t54 131t-54 131t-135 53t-134.5 -53t-53.5 -131t53.5 -131t134.5 -53z" />
    <glyph glyph-name="AEacute" unicode="&#x1fc;" horiz-adv-x="1902" 
d="M893 1503l201 324h458l-274 -324h-385zM-82 0l784 1413h1133v-369h-545v-149h479v-369h-479v-157h555v-369h-946v186h-434l-103 -186h-444zM662 547h237v432z" />
    <glyph glyph-name="aeacute" unicode="&#x1fd;" horiz-adv-x="1826" 
d="M715 1135l200 323h459l-274 -323h-385zM440 -25q-179 0 -285 89.5t-106 238.5q0 148 105 237t278 89h240v55q0 41 -29 65.5t-76 24.5q-46 0 -74 -21.5t-28 -58.5h-373q0 167 135 271t342 104q202 0 326 -102q139 102 330 102q155 0 283.5 -70.5t203 -198t74.5 -286.5
q0 -60 -8 -96h-731q22 -65 69.5 -101t112.5 -36q51 0 94 18.5t57 42.5h387q-56 -165 -202.5 -266t-339.5 -101q-119 0 -222 42.5t-178 117.5q-53 -73 -156.5 -116.5t-228.5 -43.5zM1219 764q-61 0 -106.5 -36t-65.5 -99h348q-20 64 -66 99.5t-110 35.5zM551 242q91 0 158 77
q-23 63 -27 99h-147q-47 0 -77 -24t-30 -62q0 -40 34 -65t89 -25z" />
    <glyph glyph-name="Oslashacute" unicode="&#x1fe;" horiz-adv-x="1605" 
d="M647 1503l201 324h459l-275 -324h-385zM47 0l186 221q-182 201 -182 486q0 205 98 372.5t270.5 263t383.5 95.5q206 0 379 -95l57 70h317l-184 -219q182 -201 182 -487q0 -205 -98 -373t-270 -263.5t-383 -95.5q-203 0 -379 95l-59 -70h-318zM453 707q0 -97 43 -175
l428 508q-55 21 -121 21q-150 0 -250 -101t-100 -253zM803 352q149 0 249.5 101.5t100.5 253.5q0 95 -43 176l-430 -510q65 -21 123 -21z" />
    <glyph glyph-name="oslashacute" unicode="&#x1ff;" horiz-adv-x="1220" 
d="M432 1135l201 323h459l-275 -323h-385zM20 0l150 170q-127 149 -127 352q0 153 73.5 278.5t203.5 197t290 71.5q157 0 291 -72l41 47h256l-149 -167q129 -148 129 -355q0 -233 -162.5 -390t-405.5 -157q-159 0 -291 74l-43 -49h-256zM422 522q0 -36 8 -57l217 244
q-24 4 -37 4q-81 0 -134.5 -54.5t-53.5 -136.5zM610 332q82 0 135.5 54t53.5 136q0 36 -8 60l-220 -246q24 -4 39 -4z" />
    <glyph glyph-name="uni0200" unicode="&#x200;" horiz-adv-x="1435" 
d="M795 1503l-224 324h398l180 -324h-354zM303 1503l-223 324h397l180 -324h-354zM-20 0l507 1413h461l508 -1413h-428l-63 195h-502l-64 -195h-419zM578 555h272l-135 424z" />
    <glyph glyph-name="uni0201" unicode="&#x201;" horiz-adv-x="1275" 
d="M727 1135l-223 323h397l180 -323h-354zM236 1135l-224 323h398l180 -323h-354zM543 -25q-139 0 -252.5 71.5t-177.5 197t-64 278.5t64 278.5t177.5 197t252.5 71.5q148 0 262 -90v65h369v-1044h-369v66q-115 -91 -262 -91zM616 332q82 0 135.5 54t53.5 136t-53.5 136.5
t-135.5 54.5q-81 0 -134.5 -54.5t-53.5 -136.5t53 -136t135 -54z" />
    <glyph glyph-name="uni0202" unicode="&#x202;" horiz-adv-x="1435" 
d="M348 1503q0 149 105.5 248.5t263.5 99.5t263 -99.5t105 -248.5h-282q0 38 -24.5 63t-61.5 25t-61.5 -25t-24.5 -63h-283zM-20 0l507 1413h461l508 -1413h-428l-63 195h-502l-64 -195h-419zM578 555h272l-135 424z" />
    <glyph glyph-name="uni0203" unicode="&#x203;" horiz-adv-x="1275" 
d="M281 1135q0 149 105 248.5t263 99.5t263.5 -99.5t105.5 -248.5h-283q0 38 -24.5 63t-61.5 25t-61.5 -25t-24.5 -63h-282zM543 -25q-139 0 -252.5 71.5t-177.5 197t-64 278.5t64 278.5t177.5 197t252.5 71.5q148 0 262 -90v65h369v-1044h-369v66q-115 -91 -262 -91z
M616 332q82 0 135.5 54t53.5 136t-53.5 136.5t-135.5 54.5q-81 0 -134.5 -54.5t-53.5 -136.5t53 -136t135 -54z" />
    <glyph glyph-name="uni0204" unicode="&#x204;" horiz-adv-x="1140" 
d="M692 1503l-223 324h397l181 -324h-355zM201 1503l-224 324h398l180 -324h-354zM117 0v1413h956v-369h-565v-149h500v-369h-500v-157h575v-369h-966z" />
    <glyph glyph-name="uni0205" unicode="&#x205;" horiz-adv-x="1218" 
d="M688 1135l-223 323h397l180 -323h-354zM197 1135l-224 323h398l180 -323h-354zM610 -25q-160 0 -290 71.5t-203.5 197t-73.5 278.5t73.5 278.5t203.5 197t290 71.5t290 -71t204 -199t74 -287q0 -54 -9 -94h-731q22 -65 71 -101t116 -36q96 0 153 61h387
q-56 -165 -207 -266t-348 -101zM610 764q-61 0 -106.5 -36t-65.5 -99h348q-20 64 -66 99.5t-110 35.5z" />
    <glyph glyph-name="uni0206" unicode="&#x206;" horiz-adv-x="1140" 
d="M246 1503q0 149 105 248.5t263 99.5t263.5 -99.5t105.5 -248.5h-283q0 38 -24.5 63t-61.5 25t-61.5 -25t-24.5 -63h-282zM117 0v1413h956v-369h-565v-149h500v-369h-500v-157h575v-369h-966z" />
    <glyph glyph-name="uni0207" unicode="&#x207;" horiz-adv-x="1218" 
d="M242 1135q0 149 105 248.5t263 99.5t263.5 -99.5t105.5 -248.5h-283q0 38 -24.5 63t-61.5 25t-61.5 -25t-24.5 -63h-282zM610 -25q-160 0 -290 71.5t-203.5 197t-73.5 278.5t73.5 278.5t203.5 197t290 71.5t290 -71t204 -199t74 -287q0 -54 -9 -94h-731q22 -65 71 -101
t116 -36q96 0 153 61h387q-56 -165 -207 -266t-348 -101zM610 764q-61 0 -106.5 -36t-65.5 -99h348q-20 64 -66 99.5t-110 35.5z" />
    <glyph glyph-name="uni0208" unicode="&#x208;" horiz-adv-x="624" 
d="M391 1503l-223 324h397l180 -324h-354zM-100 1503l-224 324h398l180 -324h-354zM117 0v1413h391v-1413h-391z" />
    <glyph glyph-name="uni0209" unicode="&#x209;" horiz-adv-x="573" 
d="M365 1135l-224 323h398l180 -323h-354zM-127 1135l-223 323h397l180 -323h-354zM102 0v1044h369v-1044h-369z" />
    <glyph glyph-name="uni020A" unicode="&#x20a;" horiz-adv-x="624" 
d="M-55 1503q0 149 105 248.5t263 99.5t263.5 -99.5t105.5 -248.5h-283q0 38 -24.5 63t-61.5 25t-61.5 -25t-24.5 -63h-282zM117 0v1413h391v-1413h-391z" />
    <glyph glyph-name="uni020B" unicode="&#x20b;" horiz-adv-x="573" 
d="M-82 1135q0 149 105.5 248.5t263.5 99.5t263 -99.5t105 -248.5h-282q0 38 -24.5 63t-61.5 25t-61.5 -25t-24.5 -63h-283zM102 0v1044h369v-1044h-369z" />
    <glyph glyph-name="uni020C" unicode="&#x20c;" horiz-adv-x="1605" 
d="M881 1503l-224 324h398l180 -324h-354zM389 1503l-223 324h397l180 -324h-354zM803 -25q-158 0 -297.5 56.5t-239.5 153.5t-157.5 232.5t-57.5 289.5q0 205 98 372.5t270.5 263t383.5 95.5t383 -95.5t270 -263t98 -372.5t-98 -373t-270 -263.5t-383 -95.5zM803 352
q149 0 249.5 101.5t100.5 253.5t-100 253t-250 101t-250 -101t-100 -253t100.5 -253.5t249.5 -101.5z" />
    <glyph glyph-name="uni020D" unicode="&#x20d;" horiz-adv-x="1220" 
d="M688 1135l-223 323h397l180 -323h-354zM197 1135l-224 323h398l180 -323h-354zM610 -25q-160 0 -290 71.5t-203.5 197t-73.5 278.5t73.5 278.5t203.5 197t290 71.5q243 0 405.5 -157t162.5 -390t-162.5 -390t-405.5 -157zM610 332q82 0 135.5 54t53.5 136t-53.5 136.5
t-135.5 54.5q-81 0 -134.5 -54.5t-53.5 -136.5t53 -136t135 -54z" />
    <glyph glyph-name="uni020E" unicode="&#x20e;" horiz-adv-x="1605" 
d="M434 1503q0 149 105.5 248.5t263.5 99.5t263 -99.5t105 -248.5h-282q0 38 -24.5 63t-61.5 25t-61.5 -25t-24.5 -63h-283zM803 -25q-158 0 -297.5 56.5t-239.5 153.5t-157.5 232.5t-57.5 289.5q0 205 98 372.5t270.5 263t383.5 95.5t383 -95.5t270 -263t98 -372.5
t-98 -373t-270 -263.5t-383 -95.5zM803 352q149 0 249.5 101.5t100.5 253.5t-100 253t-250 101t-250 -101t-100 -253t100.5 -253.5t249.5 -101.5z" />
    <glyph glyph-name="uni020F" unicode="&#x20f;" horiz-adv-x="1220" 
d="M242 1135q0 149 105 248.5t263 99.5t263.5 -99.5t105.5 -248.5h-283q0 38 -24.5 63t-61.5 25t-61.5 -25t-24.5 -63h-282zM610 -25q-160 0 -290 71.5t-203.5 197t-73.5 278.5t73.5 278.5t203.5 197t290 71.5q243 0 405.5 -157t162.5 -390t-162.5 -390t-405.5 -157z
M610 332q82 0 135.5 54t53.5 136t-53.5 136.5t-135.5 54.5q-81 0 -134.5 -54.5t-53.5 -136.5t53 -136t135 -54z" />
    <glyph glyph-name="uni0210" unicode="&#x210;" horiz-adv-x="1345" 
d="M758 1503l-223 324h397l180 -324h-354zM266 1503l-223 324h397l181 -324h-355zM117 0v1413h655q223 0 372.5 -142.5t149.5 -355.5q0 -137 -68 -246.5t-186 -170.5l297 -498h-485l-236 438h-108v-438h-391zM764 1044h-256v-266h256q55 0 92 38t37 95t-37 95t-92 38z" />
    <glyph glyph-name="uni0211" unicode="&#x211;" horiz-adv-x="817" 
d="M539 1135l-224 323h398l180 -323h-354zM47 1135l-223 323h397l180 -323h-354zM102 0v1044h369v-120q121 137 281 137h47v-379h-47q-137 0 -209 -57.5t-72 -157.5v-467h-369z" />
    <glyph glyph-name="uni0212" unicode="&#x212;" horiz-adv-x="1345" 
d="M311 1503q0 149 105.5 248.5t263.5 99.5t263.5 -99.5t105.5 -248.5h-283q0 38 -24.5 63t-61.5 25t-61.5 -25t-24.5 -63h-283zM117 0v1413h655q223 0 372.5 -142.5t149.5 -355.5q0 -137 -68 -246.5t-186 -170.5l297 -498h-485l-236 438h-108v-438h-391zM764 1044h-256
v-266h256q55 0 92 38t37 95t-37 95t-92 38z" />
    <glyph glyph-name="uni0213" unicode="&#x213;" horiz-adv-x="817" 
d="M92 1135q0 149 105.5 248.5t263.5 99.5t263 -99.5t105 -248.5h-282q0 38 -24.5 63t-61.5 25t-61.5 -25t-24.5 -63h-283zM102 0v1044h369v-120q121 137 281 137h47v-379h-47q-137 0 -209 -57.5t-72 -157.5v-467h-369z" />
    <glyph glyph-name="uni0214" unicode="&#x214;" horiz-adv-x="1388" 
d="M772 1503l-223 324h397l180 -324h-354zM281 1503l-224 324h398l180 -324h-354zM694 -25q-126 0 -237 44t-190 120.5t-125 184t-46 229.5v860h391v-854q0 -89 59 -148t148 -59t148 59t59 148v854h391v-860q0 -122 -46 -229.5t-125 -184t-190 -120.5t-237 -44z" />
    <glyph glyph-name="uni0215" unicode="&#x215;" horiz-adv-x="1198" 
d="M668 1135l-224 323h398l180 -323h-354zM176 1135l-223 323h397l180 -323h-354zM457 -25q-168 0 -270.5 105t-102.5 278v686h369v-573q0 -63 35.5 -101t93.5 -38q65 0 105 39.5t40 103.5v569h369v-1044h-369v78q-112 -103 -270 -103z" />
    <glyph glyph-name="uni0216" unicode="&#x216;" horiz-adv-x="1388" 
d="M326 1503q0 149 105 248.5t263 99.5t263.5 -99.5t105.5 -248.5h-283q0 38 -24.5 63t-61.5 25t-61.5 -25t-24.5 -63h-282zM694 -25q-126 0 -237 44t-190 120.5t-125 184t-46 229.5v860h391v-854q0 -89 59 -148t148 -59t148 59t59 148v854h391v-860q0 -122 -46 -229.5
t-125 -184t-190 -120.5t-237 -44z" />
    <glyph glyph-name="uni0217" unicode="&#x217;" horiz-adv-x="1198" 
d="M221 1135q0 149 105.5 248.5t263.5 99.5t263 -99.5t105 -248.5h-282q0 38 -24.5 63t-61.5 25t-61.5 -25t-24.5 -63h-283zM457 -25q-168 0 -270.5 105t-102.5 278v686h369v-573q0 -63 35.5 -101t93.5 -38q65 0 105 39.5t40 103.5v569h369v-1044h-369v78
q-112 -103 -270 -103z" />
    <glyph glyph-name="uni0218" unicode="&#x218;" horiz-adv-x="1206" 
d="M608 -25q-238 0 -397.5 133.5t-159.5 329.5h402q0 -47 46.5 -80.5t112.5 -33.5q58 0 100 24.5t42 59.5q0 25 -23.5 45.5t-63 36t-90.5 31t-107.5 34.5t-113 42t-107.5 58t-90.5 78.5t-63 107t-23.5 140.5q0 203 150.5 330t377.5 127q228 0 381.5 -127.5t153.5 -317.5
h-402q0 41 -39.5 69t-97.5 28q-52 0 -87.5 -21t-35.5 -57q0 -26 23.5 -46t63 -34t90.5 -27.5t107.5 -30.5t113 -38.5t107.5 -55t90.5 -76.5t63 -107.5t23.5 -143.5q0 -213 -156.5 -345.5t-390.5 -132.5zM430 -664v205q56 6 90 33q-53 22 -83.5 69t-30.5 105q0 78 55 129
t143 51q85 0 142 -54t57 -165q0 -108 -54.5 -193.5t-138.5 -130.5t-180 -49z" />
    <glyph glyph-name="uni0219" unicode="&#x219;" horiz-adv-x="1009" 
d="M514 -25q-206 0 -338.5 103t-132.5 252h363q0 -33 31.5 -55.5t76.5 -22.5q37 0 63.5 15t26.5 38q0 21 -23.5 36t-62 24t-87.5 21.5t-100.5 26t-100.5 39t-87.5 58.5t-62 87.5t-23.5 123.5q0 87 36.5 155t98.5 109.5t139.5 62.5t164.5 21q193 0 322.5 -98.5t129.5 -239.5
h-358q0 28 -27.5 47t-66.5 19q-33 0 -56.5 -14.5t-23.5 -37.5q0 -20 23.5 -34.5t62.5 -23.5t88.5 -21.5t101 -25.5t101 -38t88.5 -57.5t62.5 -85t23.5 -119.5q0 -162 -126.5 -263.5t-326.5 -101.5zM332 -664v205q56 6 90 33q-53 22 -84 69t-31 105q0 78 55.5 129t143.5 51
q85 0 142 -54t57 -165q0 -108 -54.5 -193.5t-138.5 -130.5t-180 -49z" />
    <glyph glyph-name="uni021A" unicode="&#x21a;" horiz-adv-x="1161" 
d="M385 0v1044h-340v369h1071v-369h-340v-1044h-391zM408 -664v205q56 6 90 33q-53 22 -84 69t-31 105q0 78 55.5 129t143.5 51q84 0 141 -54t57 -165q0 -161 -111.5 -264t-260.5 -109z" />
    <glyph glyph-name="uni021B" unicode="&#x21b;" horiz-adv-x="817" 
d="M588 0q-404 0 -404 358v351h-139v335h68q92 0 92 93v174h348v-267h197v-335h-197v-289q0 -84 90 -84h107v-336h-162zM297 -664v205q55 6 90 33q-53 22 -84 69t-31 105q0 78 55.5 129t143.5 51q85 0 142 -54t57 -165q0 -108 -54.5 -193.5t-138.5 -130.5t-180 -49z" />
    <glyph glyph-name="uni0232" unicode="&#x232;" horiz-adv-x="1386" 
d="M393 1516v307h602v-307h-602zM498 0v465l-521 948h445l276 -534l275 534h436l-520 -948v-465h-391z" />
    <glyph glyph-name="uni0233" unicode="&#x233;" horiz-adv-x="1167" 
d="M283 1147v307h602v-307h-602zM225 -389l162 407l-397 1026h420l178 -552l178 552h412l-557 -1433h-396z" />
    <glyph glyph-name="uni0237" unicode="&#x237;" horiz-adv-x="581" 
d="M-66 -414v357h46q131 0 131 125v976h368v-1017q0 -226 -116 -333.5t-369 -107.5h-60z" />
    <glyph glyph-name="uni02BC" unicode="&#x2bc;" horiz-adv-x="397" 
d="M25 907v205q55 6 90 33q-53 22 -84 69t-31 105q0 78 55.5 129t143.5 51q84 0 141 -54t57 -165q0 -161 -111.5 -264t-260.5 -109z" />
    <glyph glyph-name="circumflex" unicode="&#x2c6;" horiz-adv-x="843" 
d="M0 1135l201 323h442l201 -323h-344l-78 122l-78 -122h-344z" />
    <glyph glyph-name="caron" unicode="&#x2c7;" horiz-adv-x="843" 
d="M201 1135l-201 323h344l78 -123l78 123h344l-201 -323h-442z" />
    <glyph glyph-name="breve" unicode="&#x2d8;" horiz-adv-x="737" 
d="M369 1114q-158 0 -263.5 99.5t-105.5 248.5h283q0 -38 24.5 -63t61.5 -25t61.5 25t24.5 63h282q0 -149 -105 -248.5t-263 -99.5z" />
    <glyph glyph-name="dotaccent" unicode="&#x2d9;" horiz-adv-x="417" 
d="M209 1116q-89 0 -149 59t-60 148t60 148t149 59t149 -59t60 -148t-60 -148t-149 -59z" />
    <glyph glyph-name="ring" unicode="&#x2da;" horiz-adv-x="491" 
d="M246 1114q-104 0 -175 68.5t-71 169.5t71 169t175 68t175 -68t71 -169t-71 -169.5t-175 -68.5zM246 1292q25 0 41 17t16 43t-16 42.5t-41 16.5t-41.5 -16.5t-16.5 -42.5t16.5 -43t41.5 -17z" />
    <glyph glyph-name="ogonek" unicode="&#x2db;" horiz-adv-x="503" 
d="M293 -526q-126 0 -209.5 72t-83.5 180q0 92 62 169t159 111h279l4 -6q-215 -91 -215 -190q0 -37 25.5 -55.5t58.5 -18.5q31 0 68 13.5t63 35.5v-256q-34 -23 -94 -39t-117 -16z" />
    <glyph glyph-name="tilde" unicode="&#x2dc;" horiz-adv-x="780" 
d="M518 1145q-48 0 -90 13.5t-71.5 27.5t-47.5 14q-24 0 -38.5 -15.5t-14.5 -37.5h-256q0 152 67 248t195 96q47 0 88.5 -14.5t71.5 -28.5t49 -14q23 0 38 16t15 39h256q0 -155 -66.5 -249.5t-195.5 -94.5z" />
    <glyph glyph-name="hungarumlaut" unicode="&#x2dd;" horiz-adv-x="1069" 
d="M492 1135l180 323h397l-223 -323h-354zM0 1135l180 323h398l-224 -323h-354z" />
    <glyph glyph-name="gravecomb" unicode="&#x300;" 
d="M274 1135l-274 323h459l200 -323h-385z" />
    <glyph glyph-name="acutecomb" unicode="&#x301;" 
d="M0 1135l201 323h458l-274 -323h-385z" />
    <glyph glyph-name="uni0302" unicode="&#x302;" 
d="M0 1135l201 323h442l201 -323h-344l-78 122l-78 -122h-344z" />
    <glyph glyph-name="tildecomb" unicode="&#x303;" 
d="M518 1145q-48 0 -90 13.5t-71.5 27.5t-47.5 14q-24 0 -38.5 -15.5t-14.5 -37.5h-256q0 152 67 248t195 96q47 0 88.5 -14.5t71.5 -28.5t49 -14q23 0 38 16t15 39h256q0 -155 -66.5 -249.5t-195.5 -94.5z" />
    <glyph glyph-name="uni0304" unicode="&#x304;" 
d="M0 1147v307h602v-307h-602z" />
    <glyph glyph-name="uni0306" unicode="&#x306;" 
d="M369 1114q-158 0 -263.5 99.5t-105.5 248.5h283q0 -38 24.5 -63t61.5 -25t61.5 25t24.5 63h282q0 -149 -105 -248.5t-263 -99.5z" />
    <glyph glyph-name="uni0307" unicode="&#x307;" 
d="M209 1116q-89 0 -149 59t-60 148t60 148t149 59t149 -59t60 -148t-60 -148t-149 -59z" />
    <glyph glyph-name="uni0308" unicode="&#x308;" 
d="M662 1116q-85 0 -142 56t-57 141q0 84 57 140t142 56t141.5 -55.5t56.5 -140.5t-56.5 -141t-141.5 -56zM199 1116q-85 0 -142 56t-57 141q0 84 57 140t142 56t141.5 -55.5t56.5 -140.5t-56.5 -141t-141.5 -56z" />
    <glyph glyph-name="hookabovecomb" unicode="&#x309;" 
d="M244 1114v14q0 56 22.5 90t59.5 60q5 3 27 14t32 20.5t10 22.5q0 15 -10.5 25t-28.5 10q-17 0 -28 -11t-11 -30h-243q0 120 77 192t211 72q138 0 217.5 -62.5t79.5 -162.5q0 -55 -25 -96.5t-83 -79.5q-49 -32 -49 -64v-14h-258z" />
    <glyph glyph-name="uni030A" unicode="&#x30a;" 
d="M246 1114q-104 0 -175 68.5t-71 169.5t71 169t175 68t175 -68t71 -169t-71 -169.5t-175 -68.5zM246 1292q25 0 41 17t16 43t-16 42.5t-41 16.5t-41.5 -16.5t-16.5 -42.5t16.5 -43t41.5 -17z" />
    <glyph glyph-name="uni030B" unicode="&#x30b;" 
d="M492 1135l180 323h397l-223 -323h-354zM0 1135l180 323h398l-224 -323h-354z" />
    <glyph glyph-name="uni030C" unicode="&#x30c;" 
d="M201 1135l-201 323h344l78 -123l78 123h344l-201 -323h-442z" />
    <glyph glyph-name="uni030F" unicode="&#x30f;" 
d="M715 1135l-223 323h397l180 -323h-354zM223 1135l-223 323h397l181 -323h-355z" />
    <glyph glyph-name="uni0311" unicode="&#x311;" 
d="M0 1135q0 149 105.5 248.5t263.5 99.5t263 -99.5t105 -248.5h-282q0 38 -24.5 63t-61.5 25t-61.5 -25t-24.5 -63h-283z" />
    <glyph glyph-name="uni0312" unicode="&#x312;" 
d="M199 1114q-85 0 -142 54t-57 165q0 108 54.5 193.5t138.5 130.5t180 49v-205q-55 -6 -90 -33q53 -22 83.5 -69t30.5 -105q0 -78 -55 -129t-143 -51z" />
    <glyph glyph-name="uni031B" unicode="&#x31b;" 
d="M274 1016q72 0 72 71v23h356v-100q0 -301 -346 -301h-82v307z" />
    <glyph glyph-name="dotbelowcomb" unicode="&#x323;" 
d="M209 -485q-90 0 -149.5 58.5t-59.5 147.5t60 148t149 59t149 -59t60 -148t-59.5 -147.5t-149.5 -58.5z" />
    <glyph glyph-name="uni0326" unicode="&#x326;" 
d="M25 -664v205q55 6 90 33q-53 22 -84 69t-31 105q0 78 55.5 129t143.5 51q84 0 141 -54t57 -165q0 -161 -111.5 -264t-260.5 -109z" />
    <glyph glyph-name="uni0327" unicode="&#x327;" 
d="M279 -541q-115 0 -194 68t-85 170h219q6 -19 22.5 -30t37.5 -11q25 0 43 16t18 39q0 24 -18.5 41t-42.5 17q-34 0 -54 -25l-202 90l137 166v4h254v-4l-47 -53q83 -14 136.5 -79.5t53.5 -156.5q0 -106 -79.5 -179t-198.5 -73z" />
    <glyph glyph-name="uni0328" unicode="&#x328;" 
d="M293 -526q-126 0 -209.5 72t-83.5 180q0 92 62 169t159 111h279l4 -6q-215 -91 -215 -190q0 -37 25.5 -55.5t58.5 -18.5q31 0 68 13.5t63 35.5v-256q-34 -23 -94 -39t-117 -16z" />
    <glyph glyph-name="uni0335" unicode="&#x335;" 
d="M0 432v262h664v-262h-664z" />
    <glyph glyph-name="uni0336" unicode="&#x336;" 
d="M0 428v266h1442v-266h-1442z" />
    <glyph glyph-name="uni0337" unicode="&#x337;" 
d="M0 0l922 1044h256l-922 -1044h-256z" />
    <glyph glyph-name="uni0338" unicode="&#x338;" 
d="M0 0l1192 1413h317l-1192 -1413h-317z" />
    <glyph glyph-name="uni03BC" unicode="&#x3bc;" horiz-adv-x="1216" 
d="M102 -389v1433h369v-573q0 -63 35.5 -101t93.5 -38q65 0 105 39.5t40 103.5v569h369v-1044h-369v78q-112 -103 -270 -103h-4v-364h-369z" />
    <glyph glyph-name="uni1E0C" unicode="&#x1e0c;" horiz-adv-x="1458" 
d="M117 0v1413h563q205 0 371.5 -92t261 -253.5t94.5 -360.5t-94.5 -361t-261 -254t-371.5 -92h-563zM672 1044h-164v-675h164q143 0 238.5 96.5t95.5 241.5t-95.5 241t-238.5 96zM715 -485q-90 0 -149.5 58.5t-59.5 147.5t60 148t149 59t149 -59t60 -148t-59.5 -147.5
t-149.5 -58.5z" />
    <glyph glyph-name="uni1E0D" unicode="&#x1e0d;" horiz-adv-x="1280" 
d="M543 -25q-139 0 -252.5 71.5t-177.5 197t-64 278.5t64 278.5t177.5 197t252.5 71.5q148 0 262 -90v496h369v-1475h-369v66q-115 -91 -262 -91zM616 332q82 0 135.5 54t53.5 136t-53.5 136.5t-135.5 54.5q-81 0 -134.5 -54.5t-53.5 -136.5t53 -136t135 -54zM631 -485
q-90 0 -149.5 58.5t-59.5 147.5t60 148t149 59t149 -59t60 -148t-59.5 -147.5t-149.5 -58.5z" />
    <glyph glyph-name="uni1E24" unicode="&#x1e24;" horiz-adv-x="1458" 
d="M117 0v1413h391v-518h442v518h391v-1413h-391v526h-442v-526h-391zM729 -485q-90 0 -149.5 58.5t-59.5 147.5t60 148t149 59t149 -59t60 -148t-59.5 -147.5t-149.5 -58.5z" />
    <glyph glyph-name="uni1E25" unicode="&#x1e25;" horiz-adv-x="1226" 
d="M106 0v1475h369v-517q117 111 283 111q173 0 279 -105t106 -278v-686h-369v561q0 69 -38.5 110.5t-102.5 41.5q-71 0 -114.5 -43t-43.5 -113v-557h-369zM625 -485q-90 0 -149.5 58.5t-59.5 147.5t60 148t149 59t149 -59t60 -148t-59.5 -147.5t-149.5 -58.5z" />
    <glyph glyph-name="uni1E44" unicode="&#x1e44;" horiz-adv-x="1482" 
d="M752 1485q-89 0 -149 59t-60 148t59.5 147.5t149.5 58.5t149.5 -58.5t59.5 -147.5t-60 -148t-149 -59zM117 0v1413h391l467 -723v723h391v-1413h-391l-467 723v-723h-391z" />
    <glyph glyph-name="uni1E45" unicode="&#x1e45;" horiz-adv-x="1222" 
d="M645 1116q-89 0 -149 59t-60 148t60 148t149 59t149 -59t60 -148t-60 -148t-149 -59zM102 0v1044h369v-77q117 102 283 102q173 0 279 -105t106 -278v-686h-369v561q0 69 -38.5 110.5t-102.5 41.5q-71 0 -114.5 -43t-43.5 -113v-557h-369z" />
    <glyph glyph-name="uni1E5A" unicode="&#x1e5a;" horiz-adv-x="1345" 
d="M117 0v1413h655q223 0 372.5 -142.5t149.5 -355.5q0 -137 -68 -246.5t-186 -170.5l297 -498h-485l-236 438h-108v-438h-391zM764 1044h-256v-266h256q55 0 92 38t37 95t-37 95t-92 38zM700 -485q-89 0 -148.5 58.5t-59.5 147.5t59.5 148t148.5 59t149 -59t60 -148
t-59.5 -147.5t-149.5 -58.5z" />
    <glyph glyph-name="uni1E5B" unicode="&#x1e5b;" horiz-adv-x="817" 
d="M102 0v1044h369v-120q121 137 281 137h47v-379h-47q-137 0 -209 -57.5t-72 -157.5v-467h-369zM287 -485q-90 0 -149.5 58.5t-59.5 147.5t60 148t149 59t149 -59t60 -148t-59.5 -147.5t-149.5 -58.5z" />
    <glyph glyph-name="uni1E62" unicode="&#x1e62;" horiz-adv-x="1206" 
d="M608 -25q-238 0 -397.5 133.5t-159.5 329.5h402q0 -47 46.5 -80.5t112.5 -33.5q58 0 100 24.5t42 59.5q0 25 -23.5 45.5t-63 36t-90.5 31t-107.5 34.5t-113 42t-107.5 58t-90.5 78.5t-63 107t-23.5 140.5q0 203 150.5 330t377.5 127q228 0 381.5 -127.5t153.5 -317.5
h-402q0 41 -39.5 69t-97.5 28q-52 0 -87.5 -21t-35.5 -57q0 -26 23.5 -46t63 -34t90.5 -27.5t107.5 -30.5t113 -38.5t107.5 -55t90.5 -76.5t63 -107.5t23.5 -143.5q0 -213 -156.5 -345.5t-390.5 -132.5zM604 -485q-90 0 -149.5 58.5t-59.5 147.5t60 148t149 59t149 -59
t60 -148t-59.5 -147.5t-149.5 -58.5z" />
    <glyph glyph-name="uni1E63" unicode="&#x1e63;" horiz-adv-x="1009" 
d="M514 -25q-206 0 -338.5 103t-132.5 252h363q0 -33 31.5 -55.5t76.5 -22.5q37 0 63.5 15t26.5 38q0 21 -23.5 36t-62 24t-87.5 21.5t-100.5 26t-100.5 39t-87.5 58.5t-62 87.5t-23.5 123.5q0 87 36.5 155t98.5 109.5t139.5 62.5t164.5 21q193 0 322.5 -98.5t129.5 -239.5
h-358q0 28 -27.5 47t-66.5 19q-33 0 -56.5 -14.5t-23.5 -37.5q0 -20 23.5 -34.5t62.5 -23.5t88.5 -21.5t101 -25.5t101 -38t88.5 -57.5t62.5 -85t23.5 -119.5q0 -162 -126.5 -263.5t-326.5 -101.5zM506 -485q-90 0 -149.5 58.5t-59.5 147.5t60 148t149 59t149 -59t60 -148
t-59.5 -147.5t-149.5 -58.5z" />
    <glyph glyph-name="uni1E6C" unicode="&#x1e6c;" horiz-adv-x="1161" 
d="M385 0v1044h-340v369h1071v-369h-340v-1044h-391zM582 -485q-90 0 -149.5 58.5t-59.5 147.5t60 148t149 59t149 -59t60 -148t-59.5 -147.5t-149.5 -58.5z" />
    <glyph glyph-name="uni1E6D" unicode="&#x1e6d;" horiz-adv-x="817" 
d="M588 0q-404 0 -404 358v351h-139v335h68q92 0 92 93v174h348v-267h197v-335h-197v-289q0 -84 90 -84h107v-336h-162zM471 -485q-90 0 -149.5 58.5t-59.5 147.5t60 148t149 59t149 -59t60 -148t-59.5 -147.5t-149.5 -58.5z" />
    <glyph glyph-name="Wgrave" unicode="&#x1e80;" horiz-adv-x="2177" 
d="M911 1503l-274 324h459l200 -324h-385zM477 0l-475 1413h432l244 -858l240 858h352l243 -858l240 858h422l-471 -1413h-391l-223 788l-222 -788h-391z" />
    <glyph glyph-name="wgrave" unicode="&#x1e81;" horiz-adv-x="1757" 
d="M700 1135l-274 323h459l200 -323h-385zM352 0l-358 1044h420l137 -540l145 540h375l146 -540l137 540h409l-358 -1044h-377l-149 578l-150 -578h-377z" />
    <glyph glyph-name="Wacute" unicode="&#x1e82;" horiz-adv-x="2177" 
d="M883 1503l200 324h459l-274 -324h-385zM477 0l-475 1413h432l244 -858l240 858h352l243 -858l240 858h422l-471 -1413h-391l-223 788l-222 -788h-391z" />
    <glyph glyph-name="wacute" unicode="&#x1e83;" horiz-adv-x="1757" 
d="M672 1135l200 323h459l-274 -323h-385zM352 0l-358 1044h420l137 -540l145 540h375l146 -540l137 540h409l-358 -1044h-377l-149 578l-150 -578h-377z" />
    <glyph glyph-name="Wdieresis" unicode="&#x1e84;" horiz-adv-x="2177" 
d="M1321 1485q-85 0 -142 56t-57 140q0 85 57 141t142 56t142 -56t57 -141q0 -84 -57 -140t-142 -56zM858 1485q-85 0 -142 56t-57 140q0 85 57 141t142 56t142 -56t57 -141q0 -84 -57 -140t-142 -56zM477 0l-475 1413h432l244 -858l240 858h352l243 -858l240 858h422
l-471 -1413h-391l-223 788l-222 -788h-391z" />
    <glyph glyph-name="wdieresis" unicode="&#x1e85;" horiz-adv-x="1757" 
d="M1110 1116q-85 0 -142 56t-57 141q0 84 57 140t142 56t142 -56t57 -140q0 -85 -57 -141t-142 -56zM647 1116q-85 0 -141.5 56t-56.5 141t56.5 140.5t141.5 55.5t142 -56t57 -140q0 -85 -57 -141t-142 -56zM352 0l-358 1044h420l137 -540l145 540h375l146 -540l137 540
h409l-358 -1044h-377l-149 578l-150 -578h-377z" />
    <glyph glyph-name="uni1E92" unicode="&#x1e92;" horiz-adv-x="1257" 
d="M61 0v281l582 763h-573v369h1112v-280l-582 -764h596v-369h-1135zM627 -485q-90 0 -149.5 58.5t-59.5 147.5t60 148t149 59t149 -59t60 -148t-59.5 -147.5t-149.5 -58.5z" />
    <glyph glyph-name="uni1E93" unicode="&#x1e93;" horiz-adv-x="1052" 
d="M61 0v268l367 420h-358v356h907v-268l-367 -420h381v-356h-930zM526 -485q-90 0 -149.5 58.5t-59.5 147.5t60 148t149 59t149 -59t60 -148t-59.5 -147.5t-149.5 -58.5z" />
    <glyph glyph-name="uni1E9E" unicode="&#x1e9e;" horiz-adv-x="1357" 
d="M870 -25q-62 0 -128 13t-107 32v386q26 -23 75 -38.5t93 -15.5q61 0 99 26t38 68q0 36 -26 61t-64 25h-170v285l151 227h-221q-51 0 -80.5 -29.5t-29.5 -80.5v-934h-391v977q0 196 125 316t331 120h690v-323l-184 -244q124 -56 197 -168t73 -250q0 -194 -135.5 -323.5
t-335.5 -129.5z" />
    <glyph glyph-name="uni1EA0" unicode="&#x1ea0;" horiz-adv-x="1435" 
d="M-20 0l507 1413h461l508 -1413h-428l-63 195h-502l-64 -195h-419zM578 555h272l-135 424zM715 -485q-90 0 -149.5 58.5t-59.5 147.5t60 148t149 59t149 -59t60 -148t-59.5 -147.5t-149.5 -58.5z" />
    <glyph glyph-name="uni1EA1" unicode="&#x1ea1;" horiz-adv-x="1275" 
d="M543 -25q-139 0 -252.5 71.5t-177.5 197t-64 278.5t64 278.5t177.5 197t252.5 71.5q148 0 262 -90v65h369v-1044h-369v66q-115 -91 -262 -91zM616 332q82 0 135.5 54t53.5 136t-53.5 136.5t-135.5 54.5q-81 0 -134.5 -54.5t-53.5 -136.5t53 -136t135 -54zM649 -485
q-90 0 -149.5 58.5t-59.5 147.5t60 148t149 59t149 -59t60 -148t-59.5 -147.5t-149.5 -58.5z" />
    <glyph glyph-name="uni1EA2" unicode="&#x1ea2;" horiz-adv-x="1435" 
d="M592 1483v14q0 56 22.5 90t59.5 60q5 3 27 14t32 20.5t10 22.5q0 16 -10 25.5t-28 9.5q-17 0 -28 -11t-11 -30h-244q0 120 77.5 192t211.5 72q138 0 217.5 -62.5t79.5 -162.5q0 -55 -25.5 -96.5t-83.5 -79.5q-49 -32 -49 -64v-14h-258zM-20 0l507 1413h461l508 -1413
h-428l-63 195h-502l-64 -195h-419zM578 555h272l-135 424z" />
    <glyph glyph-name="uni1EA3" unicode="&#x1ea3;" horiz-adv-x="1275" 
d="M524 1114v14q0 56 22.5 90t59.5 60q5 3 27 14t32.5 20.5t10.5 22.5q0 15 -10.5 25t-28.5 10q-17 0 -28 -11t-11 -30h-244q0 120 77.5 192t211.5 72q138 0 217.5 -62.5t79.5 -162.5q0 -55 -25.5 -96.5t-83.5 -79.5q-49 -32 -49 -64v-14h-258zM543 -25q-139 0 -252.5 71.5
t-177.5 197t-64 278.5t64 278.5t177.5 197t252.5 71.5q148 0 262 -90v65h369v-1044h-369v66q-115 -91 -262 -91zM616 332q82 0 135.5 54t53.5 136t-53.5 136.5t-135.5 54.5q-81 0 -134.5 -54.5t-53.5 -136.5t53 -136t135 -54z" />
    <glyph glyph-name="uni1EA4" unicode="&#x1ea4;" horiz-adv-x="1435" 
d="M1047 1729l200 323h398l-275 -323h-323zM295 1503l201 324h442l201 -324h-344l-78 123l-78 -123h-344zM-20 0l507 1413h461l508 -1413h-428l-63 195h-502l-64 -195h-419zM578 555h272l-135 424z" />
    <glyph glyph-name="uni1EA5" unicode="&#x1ea5;" horiz-adv-x="1275" 
d="M979 1360l201 323h397l-274 -323h-324zM227 1135l201 323h442l201 -323h-344l-78 122l-78 -122h-344zM543 -25q-139 0 -252.5 71.5t-177.5 197t-64 278.5t64 278.5t177.5 197t252.5 71.5q148 0 262 -90v65h369v-1044h-369v66q-115 -91 -262 -91zM616 332q82 0 135.5 54
t53.5 136t-53.5 136.5t-135.5 54.5q-81 0 -134.5 -54.5t-53.5 -136.5t53 -136t135 -54z" />
    <glyph glyph-name="uni1EA6" unicode="&#x1ea6;" horiz-adv-x="1435" 
d="M1112 1729l-274 323h397l201 -323h-324zM295 1503l201 324h442l201 -324h-344l-78 123l-78 -123h-344zM-20 0l507 1413h461l508 -1413h-428l-63 195h-502l-64 -195h-419zM578 555h272l-135 424z" />
    <glyph glyph-name="uni1EA7" unicode="&#x1ea7;" horiz-adv-x="1275" 
d="M1044 1360l-274 323h397l201 -323h-324zM227 1135l201 323h442l201 -323h-344l-78 122l-78 -122h-344zM543 -25q-139 0 -252.5 71.5t-177.5 197t-64 278.5t64 278.5t177.5 197t252.5 71.5q148 0 262 -90v65h369v-1044h-369v66q-115 -91 -262 -91zM616 332q82 0 135.5 54
t53.5 136t-53.5 136.5t-135.5 54.5q-81 0 -134.5 -54.5t-53.5 -136.5t53 -136t135 -54z" />
    <glyph glyph-name="uni1EA8" unicode="&#x1ea8;" horiz-adv-x="1435" 
d="M1069 1694v14q0 87 74 125q4 2 17 8t18 8.5t13.5 8.5t11.5 12t3 14q0 13 -10 22t-25 9t-25.5 -10t-10.5 -27h-220q0 98 70.5 157.5t190.5 59.5q125 0 196.5 -51.5t71.5 -132.5q0 -49 -22.5 -83t-75.5 -65q-46 -27 -46 -55v-14h-231zM295 1503l201 324h442l201 -324h-344
l-78 123l-78 -123h-344zM-20 0l507 1413h461l508 -1413h-428l-63 195h-502l-64 -195h-419zM578 555h272l-135 424z" />
    <glyph glyph-name="uni1EA9" unicode="&#x1ea9;" horiz-adv-x="1275" 
d="M1001 1325v14q0 87 74 125q3 2 17 8t19 9t13.5 9t11.5 12t3 14q0 13 -10 21.5t-25 8.5q-16 0 -26.5 -10t-10.5 -27h-219q0 98 70 157.5t190 59.5q125 0 196.5 -51.5t71.5 -132.5q0 -49 -22.5 -82.5t-75.5 -64.5q-45 -26 -45 -56v-14h-232zM227 1135l201 323h442l201 -323
h-344l-78 122l-78 -122h-344zM543 -25q-139 0 -252.5 71.5t-177.5 197t-64 278.5t64 278.5t177.5 197t252.5 71.5q148 0 262 -90v65h369v-1044h-369v66q-115 -91 -262 -91zM616 332q82 0 135.5 54t53.5 136t-53.5 136.5t-135.5 54.5q-81 0 -134.5 -54.5t-53.5 -136.5
t53 -136t135 -54z" />
    <glyph glyph-name="uni1EAA" unicode="&#x1eaa;" horiz-adv-x="1435" 
d="M844 1886q-48 0 -90 14t-71.5 28t-47.5 14q-24 0 -38.5 -15.5t-14.5 -38.5h-256q0 152 67 248t195 96q47 0 88.5 -14t71.5 -28.5t49 -14.5q23 0 38 16t15 39h256q0 -155 -66.5 -249.5t-195.5 -94.5zM295 1503l201 324h442l201 -324h-344l-78 123l-78 -123h-344zM-20 0
l507 1413h461l508 -1413h-428l-63 195h-502l-64 -195h-419zM578 555h272l-135 424z" />
    <glyph glyph-name="uni1EAB" unicode="&#x1eab;" horiz-adv-x="1275" 
d="M776 1518q-48 0 -90 14t-71.5 27.5t-47.5 13.5q-24 0 -38.5 -15.5t-14.5 -37.5h-256q0 152 67 248t195 96q47 0 88.5 -14.5t71.5 -29t49 -14.5q23 0 38 16t15 40h256q0 -155 -66.5 -249.5t-195.5 -94.5zM227 1135l201 323h442l201 -323h-344l-78 122l-78 -122h-344z
M543 -25q-139 0 -252.5 71.5t-177.5 197t-64 278.5t64 278.5t177.5 197t252.5 71.5q148 0 262 -90v65h369v-1044h-369v66q-115 -91 -262 -91zM616 332q82 0 135.5 54t53.5 136t-53.5 136.5t-135.5 54.5q-81 0 -134.5 -54.5t-53.5 -136.5t53 -136t135 -54z" />
    <glyph glyph-name="uni1EAC" unicode="&#x1eac;" horiz-adv-x="1435" 
d="M295 1503l201 324h442l201 -324h-344l-78 123l-78 -123h-344zM-20 0l507 1413h461l508 -1413h-428l-63 195h-502l-64 -195h-419zM578 555h272l-135 424zM715 -485q-90 0 -149.5 58.5t-59.5 147.5t60 148t149 59t149 -59t60 -148t-59.5 -147.5t-149.5 -58.5z" />
    <glyph glyph-name="uni1EAD" unicode="&#x1ead;" horiz-adv-x="1275" 
d="M227 1135l201 323h442l201 -323h-344l-78 122l-78 -122h-344zM543 -25q-139 0 -252.5 71.5t-177.5 197t-64 278.5t64 278.5t177.5 197t252.5 71.5q148 0 262 -90v65h369v-1044h-369v66q-115 -91 -262 -91zM616 332q82 0 135.5 54t53.5 136t-53.5 136.5t-135.5 54.5
q-81 0 -134.5 -54.5t-53.5 -136.5t53 -136t135 -54zM649 -485q-90 0 -149.5 58.5t-59.5 147.5t60 148t149 59t149 -59t60 -148t-59.5 -147.5t-149.5 -58.5z" />
    <glyph glyph-name="uni1EAE" unicode="&#x1eae;" horiz-adv-x="1435" 
d="M565 1860l174 282h359l-232 -282h-301zM717 1483q-158 0 -263.5 90.5t-105.5 226.5h283q0 -34 24.5 -56t61.5 -22t61.5 22t24.5 56h282q0 -136 -105 -226.5t-263 -90.5zM-20 0l507 1413h461l508 -1413h-428l-63 195h-502l-64 -195h-419zM578 555h272l-135 424z" />
    <glyph glyph-name="uni1EAF" unicode="&#x1eaf;" horiz-adv-x="1275" 
d="M498 1491l174 283h358l-231 -283h-301zM649 1114q-158 0 -263 90.5t-105 227.5h282q0 -34 24.5 -56t61.5 -22t61.5 22t24.5 56h283q0 -136 -105.5 -227t-263.5 -91zM543 -25q-139 0 -252.5 71.5t-177.5 197t-64 278.5t64 278.5t177.5 197t252.5 71.5q148 0 262 -90v65
h369v-1044h-369v66q-115 -91 -262 -91zM616 332q82 0 135.5 54t53.5 136t-53.5 136.5t-135.5 54.5q-81 0 -134.5 -54.5t-53.5 -136.5t53 -136t135 -54z" />
    <glyph glyph-name="uni1EB0" unicode="&#x1eb0;" horiz-adv-x="1435" 
d="M868 1860h-301l-231 282h358zM717 1483q-158 0 -263.5 90.5t-105.5 226.5h283q0 -34 24.5 -56t61.5 -22t61.5 22t24.5 56h282q0 -136 -105 -226.5t-263 -90.5zM-20 0l507 1413h461l508 -1413h-428l-63 195h-502l-64 -195h-419zM578 555h272l-135 424z" />
    <glyph glyph-name="uni1EB1" unicode="&#x1eb1;" horiz-adv-x="1275" 
d="M801 1491h-301l-232 283h359zM649 1114q-158 0 -263 90.5t-105 227.5h282q0 -34 24.5 -56t61.5 -22t61.5 22t24.5 56h283q0 -136 -105.5 -227t-263.5 -91zM543 -25q-139 0 -252.5 71.5t-177.5 197t-64 278.5t64 278.5t177.5 197t252.5 71.5q148 0 262 -90v65h369v-1044
h-369v66q-115 -91 -262 -91zM616 332q82 0 135.5 54t53.5 136t-53.5 136.5t-135.5 54.5q-81 0 -134.5 -54.5t-53.5 -136.5t53 -136t135 -54z" />
    <glyph glyph-name="uni1EB2" unicode="&#x1eb2;" horiz-adv-x="1435" 
d="M604 1849v15q0 87 74 125q4 2 17 8t18 8.5t13.5 8.5t11.5 12t3 14q0 14 -9.5 22.5t-24.5 8.5q-16 0 -26.5 -10t-10.5 -27h-219q0 98 70 157.5t190 59.5q125 0 196.5 -51.5t71.5 -133.5q0 -49 -22.5 -82.5t-75.5 -64.5q-45 -26 -45 -55v-15h-232zM717 1483
q-158 0 -263.5 90.5t-105.5 226.5h283q0 -34 24.5 -56t61.5 -22t61.5 22t24.5 56h282q0 -136 -105 -226.5t-263 -90.5zM-20 0l507 1413h461l508 -1413h-428l-63 195h-502l-64 -195h-419zM578 555h272l-135 424z" />
    <glyph glyph-name="uni1EB3" unicode="&#x1eb3;" horiz-adv-x="1275" 
d="M537 1481v14q0 88 73 125q5 2 17.5 7.5t18 9t13.5 9t11.5 11.5t3.5 14q0 13 -10 22t-25 9q-16 0 -26.5 -10t-10.5 -27h-219q0 98 70 157.5t190 59.5q125 0 196.5 -51.5t71.5 -132.5q0 -49 -22.5 -83t-75.5 -65q-45 -26 -45 -55v-14h-231zM649 1114q-158 0 -263 90.5
t-105 227.5h282q0 -34 24.5 -56t61.5 -22t61.5 22t24.5 56h283q0 -136 -105.5 -227t-263.5 -91zM543 -25q-139 0 -252.5 71.5t-177.5 197t-64 278.5t64 278.5t177.5 197t252.5 71.5q148 0 262 -90v65h369v-1044h-369v66q-115 -91 -262 -91zM616 332q82 0 135.5 54t53.5 136
t-53.5 136.5t-135.5 54.5q-81 0 -134.5 -54.5t-53.5 -136.5t53 -136t135 -54z" />
    <glyph glyph-name="uni1EB4" unicode="&#x1eb4;" horiz-adv-x="1435" 
d="M844 1870q-47 0 -85.5 14t-63.5 27.5t-38 13.5q-24 0 -38.5 -15.5t-14.5 -37.5h-256q0 135 64 222t178 87q46 0 84 -14.5t63 -28.5t39 -14q23 0 38 16t15 39h256q0 -137 -63 -223t-178 -86zM717 1483q-158 0 -263.5 90.5t-105.5 226.5h283q0 -34 24.5 -56t61.5 -22
t61.5 22t24.5 56h282q0 -136 -105 -226.5t-263 -90.5zM-20 0l507 1413h461l508 -1413h-428l-63 195h-502l-64 -195h-419zM578 555h272l-135 424z" />
    <glyph glyph-name="uni1EB5" unicode="&#x1eb5;" horiz-adv-x="1275" 
d="M776 1501q-47 0 -85.5 13.5t-63 27.5t-37.5 14q-24 0 -38.5 -15.5t-14.5 -37.5h-256q0 135 63.5 222t177.5 87q46 0 84 -14t63.5 -28.5t39.5 -14.5q23 0 38 16t15 39h256q0 -137 -63.5 -223t-178.5 -86zM649 1114q-158 0 -263 90.5t-105 227.5h282q0 -34 24.5 -56
t61.5 -22t61.5 22t24.5 56h283q0 -136 -105.5 -227t-263.5 -91zM543 -25q-139 0 -252.5 71.5t-177.5 197t-64 278.5t64 278.5t177.5 197t252.5 71.5q148 0 262 -90v65h369v-1044h-369v66q-115 -91 -262 -91zM616 332q82 0 135.5 54t53.5 136t-53.5 136.5t-135.5 54.5
q-81 0 -134.5 -54.5t-53.5 -136.5t53 -136t135 -54z" />
    <glyph glyph-name="uni1EB6" unicode="&#x1eb6;" horiz-adv-x="1435" 
d="M717 1483q-158 0 -263.5 99.5t-105.5 248.5h283q0 -38 24.5 -63t61.5 -25t61.5 25t24.5 63h282q0 -149 -105 -248.5t-263 -99.5zM-20 0l507 1413h461l508 -1413h-428l-63 195h-502l-64 -195h-419zM578 555h272l-135 424zM715 -485q-90 0 -149.5 58.5t-59.5 147.5t60 148
t149 59t149 -59t60 -148t-59.5 -147.5t-149.5 -58.5z" />
    <glyph glyph-name="uni1EB7" unicode="&#x1eb7;" horiz-adv-x="1275" 
d="M649 1114q-158 0 -263 99.5t-105 248.5h282q0 -38 24.5 -63t61.5 -25t61.5 25t24.5 63h283q0 -149 -105.5 -248.5t-263.5 -99.5zM543 -25q-139 0 -252.5 71.5t-177.5 197t-64 278.5t64 278.5t177.5 197t252.5 71.5q148 0 262 -90v65h369v-1044h-369v66q-115 -91 -262 -91
zM616 332q82 0 135.5 54t53.5 136t-53.5 136.5t-135.5 54.5q-81 0 -134.5 -54.5t-53.5 -136.5t53 -136t135 -54zM649 -485q-90 0 -149.5 58.5t-59.5 147.5t60 148t149 59t149 -59t60 -148t-59.5 -147.5t-149.5 -58.5z" />
    <glyph glyph-name="uni1EB8" unicode="&#x1eb8;" horiz-adv-x="1140" 
d="M117 0v1413h956v-369h-565v-149h500v-369h-500v-157h575v-369h-966zM614 -485q-89 0 -148.5 58.5t-59.5 147.5t59.5 148t148.5 59t149 -59t60 -148t-59.5 -147.5t-149.5 -58.5z" />
    <glyph glyph-name="uni1EB9" unicode="&#x1eb9;" horiz-adv-x="1218" 
d="M610 -25q-160 0 -290 71.5t-203.5 197t-73.5 278.5t73.5 278.5t203.5 197t290 71.5t290 -71t204 -199t74 -287q0 -54 -9 -94h-731q22 -65 71 -101t116 -36q96 0 153 61h387q-56 -165 -207 -266t-348 -101zM610 764q-61 0 -106.5 -36t-65.5 -99h348q-20 64 -66 99.5
t-110 35.5zM610 -485q-90 0 -149.5 58.5t-59.5 147.5t60 148t149 59t149 -59t60 -148t-59.5 -147.5t-149.5 -58.5z" />
    <glyph glyph-name="uni1EBA" unicode="&#x1eba;" horiz-adv-x="1140" 
d="M489 1483v14q0 56 22.5 90t59.5 60q5 3 27 14t32.5 20.5t10.5 22.5q0 15 -10.5 25t-28.5 10q-17 0 -28 -11t-11 -30h-244q0 120 77.5 192t211.5 72q138 0 217.5 -62.5t79.5 -162.5q0 -55 -25 -96.5t-83 -79.5q-49 -32 -49 -64v-14h-259zM117 0v1413h956v-369h-565v-149
h500v-369h-500v-157h575v-369h-966z" />
    <glyph glyph-name="uni1EBB" unicode="&#x1ebb;" horiz-adv-x="1218" 
d="M485 1114v14q0 56 22.5 90t59.5 60q5 3 27 14t32.5 20.5t10.5 22.5q0 15 -10.5 25t-28.5 10q-17 0 -28 -11t-11 -30h-244q0 120 77.5 192t211.5 72q138 0 217.5 -62.5t79.5 -162.5q0 -55 -25 -96.5t-83 -79.5q-50 -33 -50 -64v-14h-258zM610 -25q-160 0 -290 71.5
t-203.5 197t-73.5 278.5t73.5 278.5t203.5 197t290 71.5t290 -71t204 -199t74 -287q0 -54 -9 -94h-731q22 -65 71 -101t116 -36q96 0 153 61h387q-56 -165 -207 -266t-348 -101zM610 764q-61 0 -106.5 -36t-65.5 -99h348q-20 64 -66 99.5t-110 35.5z" />
    <glyph glyph-name="uni1EBC" unicode="&#x1ebc;" horiz-adv-x="1140" 
d="M741 1513q-63 0 -128 28t-81 28q-24 0 -38.5 -15.5t-14.5 -37.5h-256q0 152 67 248t195 96q47 0 88.5 -14.5t71.5 -29t49 -14.5q23 0 38.5 16.5t15.5 39.5h256q0 -155 -67 -250t-196 -95zM117 0v1413h956v-369h-565v-149h500v-369h-500v-157h575v-369h-966z" />
    <glyph glyph-name="uni1EBD" unicode="&#x1ebd;" horiz-adv-x="1218" 
d="M737 1145q-63 0 -128 27.5t-81 27.5q-24 0 -38.5 -15.5t-14.5 -37.5h-256q0 152 67 248t195 96q47 0 88.5 -14.5t71.5 -28.5t49 -14q23 0 38 16t15 39h256q0 -155 -66.5 -249.5t-195.5 -94.5zM610 -25q-160 0 -290 71.5t-203.5 197t-73.5 278.5t73.5 278.5t203.5 197
t290 71.5t290 -71t204 -199t74 -287q0 -54 -9 -94h-731q22 -65 71 -101t116 -36q96 0 153 61h387q-56 -165 -207 -266t-348 -101zM610 764q-61 0 -106.5 -36t-65.5 -99h348q-20 64 -66 99.5t-110 35.5z" />
    <glyph glyph-name="uni1EBE" unicode="&#x1ebe;" horiz-adv-x="1140" 
d="M944 1729l201 323h397l-274 -323h-324zM193 1503l200 324h443l200 -324h-344l-78 123l-77 -123h-344zM117 0v1413h956v-369h-565v-149h500v-369h-500v-157h575v-369h-966z" />
    <glyph glyph-name="uni1EBF" unicode="&#x1ebf;" horiz-adv-x="1218" 
d="M940 1360l201 323h397l-274 -323h-324zM188 1135l201 323h442l201 -323h-344l-78 122l-78 -122h-344zM610 -25q-160 0 -290 71.5t-203.5 197t-73.5 278.5t73.5 278.5t203.5 197t290 71.5t290 -71t204 -199t74 -287q0 -54 -9 -94h-731q22 -65 71 -101t116 -36q96 0 153 61
h387q-56 -165 -207 -266t-348 -101zM610 764q-61 0 -106.5 -36t-65.5 -99h348q-20 64 -66 99.5t-110 35.5z" />
    <glyph glyph-name="uni1EC0" unicode="&#x1ec0;" horiz-adv-x="1140" 
d="M1010 1729l-275 323h398l200 -323h-323zM193 1503l200 324h443l200 -324h-344l-78 123l-77 -123h-344zM117 0v1413h956v-369h-565v-149h500v-369h-500v-157h575v-369h-966z" />
    <glyph glyph-name="uni1EC1" unicode="&#x1ec1;" horiz-adv-x="1218" 
d="M1006 1360l-275 323h397l201 -323h-323zM188 1135l201 323h442l201 -323h-344l-78 122l-78 -122h-344zM610 -25q-160 0 -290 71.5t-203.5 197t-73.5 278.5t73.5 278.5t203.5 197t290 71.5t290 -71t204 -199t74 -287q0 -54 -9 -94h-731q22 -65 71 -101t116 -36
q96 0 153 61h387q-56 -165 -207 -266t-348 -101zM610 764q-61 0 -106.5 -36t-65.5 -99h348q-20 64 -66 99.5t-110 35.5z" />
    <glyph glyph-name="uni1EC2" unicode="&#x1ec2;" horiz-adv-x="1140" 
d="M967 1694v14q0 88 73 125q5 2 17.5 7.5t18 9t13.5 9t11.5 11.5t3.5 14q0 13 -10 22t-25 9q-16 0 -26.5 -10t-10.5 -27h-219q0 98 70 157.5t190 59.5q125 0 196.5 -51.5t71.5 -132.5q0 -49 -22.5 -83t-75.5 -65q-45 -26 -45 -55v-14h-231zM193 1503l200 324h443l200 -324
h-344l-78 123l-77 -123h-344zM117 0v1413h956v-369h-565v-149h500v-369h-500v-157h575v-369h-966z" />
    <glyph glyph-name="uni1EC3" unicode="&#x1ec3;" horiz-adv-x="1218" 
d="M963 1325v14q0 88 73 125q3 2 17 8t19 9t13.5 9t11.5 12t3 14q0 13 -10 21.5t-25 8.5q-16 0 -26.5 -10t-10.5 -27h-219q0 98 70 157.5t190 59.5q125 0 196.5 -51.5t71.5 -132.5q0 -49 -22.5 -82.5t-75.5 -64.5q-45 -26 -45 -56v-14h-231zM188 1135l201 323h442l201 -323
h-344l-78 122l-78 -122h-344zM610 -25q-160 0 -290 71.5t-203.5 197t-73.5 278.5t73.5 278.5t203.5 197t290 71.5t290 -71t204 -199t74 -287q0 -54 -9 -94h-731q22 -65 71 -101t116 -36q96 0 153 61h387q-56 -165 -207 -266t-348 -101zM610 764q-61 0 -106.5 -36t-65.5 -99
h348q-20 64 -66 99.5t-110 35.5z" />
    <glyph glyph-name="uni1EC4" unicode="&#x1ec4;" horiz-adv-x="1140" 
d="M741 1886q-63 0 -128 28t-81 28q-24 0 -38.5 -15.5t-14.5 -38.5h-256q0 152 67 248t195 96q47 0 88.5 -14t71.5 -28.5t49 -14.5q23 0 38.5 16t15.5 39h256q0 -155 -67 -249.5t-196 -94.5zM193 1503l200 324h443l200 -324h-344l-78 123l-77 -123h-344zM117 0v1413h956
v-369h-565v-149h500v-369h-500v-157h575v-369h-966z" />
    <glyph glyph-name="uni1EC5" unicode="&#x1ec5;" horiz-adv-x="1218" 
d="M737 1518q-63 0 -128 27.5t-81 27.5q-24 0 -38.5 -15.5t-14.5 -37.5h-256q0 152 67 248t195 96q47 0 88.5 -14.5t71.5 -29t49 -14.5q23 0 38 16t15 40h256q0 -155 -66.5 -249.5t-195.5 -94.5zM188 1135l201 323h442l201 -323h-344l-78 122l-78 -122h-344zM610 -25
q-160 0 -290 71.5t-203.5 197t-73.5 278.5t73.5 278.5t203.5 197t290 71.5t290 -71t204 -199t74 -287q0 -54 -9 -94h-731q22 -65 71 -101t116 -36q96 0 153 61h387q-56 -165 -207 -266t-348 -101zM610 764q-61 0 -106.5 -36t-65.5 -99h348q-20 64 -66 99.5t-110 35.5z" />
    <glyph glyph-name="uni1EC6" unicode="&#x1ec6;" horiz-adv-x="1140" 
d="M193 1503l200 324h443l200 -324h-344l-78 123l-77 -123h-344zM117 0v1413h956v-369h-565v-149h500v-369h-500v-157h575v-369h-966zM614 -485q-89 0 -148.5 58.5t-59.5 147.5t59.5 148t148.5 59t149 -59t60 -148t-59.5 -147.5t-149.5 -58.5z" />
    <glyph glyph-name="uni1EC7" unicode="&#x1ec7;" horiz-adv-x="1218" 
d="M188 1135l201 323h442l201 -323h-344l-78 122l-78 -122h-344zM610 -25q-160 0 -290 71.5t-203.5 197t-73.5 278.5t73.5 278.5t203.5 197t290 71.5t290 -71t204 -199t74 -287q0 -54 -9 -94h-731q22 -65 71 -101t116 -36q96 0 153 61h387q-56 -165 -207 -266t-348 -101z
M610 764q-61 0 -106.5 -36t-65.5 -99h348q-20 64 -66 99.5t-110 35.5zM610 -485q-90 0 -149.5 58.5t-59.5 147.5t60 148t149 59t149 -59t60 -148t-59.5 -147.5t-149.5 -58.5z" />
    <glyph glyph-name="uni1EC8" unicode="&#x1ec8;" horiz-adv-x="624" 
d="M188 1483v14q0 56 22.5 90t59.5 60q5 3 27 14t32.5 20.5t10.5 22.5q0 15 -10.5 25t-28.5 10q-17 0 -28 -11t-11 -30h-244q0 120 77.5 192t211.5 72q138 0 217.5 -62.5t79.5 -162.5q0 -55 -25 -96.5t-83 -79.5q-50 -33 -50 -64v-14h-258zM117 0v1413h391v-1413h-391z" />
    <glyph glyph-name="uni1EC9" unicode="&#x1ec9;" horiz-adv-x="573" 
d="M162 1114v14q0 56 22.5 90t59.5 60q5 3 27 14t32 20.5t10 22.5q0 15 -10.5 25t-28.5 10q-17 0 -27.5 -11t-10.5 -30h-244q0 120 77.5 192t211.5 72q138 0 217.5 -62.5t79.5 -162.5q0 -55 -25.5 -96.5t-83.5 -79.5q-49 -32 -49 -64v-14h-258zM102 0v1044h369v-1044h-369z
" />
    <glyph glyph-name="uni1ECA" unicode="&#x1eca;" horiz-adv-x="624" 
d="M117 0v1413h391v-1413h-391zM313 -485q-90 0 -149.5 58.5t-59.5 147.5t60 148t149 59t149 -59t60 -148t-59.5 -147.5t-149.5 -58.5z" />
    <glyph glyph-name="uni1ECB" unicode="&#x1ecb;" horiz-adv-x="581" 
d="M291 1135q-95 0 -159 63t-64 158t64 158t159 63t159 -63t64 -158t-64 -158t-159 -63zM106 0v1044h369v-1044h-369zM291 -485q-90 0 -149.5 58.5t-59.5 147.5t60 148t149 59t149 -59t60 -148t-59.5 -147.5t-149.5 -58.5z" />
    <glyph glyph-name="uni1ECC" unicode="&#x1ecc;" horiz-adv-x="1605" 
d="M803 -25q-158 0 -297.5 56.5t-239.5 153.5t-157.5 232.5t-57.5 289.5q0 205 98 372.5t270.5 263t383.5 95.5t383 -95.5t270 -263t98 -372.5t-98 -373t-270 -263.5t-383 -95.5zM803 352q149 0 249.5 101.5t100.5 253.5t-100 253t-250 101t-250 -101t-100 -253
t100.5 -253.5t249.5 -101.5zM803 -485q-90 0 -149.5 58.5t-59.5 147.5t60 148t149 59t149 -59t60 -148t-59.5 -147.5t-149.5 -58.5z" />
    <glyph glyph-name="uni1ECD" unicode="&#x1ecd;" horiz-adv-x="1220" 
d="M610 -25q-160 0 -290 71.5t-203.5 197t-73.5 278.5t73.5 278.5t203.5 197t290 71.5q243 0 405.5 -157t162.5 -390t-162.5 -390t-405.5 -157zM610 332q82 0 135.5 54t53.5 136t-53.5 136.5t-135.5 54.5q-81 0 -134.5 -54.5t-53.5 -136.5t53 -136t135 -54zM610 -485
q-90 0 -149.5 58.5t-59.5 147.5t60 148t149 59t149 -59t60 -148t-59.5 -147.5t-149.5 -58.5z" />
    <glyph glyph-name="uni1ECE" unicode="&#x1ece;" horiz-adv-x="1605" 
d="M678 1483v14q0 56 22.5 90t59.5 60q5 3 27 14t32 20.5t10 22.5q0 16 -10 25.5t-28 9.5q-17 0 -28 -11t-11 -30h-244q0 120 77.5 192t211.5 72q138 0 217.5 -62.5t79.5 -162.5q0 -55 -25.5 -96.5t-83.5 -79.5q-49 -32 -49 -64v-14h-258zM803 -25q-158 0 -297.5 56.5
t-239.5 153.5t-157.5 232.5t-57.5 289.5q0 205 98 372.5t270.5 263t383.5 95.5t383 -95.5t270 -263t98 -372.5t-98 -373t-270 -263.5t-383 -95.5zM803 352q149 0 249.5 101.5t100.5 253.5t-100 253t-250 101t-250 -101t-100 -253t100.5 -253.5t249.5 -101.5z" />
    <glyph glyph-name="uni1ECF" unicode="&#x1ecf;" horiz-adv-x="1220" 
d="M485 1114v14q0 56 22.5 90t59.5 60q5 3 27 14t32.5 20.5t10.5 22.5q0 15 -10.5 25t-28.5 10q-17 0 -28 -11t-11 -30h-244q0 120 77.5 192t211.5 72q138 0 217.5 -62.5t79.5 -162.5q0 -55 -25 -96.5t-83 -79.5q-50 -33 -50 -64v-14h-258zM610 -25q-160 0 -290 71.5
t-203.5 197t-73.5 278.5t73.5 278.5t203.5 197t290 71.5q243 0 405.5 -157t162.5 -390t-162.5 -390t-405.5 -157zM610 332q82 0 135.5 54t53.5 136t-53.5 136.5t-135.5 54.5q-81 0 -134.5 -54.5t-53.5 -136.5t53 -136t135 -54z" />
    <glyph glyph-name="uni1ED0" unicode="&#x1ed0;" horiz-adv-x="1605" 
d="M1133 1729l200 323h398l-275 -323h-323zM381 1503l201 324h442l201 -324h-344l-78 123l-78 -123h-344zM803 -25q-158 0 -297.5 56.5t-239.5 153.5t-157.5 232.5t-57.5 289.5q0 205 98 372.5t270.5 263t383.5 95.5t383 -95.5t270 -263t98 -372.5t-98 -373t-270 -263.5
t-383 -95.5zM803 352q149 0 249.5 101.5t100.5 253.5t-100 253t-250 101t-250 -101t-100 -253t100.5 -253.5t249.5 -101.5z" />
    <glyph glyph-name="uni1ED1" unicode="&#x1ed1;" horiz-adv-x="1220" 
d="M940 1360l201 323h397l-274 -323h-324zM188 1135l201 323h442l201 -323h-344l-78 122l-78 -122h-344zM610 -25q-160 0 -290 71.5t-203.5 197t-73.5 278.5t73.5 278.5t203.5 197t290 71.5q243 0 405.5 -157t162.5 -390t-162.5 -390t-405.5 -157zM610 332q82 0 135.5 54
t53.5 136t-53.5 136.5t-135.5 54.5q-81 0 -134.5 -54.5t-53.5 -136.5t53 -136t135 -54z" />
    <glyph glyph-name="uni1ED2" unicode="&#x1ed2;" horiz-adv-x="1605" 
d="M1198 1729l-274 323h397l201 -323h-324zM381 1503l201 324h442l201 -324h-344l-78 123l-78 -123h-344zM803 -25q-158 0 -297.5 56.5t-239.5 153.5t-157.5 232.5t-57.5 289.5q0 205 98 372.5t270.5 263t383.5 95.5t383 -95.5t270 -263t98 -372.5t-98 -373t-270 -263.5
t-383 -95.5zM803 352q149 0 249.5 101.5t100.5 253.5t-100 253t-250 101t-250 -101t-100 -253t100.5 -253.5t249.5 -101.5z" />
    <glyph glyph-name="uni1ED3" unicode="&#x1ed3;" horiz-adv-x="1220" 
d="M1006 1360l-275 323h397l201 -323h-323zM188 1135l201 323h442l201 -323h-344l-78 122l-78 -122h-344zM610 -25q-160 0 -290 71.5t-203.5 197t-73.5 278.5t73.5 278.5t203.5 197t290 71.5q243 0 405.5 -157t162.5 -390t-162.5 -390t-405.5 -157zM610 332q82 0 135.5 54
t53.5 136t-53.5 136.5t-135.5 54.5q-81 0 -134.5 -54.5t-53.5 -136.5t53 -136t135 -54z" />
    <glyph glyph-name="uni1ED4" unicode="&#x1ed4;" horiz-adv-x="1605" 
d="M1155 1694v14q0 87 74 125q4 2 17 8t18 8.5t13.5 8.5t11.5 12t3 14q0 13 -10 22t-25 9t-25.5 -10t-10.5 -27h-220q0 98 70.5 157.5t190.5 59.5q125 0 196.5 -51.5t71.5 -132.5q0 -49 -22.5 -83t-75.5 -65q-46 -27 -46 -55v-14h-231zM381 1503l201 324h442l201 -324h-344
l-78 123l-78 -123h-344zM803 -25q-158 0 -297.5 56.5t-239.5 153.5t-157.5 232.5t-57.5 289.5q0 205 98 372.5t270.5 263t383.5 95.5t383 -95.5t270 -263t98 -372.5t-98 -373t-270 -263.5t-383 -95.5zM803 352q149 0 249.5 101.5t100.5 253.5t-100 253t-250 101t-250 -101
t-100 -253t100.5 -253.5t249.5 -101.5z" />
    <glyph glyph-name="uni1ED5" unicode="&#x1ed5;" horiz-adv-x="1220" 
d="M963 1325v14q0 88 73 125q3 2 17 8t19 9t13.5 9t11.5 12t3 14q0 13 -10 21.5t-25 8.5q-16 0 -26.5 -10t-10.5 -27h-219q0 98 70 157.5t190 59.5q125 0 196.5 -51.5t71.5 -132.5q0 -49 -22.5 -82.5t-75.5 -64.5q-45 -26 -45 -56v-14h-231zM188 1135l201 323h442l201 -323
h-344l-78 122l-78 -122h-344zM610 -25q-160 0 -290 71.5t-203.5 197t-73.5 278.5t73.5 278.5t203.5 197t290 71.5q243 0 405.5 -157t162.5 -390t-162.5 -390t-405.5 -157zM610 332q82 0 135.5 54t53.5 136t-53.5 136.5t-135.5 54.5q-81 0 -134.5 -54.5t-53.5 -136.5t53 -136
t135 -54z" />
    <glyph glyph-name="uni1ED6" unicode="&#x1ed6;" horiz-adv-x="1605" 
d="M930 1886q-48 0 -90 14t-71.5 28t-47.5 14q-24 0 -38.5 -15.5t-14.5 -38.5h-256q0 152 67 248t195 96q47 0 88.5 -14t71.5 -28.5t49 -14.5q23 0 38 16t15 39h256q0 -155 -66.5 -249.5t-195.5 -94.5zM381 1503l201 324h442l201 -324h-344l-78 123l-78 -123h-344zM803 -25
q-158 0 -297.5 56.5t-239.5 153.5t-157.5 232.5t-57.5 289.5q0 205 98 372.5t270.5 263t383.5 95.5t383 -95.5t270 -263t98 -372.5t-98 -373t-270 -263.5t-383 -95.5zM803 352q149 0 249.5 101.5t100.5 253.5t-100 253t-250 101t-250 -101t-100 -253t100.5 -253.5
t249.5 -101.5z" />
    <glyph glyph-name="uni1ED7" unicode="&#x1ed7;" horiz-adv-x="1220" 
d="M737 1518q-63 0 -128 27.5t-81 27.5q-24 0 -38.5 -15.5t-14.5 -37.5h-256q0 152 67 248t195 96q47 0 88.5 -14.5t71.5 -29t49 -14.5q23 0 38 16t15 40h256q0 -155 -66.5 -249.5t-195.5 -94.5zM188 1135l201 323h442l201 -323h-344l-78 122l-78 -122h-344zM610 -25
q-160 0 -290 71.5t-203.5 197t-73.5 278.5t73.5 278.5t203.5 197t290 71.5q243 0 405.5 -157t162.5 -390t-162.5 -390t-405.5 -157zM610 332q82 0 135.5 54t53.5 136t-53.5 136.5t-135.5 54.5q-81 0 -134.5 -54.5t-53.5 -136.5t53 -136t135 -54z" />
    <glyph glyph-name="uni1ED8" unicode="&#x1ed8;" horiz-adv-x="1605" 
d="M381 1503l201 324h442l201 -324h-344l-78 123l-78 -123h-344zM803 -25q-158 0 -297.5 56.5t-239.5 153.5t-157.5 232.5t-57.5 289.5q0 205 98 372.5t270.5 263t383.5 95.5t383 -95.5t270 -263t98 -372.5t-98 -373t-270 -263.5t-383 -95.5zM803 352q149 0 249.5 101.5
t100.5 253.5t-100 253t-250 101t-250 -101t-100 -253t100.5 -253.5t249.5 -101.5zM803 -485q-90 0 -149.5 58.5t-59.5 147.5t60 148t149 59t149 -59t60 -148t-59.5 -147.5t-149.5 -58.5z" />
    <glyph glyph-name="uni1ED9" unicode="&#x1ed9;" horiz-adv-x="1220" 
d="M188 1135l201 323h442l201 -323h-344l-78 122l-78 -122h-344zM610 -25q-160 0 -290 71.5t-203.5 197t-73.5 278.5t73.5 278.5t203.5 197t290 71.5q243 0 405.5 -157t162.5 -390t-162.5 -390t-405.5 -157zM610 332q82 0 135.5 54t53.5 136t-53.5 136.5t-135.5 54.5
q-81 0 -134.5 -54.5t-53.5 -136.5t53 -136t135 -54zM610 -485q-90 0 -149.5 58.5t-59.5 147.5t60 148t149 59t149 -59t60 -148t-59.5 -147.5t-149.5 -58.5z" />
    <glyph glyph-name="uni1EDA" unicode="&#x1eda;" horiz-adv-x="1605" 
d="M596 1503l201 324h458l-274 -324h-385zM803 -25q-158 0 -297.5 56.5t-239.5 153.5t-157.5 232.5t-57.5 289.5q0 205 98 372.5t270.5 263t383.5 95.5h291q71 0 71 71v23h357v-100q0 -187 -133 -258q165 -198 165 -467q0 -205 -98 -373t-270 -263.5t-383 -95.5zM803 352
q149 0 249.5 101.5t100.5 253.5t-100 253t-250 101t-250 -101t-100 -253t100.5 -253.5t249.5 -101.5z" />
    <glyph glyph-name="uni1EDB" unicode="&#x1edb;" horiz-adv-x="1220" 
d="M322 1135l200 323h459l-274 -323h-385zM610 -25q-160 0 -290 71.5t-203.5 197t-73.5 278.5t73.5 278.5t203.5 197t290 71.5h127q72 0 72 72v22h356v-100q0 -151 -86 -225q99 -138 99 -316q0 -233 -162.5 -390t-405.5 -157zM610 332q82 0 135.5 54t53.5 136t-53.5 136.5
t-135.5 54.5q-81 0 -134.5 -54.5t-53.5 -136.5t53 -136t135 -54z" />
    <glyph glyph-name="uni1EDC" unicode="&#x1edc;" horiz-adv-x="1605" 
d="M625 1503l-275 324h459l201 -324h-385zM803 -25q-158 0 -297.5 56.5t-239.5 153.5t-157.5 232.5t-57.5 289.5q0 205 98 372.5t270.5 263t383.5 95.5h291q71 0 71 71v23h357v-100q0 -187 -133 -258q165 -198 165 -467q0 -205 -98 -373t-270 -263.5t-383 -95.5zM803 352
q149 0 249.5 101.5t100.5 253.5t-100 253t-250 101t-250 -101t-100 -253t100.5 -253.5t249.5 -101.5z" />
    <glyph glyph-name="uni1EDD" unicode="&#x1edd;" horiz-adv-x="1220" 
d="M350 1135l-274 323h459l200 -323h-385zM610 -25q-160 0 -290 71.5t-203.5 197t-73.5 278.5t73.5 278.5t203.5 197t290 71.5h127q72 0 72 72v22h356v-100q0 -151 -86 -225q99 -138 99 -316q0 -233 -162.5 -390t-405.5 -157zM610 332q82 0 135.5 54t53.5 136t-53.5 136.5
t-135.5 54.5q-81 0 -134.5 -54.5t-53.5 -136.5t53 -136t135 -54z" />
    <glyph glyph-name="uni1EDE" unicode="&#x1ede;" horiz-adv-x="1605" 
d="M678 1483v14q0 56 22.5 90t59.5 60q5 3 27 14t32 20.5t10 22.5q0 16 -10 25.5t-28 9.5q-17 0 -28 -11t-11 -30h-244q0 120 77.5 192t211.5 72q138 0 217.5 -62.5t79.5 -162.5q0 -55 -25.5 -96.5t-83.5 -79.5q-49 -32 -49 -64v-14h-258zM803 -25q-158 0 -297.5 56.5
t-239.5 153.5t-157.5 232.5t-57.5 289.5q0 205 98 372.5t270.5 263t383.5 95.5h291q71 0 71 71v23h357v-100q0 -187 -133 -258q165 -198 165 -467q0 -205 -98 -373t-270 -263.5t-383 -95.5zM803 352q149 0 249.5 101.5t100.5 253.5t-100 253t-250 101t-250 -101t-100 -253
t100.5 -253.5t249.5 -101.5z" />
    <glyph glyph-name="uni1EDF" unicode="&#x1edf;" horiz-adv-x="1220" 
d="M403 1114v14q0 56 22.5 90t59.5 60q5 3 27 14t32.5 20.5t10.5 22.5q0 15 -10.5 25t-28.5 10q-17 0 -28 -11t-11 -30h-244q0 120 77.5 192t211.5 72q138 0 217.5 -62.5t79.5 -162.5q0 -55 -25 -96.5t-83 -79.5q-49 -32 -49 -64v-14h-259zM610 -25q-160 0 -290 71.5
t-203.5 197t-73.5 278.5t73.5 278.5t203.5 197t290 71.5h127q72 0 72 72v22h356v-100q0 -151 -86 -225q99 -138 99 -316q0 -233 -162.5 -390t-405.5 -157zM610 332q82 0 135.5 54t53.5 136t-53.5 136.5t-135.5 54.5q-81 0 -134.5 -54.5t-53.5 -136.5t53 -136t135 -54z" />
    <glyph glyph-name="uni1EE0" unicode="&#x1ee0;" horiz-adv-x="1605" 
d="M930 1513q-48 0 -90 14t-71.5 28t-47.5 14q-24 0 -38.5 -15.5t-14.5 -37.5h-256q0 152 67 248t195 96q47 0 88.5 -14.5t71.5 -29t49 -14.5q23 0 38 16t15 40h256q0 -155 -66.5 -250t-195.5 -95zM803 -25q-158 0 -297.5 56.5t-239.5 153.5t-157.5 232.5t-57.5 289.5
q0 205 98 372.5t270.5 263t383.5 95.5h291q71 0 71 71v23h357v-100q0 -187 -133 -258q165 -198 165 -467q0 -205 -98 -373t-270 -263.5t-383 -95.5zM803 352q149 0 249.5 101.5t100.5 253.5t-100 253t-250 101t-250 -101t-100 -253t100.5 -253.5t249.5 -101.5z" />
    <glyph glyph-name="uni1EE1" unicode="&#x1ee1;" horiz-adv-x="1220" 
d="M631 1145q-63 0 -128 27.5t-81 27.5q-24 0 -38.5 -15.5t-14.5 -37.5h-256q0 152 67 248t195 96q47 0 88.5 -14.5t71.5 -28.5t49 -14q23 0 38 16t15 39h256q0 -155 -66.5 -249.5t-195.5 -94.5zM610 -25q-160 0 -290 71.5t-203.5 197t-73.5 278.5t73.5 278.5t203.5 197
t290 71.5h127q72 0 72 72v22h356v-100q0 -151 -86 -225q99 -138 99 -316q0 -233 -162.5 -390t-405.5 -157zM610 332q82 0 135.5 54t53.5 136t-53.5 136.5t-135.5 54.5q-81 0 -134.5 -54.5t-53.5 -136.5t53 -136t135 -54z" />
    <glyph glyph-name="uni1EE2" unicode="&#x1ee2;" horiz-adv-x="1605" 
d="M803 -25q-158 0 -297.5 56.5t-239.5 153.5t-157.5 232.5t-57.5 289.5q0 205 98 372.5t270.5 263t383.5 95.5h291q71 0 71 71v23h357v-100q0 -187 -133 -258q165 -198 165 -467q0 -205 -98 -373t-270 -263.5t-383 -95.5zM803 352q149 0 249.5 101.5t100.5 253.5t-100 253
t-250 101t-250 -101t-100 -253t100.5 -253.5t249.5 -101.5zM803 -485q-90 0 -149.5 58.5t-59.5 147.5t60 148t149 59t149 -59t60 -148t-59.5 -147.5t-149.5 -58.5z" />
    <glyph glyph-name="uni1EE3" unicode="&#x1ee3;" horiz-adv-x="1220" 
d="M610 -25q-160 0 -290 71.5t-203.5 197t-73.5 278.5t73.5 278.5t203.5 197t290 71.5h127q72 0 72 72v22h356v-100q0 -151 -86 -225q99 -138 99 -316q0 -233 -162.5 -390t-405.5 -157zM610 332q82 0 135.5 54t53.5 136t-53.5 136.5t-135.5 54.5q-81 0 -134.5 -54.5
t-53.5 -136.5t53 -136t135 -54zM610 -485q-90 0 -149.5 58.5t-59.5 147.5t60 148t149 59t149 -59t60 -148t-59.5 -147.5t-149.5 -58.5z" />
    <glyph glyph-name="uni1EE4" unicode="&#x1ee4;" horiz-adv-x="1388" 
d="M694 -25q-126 0 -237 44t-190 120.5t-125 184t-46 229.5v860h391v-854q0 -89 59 -148t148 -59t148 59t59 148v854h391v-860q0 -122 -46 -229.5t-125 -184t-190 -120.5t-237 -44zM694 -485q-90 0 -149.5 58.5t-59.5 147.5t60 148t149 59t149 -59t60 -148t-59.5 -147.5
t-149.5 -58.5z" />
    <glyph glyph-name="uni1EE5" unicode="&#x1ee5;" horiz-adv-x="1198" 
d="M457 -25q-168 0 -270.5 105t-102.5 278v686h369v-573q0 -63 35.5 -101t93.5 -38q65 0 105 39.5t40 103.5v569h369v-1044h-369v78q-112 -103 -270 -103zM590 -485q-90 0 -149.5 58.5t-59.5 147.5t60 148t149 59t149 -59t60 -148t-59.5 -147.5t-149.5 -58.5z" />
    <glyph glyph-name="uni1EE6" unicode="&#x1ee6;" horiz-adv-x="1388" 
d="M569 1483v14q0 56 22.5 90t59.5 60q5 3 27 14t32.5 20.5t10.5 22.5q0 15 -10.5 25t-28.5 10q-17 0 -28 -11t-11 -30h-244q0 120 77.5 192t211.5 72q138 0 217.5 -62.5t79.5 -162.5q0 -55 -25 -96.5t-83 -79.5q-50 -33 -50 -64v-14h-258zM694 -25q-126 0 -237 44
t-190 120.5t-125 184t-46 229.5v860h391v-854q0 -89 59 -148t148 -59t148 59t59 148v854h391v-860q0 -122 -46 -229.5t-125 -184t-190 -120.5t-237 -44z" />
    <glyph glyph-name="uni1EE7" unicode="&#x1ee7;" horiz-adv-x="1198" 
d="M465 1114v14q0 56 22.5 90t59.5 60q5 3 27 14t32 20.5t10 22.5q0 16 -10 25.5t-28 9.5q-17 0 -28 -11t-11 -30h-244q0 120 77.5 192t211.5 72q138 0 217.5 -62.5t79.5 -162.5q0 -55 -25.5 -96.5t-83.5 -79.5q-49 -32 -49 -64v-14h-258zM457 -25q-168 0 -270.5 105
t-102.5 278v686h369v-573q0 -63 35.5 -101t93.5 -38q65 0 105 39.5t40 103.5v569h369v-1044h-369v78q-112 -103 -270 -103z" />
    <glyph glyph-name="uni1EE8" unicode="&#x1ee8;" horiz-adv-x="1562" 
d="M487 1503l201 324h459l-275 -324h-385zM694 -25q-126 0 -237 44t-190 120.5t-125 184t-46 229.5v860h391v-854q0 -89 59 -148t148 -59t148 59t59 148v854h275q71 0 71 72v22h357v-100q0 -286 -312 -301v-553q0 -122 -46 -229.5t-125 -184t-190 -120.5t-237 -44z" />
    <glyph glyph-name="uni1EE9" unicode="&#x1ee9;" horiz-adv-x="1284" 
d="M379 1135l201 323h458l-274 -323h-385zM457 -25q-168 0 -270.5 105t-102.5 278v686h369v-573q0 -63 35.5 -101t93.5 -38q65 0 105 39.5t40 103.5v569h154q71 0 71 72v23h357v-101q0 -236 -213 -286v-752h-369v78q-112 -103 -270 -103z" />
    <glyph glyph-name="uni1EEA" unicode="&#x1eea;" horiz-adv-x="1562" 
d="M516 1503l-274 324h458l201 -324h-385zM694 -25q-126 0 -237 44t-190 120.5t-125 184t-46 229.5v860h391v-854q0 -89 59 -148t148 -59t148 59t59 148v854h275q71 0 71 72v22h357v-100q0 -286 -312 -301v-553q0 -122 -46 -229.5t-125 -184t-190 -120.5t-237 -44z" />
    <glyph glyph-name="uni1EEB" unicode="&#x1eeb;" horiz-adv-x="1284" 
d="M408 1135l-275 323h459l201 -323h-385zM457 -25q-168 0 -270.5 105t-102.5 278v686h369v-573q0 -63 35.5 -101t93.5 -38q65 0 105 39.5t40 103.5v569h154q71 0 71 72v23h357v-101q0 -236 -213 -286v-752h-369v78q-112 -103 -270 -103z" />
    <glyph glyph-name="uni1EEC" unicode="&#x1eec;" horiz-adv-x="1562" 
d="M569 1483v14q0 56 22.5 90t59.5 60q5 3 27 14t32.5 20.5t10.5 22.5q0 15 -10.5 25t-28.5 10q-17 0 -28 -11t-11 -30h-244q0 120 77.5 192t211.5 72q138 0 217.5 -62.5t79.5 -162.5q0 -55 -25 -96.5t-83 -79.5q-50 -33 -50 -64v-14h-258zM694 -25q-126 0 -237 44
t-190 120.5t-125 184t-46 229.5v860h391v-854q0 -89 59 -148t148 -59t148 59t59 148v854h275q71 0 71 72v22h357v-100q0 -286 -312 -301v-553q0 -122 -46 -229.5t-125 -184t-190 -120.5t-237 -44z" />
    <glyph glyph-name="uni1EED" unicode="&#x1eed;" horiz-adv-x="1284" 
d="M461 1114v14q0 56 22.5 90t59.5 60q5 3 27 14t32 20.5t10 22.5q0 15 -10.5 25t-28.5 10q-17 0 -27.5 -11t-10.5 -30h-244q0 120 77.5 192t211.5 72q138 0 217.5 -62.5t79.5 -162.5q0 -55 -25.5 -96.5t-83.5 -79.5q-49 -32 -49 -64v-14h-258zM457 -25q-168 0 -270.5 105
t-102.5 278v686h369v-573q0 -63 35.5 -101t93.5 -38q65 0 105 39.5t40 103.5v569h154q71 0 71 72v23h357v-101q0 -236 -213 -286v-752h-369v78q-112 -103 -270 -103z" />
    <glyph glyph-name="uni1EEE" unicode="&#x1eee;" horiz-adv-x="1562" 
d="M821 1513q-63 0 -128 28t-81 28q-24 0 -38.5 -15.5t-14.5 -37.5h-256q0 152 67 248t195 96q47 0 88.5 -14.5t71.5 -29t49 -14.5q23 0 38 16t15 40h256q0 -155 -66.5 -250t-195.5 -95zM694 -25q-126 0 -237 44t-190 120.5t-125 184t-46 229.5v860h391v-854q0 -89 59 -148
t148 -59t148 59t59 148v854h275q71 0 71 72v22h357v-100q0 -286 -312 -301v-553q0 -122 -46 -229.5t-125 -184t-190 -120.5t-237 -44z" />
    <glyph glyph-name="uni1EEF" unicode="&#x1eef;" horiz-adv-x="1284" 
d="M713 1145q-63 0 -128 27.5t-81 27.5q-24 0 -38.5 -15.5t-14.5 -37.5h-256q0 152 67 248t195 96q47 0 88.5 -14.5t71.5 -28.5t49 -14q23 0 38 16t15 39h256q0 -155 -66.5 -249.5t-195.5 -94.5zM457 -25q-168 0 -270.5 105t-102.5 278v686h369v-573q0 -63 35.5 -101
t93.5 -38q65 0 105 39.5t40 103.5v569h154q71 0 71 72v23h357v-101q0 -236 -213 -286v-752h-369v78q-112 -103 -270 -103z" />
    <glyph glyph-name="uni1EF0" unicode="&#x1ef0;" horiz-adv-x="1562" 
d="M694 -25q-126 0 -237 44t-190 120.5t-125 184t-46 229.5v860h391v-854q0 -89 59 -148t148 -59t148 59t59 148v854h275q71 0 71 72v22h357v-100q0 -286 -312 -301v-553q0 -122 -46 -229.5t-125 -184t-190 -120.5t-237 -44zM694 -485q-90 0 -149.5 58.5t-59.5 147.5t60 148
t149 59t149 -59t60 -148t-59.5 -147.5t-149.5 -58.5z" />
    <glyph glyph-name="uni1EF1" unicode="&#x1ef1;" horiz-adv-x="1284" 
d="M457 -25q-168 0 -270.5 105t-102.5 278v686h369v-573q0 -63 35.5 -101t93.5 -38q65 0 105 39.5t40 103.5v569h154q71 0 71 72v23h357v-101q0 -236 -213 -286v-752h-369v78q-112 -103 -270 -103zM590 -485q-90 0 -149.5 58.5t-59.5 147.5t60 148t149 59t149 -59t60 -148
t-59.5 -147.5t-149.5 -58.5z" />
    <glyph glyph-name="Ygrave" unicode="&#x1ef2;" horiz-adv-x="1386" 
d="M516 1503l-274 324h458l201 -324h-385zM498 0v465l-521 948h445l276 -534l275 534h436l-520 -948v-465h-391z" />
    <glyph glyph-name="ygrave" unicode="&#x1ef3;" horiz-adv-x="1167" 
d="M406 1135l-275 323h459l201 -323h-385zM225 -389l162 407l-397 1026h420l178 -552l178 552h412l-557 -1433h-396z" />
    <glyph glyph-name="uni1EF4" unicode="&#x1ef4;" horiz-adv-x="1386" 
d="M498 0v465l-521 948h445l276 -534l275 534h436l-520 -948v-465h-391zM694 -485q-90 0 -149.5 58.5t-59.5 147.5t60 148t149 59t149 -59t60 -148t-59.5 -147.5t-149.5 -58.5z" />
    <glyph glyph-name="uni1EF5" unicode="&#x1ef5;" horiz-adv-x="1167" 
d="M225 -389l162 407l-397 1026h420l178 -552l178 552h412l-557 -1433h-396zM993 -412q-89 0 -149 59t-60 148t60 148t149 59t149 -59t60 -148t-60 -148t-149 -59z" />
    <glyph glyph-name="uni1EF6" unicode="&#x1ef6;" horiz-adv-x="1386" 
d="M569 1483v14q0 56 22.5 90t59.5 60q5 3 27 14t32.5 20.5t10.5 22.5q0 15 -10.5 25t-28.5 10q-17 0 -28 -11t-11 -30h-244q0 120 77.5 192t211.5 72q138 0 217.5 -62.5t79.5 -162.5q0 -55 -25 -96.5t-83 -79.5q-50 -33 -50 -64v-14h-258zM498 0v465l-521 948h445l276 -534
l275 534h436l-520 -948v-465h-391z" />
    <glyph glyph-name="uni1EF7" unicode="&#x1ef7;" horiz-adv-x="1167" 
d="M459 1114v14q0 56 22.5 90t59.5 60q5 3 27 14t32 20.5t10 22.5q0 15 -10.5 25t-28.5 10q-17 0 -28 -11t-11 -30h-243q0 120 77.5 192t211.5 72q138 0 217 -62.5t79 -162.5q0 -55 -25 -96.5t-83 -79.5q-49 -32 -49 -64v-14h-258zM225 -389l162 407l-397 1026h420l178 -552
l178 552h412l-557 -1433h-396z" />
    <glyph glyph-name="uni1EF8" unicode="&#x1ef8;" horiz-adv-x="1386" 
d="M821 1513q-63 0 -128 28t-81 28q-24 0 -38.5 -15.5t-14.5 -37.5h-256q0 152 67 248t195 96q47 0 88.5 -14.5t71.5 -29t49 -14.5q23 0 38 16t15 40h256q0 -155 -66.5 -250t-195.5 -95zM498 0v465l-521 948h445l276 -534l275 534h436l-520 -948v-465h-391z" />
    <glyph glyph-name="uni1EF9" unicode="&#x1ef9;" horiz-adv-x="1167" 
d="M711 1145q-63 0 -128 27.5t-81 27.5q-24 0 -38.5 -15.5t-14.5 -37.5h-256q0 152 67 248t195 96q47 0 88.5 -14.5t71.5 -28.5t49 -14q23 0 38 16t15 39h256q0 -155 -66.5 -249.5t-195.5 -94.5zM225 -389l162 407l-397 1026h420l178 -552l178 552h412l-557 -1433h-396z" />
    <glyph glyph-name="endash" unicode="&#x2013;" horiz-adv-x="1245" 
d="M106 395v332h1033v-332h-1033z" />
    <glyph glyph-name="emdash" unicode="&#x2014;" horiz-adv-x="2187" 
d="M106 395v332h1975v-332h-1975z" />
    <glyph glyph-name="quoteleft" unicode="&#x2018;" horiz-adv-x="575" 
d="M283 627q-102 0 -169 68t-67 206q0 101 38.5 197.5t101.5 167.5t144.5 118t164.5 54v-264q-92 -12 -140 -84q74 -22 120 -84t46 -144q0 -101 -67 -168t-172 -67z" />
    <glyph glyph-name="quoteright" unicode="&#x2019;" horiz-adv-x="575" 
d="M84 627v264q90 12 139 84q-75 22 -120.5 83.5t-45.5 143.5q0 101 67.5 168.5t172.5 67.5q102 0 168.5 -68.5t66.5 -206.5q0 -101 -38.5 -197t-101 -167.5t-144 -118t-164.5 -53.5z" />
    <glyph glyph-name="quotesinglbase" unicode="&#x201a;" horiz-adv-x="569" 
d="M74 -344v264q90 12 139 84q-75 22 -120.5 83.5t-45.5 143.5q0 101 67.5 168.5t172.5 67.5q102 0 168.5 -68t66.5 -206q0 -134 -65 -255.5t-168 -196.5t-215 -85z" />
    <glyph glyph-name="quotedblleft" unicode="&#x201c;" horiz-adv-x="1101" 
d="M809 627q-102 0 -169 68t-67 206q0 101 38.5 197.5t101.5 167.5t144.5 118t164.5 54v-264q-90 -12 -139 -84q74 -22 120 -84t46 -144q0 -101 -67.5 -168t-172.5 -67zM283 627q-102 0 -169 68t-67 206q0 101 38.5 197.5t101.5 167.5t144.5 118t164.5 54v-264
q-92 -12 -140 -84q74 -22 120 -84t46 -144q0 -101 -67 -168t-172 -67z" />
    <glyph glyph-name="quotedblright" unicode="&#x201d;" horiz-adv-x="1101" 
d="M610 627v264q92 12 140 84q-75 22 -120.5 83.5t-45.5 143.5q0 101 67 168.5t172 67.5q102 0 169 -68.5t67 -206.5q0 -101 -38.5 -197t-101.5 -167.5t-144.5 -118t-164.5 -53.5zM84 627v264q90 12 139 84q-75 22 -120.5 83.5t-45.5 143.5q0 101 67.5 168.5t172.5 67.5
q102 0 168.5 -68.5t66.5 -206.5q0 -101 -38.5 -197t-101 -167.5t-144 -118t-164.5 -53.5z" />
    <glyph glyph-name="quotedblbase" unicode="&#x201e;" horiz-adv-x="1095" 
d="M600 -344v264q90 12 139 84q-75 22 -120.5 83.5t-45.5 143.5q0 101 67.5 168.5t172.5 67.5q102 0 169 -68t67 -206q0 -101 -38.5 -197.5t-101.5 -167.5t-144.5 -118t-164.5 -54zM74 -344v264q90 12 139 84q-75 22 -120.5 83.5t-45.5 143.5q0 101 67.5 168.5t172.5 67.5
q102 0 168.5 -68t66.5 -206q0 -134 -65 -255.5t-168 -196.5t-215 -85z" />
    <glyph glyph-name="dagger" unicode="&#x2020;" horiz-adv-x="1011" 
d="M338 -389v1102h-232v331h232v369h336v-369h231v-331h-231v-1102h-336z" />
    <glyph glyph-name="daggerdbl" unicode="&#x2021;" horiz-adv-x="1011" 
d="M106 20v332h232v361h-232v331h232v369h336v-369h231v-331h-231v-361h231v-332h-231v-409h-336v409h-232z" />
    <glyph glyph-name="bullet" unicode="&#x2022;" horiz-adv-x="790" 
d="M395 274q-123 0 -206 82t-83 205t83 205t206 82t206 -82t83 -205t-83 -205t-206 -82z" />
    <glyph glyph-name="ellipsis" unicode="&#x2026;" horiz-adv-x="1798" 
d="M899 -25q-106 0 -177 71t-71 175t71 175t177 71t177 -71t71 -175t-71 -175t-177 -71zM1513 -25q-105 0 -176 70.5t-71 175.5t71 175.5t176 70.5q106 0 177 -71t71 -175t-71 -175t-177 -71zM285 -25q-106 0 -177 71t-71 175t71 175t177 71q105 0 176 -70.5t71 -175.5
t-71 -175.5t-176 -70.5z" />
    <glyph glyph-name="perthousand" unicode="&#x2030;" horiz-adv-x="2621" 
d="M436 713q-158 0 -264 104.5t-106 259.5q0 154 106 257.5t264 103.5t264.5 -103.5t106.5 -257.5q0 -155 -106.5 -259.5t-264.5 -104.5zM205 0l1024 1413h391l-1024 -1413h-391zM436 1008q29 0 48.5 20t19.5 49q0 28 -19.5 47t-48.5 19t-48 -19t-19 -47q0 -29 19 -49
t48 -20zM1386 -25q-158 0 -264 105t-106 260q0 154 106 257t264 103t264.5 -103t106.5 -257q0 -155 -106.5 -260t-264.5 -105zM2185 -25q-158 0 -264 105t-106 260q0 154 106 257t264 103t264.5 -103t106.5 -257q0 -155 -106.5 -260t-264.5 -105zM1386 270q29 0 48.5 20.5
t19.5 49.5q0 28 -19.5 47t-48.5 19t-48 -19t-19 -47q0 -30 19 -50t48 -20zM2185 270q29 0 48.5 20.5t19.5 49.5q0 28 -19.5 47t-48.5 19t-48 -19t-19 -47q0 -30 19 -50t48 -20z" />
    <glyph glyph-name="guilsinglleft" unicode="&#x2039;" horiz-adv-x="751" 
d="M291 119l-281 422l281 422h430l-283 -422l283 -422h-430z" />
    <glyph glyph-name="guilsinglright" unicode="&#x203a;" horiz-adv-x="751" 
d="M31 119l282 422l-282 422h430l280 -422l-280 -422h-430z" />
    <glyph glyph-name="fraction" unicode="&#x2044;" horiz-adv-x="411" 
d="M-420 0l946 1413h305l-946 -1413h-305z" />
    <glyph glyph-name="uni2070" unicode="&#x2070;" horiz-adv-x="796" 
d="M399 735q-151 0 -246.5 122t-95.5 317t95.5 316.5t246.5 121.5t245.5 -122t94.5 -316t-94.5 -316.5t-245.5 -122.5zM399 969q40 0 65 57t25 148t-25 147.5t-65 56.5t-66 -57t-26 -147t26 -147.5t66 -57.5z" />
    <glyph glyph-name="uni2074" unicode="&#x2074;" horiz-adv-x="763" 
d="M412 750v131h-369v198l279 518h260l-269 -487h119v90h223v-90h66v-229h-66v-131h-243z" />
    <glyph glyph-name="uni2075" unicode="&#x2075;" horiz-adv-x="729" 
d="M377 735q-130 0 -220 77t-98 194h252q7 -15 24.5 -26t41.5 -11q29 0 48 16t19 41q0 26 -19.5 43.5t-47.5 17.5q-29 0 -58 -22h-241l47 532h512v-229h-301l-8 -76q37 11 75 11q122 0 206.5 -81.5t84.5 -201.5q0 -121 -91 -203t-226 -82z" />
    <glyph glyph-name="uni2076" unicode="&#x2076;" horiz-adv-x="724" 
d="M381 735q-150 0 -244 104.5t-94 272.5q0 98 34.5 185.5t100 156t169.5 108.5t233 40h24v-230h-24q-189 0 -254 -88q54 21 106 21q114 0 190 -78t76 -195q0 -126 -90.5 -211.5t-226.5 -85.5zM377 969q31 0 51.5 16t20.5 41q0 24 -21 39.5t-51 15.5t-51 -15.5t-21 -41.5
q0 -24 21 -39.5t51 -15.5z" />
    <glyph glyph-name="uni2077" unicode="&#x2077;" horiz-adv-x="661" 
d="M78 750l272 618h-299v229h582v-190l-281 -657h-274z" />
    <glyph glyph-name="uni2078" unicode="&#x2078;" horiz-adv-x="755" 
d="M377 735q-146 0 -235 71.5t-89 188.5q0 123 101 195q-84 68 -84 176q0 112 85 179t222 67q139 0 224 -67t85 -179q0 -108 -84 -176q100 -71 100 -195q0 -117 -89 -188.5t-236 -71.5zM377 1290q29 0 47 13.5t18 33.5t-18 32.5t-47 12.5q-28 0 -46 -12.5t-18 -32.5
t18 -33.5t46 -13.5zM377 969q34 0 55 15t21 40q0 26 -21 40.5t-55 14.5q-33 0 -53.5 -14.5t-20.5 -40.5q0 -25 20.5 -40t53.5 -15z" />
    <glyph glyph-name="uni2079" unicode="&#x2079;" horiz-adv-x="724" 
d="M172 745h-49v230h49q160 0 227 88q-54 -21 -106 -21q-114 0 -190 78t-76 195q0 126 90.5 211.5t226.5 85.5q150 0 244 -104.5t94 -272.5q0 -98 -34 -185.5t-96.5 -156t-161 -108.5t-218.5 -40zM348 1266q30 0 51 15.5t21 41.5q0 24 -21 39.5t-51 15.5q-31 0 -51.5 -16
t-20.5 -41q0 -24 21 -39.5t51 -15.5z" />
    <glyph glyph-name="franc" unicode="&#x20a3;" horiz-adv-x="1136" 
d="M70 121v336h90v956h905v-369h-514v-124h438v-369h-438v-94h289v-336h-289v-121h-391v121h-90z" />
    <glyph glyph-name="lira" unicode="&#x20a4;" horiz-adv-x="1214" 
d="M76 0v369h90v100h-90v180h90v74h-90v180h90v60q0 204 142 339.5t354 135.5t353.5 -135.5t141.5 -339.5h-391q0 43 -29.5 70.5t-74.5 27.5t-75 -28t-30 -70v-60h383v-180h-383v-74h383v-180h-383v-100h621v-369h-1102z" />
    <glyph glyph-name="peseta" unicode="&#x20a7;" horiz-adv-x="1476" 
d="M172 6v737h-90v246h90v430h604q211 0 365 -119.5t196 -310.5h80v-246h-80q-42 -191 -196 -310.5t-365 -119.5h-213v-307h-391zM768 1051h-205v-62h340q-49 62 -135 62zM768 682q87 0 135 61h-340v-61h205z" />
    <glyph glyph-name="uni20A8" unicode="&#x20a8;" horiz-adv-x="2355" 
d="M117 0v1413h655q223 0 372.5 -142.5t149.5 -355.5q0 -137 -68 -246.5t-186 -170.5l297 -498h-485l-236 438h-108v-438h-391zM1860 -25q-206 0 -338.5 103t-132.5 252h362q0 -33 32 -55.5t77 -22.5q37 0 63.5 15t26.5 38q0 21 -23.5 36t-62 24t-87.5 21.5t-100.5 26
t-100.5 39t-87.5 58.5t-62 87.5t-23.5 123.5q0 87 36 155t98 109.5t139.5 62.5t164.5 21q193 0 323 -98.5t130 -239.5h-359q0 28 -27.5 47t-66.5 19q-33 0 -56.5 -14.5t-23.5 -37.5q0 -20 23.5 -34.5t62.5 -23.5t88.5 -21.5t101 -25.5t101 -38t88.5 -57.5t62.5 -85
t23.5 -119.5q0 -162 -126 -263.5t-326 -101.5zM764 1044h-256v-266h256q55 0 92 38t37 95t-37 95t-92 38z" />
    <glyph glyph-name="dong" unicode="&#x20ab;" horiz-adv-x="1177" 
d="M506 276q-177 0 -304.5 125.5t-127.5 307.5q0 183 128 310.5t304 127.5q131 0 223 -76v103h-129v229h129v72h332v-72h96v-229h-96v-535q0 -57 65 -57h21v-289h-90q-203 0 -279 104q-100 -121 -272 -121zM571 561q65 0 111.5 43.5t46.5 104.5t-46.5 105t-111.5 44
q-66 0 -110.5 -42.5t-44.5 -106.5t44.5 -106t110.5 -42zM100 0v248l1057 -2v-246h-1057z" />
    <glyph glyph-name="Euro" unicode="&#x20ac;" horiz-adv-x="1525" 
d="M51 489l39 181h88v37v36h-127l39 181h119q69 229 265 371.5t458 142.5q280 0 491 -160v-412q-82 88 -200 141.5t-244 53.5q-102 0 -185.5 -36t-138.5 -101h584l-39 -181h-618q-2 -12 -2 -36q0 -25 2 -37h606l-39 -181h-494q55 -65 138.5 -101t185.5 -36q126 0 244 53.5
t200 141.5v-412q-211 -160 -493 -160q-259 0 -455 142t-266 372h-158z" />
    <glyph glyph-name="uni20B1" unicode="&#x20b1;" horiz-adv-x="1476" 
d="M172 0v700h-90v136h90v49h-90v135h90v393h604q200 0 349.5 -108t201.5 -285h90v-135h-67v-25v-24h67v-136h-90q-52 -177 -201.5 -285t-349.5 -108h-213v-307h-391zM731 1077h-168v-57h318q-60 57 -150 57zM948 860q0 17 -2 25h-383v-49h383q2 8 2 24zM731 643
q90 0 150 57h-318v-57h168z" />
    <glyph glyph-name="uni20B5" unicode="&#x20b5;" horiz-adv-x="1622" 
d="M688 -143v129q-270 45 -443 245t-173 476t172.5 475.5t443.5 244.5v129h287v-133q227 -41 386 -196.5t202 -376.5h-416q-51 124 -172 178v-643q121 54 172 178h416q-43 -221 -202 -376.5t-386 -196.5v-133h-287zM473 707q0 -114 58.5 -202t156.5 -128v659
q-98 -40 -156.5 -127.5t-58.5 -201.5z" />
    <glyph glyph-name="uni20B9" unicode="&#x20b9;" horiz-adv-x="1239" 
d="M553 0l-430 420v328h375q70 0 116 55h-491v205h491q-44 57 -116 57h-375v348h1075l-61 -205h-187q68 -90 88 -200h160l-61 -205h-99q-29 -152 -138 -256.5t-265 -130.5l438 -416h-520z" />
    <glyph glyph-name="uni2116" unicode="&#x2116;" horiz-adv-x="2316" 
d="M1864 651q-172 0 -287 113t-115 280q0 168 115.5 281t286.5 113t286 -113t115 -281t-115 -280.5t-286 -112.5zM117 0v1413h391l467 -723v723h391v-1413h-391l-467 723v-723h-391zM1864 956q37 0 61.5 25t24.5 63t-24.5 63.5t-61.5 25.5t-61.5 -25.5t-24.5 -63.5t24.5 -63
t61.5 -25zM1495 244v331h737v-331h-737z" />
    <glyph glyph-name="trademark" unicode="&#x2122;" horiz-adv-x="1304" 
d="M541 799v614h252l102 -307l100 307h244v-614h-192v270l-93 -270h-127l-92 270v-270h-194zM141 799v430h-137v184h469v-184h-137v-430h-195z" />
    <glyph glyph-name="uni2150" unicode="&#x2150;" horiz-adv-x="1806" 
d="M199 565v565l-146 -81v245l215 119h172v-848h-241zM211 0l946 1413h305l-946 -1413h-305zM1223 0l272 618h-299v230h582v-191l-281 -657h-274z" />
    <glyph glyph-name="uni2151" unicode="&#x2151;" horiz-adv-x="1767" 
d="M199 565v565l-146 -81v245l215 119h172v-848h-241zM211 0l946 1413h305l-946 -1413h-305zM1214 -4h-49v229h49q161 0 228 88q-52 -20 -107 -20q-114 0 -190 77.5t-76 194.5q0 126 90.5 211.5t226.5 85.5q150 0 244 -104.5t94 -272.5q0 -98 -34 -185.5t-96.5 -155.5
t-161 -108t-218.5 -40zM1391 516q30 0 50.5 15.5t20.5 41.5q0 24 -20.5 40t-50.5 16q-31 0 -51.5 -16.5t-20.5 -41.5q0 -24 21 -39.5t51 -15.5z" />
    <glyph glyph-name="uni2152" unicode="&#x2152;" horiz-adv-x="2428" 
d="M199 565v565l-146 -81v245l215 119h172v-848h-241zM211 0l946 1413h305l-946 -1413h-305zM2032 -14q-151 0 -246.5 121.5t-95.5 316.5t95.5 316.5t246.5 121.5t245.5 -122t94.5 -316t-94.5 -316t-245.5 -122zM1303 0v565l-146 -82v246l215 119h172v-848h-241zM2032 219
q40 0 65 57t25 148t-25 148t-65 57t-66.5 -57.5t-26.5 -147.5t26.5 -147.5t66.5 -57.5z" />
    <glyph glyph-name="uni2153" unicode="&#x2153;" horiz-adv-x="1777" 
d="M199 565v565l-146 -81v245l215 119h172v-848h-241zM211 0l946 1413h305l-946 -1413h-305zM1413 -14q-132 0 -222.5 81.5t-90.5 202.5h250q0 -23 19 -38t44 -15q24 0 43 14.5t19 42.5q0 27 -24 46.5t-62 19.5h-99v195h99q33 0 54 14.5t21 38.5t-16 34.5t-35 10.5
q-22 0 -37.5 -12.5t-15.5 -30.5h-248q0 116 86 194t215 78q124 0 211.5 -71t87.5 -173q0 -52 -25.5 -98.5t-70.5 -77.5q50 -34 79 -87t29 -111q0 -108 -91.5 -183t-219.5 -75z" />
    <glyph glyph-name="uni2154" unicode="&#x2154;" horiz-adv-x="1955" 
d="M59 565v137q0 52 19.5 98.5t50.5 81.5t68.5 66.5t75.5 57t69 48t50.5 46t19.5 45.5q0 41 -52 41q-53 0 -53 -49h-246q0 126 86 208t215 82q125 0 210 -78t85 -194q0 -33 -8 -64.5t-18.5 -56t-31.5 -51.5t-36.5 -44t-44.5 -42t-44 -36t-47 -34.5t-42 -31.5h274v-230h-600z
M389 0l946 1413h305l-946 -1413h-305zM1591 -14q-132 0 -222.5 81.5t-90.5 202.5h250q0 -23 19 -38t44 -15q24 0 43 14.5t19 42.5q0 27 -24 46.5t-62 19.5h-99v195h99q33 0 54 14.5t21 38.5t-16 34.5t-35 10.5q-22 0 -37.5 -12.5t-15.5 -30.5h-248q0 116 86 194t215 78
q124 0 211.5 -71t87.5 -173q0 -52 -25.5 -98.5t-70.5 -77.5q50 -34 79.5 -87t29.5 -111q0 -108 -92 -183t-220 -75z" />
    <glyph glyph-name="uni2155" unicode="&#x2155;" horiz-adv-x="1802" 
d="M199 565v565l-146 -81v245l215 119h172v-848h-241zM211 0l946 1413h305l-946 -1413h-305zM1450 -14q-130 0 -219.5 76.5t-97.5 193.5h251q7 -15 24.5 -26t41.5 -11q29 0 48.5 16t19.5 41q0 26 -20 44t-48 18q-26 0 -57 -23h-242l47 533h512v-230h-301l-8 -75q33 10 76 10
q122 0 206 -81.5t84 -201.5q0 -121 -91 -202.5t-226 -81.5z" />
    <glyph glyph-name="uni2156" unicode="&#x2156;" horiz-adv-x="1980" 
d="M59 565v137q0 52 19.5 98.5t50.5 81.5t68.5 66.5t75.5 57t69 48t50.5 46t19.5 45.5q0 41 -52 41q-53 0 -53 -49h-246q0 126 86 208t215 82q125 0 210 -78t85 -194q0 -33 -8 -64.5t-18.5 -56t-31.5 -51.5t-36.5 -44t-44.5 -42t-44 -36t-47 -34.5t-42 -31.5h274v-230h-600z
M389 0l946 1413h305l-946 -1413h-305zM1628 -14q-130 0 -219.5 76.5t-97.5 193.5h252q16 -37 65 -37q29 0 48.5 16t19.5 41q0 26 -20 44t-48 18q-26 0 -57 -23h-242l47 533h512v-230h-301l-8 -75q33 10 76 10q122 0 206.5 -81.5t84.5 -201.5q0 -121 -91.5 -202.5
t-226.5 -81.5z" />
    <glyph glyph-name="uni2157" unicode="&#x2157;" horiz-adv-x="1916" 
d="M360 551q-132 0 -222.5 82t-90.5 203h250q0 -23 19 -38.5t44 -15.5q24 0 43 15t19 43q0 27 -23.5 46t-62.5 19h-98v195h98q33 0 54.5 14.5t21.5 38.5t-16.5 34.5t-35.5 10.5q-22 0 -37.5 -12.5t-15.5 -30.5h-248q0 116 86 194t215 78q124 0 211.5 -70.5t87.5 -172.5
q0 -52 -25.5 -98.5t-70.5 -77.5q50 -34 79.5 -87.5t29.5 -111.5q0 -108 -92 -183t-220 -75zM326 0l946 1413h305l-946 -1413h-305zM1565 -14q-130 0 -220 76.5t-98 193.5h252q7 -15 24.5 -26t41.5 -11q29 0 48 16t19 41q0 26 -19.5 44t-47.5 18q-27 0 -58 -23h-241l47 533
h512v-230h-301l-8 -75q33 10 75 10q122 0 206.5 -81.5t84.5 -201.5q0 -121 -91 -202.5t-226 -81.5z" />
    <glyph glyph-name="uni2158" unicode="&#x2158;" horiz-adv-x="1976" 
d="M43 696v199l279 518h260l-269 -487h119v90h223v-90h66v-230h-66v-131h-243v131h-369zM385 0l946 1413h305l-946 -1413h-305zM1624 -14q-130 0 -219.5 76.5t-97.5 193.5h252q16 -37 65 -37q29 0 48.5 16t19.5 41q0 26 -20 44t-48 18q-26 0 -57 -23h-242l47 533h512v-230
h-301l-8 -75q33 10 76 10q122 0 206.5 -81.5t84.5 -201.5q0 -121 -91.5 -202.5t-226.5 -81.5z" />
    <glyph glyph-name="uni2159" unicode="&#x2159;" horiz-adv-x="1675" 
d="M199 565v565l-146 -81v245l215 119h172v-848h-241zM211 0l946 1413h305l-946 -1413h-305zM1331 -14q-150 0 -244 104t-94 272q0 98 34.5 185.5t100 156t169.5 108.5t233 40h24v-229h-24q-189 0 -254 -88q52 20 106 20q114 0 190.5 -77.5t76.5 -194.5q0 -126 -91 -211.5
t-227 -85.5zM1327 219q31 0 51.5 16t20.5 41q0 24 -21 40t-51 16t-51 -16t-21 -42q0 -24 21 -39.5t51 -15.5z" />
    <glyph glyph-name="uni215A" unicode="&#x215a;" horiz-adv-x="1773" 
d="M377 551q-130 0 -220 76.5t-98 193.5h252q7 -15 24.5 -26t41.5 -11q29 0 48 16.5t19 41.5q0 26 -19.5 43.5t-47.5 17.5q-29 0 -58 -22h-241l47 532h512v-229h-301l-8 -76q33 10 75 10q122 0 206.5 -81.5t84.5 -200.5q0 -121 -91 -203t-226 -82zM309 0l946 1413h306
l-947 -1413h-305zM1430 -14q-150 0 -244 104t-94 272q0 98 34.5 185.5t99.5 156t169 108.5t233 40h25v-229h-25q-189 0 -254 -88q52 20 107 20q114 0 190 -77.5t76 -194.5q0 -126 -90.5 -211.5t-226.5 -85.5zM1425 219q31 0 51.5 16t20.5 41q0 24 -21 40t-51 16t-50.5 -16
t-20.5 -42q0 -24 20.5 -39.5t50.5 -15.5z" />
    <glyph glyph-name="oneeighth" unicode="&#x215b;" horiz-adv-x="1808" 
d="M199 565v565l-146 -81v245l215 119h172v-848h-241zM211 0l946 1413h305l-946 -1413h-305zM1430 -14q-146 0 -235 71.5t-89 188.5q0 123 100 194q-84 68 -84 176q0 112 85 179t223 67q139 0 224 -67t85 -179q0 -108 -84 -176q100 -71 100 -194q0 -117 -89 -188.5
t-236 -71.5zM1430 541q29 0 47 13.5t18 33.5t-18 32.5t-47 12.5q-28 0 -46 -12.5t-18 -32.5t18 -33.5t46 -13.5zM1430 219q34 0 54.5 15t20.5 40q0 26 -20.5 41t-54.5 15q-33 0 -53.5 -15t-20.5 -41q0 -25 21 -40t53 -15z" />
    <glyph glyph-name="threeeighths" unicode="&#x215c;" horiz-adv-x="1923" 
d="M360 551q-132 0 -222.5 82t-90.5 203h250q0 -23 19 -38.5t44 -15.5q24 0 43 15t19 43q0 27 -23.5 46t-62.5 19h-98v195h98q33 0 54.5 14.5t21.5 38.5t-16.5 34.5t-35.5 10.5q-22 0 -37.5 -12.5t-15.5 -30.5h-248q0 116 86 194t215 78q124 0 211.5 -70.5t87.5 -172.5
q0 -52 -25.5 -98.5t-70.5 -77.5q50 -34 79.5 -87.5t29.5 -111.5q0 -108 -92 -183t-220 -75zM326 0l946 1413h305l-946 -1413h-305zM1544 -14q-146 0 -234.5 71.5t-88.5 188.5q0 123 100 194q-84 68 -84 176q0 112 85 179t222 67q139 0 224 -67t85 -179q0 -108 -84 -176
q101 -72 101 -194q0 -117 -89 -188.5t-237 -71.5zM1544 541q29 0 47.5 13.5t18.5 33.5t-18.5 32.5t-47.5 12.5q-28 0 -45.5 -12.5t-17.5 -32.5t17.5 -33.5t45.5 -13.5zM1544 219q34 0 55 15t21 40q0 26 -21 41t-55 15q-33 0 -53.5 -15t-20.5 -41q0 -25 20.5 -40t53.5 -15z
" />
    <glyph glyph-name="fiveeighths" unicode="&#x215d;" horiz-adv-x="1906" 
d="M377 551q-130 0 -220 76.5t-98 193.5h252q7 -15 24.5 -26t41.5 -11q29 0 48 16.5t19 41.5q0 26 -19.5 43.5t-47.5 17.5q-29 0 -58 -22h-241l47 532h512v-229h-301l-8 -76q33 10 75 10q122 0 206.5 -81.5t84.5 -200.5q0 -121 -91 -203t-226 -82zM309 0l946 1413h306
l-947 -1413h-305zM1528 -14q-146 0 -235 71.5t-89 188.5q0 122 101 194q-84 68 -84 176q0 112 85 179t222 67q139 0 224 -67t85 -179q0 -108 -84 -176q100 -71 100 -194q0 -117 -89 -188.5t-236 -71.5zM1528 541q29 0 47 13.5t18 33.5t-18 32.5t-47 12.5q-28 0 -46 -12.5
t-18 -32.5t18 -33.5t46 -13.5zM1528 219q34 0 55 15t21 40q0 26 -21 41t-55 15q-33 0 -53.5 -15t-20.5 -41q0 -25 20.5 -40t53.5 -15z" />
    <glyph glyph-name="seveneighths" unicode="&#x215e;" horiz-adv-x="1736" 
d="M78 565l272 619h-299v229h582v-190l-281 -658h-274zM139 0l946 1413h306l-947 -1413h-305zM1358 -14q-146 0 -235 71.5t-89 188.5q0 122 101 194q-84 68 -84 176q0 112 85 179t222 67q139 0 224 -67t85 -179q0 -108 -84 -176q100 -71 100 -194q0 -117 -89 -188.5
t-236 -71.5zM1358 541q29 0 47 13.5t18 33.5t-18 32.5t-47 12.5q-28 0 -46 -12.5t-18 -32.5t18 -33.5t46 -13.5zM1358 219q34 0 55 15t21 40q0 26 -21 41t-55 15q-33 0 -53.5 -15t-20.5 -41q0 -25 21 -40t53 -15z" />
    <glyph glyph-name="uni215F" unicode="&#x215f;" horiz-adv-x="1042" 
d="M199 565v565l-146 -81v245l215 119h172v-848h-241zM211 0l946 1413h305l-946 -1413h-305z" />
    <glyph glyph-name="uni2189" unicode="&#x2189;" horiz-adv-x="1923" 
d="M399 551q-151 0 -246.5 121.5t-95.5 316.5t95.5 316.5t246.5 121.5t245.5 -122t94.5 -316t-94.5 -316t-245.5 -122zM356 0l947 1413h305l-946 -1413h-306zM399 784q40 0 65 57t25 148t-25 148t-65 57t-66 -57.5t-26 -147.5t26 -147.5t66 -57.5zM1559 -14
q-133 0 -223.5 81.5t-90.5 202.5h250q0 -23 19 -38t45 -15q24 0 42.5 14.5t18.5 42.5q0 27 -24 46.5t-62 19.5h-98v195h98q33 0 54.5 14.5t21.5 38.5t-16 34.5t-35 10.5q-22 0 -38 -12.5t-16 -30.5h-248q0 116 86.5 194t215.5 78q124 0 211.5 -71t87.5 -173q0 -52 -26 -98.5
t-71 -77.5q50 -34 79.5 -87t29.5 -111q0 -108 -91.5 -183t-219.5 -75z" />
    <glyph glyph-name="arrowleft" unicode="&#x2190;" horiz-adv-x="1314" 
d="M616 190l-514 517l514 514l215 -215l-139 -136h520v-331h-516l135 -133z" />
    <glyph glyph-name="arrowup" unicode="&#x2191;" horiz-adv-x="1314" 
d="M492 152v516l-134 -136l-215 216l516 514l515 -514l-216 -216l-135 140v-520h-331z" />
    <glyph glyph-name="arrowright" unicode="&#x2192;" horiz-adv-x="1314" 
d="M102 543v331h516l-135 134l215 215l514 -516l-514 -514l-215 215l140 135h-521z" />
    <glyph glyph-name="arrowdown" unicode="&#x2193;" horiz-adv-x="1314" 
d="M659 152l-516 514l215 215l134 -136v517h331v-521l135 140l216 -215z" />
    <glyph glyph-name="uni2196" unicode="&#x2196;" horiz-adv-x="1314" 
d="M195 403v727l727 5v-308l-189 2l365 -364l-236 -236l-366 367l2 -193h-303z" />
    <glyph glyph-name="uni2197" unicode="&#x2197;" horiz-adv-x="1314" 
d="M440 229l-235 236l364 364l-188 -2v308l727 -5v-727h-303l2 193z" />
    <glyph glyph-name="uni2198" unicode="&#x2198;" horiz-adv-x="1314" 
d="M393 266v307l189 -2l-365 365l236 235l366 -366l-2 192h303v-727z" />
    <glyph glyph-name="uni2199" unicode="&#x2199;" horiz-adv-x="1314" 
d="M195 270v727h303l-2 -192l366 366l236 -235l-365 -365l189 2v-307z" />
    <glyph glyph-name="minus" unicode="&#x2212;" horiz-adv-x="1093" 
d="M106 438v332h881v-332h-881z" />
    <glyph glyph-name="approxequal" unicode="&#x2248;" horiz-adv-x="1249" 
d="M805 651q-66 0 -127.5 17t-105 34t-64.5 17q-29 0 -47.5 -18t-18.5 -46h-336q0 95 18 170.5t56 135t105 92t159 32.5q66 0 127.5 -16.5t105 -33.5t64.5 -17q29 0 47.5 17.5t18.5 45.5h336q0 -95 -18 -170.5t-56 -135t-105 -92t-159 -32.5zM805 139q-66 0 -127.5 17
t-105 34t-64.5 17q-29 0 -47.5 -18t-18.5 -46h-336q0 95 18 170.5t56 135t105 92t159 32.5q66 0 127.5 -16.5t105 -33.5t64.5 -17q29 0 47.5 17.5t18.5 45.5h336q0 -95 -18 -170.5t-56 -135t-105 -92t-159 -32.5z" />
    <glyph glyph-name="notequal" unicode="&#x2260;" horiz-adv-x="1093" 
d="M182 102l45 113h-121v332h259l47 119h-306v331h441l45 109h319l-45 -109h121v-331h-256l-47 -119h303v-332h-440l-45 -113h-320z" />
    <glyph glyph-name="lessequal" unicode="&#x2264;" horiz-adv-x="950" 
d="M844 387l-738 266v373l738 266v-366l-338 -86l338 -86v-367zM106 0v332h738v-332h-738z" />
    <glyph glyph-name="greaterequal" unicode="&#x2265;" horiz-adv-x="950" 
d="M106 387v367l338 86l-338 86v366l738 -266v-373zM106 0v332h738v-332h-738z" />
    <glyph glyph-name="uni279D" unicode="&#x279d;" horiz-adv-x="2215" 
d="M143 541v331h1479v285l451 -450l-451 -451v285h-1479z" />
    <glyph glyph-name="uni27F5" unicode="&#x27f5;" horiz-adv-x="2215" 
d="M657 193l-514 514l514 516l215 -215l-137 -136h1338v-331h-1338l137 -133z" />
    <glyph glyph-name="uni27F6" unicode="&#x27f6;" horiz-adv-x="2215" 
d="M143 541v331h1338l-138 136l216 215l514 -516l-514 -514l-216 215l138 133h-1338z" />
    <glyph glyph-name="A.swsh" unicode="&#xe008;" horiz-adv-x="2013" 
d="M557 0l375 1044h-373q-59 0 -98 -36t-39 -90t39.5 -90.5t97.5 -36.5v-369q-221 0 -368.5 142t-147.5 354t147.5 353.5t368.5 141.5h967l508 -1413h-428l-64 195h-502l-63 -195h-420zM1155 555h272l-135 424z" />
    <glyph glyph-name="B.swsh" unicode="&#xe009;" horiz-adv-x="1990" 
d="M559 422q-221 0 -368.5 142t-147.5 354t147.5 353.5t368.5 141.5h957q164 0 275.5 -104t111.5 -262q0 -93 -39.5 -173.5t-104.5 -123.5q91 -40 149 -142t58 -223q0 -169 -115 -277t-290 -108h-781v1044h-221q-59 0 -98 -36t-39 -90t39.5 -90.5t97.5 -36.5v-369z
M1415 1061h-256v-172h256q37 0 61.5 24.5t24.5 61.5t-24.5 61.5t-61.5 24.5zM1462 557h-303v-205h303q43 0 73 30t30 73t-30 72.5t-73 29.5z" />
    <glyph glyph-name="D.swsh" unicode="&#xe00a;" horiz-adv-x="2121" 
d="M559 422q-221 0 -368.5 142t-147.5 354t147.5 353.5t368.5 141.5h784q205 0 372 -92t261.5 -253.5t94.5 -360.5q0 -149 -55.5 -280t-152 -225t-231.5 -148t-289 -54h-563v1044h-221q-59 0 -98 -36t-39 -90t39.5 -90.5t97.5 -36.5v-369zM1335 1044h-164v-675h164
q143 0 238.5 96.5t95.5 241.5t-95.5 241t-238.5 96z" />
    <glyph glyph-name="E.swsh" unicode="&#xe00b;" horiz-adv-x="1804" 
d="M559 422q-221 0 -368.5 142t-147.5 354t147.5 353.5t368.5 141.5h1178v-369h-566v-149h500v-369h-500v-157h576v-369h-967v1044h-221q-59 0 -98 -36t-39 -90t39.5 -90.5t97.5 -36.5v-369z" />
    <glyph glyph-name="F.swsh" unicode="&#xe00c;" horiz-adv-x="1751" 
d="M559 422q-221 0 -368.5 142t-147.5 354t147.5 353.5t368.5 141.5h1147v-369h-535v-165h459v-369h-459v-510h-391v1044h-221q-59 0 -98 -36t-39 -90t39.5 -90.5t97.5 -36.5v-369z" />
    <glyph glyph-name="H.swsh" unicode="&#xe00d;" horiz-adv-x="2121" 
d="M559 422q-221 0 -368.5 142t-147.5 354t147.5 353.5t368.5 141.5h612v-518h443v518h391v-1413h-391v526h-443v-526h-391v1044h-221q-59 0 -98 -36t-39 -90t39.5 -90.5t97.5 -36.5v-369z" />
    <glyph glyph-name="I.swsh" unicode="&#xe00e;" horiz-adv-x="1288" 
d="M559 422q-221 0 -368.5 142t-147.5 354t147.5 353.5t368.5 141.5h612v-1413h-391v1044h-221q-59 0 -98 -36t-39 -90t39.5 -90.5t97.5 -36.5v-369z" />
    <glyph glyph-name="K.swsh" unicode="&#xe00f;" horiz-adv-x="1994" 
d="M559 422q-221 0 -368.5 142t-147.5 354t147.5 353.5t368.5 141.5h612v-528l375 528h477l-514 -668l529 -745h-486l-292 440l-89 -100v-340h-391v1044h-221q-59 0 -98 -36t-39 -90t39.5 -90.5t97.5 -36.5v-369z" />
    <glyph glyph-name="L.swsh" unicode="&#xe010;" horiz-adv-x="1720" 
d="M559 422q-221 0 -368.5 142t-147.5 354t147.5 353.5t368.5 141.5h612v-1044h515v-369h-906v1044h-221q-59 0 -98 -36t-39 -90t39.5 -90.5t97.5 -36.5v-369z" />
    <glyph glyph-name="M.swsh" unicode="&#xe011;" horiz-adv-x="2519" 
d="M559 422q-221 0 -368.5 142t-147.5 354t147.5 353.5t368.5 141.5h705l331 -653l330 653h477v-1413h-391v819l-309 -614h-221l-310 614v-819h-391v1044h-221q-59 0 -98 -36t-39 -90t39.5 -90.5t97.5 -36.5v-369z" />
    <glyph glyph-name="N.swsh" unicode="&#xe012;" horiz-adv-x="2146" 
d="M559 422q-221 0 -368.5 142t-147.5 354t147.5 353.5t368.5 141.5h612l467 -723v723h392v-1413h-392l-467 723v-723h-391v1044h-221q-59 0 -98 -36t-39 -90t39.5 -90.5t97.5 -36.5v-369z" />
    <glyph glyph-name="P.swsh" unicode="&#xe013;" horiz-adv-x="1998" 
d="M559 422q-221 0 -368.5 142t-147.5 354t147.5 353.5t368.5 141.5h897q223 0 372.5 -143.5t149.5 -358.5t-149.5 -358t-372.5 -143h-285v-410h-391v1044h-221q-59 0 -98 -36t-39 -90t39.5 -90.5t97.5 -36.5v-369zM1448 1044h-277v-266h277q55 0 92 38t37 95t-37 95t-92 38
z" />
    <glyph glyph-name="R.swsh" unicode="&#xe014;" horiz-adv-x="2009" 
d="M559 422q-221 0 -368.5 142t-147.5 354t147.5 353.5t368.5 141.5h877q223 0 372.5 -142.5t149.5 -355.5q0 -137 -68 -246.5t-186 -170.5l297 -498h-485l-236 438h-109v-438h-391v1044h-221q-59 0 -98 -36t-39 -90t39.5 -90.5t97.5 -36.5v-369zM1427 1044h-256v-266h256
q55 0 92 38t37 95t-37 95t-92 38z" />
    <glyph glyph-name="T.swsh" unicode="&#xe015;" horiz-adv-x="1716" 
d="M559 422q-221 0 -368.5 142t-147.5 354t147.5 353.5t368.5 141.5h1112v-369h-340v-1044h-391v1044h-381q-59 0 -98 -36t-39 -90t39.5 -90.5t97.5 -36.5v-369z" />
    <glyph glyph-name="U.swsh" unicode="&#xe016;" horiz-adv-x="2045" 
d="M559 422q-221 0 -368.5 142t-147.5 354t147.5 353.5t368.5 141.5h586v-854q0 -89 59 -148t148 -59t148 59t59 148v854h391v-860q0 -122 -46 -229.5t-125 -184t-190 -120.5t-237 -44t-237 44t-190 120.5t-125 184t-46 229.5v491h-195q-59 0 -98 -36t-39 -90t39.5 -90.5
t97.5 -36.5v-369z" />
    <glyph glyph-name="V.swsh" unicode="&#xe017;" horiz-adv-x="2017" 
d="M559 422q-221 0 -368.5 142t-147.5 354q0 104 39 196.5t106.5 157.5t161.5 103t199 38h436l305 -881l303 881h428l-536 -1413h-400l-397 1044h-129q-59 0 -98 -36t-39 -90t39.5 -90.5t97.5 -36.5v-369z" />
    <glyph glyph-name="W.swsh" unicode="&#xe018;" horiz-adv-x="2723" 
d="M559 422q-221 0 -368.5 142t-147.5 354q0 104 39 196.5t106.5 157.5t161.5 103t199 38h432l244 -858l239 858h353l243 -858l240 858h422l-471 -1413h-391l-224 788l-221 -788h-391l-350 1044h-115q-59 0 -98 -36t-39 -90t39.5 -90.5t97.5 -36.5v-369z" />
    <glyph glyph-name="Y.swsh" unicode="&#xe019;" horiz-adv-x="1916" 
d="M559 422q-221 0 -368.5 142t-147.5 354q0 199 132 337.5t335 155.5l-2 2h444l277 -534l274 534h436l-520 -948v-465h-391v465l-317 579h-152q-59 0 -98 -36t-39 -90t39.5 -90.5t97.5 -36.5v-369z" />
    <glyph glyph-name="J.ss07" horiz-adv-x="1128" 
d="M516 -25q-223 0 -369.5 145.5t-146.5 371.5h401q0 -65 33 -102.5t86 -37.5q52 0 86.5 34t34.5 85v573h-354v369h745v-942q0 -212 -147.5 -354t-368.5 -142z" />
    <glyph glyph-name="Jcircumflex.ss07" horiz-adv-x="1128" 
d="M225 1503l201 324h442l201 -324h-344l-78 123l-78 -123h-344zM516 -25q-223 0 -369.5 145.5t-146.5 371.5h401q0 -65 33 -102.5t86 -37.5q52 0 86.5 34t34.5 85v573h-354v369h745v-942q0 -212 -147.5 -354t-368.5 -142z" />
    <glyph glyph-name="M.ss08" horiz-adv-x="1855" 
d="M117 0v1413h504l311 -790l309 790h498v-1413h-391v725l-289 -725h-262l-289 725v-725h-391z" />
    <glyph glyph-name="i.loclTRK" horiz-adv-x="573" 
d="M287 1116q-89 0 -149 59t-60 148t60 148t149 59t149 -59t60 -148t-60 -148t-149 -59zM102 0v1044h369v-1044h-369z" />
    <glyph glyph-name="a.ss01" horiz-adv-x="1120" 
d="M422 -25q-166 0 -269.5 88t-103.5 230q0 145 105 232t278 87h236v72q0 41 -29.5 65.5t-77.5 24.5q-45 0 -72.5 -22t-27.5 -58h-369q0 169 129.5 272t341.5 103q213 0 343 -105t130 -278v-686h-368v57q-101 -82 -246 -82zM541 242q127 0 127 116v43h-133
q-48 0 -77.5 -20.5t-29.5 -56.5t29 -59t84 -23z" />
    <glyph glyph-name="aacute.ss01" horiz-adv-x="1120" 
d="M369 1135l200 323h459l-274 -323h-385zM422 -25q-166 0 -269.5 88t-103.5 230q0 145 105 232t278 87h236v72q0 41 -29.5 65.5t-77.5 24.5q-45 0 -72.5 -22t-27.5 -58h-369q0 169 129.5 272t341.5 103q213 0 343 -105t130 -278v-686h-368v57q-101 -82 -246 -82zM541 242
q127 0 127 116v43h-133q-48 0 -77.5 -20.5t-29.5 -56.5t29 -59t84 -23z" />
    <glyph glyph-name="abreve.ss01" horiz-adv-x="1120" 
d="M575 1114q-158 0 -263 99.5t-105 248.5h282q0 -38 24.5 -63t61.5 -25t62 25t25 63h282q0 -149 -105.5 -248.5t-263.5 -99.5zM422 -25q-166 0 -269.5 88t-103.5 230q0 145 105 232t278 87h236v72q0 41 -29.5 65.5t-77.5 24.5q-45 0 -72.5 -22t-27.5 -58h-369
q0 169 129.5 272t341.5 103q213 0 343 -105t130 -278v-686h-368v57q-101 -82 -246 -82zM541 242q127 0 127 116v43h-133q-48 0 -77.5 -20.5t-29.5 -56.5t29 -59t84 -23z" />
    <glyph glyph-name="uni1EAF.ss01" horiz-adv-x="1120" 
d="M424 1491l174 283h358l-231 -283h-301zM575 1114q-158 0 -263 90.5t-105 227.5h282q0 -34 24.5 -56t61.5 -22t62 22t25 56h282q0 -136 -105.5 -227t-263.5 -91zM422 -25q-166 0 -269.5 88t-103.5 230q0 145 105 232t278 87h236v72q0 41 -29.5 65.5t-77.5 24.5
q-45 0 -72.5 -22t-27.5 -58h-369q0 169 129.5 272t341.5 103q213 0 343 -105t130 -278v-686h-368v57q-101 -82 -246 -82zM541 242q127 0 127 116v43h-133q-48 0 -77.5 -20.5t-29.5 -56.5t29 -59t84 -23z" />
    <glyph glyph-name="uni1EB7.ss01" horiz-adv-x="1120" 
d="M575 1114q-158 0 -263 99.5t-105 248.5h282q0 -38 24.5 -63t61.5 -25t62 25t25 63h282q0 -149 -105.5 -248.5t-263.5 -99.5zM422 -25q-166 0 -269.5 88t-103.5 230q0 145 105 232t278 87h236v72q0 41 -29.5 65.5t-77.5 24.5q-45 0 -72.5 -22t-27.5 -58h-369
q0 169 129.5 272t341.5 103q213 0 343 -105t130 -278v-686h-368v57q-101 -82 -246 -82zM541 242q127 0 127 116v43h-133q-48 0 -77.5 -20.5t-29.5 -56.5t29 -59t84 -23zM575 -485q-89 0 -148.5 58.5t-59.5 147.5t59.5 148t148.5 59t149 -59t60 -148t-59.5 -147.5
t-149.5 -58.5z" />
    <glyph glyph-name="uni1EB1.ss01" horiz-adv-x="1120" 
d="M727 1491h-301l-231 283h358zM575 1114q-158 0 -263 90.5t-105 227.5h282q0 -34 24.5 -56t61.5 -22t62 22t25 56h282q0 -136 -105.5 -227t-263.5 -91zM422 -25q-166 0 -269.5 88t-103.5 230q0 145 105 232t278 87h236v72q0 41 -29.5 65.5t-77.5 24.5q-45 0 -72.5 -22
t-27.5 -58h-369q0 169 129.5 272t341.5 103q213 0 343 -105t130 -278v-686h-368v57q-101 -82 -246 -82zM541 242q127 0 127 116v43h-133q-48 0 -77.5 -20.5t-29.5 -56.5t29 -59t84 -23z" />
    <glyph glyph-name="uni1EB3.ss01" horiz-adv-x="1120" 
d="M463 1481v14q0 87 74 125q4 2 17 8t18 8.5t13.5 8.5t11.5 12t3 14q0 13 -10 22t-25 9q-16 0 -26.5 -10t-10.5 -27h-219q0 98 70 157.5t190 59.5q125 0 197 -51.5t72 -132.5q0 -49 -23 -83t-76 -65q-45 -26 -45 -55v-14h-231zM575 1114q-158 0 -263 90.5t-105 227.5h282
q0 -34 24.5 -56t61.5 -22t62 22t25 56h282q0 -136 -105.5 -227t-263.5 -91zM422 -25q-166 0 -269.5 88t-103.5 230q0 145 105 232t278 87h236v72q0 41 -29.5 65.5t-77.5 24.5q-45 0 -72.5 -22t-27.5 -58h-369q0 169 129.5 272t341.5 103q213 0 343 -105t130 -278v-686h-368
v57q-101 -82 -246 -82zM541 242q127 0 127 116v43h-133q-48 0 -77.5 -20.5t-29.5 -56.5t29 -59t84 -23z" />
    <glyph glyph-name="uni1EB5.ss01" horiz-adv-x="1120" 
d="M702 1501q-47 0 -85.5 13.5t-63 27.5t-37.5 14q-24 0 -38.5 -15.5t-14.5 -37.5h-256q0 135 64 222t178 87q46 0 84 -14t63 -28.5t39 -14.5q23 0 38 16t15 39h256q0 -137 -63.5 -223t-178.5 -86zM575 1114q-158 0 -263 90.5t-105 227.5h282q0 -34 24.5 -56t61.5 -22t62 22
t25 56h282q0 -136 -105.5 -227t-263.5 -91zM422 -25q-166 0 -269.5 88t-103.5 230q0 145 105 232t278 87h236v72q0 41 -29.5 65.5t-77.5 24.5q-45 0 -72.5 -22t-27.5 -58h-369q0 169 129.5 272t341.5 103q213 0 343 -105t130 -278v-686h-368v57q-101 -82 -246 -82zM541 242
q127 0 127 116v43h-133q-48 0 -77.5 -20.5t-29.5 -56.5t29 -59t84 -23z" />
    <glyph glyph-name="uni01CE.ss01" horiz-adv-x="1120" 
d="M354 1135l-200 323h344l77 -123l78 123h344l-200 -323h-443zM422 -25q-166 0 -269.5 88t-103.5 230q0 145 105 232t278 87h236v72q0 41 -29.5 65.5t-77.5 24.5q-45 0 -72.5 -22t-27.5 -58h-369q0 169 129.5 272t341.5 103q213 0 343 -105t130 -278v-686h-368v57
q-101 -82 -246 -82zM541 242q127 0 127 116v43h-133q-48 0 -77.5 -20.5t-29.5 -56.5t29 -59t84 -23z" />
    <glyph glyph-name="acircumflex.ss01" horiz-adv-x="1120" 
d="M154 1135l200 323h443l200 -323h-344l-78 122l-77 -122h-344zM422 -25q-166 0 -269.5 88t-103.5 230q0 145 105 232t278 87h236v72q0 41 -29.5 65.5t-77.5 24.5q-45 0 -72.5 -22t-27.5 -58h-369q0 169 129.5 272t341.5 103q213 0 343 -105t130 -278v-686h-368v57
q-101 -82 -246 -82zM541 242q127 0 127 116v43h-133q-48 0 -77.5 -20.5t-29.5 -56.5t29 -59t84 -23z" />
    <glyph glyph-name="uni1EA5.ss01" horiz-adv-x="1120" 
d="M905 1360l201 323h397l-274 -323h-324zM154 1135l200 323h443l200 -323h-344l-78 122l-77 -122h-344zM422 -25q-166 0 -269.5 88t-103.5 230q0 145 105 232t278 87h236v72q0 41 -29.5 65.5t-77.5 24.5q-45 0 -72.5 -22t-27.5 -58h-369q0 169 129.5 272t341.5 103
q213 0 343 -105t130 -278v-686h-368v57q-101 -82 -246 -82zM541 242q127 0 127 116v43h-133q-48 0 -77.5 -20.5t-29.5 -56.5t29 -59t84 -23z" />
    <glyph glyph-name="uni1EAD.ss01" horiz-adv-x="1120" 
d="M154 1135l200 323h443l200 -323h-344l-78 122l-77 -122h-344zM422 -25q-166 0 -269.5 88t-103.5 230q0 145 105 232t278 87h236v72q0 41 -29.5 65.5t-77.5 24.5q-45 0 -72.5 -22t-27.5 -58h-369q0 169 129.5 272t341.5 103q213 0 343 -105t130 -278v-686h-368v57
q-101 -82 -246 -82zM541 242q127 0 127 116v43h-133q-48 0 -77.5 -20.5t-29.5 -56.5t29 -59t84 -23zM575 -485q-89 0 -148.5 58.5t-59.5 147.5t59.5 148t148.5 59t149 -59t60 -148t-59.5 -147.5t-149.5 -58.5z" />
    <glyph glyph-name="uni1EA7.ss01" horiz-adv-x="1120" 
d="M971 1360l-275 323h398l200 -323h-323zM154 1135l200 323h443l200 -323h-344l-78 122l-77 -122h-344zM422 -25q-166 0 -269.5 88t-103.5 230q0 145 105 232t278 87h236v72q0 41 -29.5 65.5t-77.5 24.5q-45 0 -72.5 -22t-27.5 -58h-369q0 169 129.5 272t341.5 103
q213 0 343 -105t130 -278v-686h-368v57q-101 -82 -246 -82zM541 242q127 0 127 116v43h-133q-48 0 -77.5 -20.5t-29.5 -56.5t29 -59t84 -23z" />
    <glyph glyph-name="uni1EA9.ss01" horiz-adv-x="1120" 
d="M928 1325v14q0 88 73 125q3 2 17 8t19 9t13.5 9t11.5 12t3 14q0 13 -10 21.5t-25 8.5q-16 0 -26.5 -10t-10.5 -27h-219q0 98 70 157.5t190 59.5q125 0 197 -51.5t72 -132.5q0 -49 -23 -82.5t-76 -64.5q-45 -26 -45 -56v-14h-231zM154 1135l200 323h443l200 -323h-344
l-78 122l-77 -122h-344zM422 -25q-166 0 -269.5 88t-103.5 230q0 145 105 232t278 87h236v72q0 41 -29.5 65.5t-77.5 24.5q-45 0 -72.5 -22t-27.5 -58h-369q0 169 129.5 272t341.5 103q213 0 343 -105t130 -278v-686h-368v57q-101 -82 -246 -82zM541 242q127 0 127 116v43
h-133q-48 0 -77.5 -20.5t-29.5 -56.5t29 -59t84 -23z" />
    <glyph glyph-name="uni1EAB.ss01" horiz-adv-x="1120" 
d="M702 1518q-48 0 -90 14t-71 27.5t-47 13.5q-24 0 -39 -15.5t-15 -37.5h-256q0 152 67 248t195 96q47 0 88.5 -14.5t71.5 -29t49 -14.5q23 0 38.5 16.5t15.5 39.5h256q0 -155 -67 -249.5t-196 -94.5zM154 1135l200 323h443l200 -323h-344l-78 122l-77 -122h-344zM422 -25
q-166 0 -269.5 88t-103.5 230q0 145 105 232t278 87h236v72q0 41 -29.5 65.5t-77.5 24.5q-45 0 -72.5 -22t-27.5 -58h-369q0 169 129.5 272t341.5 103q213 0 343 -105t130 -278v-686h-368v57q-101 -82 -246 -82zM541 242q127 0 127 116v43h-133q-48 0 -77.5 -20.5
t-29.5 -56.5t29 -59t84 -23z" />
    <glyph glyph-name="uni0201.ss01" horiz-adv-x="1120" 
d="M653 1135l-223 323h397l181 -323h-355zM162 1135l-223 323h397l180 -323h-354zM422 -25q-166 0 -269.5 88t-103.5 230q0 145 105 232t278 87h236v72q0 41 -29.5 65.5t-77.5 24.5q-45 0 -72.5 -22t-27.5 -58h-369q0 169 129.5 272t341.5 103q213 0 343 -105t130 -278v-686
h-368v57q-101 -82 -246 -82zM541 242q127 0 127 116v43h-133q-48 0 -77.5 -20.5t-29.5 -56.5t29 -59t84 -23z" />
    <glyph glyph-name="adieresis.ss01" horiz-adv-x="1120" 
d="M807 1116q-85 0 -142 56t-57 141q0 84 57 140t142 56t142 -56t57 -140q0 -85 -57 -141t-142 -56zM344 1116q-85 0 -142 56t-57 141q0 84 57 140t142 56t142 -56t57 -140q0 -85 -57 -141t-142 -56zM422 -25q-166 0 -269.5 88t-103.5 230q0 145 105 232t278 87h236v72
q0 41 -29.5 65.5t-77.5 24.5q-45 0 -72.5 -22t-27.5 -58h-369q0 169 129.5 272t341.5 103q213 0 343 -105t130 -278v-686h-368v57q-101 -82 -246 -82zM541 242q127 0 127 116v43h-133q-48 0 -77.5 -20.5t-29.5 -56.5t29 -59t84 -23z" />
    <glyph glyph-name="uni1EA1.ss01" horiz-adv-x="1120" 
d="M422 -25q-166 0 -269.5 88t-103.5 230q0 145 105 232t278 87h236v72q0 41 -29.5 65.5t-77.5 24.5q-45 0 -72.5 -22t-27.5 -58h-369q0 169 129.5 272t341.5 103q213 0 343 -105t130 -278v-686h-368v57q-101 -82 -246 -82zM541 242q127 0 127 116v43h-133
q-48 0 -77.5 -20.5t-29.5 -56.5t29 -59t84 -23zM575 -485q-89 0 -148.5 58.5t-59.5 147.5t59.5 148t148.5 59t149 -59t60 -148t-59.5 -147.5t-149.5 -58.5z" />
    </font>
</defs>
</svg>
